<?xml version="1.0" encoding="UTF-8"?>
<svg version="1.1" xmlns="http://www.w3.org/2000/svg" width="480" height="471">
<path d="M0 0 C1.75 0.125 1.75 0.125 4 1 C5.3540932 2.98600337 6.68457624 4.98817543 8 7 C9.05146555 7.95305251 10.13575908 8.87116209 11.25 9.75 C12.61125 10.86375 12.61125 10.86375 14 12 C14 12.66 14 13.32 14 14 C20.62171034 10.72973325 25.59553373 7.96734139 30 2 C30.66 2 31.32 2 32 2 C32.56267578 3.21236328 32.56267578 3.21236328 33.13671875 4.44921875 C36.98011995 12.54462606 36.98011995 12.54462606 43 19 C49.44547981 16.32313859 49.44547981 16.32313859 55.375 12.6875 C56.24125 12.130625 57.1075 11.57375 58 11 C58.99 11.33 59.98 11.66 61 12 C61.625 13.85546875 61.625 13.85546875 62 16.1875 C62.75626331 20.21876796 64.09011524 23.35385636 66 27 C66 27.99 66 28.98 66 30 C68.251385 29.54851905 70.50106998 29.08855496 72.75 28.625 C74.62945312 28.24214844 74.62945312 28.24214844 76.546875 27.8515625 C79.39480891 27.14924396 81.43916864 26.32655679 84 25 C84.99 25 85.98 25 87 25 C86.97679687 25.556875 86.95359375 26.11375 86.9296875 26.6875 C86.7992778 32.20196722 87.55945025 36.68797278 89 42 C89 43.32 89 44.64 89 46 C95.6 45.34 102.2 44.68 109 44 C108.67 50.93 108.34 57.86 108 65 C115.52775251 65.83749632 115.52775251 65.83749632 123.0625 66.5625 C124.47208984 66.68818359 124.47208984 66.68818359 125.91015625 66.81640625 C126.59980469 66.87699219 127.28945313 66.93757813 128 67 C127.5240677 69.57088431 127.09058142 71.80185313 126 74.1875 C124.51653792 78.35973711 124.32434247 82.60430602 124 87 C126.24916619 87.81487171 128.49926978 88.62696918 130.75 89.4375 C131.38421875 89.66759766 132.0184375 89.89769531 132.671875 90.13476562 C135.75412076 91.24244769 138.79836438 92.29661036 142 93 C141.03961359 95.58565573 140.08116588 97.8764867 138.5625 100.1875 C136.31269006 104.23715789 135.21879465 108.54837414 134 113 C134.70125 113.2475 135.4025 113.495 136.125 113.75 C139.37683961 115.16384331 142.06138082 117.02092994 145 119 C146.98507948 120.02930047 148.98114251 121.03863929 151 122 C150.62488281 122.4125 150.24976563 122.825 149.86328125 123.25 C147.04559281 126.42965849 144.39290555 129.67394998 142 133.1875 C141.566875 133.82042969 141.13375 134.45335937 140.6875 135.10546875 C139.76274883 137.02911303 139.76274883 137.02911303 140.734375 139.08203125 C143.91226189 143.89790305 148.20141521 146.98693513 153 150 C152.875 151.75 152.875 151.75 152 154 C150.00715862 155.3440093 148.00580329 156.67541292 146 158 C143.86646728 160.22985473 141.91563743 162.58167757 140 165 C141.56993785 170.02380113 144.60115742 174.0469983 148 178 C148.66 178.33 149.32 178.66 150 179 C149.796875 180.84765625 149.796875 180.84765625 149 183 C146.890625 184.30859375 146.890625 184.30859375 144.25 185.4375 C139.88843525 187.44956855 137.11135108 189.37009041 134 193 C136.07976307 198.69722331 138.03889368 203.33155327 142 208 C142 208.99 142 209.98 142 211 C141.34773438 211.10957031 140.69546875 211.21914062 140.0234375 211.33203125 C134.83767606 212.27281098 130.68074165 213.48838253 126 216 C125.01 216 124.02 216 123 216 C123.45148095 218.251385 123.91144504 220.50106998 124.375 222.75 C124.63023437 224.00296875 124.88546875 225.2559375 125.1484375 226.546875 C125.85075604 229.39480891 126.67344321 231.43916864 128 234 C128 234.99 128 235.98 128 237 C126.9275 236.938125 125.855 236.87625 124.75 236.8125 C118.95755888 236.78124582 113.53893263 238.44909886 108 240 C107.88618045 246.76594019 108.11978631 253.28837062 109 260 C107.906875 259.835 106.81375 259.67 105.6875 259.5 C100.46094841 258.83377888 95.2595992 258.91298457 90 259 C90.40992188 259.76183594 90.81984375 260.52367187 91.2421875 261.30859375 C95.31846016 269.11982436 99.07627747 276.95926929 98 286 C94.88921631 290.26928244 89.90648213 290.53593553 85.01953125 291.4921875 C66.98287597 294.163958 50.07046313 288.39513045 34.625 279.65625 C29.73469633 276.98186518 26.43592521 276.61171963 21 277 C21.061875 277.78375 21.12375 278.5675 21.1875 279.375 C21.125625 280.24125 21.06375 281.1075 21 282 C18 284 18 284 14 284 C13.34 284.99 12.68 285.98 12 287 C9.19438238 287.28056176 7.53421737 287.26710868 5 286 C4.67 286.66 4.34 287.32 4 288 C2.02 288 0.04 288 -2 288 C-2.33 287.01 -2.66 286.02 -3 285 C-3.99 285.66 -4.98 286.32 -6 287 C-8.5625 286.875 -8.5625 286.875 -11 286 C-12.3125 283.9375 -12.3125 283.9375 -13 282 C-14.65 282.33 -16.3 282.66 -18 283 C-19.5625 281.1875 -19.5625 281.1875 -21 279 C-20.67 278.01 -20.34 277.02 -20 276 C-26.70740349 277.24013623 -32.08024548 279.27640189 -38.125 282.375 C-50.43189207 288.35758336 -61.13102333 291.30547228 -74.875 291.4375 C-75.83825195 291.44789307 -76.80150391 291.45828613 -77.79394531 291.46899414 C-83.80100746 291.39367211 -89.60097115 290.84374626 -95 288 C-97.41077095 284.38384358 -97.38939188 283.28331067 -97 279 C-95.38750028 271.27626183 -91.97205367 264.76148942 -88 258 C-94.43255401 257.87913782 -100.61773055 258.17648136 -107 259 C-106.83628906 258.16210938 -106.67257813 257.32421875 -106.50390625 256.4609375 C-105.97012717 252.79482693 -105.90256975 249.32760615 -105.9375 245.625 C-105.94652344 244.37976563 -105.95554688 243.13453125 -105.96484375 241.8515625 C-105.97644531 240.91054687 -105.98804688 239.96953125 -106 239 C-112.15370839 237.176679 -117.59646678 236.7638041 -124 237 C-125.11417492 233.70204223 -124.88517711 231.96402969 -123.625 228.75 C-122.06599964 224.45740998 -121.41282583 220.54108418 -121 216 C-126.83712355 213.27600901 -132.76559832 211.58960332 -139 210 C-138.40845022 207.16297554 -137.86537002 205.81151803 -136.125 203.375 C-133.44421903 199.11728904 -132.26166176 194.83637007 -131 190 C-132.051875 189.62875 -132.051875 189.62875 -133.125 189.25 C-136 188 -136 188 -138.9375 186 C-141.93353271 184.04340721 -144.57680379 182.97805606 -148 182 C-146.67688973 179.10688328 -145.19694261 176.91418867 -143.0625 174.5625 C-139.57079641 170.59158009 -139.57079641 170.59158009 -137 166 C-137.9716622 162.11335121 -141.13481873 159.65029267 -144 157 C-144.66 156.67 -145.32 156.34 -146 156 C-146 155.34 -146 154.68 -146 154 C-147.65 153.34 -149.3 152.68 -151 152 C-151 151.34 -151 150.68 -151 150 C-149.4609375 148.95703125 -149.4609375 148.95703125 -147.375 147.8125 C-142.9880379 145.20530188 -140.06863012 142.03338883 -137 138 C-138.88591096 131.96508491 -142.75601839 126.49598774 -148 123 C-148 122.34 -148 121.68 -148 121 C-147.33613281 120.68546875 -146.67226562 120.3709375 -145.98828125 120.046875 C-141.20745346 117.72974387 -137.08157992 115.44383306 -133 112 C-132.34 112 -131.68 112 -131 112 C-133.41570844 104.41414318 -133.41570844 104.41414318 -137.25 97.5 C-139 95 -139 95 -139 92 C-138.3709375 91.90203125 -137.741875 91.8040625 -137.09375 91.703125 C-131.05761911 90.64862021 -126.35559155 88.97532864 -121 86 C-121.29754029 78.87391001 -122.71125344 73.3327492 -126 67 C-123.05610905 66.18789215 -120.22756436 65.76810016 -117.1875 65.5 C-113.09945413 65.11844905 -109.0586189 64.61761592 -105 64 C-104.87066398 57.24578549 -105.23284249 50.71262821 -106 44 C-99.4 44 -92.8 44 -86 44 C-84.20920839 37.39624226 -84.20920839 37.39624226 -83.9375 31.125 C-84.09516129 27.19032258 -84.09516129 27.19032258 -83 25 C-80.28269597 25.47952424 -77.79238178 26.07381981 -75.1875 27 C-71.42304529 28.1810054 -67.92072774 28.59440748 -64 29 C-60.81535981 23.06830376 -58.34656975 17.6104333 -57 11 C-53.92681528 12.15244427 -51.03074924 13.48494008 -48.125 15 C-44.47955033 16.8573774 -40.9641259 18.00896852 -37 19 C-36.731875 18.2575 -36.46375 17.515 -36.1875 16.75 C-35 14 -35 14 -33.5625 12.1875 C-31.30153633 9.02215086 -30.28357234 5.66734955 -29 2 C-26.10688328 3.32311027 -23.91418867 4.80305739 -21.5625 6.9375 C-17.59158009 10.42920359 -17.59158009 10.42920359 -13 13 C-10.86747263 12.39238047 -10.86747263 12.39238047 -9 11 C-8.29875 10.71125 -7.5975 10.4225 -6.875 10.125 C-4.50925373 8.70555224 -4.07745703 7.51406641 -3 5 C-2.01120795 3.32665961 -1.01351664 1.65848177 0 0 Z M-3 15.5625 C-7.849003 20.52570054 -9 24.01806011 -9 31 C-9.99 30.67 -10.98 30.34 -12 30 C-12.185625 28.80375 -12.37125 27.6075 -12.5625 26.375 C-13.66144121 21.04417113 -17.27427174 19.05693346 -21.58984375 16.15234375 C-24.05309615 14.63185872 -24.05309615 14.63185872 -27 16 C-30.23213925 19.80930698 -32.87620924 23.82187206 -33.1640625 28.88671875 C-32.90832944 31.30927115 -32.55486259 33.62922348 -32 36 C-30.71416016 35.80083984 -30.71416016 35.80083984 -29.40234375 35.59765625 C-28.25894531 35.42105469 -27.11554688 35.24445312 -25.9375 35.0625 C-24.81214844 34.88847656 -23.68679687 34.71445312 -22.52734375 34.53515625 C-20.78130859 34.27025391 -20.78130859 34.27025391 -19 34 C-17.9790625 33.81824219 -16.958125 33.63648437 -15.90625 33.44921875 C-10.12673133 32.7845741 -4.37602374 32.7658312 1.4375 32.75 C2.68273437 32.74605225 3.92796875 32.74210449 5.2109375 32.73803711 C13.47036622 32.79014199 21.08077953 33.48171238 29.09375 35.44140625 C31.8918858 35.97921999 33.36473729 35.97530556 36 35 C37.2403166 29.75250668 37.3609999 26.95602322 34.6875 22.1875 C33.81587795 20.77642132 32.92189322 19.37876066 32 18 C31.34 17.01 30.68 16.02 30 15 C25.01483 16.55786563 20.68300827 19.31699173 17 23 C15.9619203 25.3332984 15.542689 27.48389644 15 30 C14.01 30.33 13.02 30.66 12 31 C12.144375 29.845 12.28875 28.69 12.4375 27.5 C12.47334495 23.4638587 11.29285911 21.66467611 8.625 18.6875 C7.99851563 18.05199219 7.37203125 17.41648437 6.7265625 16.76171875 C5 15 5 15 3 12 C0.03272343 12 -0.90190373 13.52996924 -3 15.5625 Z M-52 22 C-52.87279862 23.86639981 -53.72251027 25.74360611 -54.5625 27.625 C-55.03816406 28.66914063 -55.51382813 29.71328125 -56.00390625 30.7890625 C-57.11803435 34.3804872 -56.902009 36.391964 -56 40 C-55.814375 40.78375 -55.62875 41.5675 -55.4375 42.375 C-55.293125 42.91125 -55.14875 43.4475 -55 44 C-55.99 44.33 -56.98 44.66 -58 45 C-58.268125 44.401875 -58.53625 43.80375 -58.8125 43.1875 C-61.06276649 39.04227226 -63.50909653 37.39716997 -68 36 C-70.66581858 35.56395533 -73.30982531 35.27357709 -76 35 C-78.67800849 44.01611868 -78.67800849 44.01611868 -77.1015625 53.05859375 C-76.14185003 54.75000189 -75.07873281 56.38190079 -74 58 C-73.32195312 57.56429687 -72.64390625 57.12859375 -71.9453125 56.6796875 C-68.97013746 54.77590513 -65.98557116 52.88743004 -63 51 C-62.18660156 50.47535156 -61.37320313 49.95070313 -60.53515625 49.41015625 C-51.65744624 43.84127659 -42.11276296 39.72414961 -32 37 C-32.598125 36.443125 -33.19625 35.88625 -33.8125 35.3125 C-36 33 -36 33 -37.25390625 30.5625 C-39.46396474 27.3191032 -41.59104647 26.33525905 -45.125 24.6875 C-46.20007813 24.17574219 -47.27515625 23.66398437 -48.3828125 23.13671875 C-50.6773064 21.93360405 -50.6773064 21.93360405 -52 22 Z M43 28 C40.73728094 30.3429167 39 32.61973217 39 36 C38.01 36.33 37.02 36.66 36 37 C38.54115002 37.95972174 41.08289457 38.91781494 43.625 39.875 C44.33785156 40.14441406 45.05070313 40.41382812 45.78515625 40.69140625 C49.83148122 42.2134184 53.88737656 43.66372172 58 45 C60.44241217 38.10377739 60.30267419 32.76726857 57.4375 26 C56.963125 25.01 56.48875 24.02 56 23 C51.08518824 23 47.10211571 25.41519714 43 28 Z M62.625 41.5625 C62.08875 42.366875 61.5525 43.17125 61 44 C60.01 44.66 59.02 45.32 58 46 C59.32064453 46.79664063 59.32064453 46.79664063 60.66796875 47.609375 C61.84125682 48.32273415 63.01442769 49.0362861 64.1875 49.75 C64.76564453 50.09804688 65.34378906 50.44609375 65.93945312 50.8046875 C68.70594412 52.4927159 71.27896652 54.22566329 73.80078125 56.265625 C75.79493051 58.20641241 75.79493051 58.20641241 78 58 C82.40852519 50.78604969 82.39177159 45.80398366 80.44921875 37.703125 C80.22685547 36.86007813 80.22685547 36.86007813 80 36 C73.51372554 35.50105581 67.13009131 36.70174359 62.625 41.5625 Z M-54 58 C-54.98742187 58.54398438 -55.97484375 59.08796875 -56.9921875 59.6484375 C-80.86432232 73.83332921 -97.98047365 98.90921198 -104.78295898 125.54516602 C-106.49053384 132.65494403 -107.73135179 139.67641606 -108 147 C-108.03996094 147.75667969 -108.07992187 148.51335937 -108.12109375 149.29296875 C-108.89588828 176.50192965 -99.37448743 203.87556139 -81 224 C-79.8087613 225.392644 -78.62077162 226.7880804 -77.4375 228.1875 C-76.633125 229.115625 -75.82875 230.04375 -75 231 C-74.01 230.67 -73.02 230.34 -72 230 C-70.73459978 227.28761678 -70.73459978 227.28761678 -69.6875 224 C-66.24189419 214.6373866 -62.00688175 206.86968456 -53 202 C-48.39054976 199.98783699 -43.64732804 198.33108687 -38.90185547 196.67285156 C-36.30747831 195.75499489 -33.74557276 194.76421387 -31.1875 193.75 C-30.43855469 193.45609375 -29.68960938 193.1621875 -28.91796875 192.859375 C-26.74305993 191.94858614 -26.74305993 191.94858614 -24 190 C-24 189.01 -24 188.02 -24 187 C-23.34 187 -22.68 187 -22 187 C-20.37047949 183.74095898 -20.69037958 180.20304634 -20.625 176.625 C-20.58761719 175.85671875 -20.55023438 175.0884375 -20.51171875 174.296875 C-20.47729413 172.08604943 -20.51093979 170.15788069 -21 168 C-23.34737919 165.42416654 -23.34737919 165.42416654 -26 164 C-26.28875 164.7425 -26.5775 165.485 -26.875 166.25 C-27.82302644 168.56739797 -28.84845911 170.77917115 -30 173 C-33.90604537 171.73317448 -35.90166803 170.56716435 -38 167 C-38.6875 164.75 -38.6875 164.75 -39 163 C-38.34 163 -37.68 163 -37 163 C-35.3553326 160.53673288 -35.3553326 160.53673288 -34 158 C-34.763125 157.401875 -35.52625 156.80375 -36.3125 156.1875 C-41.80418811 150.71136908 -42.30429233 141.37450132 -43 134 C-43.4640625 134.99 -43.4640625 134.99 -43.9375 136 C-46.45557014 138.44176498 -47.28107372 138.27142406 -50.6875 138.25 C-52.1259798 138.18576167 -53.56416999 138.10836453 -55 138 C-55.33 137.01 -55.66 136.02 -56 135 C-54.625 133 -54.625 133 -52 131 C-49.46871278 130.82228977 -47.01819731 130.94239776 -44.484375 131.05859375 C-41.11438994 130.97911297 -38.81593209 129.77848342 -36 128 C-36.33 126.35 -36.66 124.7 -37 123 C-38.6065676 123.25620684 -40.2102483 123.53055871 -41.8125 123.8125 C-42.70582031 123.96332031 -43.59914063 124.11414063 -44.51953125 124.26953125 C-47.05561167 124.80138053 -47.05561167 124.80138053 -48.59375 126.59375 C-49.0578125 127.0578125 -49.521875 127.521875 -50 128 C-53.6875 127.6875 -53.6875 127.6875 -57 127 C-57.33 126.01 -57.66 125.02 -58 124 C-56.14255768 121.62660147 -55.02152312 121.0059532 -52.0625 120.1875 C-49 120 -49 120 -47.0625 121 C-43.92489799 122.52126158 -41.33155911 121.64068444 -38 121 C-38 119.02 -38 117.04 -38 115 C-39.4370809 114.94577053 -40.87475462 114.90710277 -42.3125 114.875 C-43.11300781 114.85179688 -43.91351563 114.82859375 -44.73828125 114.8046875 C-47.28388576 114.84182678 -47.28388576 114.84182678 -50 117 C-55.44444444 116.55555556 -55.44444444 116.55555556 -58 114 C-57.625 111.875 -57.625 111.875 -57 110 C-54.36 109.67 -51.72 109.34 -49 109 C-48.01 110.485 -48.01 110.485 -47 112 C-44.79274927 112.36362818 -44.79274927 112.36362818 -42.375 112.1875 C-41.55773437 112.16042969 -40.74046875 112.13335937 -39.8984375 112.10546875 C-38.95871094 112.05326172 -38.95871094 112.05326172 -38 112 C-37.67 110.35 -37.34 108.7 -37 107 C-41.22313052 104.68408972 -44.26093513 105.08515989 -48.81640625 105.90625 C-51.42750094 106.01835424 -52.78501275 105.32597876 -55 104 C-55 102.35 -55 100.7 -55 99 C-48.25 97.875 -48.25 97.875 -46 99 C-45.67 99.99 -45.34 100.98 -45 102 C-42.89415562 102.80563638 -42.89415562 102.80563638 -40.4375 103.1875 C-39.61121094 103.34605469 -38.78492188 103.50460938 -37.93359375 103.66796875 C-37.29550781 103.77753906 -36.65742188 103.88710937 -36 104 C-35.34 102.35 -34.68 100.7 -34 99 C-35.24176695 98.29773859 -36.49385599 97.61370891 -37.75 96.9375 C-38.44609375 96.55464844 -39.1421875 96.17179687 -39.859375 95.77734375 C-42.40455206 94.8530915 -43.45119527 95.31056921 -46 96 C-48.75 94.3125 -48.75 94.3125 -51 92 C-51 90.68 -51 89.36 -51 88 C-43.25 87.875 -43.25 87.875 -41 89 C-40.773125 89.78375 -40.54625 90.5675 -40.3125 91.375 C-38.38022594 95.23954812 -36.00219421 95.59182056 -32 97 C-31.01 95.35 -30.02 93.7 -29 92 C-33.46909725 87.74890749 -35.79868612 86.83479225 -42 86 C-43.5 84.1875 -43.5 84.1875 -44 82 C-43.625 79.75 -43.625 79.75 -43 78 C-39.6875 78.0625 -39.6875 78.0625 -36 79 C-34.91698965 81.29598193 -33.92203709 83.63477442 -33 86 C-31.1020563 87.7012656 -29.24742383 88.75143121 -27 90 C-26.34 89.67 -25.68 89.34 -25 89 C-25 88.34 -25 87.68 -25 87 C-24.34 86.67 -23.68 86.34 -23 86 C-26.33562767 81.48709197 -28.33289301 79.31793186 -34 78 C-35.125 72.25 -35.125 72.25 -34 70 C-31.69 70.66 -29.38 71.32 -27 72 C-26.9175 73.051875 -26.835 74.10375 -26.75 75.1875 C-25.94679238 79.27047209 -24.80665291 81.0122727 -22 84 C-20.35 83.67 -18.7 83.34 -17 83 C-17.52268466 80.23723823 -18.10869587 77.6739124 -19 75 C-21.50447516 73.78130071 -21.50447516 73.78130071 -24 73 C-25.125 66.25 -25.125 66.25 -24 64 C-19.25 64.75 -19.25 64.75 -17 67 C-17.03272898 68.96373904 -17.06800817 70.9275576 -17.12890625 72.890625 C-16.93667639 76.03620446 -15.59762468 78.33729221 -14 81 C-12.35 80.67 -10.7 80.34 -9 80 C-9.06006078 78.54052295 -9.1488689 77.08220728 -9.25 75.625 C-9.29640625 74.81289062 -9.3428125 74.00078125 -9.390625 73.1640625 C-9.7922092 70.81161073 -9.7922092 70.81161073 -12.046875 69.7109375 C-12.69140625 69.47632812 -13.3359375 69.24171875 -14 69 C-14.25 63.375 -14.25 63.375 -12 60 C-10.125 60.25 -10.125 60.25 -8 61 C-6.17997096 63.42670538 -5.95216712 64.59820384 -6.3125 67.625 C-7 70 -7 70 -8 72 C-7.39239518 74.3494053 -6.72870472 76.68529088 -6 79 C-4.02 79.33 -2.04 79.66 0 80 C-0.11398665 78.37419034 -0.24155659 76.74932843 -0.375 75.125 C-0.47941406 73.76761719 -0.47941406 73.76761719 -0.5859375 72.3828125 C-0.79568132 69.82058097 -0.79568132 69.82058097 -3 68 C-3.34490322 63.94738713 -3.30163882 62.45245824 -1 59 C2.875 59.875 2.875 59.875 4 61 C4.14115161 63.67058851 4.04247107 66.32432238 4 69 C3.34 69.33 2.68 69.66 2 70 C2 73.3 2 76.6 2 80 C3.98 80 5.96 80 8 80 C8.99 75.545 8.99 75.545 10 71 C9.34 71 8.68 71 8 71 C7.77724319 67.73290013 7.67336599 65.60427292 9.25 62.6875 C11.17986311 60.82656057 12.37565253 60.36197896 15 60 C15.99 63.465 15.99 63.465 17 67 C17.7425 66.525625 18.485 66.05125 19.25 65.5625 C21.61050015 64.22130673 23.36648477 63.487688 26 63 C26.125 70.75 26.125 70.75 25 73 C24.195625 73.28875 23.39125 73.5775 22.5625 73.875 C19.92099685 74.77964912 19.92099685 74.77964912 18.625 76.875 C17.90193091 79.3334349 18.14821374 80.61499846 19 83 C20.32 83.33 21.64 83.66 23 84 C25.80483244 81.01421063 26.9401743 79.44121457 27.5 75.3125 C28 72 28 72 29.8125 70.5625 C32 70 32 70 36 70 C36.25 75.625 36.25 75.625 34 79 C33.030625 79.309375 32.06125 79.61875 31.0625 79.9375 C27.7186011 81.09762819 26.78336633 82.02772279 25 85 C25.99 86.98 25.99 86.98 27 89 C30.37546272 88.3972388 32.52323213 87.39420894 35 85 C36.28008262 81.91222828 36.28008262 81.91222828 37 79 C40.465 78.505 40.465 78.505 44 78 C44.83927091 80.34995854 45.06091226 81.73350886 44.5 84.1875 C42.20377448 86.96210583 39.48079792 86.5280274 36 87 C33.1125127 88.92393551 33.1125127 88.92393551 31 91 C31.99 93.475 31.99 93.475 33 96 C36.37462715 95.45276317 38.08235 94.9451 41 93 C41.36162029 91.67405895 41.69728039 90.34061543 42 89 C44.40545638 87.79727181 45.94996953 87.89928528 48.625 87.9375 C49.85089844 87.95103516 49.85089844 87.95103516 51.1015625 87.96484375 C51.72804688 87.97644531 52.35453125 87.98804688 53 88 C50.375 93.75 50.375 93.75 47 96 C45.8553125 95.7215625 45.8553125 95.7215625 44.6875 95.4375 C41.01565695 94.83975811 39.14299471 96.1726775 36 98 C36.33 99.98 36.66 101.96 37 104 C38.48206495 103.745504 39.96068615 103.47088238 41.4375 103.1875 C42.26121094 103.03667969 43.08492187 102.88585937 43.93359375 102.73046875 C44.61550781 102.48941406 45.29742187 102.24835938 46 102 C46.33 101.01 46.66 100.02 47 99 C52.625 97.875 52.625 97.875 56 99 C56 100.98 56 102.96 56 105 C48.61704423 106.12621359 48.61704423 106.12621359 45.25 105.4375 C42.47391084 104.89770489 41.34731019 105.52206395 39 107 C39 108.65 39 110.3 39 112 C41.97 112 44.94 112 48 112 C48 111.01 48 110.02 48 109 C55.42857143 108.71428571 55.42857143 108.71428571 59 111 C58.75 112.875 58.75 112.875 58 115 C55.54728991 116.83953256 54.37478679 117.04357986 51.3125 116.6875 C49 116 49 116 48 115 C45.32941149 114.85884839 42.67567762 114.95752893 40 115 C40 116.65 40 118.3 40 120 C41.47831221 120.19412181 42.95769316 120.38012131 44.4375 120.5625 C45.26121094 120.66691406 46.08492187 120.77132812 46.93359375 120.87890625 C47.61550781 120.91886719 48.29742187 120.95882812 49 121 C49.33 120.67 49.66 120.34 50 120 C54.03160191 119.73706944 55.55892734 119.70595156 59 122 C59.6875 124.625 59.6875 124.625 60 127 C56.7 127 53.4 127 50 127 C49.67 126.01 49.34 125.02 49 124 C45.7 123.34 42.4 122.68 39 122 C38.67 123.98 38.34 125.96 38 128 C42.23575746 131.38860597 45.54409323 131.16107399 50.6953125 130.71484375 C53 131 53 131 54.8046875 132.81640625 C56 135 56 135 56 138 C51.545 138.99 51.545 138.99 47 140 C46.34 138.02 45.68 136.04 45 134 C44.67 134 44.34 134 44 134 C43.8453125 135.8871875 43.8453125 135.8871875 43.6875 137.8125 C41.99285714 152.50714286 41.99285714 152.50714286 37.3125 157.1875 C36.549375 157.785625 35.78625 158.38375 35 159 C35.680625 159.721875 36.36125 160.44375 37.0625 161.1875 C39 164 39 164 39.0625 166.5625 C37.68661893 169.71893305 35.79653096 171.0639401 33 173 C31.76302083 171.50260417 30.52604167 170.00520833 29.2890625 168.5078125 C28.24749008 167.28948839 27.13339903 166.13339903 26 165 C22.80980045 167.44328775 22.05351865 168.62930467 21.46875 172.6796875 C21.45817581 174.07812382 21.46921532 175.47686258 21.5 176.875 C21.48453125 177.56980469 21.4690625 178.26460937 21.453125 178.98046875 C21.49207883 184.15159008 22.55171399 187.16978358 26 191 C30.76574916 194.24650626 36.23816171 195.80074458 41.71411133 197.43139648 C52.52970847 200.68237786 60.48674776 203.56435566 66.19140625 213.8203125 C69.47647361 220.05738893 72.25029141 226.51372421 75 233 C95.28968809 216.59557133 107.30212063 192.68116226 111 167 C112.96842411 132.9964917 105.44521445 103.57656333 82.62841797 77.77587891 C76.39575341 70.97881714 69.26865415 64.23768525 61 60 C60.01 60 59.02 60 58 60 C58 59.34 58 58.68 58 58 C45.0353293 51.30291243 33.40823955 46.80394814 19 44 C18.07574219 43.81050781 17.15148437 43.62101562 16.19921875 43.42578125 C-8.73856608 40.10683309 -32.29325799 45.98312853 -54 58 Z M-97 52 C-98.01941402 62.53537026 -98.01941402 62.53537026 -94 71.9375 C-92.41487787 73.71404964 -92.41487787 73.71404964 -91 75 C-90.28457031 74.28457031 -89.56914062 73.56914063 -88.83203125 72.83203125 C-84.5546875 68.5546875 -80.27734375 64.27734375 -76 60 C-76.7425 59.05125 -77.485 58.1025 -78.25 57.125 C-78.66765625 56.59132813 -79.0853125 56.05765625 -79.515625 55.5078125 C-82.17037706 52.81114331 -84.23178714 52.04975472 -88.015625 51.8046875 C-89.61664063 51.83949219 -89.61664063 51.83949219 -91.25 51.875 C-92.86648437 51.90207031 -92.86648437 51.90207031 -94.515625 51.9296875 C-95.33546875 51.95289063 -96.1553125 51.97609375 -97 52 Z M79 59 C83.69766975 64.66129431 88.74723372 69.85228904 94 75 C98.51535982 69.5504278 101.42738597 65.96404106 101.1875 58.6875 C101.16042969 57.61886719 101.13335937 56.55023438 101.10546875 55.44921875 C101.05326172 54.23685547 101.05326172 54.23685547 101 53 C91.87299075 52.30778301 85.57901538 52.13494047 79 59 Z M16 69 C16 69.66 16 70.32 16 71 C14.68 71.33 13.36 71.66 12 72 C11.67 74.64 11.34 77.28 11 80 C14.6909351 79.65714799 14.6909351 79.65714799 17.375 77.3125 C18.19215562 74.28902419 17.68693763 72.02252556 17 69 C16.67 69 16.34 69 16 69 Z M-114 73 C-115.78815886 76.57631772 -114.12395633 80.27311246 -113.15625 83.99609375 C-111.54619073 88.17898422 -109.11809533 91.10006056 -105 93 C-101.12708128 91.70902709 -100.59765096 90.19088359 -98.5 86.75 C-97.9121875 85.79609375 -97.324375 84.8421875 -96.71875 83.859375 C-96.1515625 82.91578125 -95.584375 81.9721875 -95 81 C-94.4328125 80.05640625 -93.865625 79.1128125 -93.28125 78.140625 C-92.64703125 77.08101563 -92.64703125 77.08101563 -92 76 C-99.76178165 70.60719886 -104.92655211 69.96301951 -114 73 Z M98 75 C97.01 75 96.02 75 95 75 C96.81393786 78.92362646 99.16138522 82.50126784 101.5 86.125 C101.90347656 86.75792969 102.30695313 87.39085938 102.72265625 88.04296875 C104.34674142 90.56753679 105.87090028 92.87090028 108 95 C108 94.01 108 93.02 108 92 C108.763125 91.7525 109.52625 91.505 110.3125 91.25 C113.38811246 89.81948258 114.25458608 88.87023622 116 86 C116.78628026 82.96731113 116.78628026 82.96731113 117.1875 79.75 C117.42533203 78.13351563 117.42533203 78.13351563 117.66796875 76.484375 C117.83232422 75.25460938 117.83232422 75.25460938 118 74 C107.6543876 71.31273996 107.6543876 71.31273996 98 75 Z M-122.3125 95 C-123.63701172 95.556875 -123.63701172 95.556875 -124.98828125 96.125 C-125.98408203 96.558125 -125.98408203 96.558125 -127 97 C-126.47919466 102.20805343 -125.01664656 106.71617276 -122 111 C-118.27031848 113.39460793 -118.27031848 113.39460793 -114 114 C-113.67 114.99 -113.34 115.98 -113 117 C-112.84144531 116.39414063 -112.68289062 115.78828125 -112.51953125 115.1640625 C-110.91534164 109.40316057 -108.8149946 104.30111088 -105.98828125 99.03125 C-104.8541655 97.07674617 -104.8541655 97.07674617 -105 95 C-111.67597746 92.9055757 -115.8260045 92.23242859 -122.3125 95 Z M109 96 C109.70062483 100.56736441 111.31270207 104.5699505 113.0625 108.8125 C113.34416016 109.50537109 113.62582031 110.19824219 113.91601562 110.91210938 C114.60674973 112.60967624 115.30283728 114.30506312 116 116 C122.36229738 113.56818856 125.52407014 110.85908295 128.5625 104.6875 C129.4012577 102.8031365 130.22294716 100.9106358 131 99 C124.81861337 92.81861337 116.37313089 92.0298526 109 96 Z M-10.0625 110.5625 C-13.75199343 113.88716313 -17.48514391 117.14789978 -21.2734375 120.359375 C-26.00344164 124.85394907 -26.6157133 128.42362609 -27.1875 134.75 C-27.26935547 135.54277344 -27.35121094 136.33554688 -27.43554688 137.15234375 C-27.63505003 139.10043334 -27.81905938 141.05009871 -28 143 C-28.32613281 142.4225 -28.65226562 141.845 -28.98828125 141.25 C-29.42527344 140.5075 -29.86226563 139.765 -30.3125 139 C-30.74175781 138.2575 -31.17101562 137.515 -31.61328125 136.75 C-32.29970703 135.88375 -32.29970703 135.88375 -33 135 C-33.99 135 -34.98 135 -36 135 C-36.04254356 136.99954746 -36.04080783 139.00041636 -36 141 C-35.67 141.33 -35.34 141.66 -35 142 C-34.7746669 144.0279979 -34.55232815 146.05674874 -34.37890625 148.08984375 C-34.13777773 150.2328948 -34.13777773 150.2328948 -32 152 C-30.07864971 152.13699478 -30.07864971 152.13699478 -28 151.8125 C-27.29875 151.73644531 -26.5975 151.66039062 -25.875 151.58203125 C-23.6075929 151.09410365 -23.6075929 151.09410365 -22 148 C-21.01 147.34 -20.02 146.68 -19 146 C-19.639375 145.236875 -20.27875 144.47375 -20.9375 143.6875 C-23 141 -23 141 -24 138 C-23.01 137.67 -22.02 137.34 -21 137 C-21 136.34 -21 135.68 -21 135 C-21.66 135 -22.32 135 -23 135 C-23 134.34 -23 133.68 -23 133 C-23.66 133 -24.32 133 -25 133 C-18.28512206 126.10363888 -18.28512206 126.10363888 -13.125 125.6875 C-8.26071121 125.8037422 -5.41068439 127.58931561 -2 131 C-1.505 129.515 -1.505 129.515 -1 128 C-2.0209375 127.2265625 -2.0209375 127.2265625 -3.0625 126.4375 C-5 124 -5 124 -4.75 120.25 C-4.5025 119.1775 -4.255 118.105 -4 117 C-3.34 117 -2.68 117 -2 117 C-2 116.01 -2 115.02 -2 114 C-2.66 113.67 -3.32 113.34 -4 113 C-4.625 109.9375 -4.625 109.9375 -5 107 C-6.99729532 107 -8.68112286 109.31381088 -10.0625 110.5625 Z M7 107 C5.87483915 108.83284443 5.87483915 108.83284443 5 111 C5.33 111.99 5.66 112.98 6 114 C5.01 114 4.02 114 3 114 C3 114.99 3 115.98 3 117 C3.7734375 117.6496875 3.7734375 117.6496875 4.5625 118.3125 C6 120 6 120 5.875 123 C5.00772029 125.97353044 4.39189062 127.1280856 2 129 C2.66 129.66 3.32 130.32 4 131 C4.33 130.01 4.66 129.02 5 128 C9.04724896 125.66976575 13.43395457 125.2583527 18 126 C21.75212276 128.01502889 23.63644095 129.45466142 26 133 C25.34 133 24.68 133 24 133 C24 133.66 24 134.32 24 135 C23.01 135.33 22.02 135.66 21 136 C22.32 136.66 23.64 137.32 25 138 C24.505 138.763125 24.01 139.52625 23.5 140.3125 C21.75631692 142.92363751 21.75631692 142.92363751 22 146 C21.01 146.495 21.01 146.495 20 147 C21.65 147.33 23.3 147.66 25 148 C25.33 149.32 25.66 150.64 26 152 C26.66 151.34 27.32 150.68 28 150 C28.66 150.66 29.32 151.32 30 152 C32.60280568 151.67958603 32.60280568 151.67958603 35 151 C35.185625 149.1128125 35.185625 149.1128125 35.375 147.1875 C35.69868059 143.89674737 36.06604999 142.90092502 38 140 C37.6878236 137.35367713 37.6878236 137.35367713 37 135 C33.59402245 136.13532585 33.46547428 136.48116822 31.9375 139.5 C30.20357634 142.89821183 30.20357634 142.89821183 28 144 C28.09539062 143.38253906 28.19078125 142.76507813 28.2890625 142.12890625 C29.21043422 135.09005488 29.6099727 128.82840383 25.46875 122.75390625 C20.38487713 116.74285165 14.30543616 111.68752109 8 107 C7.67 107 7.34 107 7 107 Z M-134 122 C-135.15987009 123.86804656 -135.15987009 123.86804656 -135 126 C-132.55403645 130.64250319 -129.11070133 134.9021883 -124.25 137.0625 C-121.08334067 138.13858033 -121.08334067 138.13858033 -118 138 C-116.37563401 131.03843148 -115.12276571 124.05909078 -114 117 C-122.01946665 115.15946667 -127.50344012 116.83755509 -134 122 Z M117 117 C117.12117188 117.65742187 117.24234375 118.31484375 117.3671875 118.9921875 C121.41514023 141.97210374 121.65048517 163.09388686 117 186 C121.84725167 187.25124284 125.49919558 187.7193316 130.11328125 185.5078125 C132.82124362 183.75870062 135.43670316 181.95414836 138 180 C136.13977166 174.99572375 133.79631451 170.79631451 130 167 C127.6667016 165.9619203 125.51610356 165.542689 123 165 C122.505 163.515 122.505 163.515 122 162 C122.556875 162.08121094 123.11375 162.16242188 123.6875 162.24609375 C127.46614693 162.55885338 130.03121708 162.60979229 133.30859375 160.546875 C136.35779289 157.88372125 138.74787782 155.37818327 141 152 C135.22391819 144.52478775 135.22391819 144.52478775 126.75 141.3125 C125.5125 141.209375 124.275 141.10625 123 141 C122.67 140.01 122.34 139.02 122 138 C122.62648438 137.87882812 123.25296875 137.75765625 123.8984375 137.6328125 C124.71570313 137.46523437 125.53296875 137.29765625 126.375 137.125 C127.59316406 136.88136719 127.59316406 136.88136719 128.8359375 136.6328125 C131.18673923 136.13341068 131.18673923 136.13341068 133 134 C133 133.01 133 132.02 133 131 C133.66 131 134.32 131 135 131 C136.77195874 128.71356188 136.77195874 128.71356188 138 126 C136.54092179 121.62276536 133.73279957 120.49644131 129.85546875 118.23046875 C125.52506197 116.36442479 121.62131336 116.46904059 117 117 Z M-17 133 C-15.515 133.99 -15.515 133.99 -14 135 C-13.01 134.67 -12.02 134.34 -11 134 C-12.06645115 132.70366379 -12.06645115 132.70366379 -14.5625 132.9375 C-15.366875 132.958125 -16.17125 132.97875 -17 133 Z M-2 133 C-2 138.94 -2 144.88 -2 151 C-4 149 -4 149 -4.1953125 146.3984375 C-4.17210937 145.40070313 -4.14890625 144.40296875 -4.125 143.375 C-4.10695312 142.37210938 -4.08890625 141.36921875 -4.0703125 140.3359375 C-4.04710937 139.56507813 -4.02390625 138.79421875 -4 138 C-4.99 138.33 -5.98 138.66 -7 139 C-6.34 140.98 -5.68 142.96 -5 145 C-5.515625 145.12375 -6.03125 145.2475 -6.5625 145.375 C-9.72702351 146.18641628 -12.86124985 147.0945913 -16 148 C-15.34 148.33 -14.68 148.66 -14 149 C-13.375 152.0625 -13.375 152.0625 -13 155 C-20.50769231 154.38461538 -20.50769231 154.38461538 -23 152.4375 C-23.33 151.963125 -23.66 151.48875 -24 151 C-23.35413285 156.48987074 -20.86175319 160.29782565 -16.8125 164 C-13.64798847 166.25031931 -10.43416555 168.41129911 -7.18359375 170.53515625 C-5 172 -5 172 -2.92578125 173.703125 C-0.93382252 175.34099457 -0.93382252 175.34099457 2.25 174.6875 C3.1575 174.460625 4.065 174.23375 5 174 C5 173.34 5 172.68 5 172 C2.36 171.67 -0.28 171.34 -3 171 C-3.103125 170.38125 -3.20625 169.7625 -3.3125 169.125 C-3.87525373 166.63473516 -3.87525373 166.63473516 -7 165 C-5.68 163.68 -4.36 162.36 -3 161 C-3.639375 160.731875 -4.27875 160.46375 -4.9375 160.1875 C-7 159 -7 159 -8 156 C-7.44570312 156.28875 -6.89140625 156.5775 -6.3203125 156.875 C-5.59585938 157.24625 -4.87140625 157.6175 -4.125 158 C-3.40570313 158.37125 -2.68640625 158.7425 -1.9453125 159.125 C-0.05151023 160.13673746 -0.05151023 160.13673746 2 160 C2 159.34 2 158.68 2 158 C2.66 158 3.32 158 4 158 C4.66 156.68 5.32 155.36 6 154 C7.99954746 153.95745644 10.00041636 153.95919217 12 154 C13 155 13 155 13.0625 158.0625 C13.041875 159.031875 13.02125 160.00125 13 161 C11.35 161.66 9.7 162.32 8 163 C8.66 163.33 9.32 163.66 10 164 C9.67 164.66 9.34 165.32 9 166 C6.6859378 166.73075648 4.35171131 167.40138258 2 168 C3.485 168.495 3.485 168.495 5 169 C5.99 168.505 5.99 168.505 7 168 C7 168.66 7 169.32 7 170 C14.64792727 167.371025 20.06360375 163.79970503 24.28515625 156.8671875 C25.29381421 154.82391694 25.29381421 154.82391694 24 152 C24 152.66 24 153.32 24 154 C20.04 154.495 20.04 154.495 16 155 C15.375 153.1875 15.375 153.1875 15 151 C15.66 150.01 16.32 149.02 17 148 C11.52225234 146.41678933 11.52225234 146.41678933 6 145 C5.87625 145.804375 5.7525 146.60875 5.625 147.4375 C5.315625 148.7059375 5.315625 148.7059375 5 150 C4.34 150.33 3.68 150.66 3 151 C3 145.06 3 139.12 3 133 C1.35 133 -0.3 133 -2 133 Z M12.1875 134.5 C11.795625 134.995 11.40375 135.49 11 136 C13.64 135.34 16.28 134.68 19 134 C19 133.67 19 133.34 19 133 C15.28263359 132.65099442 15.28263359 132.65099442 12.1875 134.5 Z M-10 136 C-9.34 136.66 -8.68 137.32 -8 138 C-8 137.34 -8 136.68 -8 136 C-8.66 136 -9.32 136 -10 136 Z M9 137 C8.01 137.66 7.02 138.32 6 139 C6.33 139.99 6.66 140.98 7 142 C7.99 141.01 8.98 140.02 10 139 C9.67 138.34 9.34 137.68 9 137 Z M-131 143 C-131 143.66 -131 144.32 -131 145 C-131.598125 145.268125 -132.19625 145.53625 -132.8125 145.8125 C-134.97224808 146.98493467 -136.35790256 148.19369282 -138 150 C-135.87923731 154.59667702 -133.24214466 158.16194547 -129 161 C-125.21108691 161.87593152 -121.92648788 161.95152484 -118 162 C-118 155.07 -118 148.14 -118 141 C-126.40371521 140.32917961 -126.40371521 140.32917961 -131 143 Z M9 156 C8.67 157.32 8.34 158.64 8 160 C8.99 160 9.98 160 11 160 C11 158.68 11 157.36 11 156 C10.34 156 9.68 156 9 156 Z M-30 159 C-29.34 159.66 -28.68 160.32 -28 161 C-28 160.34 -28 159.68 -28 159 C-28.66 159 -29.32 159 -30 159 Z M-128 167 C-131.06946626 170.42285876 -133.57151401 174.10251159 -136 178 C-128.04426313 184.79961791 -128.04426313 184.79961791 -118 186 C-116.68 185.67 -115.36 185.34 -114 185 C-115.32 178.07 -116.64 171.14 -118 164 C-121.59910207 164 -124.90856524 165.27072868 -128 167 Z M-3 167 C-2.67 167.66 -2.34 168.32 -2 169 C-1.34 168.67 -0.68 168.34 0 168 C-0.99 167.67 -1.98 167.34 -3 167 Z M-14 174 C-14 177.96 -14 181.92 -14 186 C-10.69432511 186.85387105 -10.69432511 186.85387105 -7 187 C-5.64567325 185.68799596 -4.31266518 184.35368596 -3 183 C0.5 182.5 0.5 182.5 4 183 C4.639375 183.680625 5.27875 184.36125 5.9375 185.0625 C7.77384951 187.22047356 7.77384951 187.22047356 10.01953125 187.04296875 C12.02587553 186.77943842 14.01571908 186.39685618 16 186 C16 182.04 16 178.08 16 174 C11.1718459 175.56338853 11.1718459 175.56338853 8.8125 178.125 C4.65905002 180.89396665 0.85522977 180.79491723 -4 180 C-7.375 178.125 -7.375 178.125 -10 176 C-11.32 175.34 -12.64 174.68 -14 174 Z M116 187 C115.59007812 188.09699219 115.18015625 189.19398438 114.7578125 190.32421875 C114.21357114 191.77865686 113.66929867 193.23308333 113.125 194.6875 C112.85558594 195.40873047 112.58617187 196.12996094 112.30859375 196.87304688 C110.91331397 200.59946483 109.49797083 204.31324655 108 208 C113.32677138 210.07874005 117.9262418 211.12933608 123.4453125 209.1015625 C125.66215728 208.12170321 127.83929015 207.09750342 130 206 C129.4038127 201.23050159 127.7647425 196.92494694 125 193 C122.75079224 191.28799142 120.57225319 190.23849227 118 189 C117.34 188.34 116.68 187.68 116 187 Z M-123 193 C-125.07562534 196.52707695 -126.6009466 200.15932938 -128 204 C-123.67744911 207.42723411 -118.97256762 210.20738844 -113.3125 209.8125 C-110.8409224 208.94410787 -108.40813838 208.0320593 -106 207 C-108.05764921 200.54646385 -110.42383482 194.2638737 -113 188 C-116.97515488 188 -120.13406864 190.41353804 -123 193 Z M-17 196 C-14.28450846 198.30671915 -14.28450846 198.30671915 -11.8125 197.625 C-11.214375 197.41875 -10.61625 197.2125 -10 197 C-12.31 196.67 -14.62 196.34 -17 196 Z M12 197 C15.62326739 198.2077558 16.64146369 197.54311128 20 196 C16.37673261 194.7922442 15.35853631 195.45688872 12 197 Z M-37.4375 201.9375 C-38.67790039 202.37352539 -38.67790039 202.37352539 -39.94335938 202.81835938 C-41.96710085 203.53193296 -43.98427033 204.26409869 -46 205 C-42.36383344 206.9789756 -39.11574371 207.5251065 -35 208 C-34.67 209.32 -34.34 210.64 -34 212 C-29.37826513 212.94074152 -29.37826513 212.94074152 -24.8125 212.3125 C-24.214375 212.209375 -23.61625 212.10625 -23 212 C-21.62437146 213.28965176 -20.29233607 214.62689293 -19 216 C-17.68 216.33 -16.36 216.66 -15 217 C-14.01 212.38 -13.02 207.76 -12 203 C-13.340625 202.525625 -14.68125 202.05125 -16.0625 201.5625 C-16.81660156 201.29566406 -17.57070312 201.02882812 -18.34765625 200.75390625 C-25.75713682 198.64782414 -30.38026036 199.33866155 -37.4375 201.9375 Z M17.76953125 201.34375 C16 202 16 202 14 202 C14.4452885 207.27315333 15.08373163 212.01770224 17 217 C18.32 217 19.64 217 21 217 C22.77409808 215.07977297 22.77409808 215.07977297 24 213 C25.2375 213.20625 26.475 213.4125 27.75 213.625 C30.33855845 213.94056631 31.84509193 214.04484181 34.375 213.3125 C36.30881685 211.75057101 37.08358378 210.29104056 38 208 C39.27875 208.04125 40.5575 208.0825 41.875 208.125 C44.01871492 208.24212873 44.01871492 208.24212873 46 208 C46.66 207.34 47.32 206.68 48 206 C33.14615456 199.20810067 33.14615456 199.20810067 17.76953125 201.34375 Z M-52 208 C-52.99 209.485 -52.99 209.485 -54 211 C-47.18466014 215.51683309 -40.48232518 218.79969236 -32.75 221.375 C-32.00637207 221.62523926 -31.26274414 221.87547852 -30.49658203 222.13330078 C-25.66342482 223.6771217 -21.0497604 224.50873372 -16 225 C-16 223.35 -16 221.7 -16 220 C-21.94 220.495 -21.94 220.495 -28 221 C-28.66 219.68 -29.32 218.36 -30 217 C-33.85640566 215.23946698 -35.99461429 214.89506601 -40 216 C-43.12658623 213.91560918 -43.4231517 213.1536966 -45 210 C-47.95377498 207.63019987 -47.95377498 207.63019987 -52 208 Z M52 208 C47.70309161 210.33732425 47.70309161 210.33732425 45.125 214.25 C45.08375 214.8275 45.0425 215.405 45 216 C49.43090471 214.79157144 51.98112756 213.48331435 55 210 C54.01 209.34 53.02 208.68 52 208 Z M-7 210 C-9.93400139 219.05064835 -10.08510815 226.60669009 -9 236 C-8.92394531 236.99128906 -8.84789062 237.98257813 -8.76953125 239.00390625 C-8.41755094 244.30929849 -8.41755094 244.30929849 -6 249 C-5.34 249 -4.68 249 -4 249 C-2.3253361 243.55797443 -2.73737137 237.7937819 -2.70483398 232.15551758 C-2.69329197 230.76185979 -2.67280467 229.36824698 -2.64331055 227.97485352 C-2.60056951 225.95360843 -2.5870578 223.93181242 -2.57421875 221.91015625 C-2.55963623 220.70496338 -2.54505371 219.49977051 -2.5300293 218.25805664 C-3.0838272 214.41887063 -4.356111 212.7708009 -7 210 Z M107 210 C102.80873429 215.89434486 98.77176621 221.82801893 95 228 C101.66967207 232.15281468 106.32269473 232.45112232 114 231 C114.99 230.67 115.98 230.34 117 230 C116.54592018 221.55231701 116.54592018 221.55231701 113 214 C109.95202627 211.63297941 109.95202627 211.63297941 107 210 Z M-105 210 C-108.931741 212.15132998 -111.35596058 213.47873449 -113.1328125 217.67578125 C-114.18010909 221.51417408 -115 225.01189126 -115 229 C-109.34135388 230.92634762 -102.78709694 232.78490225 -97.09375 230.1015625 C-95.25622982 228.91927035 -95.25622982 228.91927035 -93 227 C-94.68146827 223.38309168 -96.79892367 220.13434498 -99 216.8125 C-100.051875 215.21341797 -100.051875 215.21341797 -101.125 213.58203125 C-102.7432947 210.93628755 -102.7432947 210.93628755 -105 210 Z M6 212 C6 212.99 6 213.98 6 215 C5.34 215 4.68 215 4 215 C3.95054614 219.35992871 3.91425512 223.71970862 3.89013672 228.07983398 C3.88008179 229.56293583 3.86643596 231.04601788 3.84912109 232.52905273 C3.82484994 234.66134531 3.81351201 236.79337569 3.8046875 238.92578125 C3.79421387 240.20880127 3.78374023 241.49182129 3.77294922 242.8137207 C3.7473944 246.15642744 3.7473944 246.15642744 6 249 C11.88727638 242.29011788 11.33904358 231.33006454 11.203125 222.8125 C10.90744266 218.7184368 10.0567842 214.96294076 9 211 C7.7763932 210.9254644 7.7763932 210.9254644 6 212 Z M31 218 C30.38634543 220.04264378 30.38634543 220.04264378 30 222 C31.79379098 221.55005243 33.58498928 221.08975857 35.375 220.625 C36.87160156 220.24214844 36.87160156 220.24214844 38.3984375 219.8515625 C41.12541015 219.17595681 41.12541015 219.17595681 43 217 C36.64890723 215.61301849 36.64890723 215.61301849 31 218 Z M17 221 C17 222.32 17 223.64 17 225 C23.25869911 224.38971362 23.25869911 224.38971362 29 222 C27.56496445 221.63597631 26.12683494 221.28413409 24.6875 220.9375 C23.48673828 220.64166016 23.48673828 220.64166016 22.26171875 220.33984375 C19.84042821 219.80114446 19.84042821 219.80114446 17 221 Z M-91 229 C-94.97192965 232.35384876 -97.74689441 235.13467563 -98.46484375 240.42578125 C-98.44023307 243.64274867 -98.30747909 246.79831292 -98 250 C-95.77191841 250.10853983 -93.54230068 250.18583307 -91.3125 250.25 C-90.07113281 250.29640625 -88.82976562 250.3428125 -87.55078125 250.390625 C-83.3979272 249.93376537 -81.84130969 249.01526743 -79 246 C-77.69935653 244.13828194 -77.69935653 244.13828194 -78 242 C-79.99392326 239.39602539 -79.99392326 239.39602539 -82.75 236.9375 C-83.65234375 236.08027344 -84.5546875 235.22304687 -85.484375 234.33984375 C-86.31453125 233.56769531 -87.1446875 232.79554688 -88 232 C-89.00535607 231.00538491 -90.00829833 230.00823003 -91 229 Z M93 229 C91.90975054 230.18335616 90.8533843 231.39799732 89.8125 232.625 C86.68528584 236.25618669 83.42929317 239.65434813 80 243 C80.91143551 246.06573761 81.58832231 247.6837838 84.15625 249.65625 C87.60325205 251.28505317 90.01945877 251.30244064 93.8125 251.1875 C94.97394531 251.16042969 96.13539063 251.13335937 97.33203125 251.10546875 C98.21246094 251.07066406 99.09289062 251.03585938 100 251 C100.95708063 240.9996532 100.95708063 240.9996532 97.0625 232.125 C95.51155939 230.29857576 95.51155939 230.29857576 94 229 C93.67 229 93.34 229 93 229 Z M-13 251 C-13.33218192 254.00259517 -13.33218192 254.00259517 -11.5 255.6875 C-11.005 256.120625 -10.51 256.55375 -10 257 C-10.57344937 254.13275314 -10.8614515 253.1385485 -13 251 Z M13 251 C11.3553326 253.46326712 11.3553326 253.46326712 10 256 C11.99983534 255.20882096 11.99983534 255.20882096 14 254 C14.33 253.01 14.66 252.02 15 251 C14.34 251 13.68 251 13 251 Z M18 254 C16.23513282 255.76975869 16.23513282 255.76975869 15 258 C16.09780929 261.29342787 16.49340515 261.61965536 19.25390625 263.41796875 C19.93557861 263.86390381 20.61725098 264.30983887 21.31958008 264.76928711 C22.42982544 265.47130249 22.42982544 265.47130249 23.5625 266.1875 C24.32393311 266.6729126 25.08536621 267.1583252 25.86987305 267.65844727 C40.95074636 277.11182691 56.7412681 285.21432873 74.875 285.125 C75.65230469 285.12886719 76.42960937 285.13273437 77.23046875 285.13671875 C81.92358006 285.12883117 86.37126895 284.77762682 91 284 C91.38567451 278.85767324 90.61607422 274.44899246 88 270 C82.46478756 263.57728514 75.64918468 258.57326222 67.0234375 257.82958984 C59.56234189 257.49029719 52.11445554 257.80654579 44.67578125 258.4140625 C34.99667687 259.1714175 28.37932748 259.63168754 20 254 C19.34 254 18.68 254 18 254 Z M-22.375 255.9375 C-29.28033656 258.71539573 -35.85387011 259.41296666 -43.21875 258.53125 C-56.48032789 256.94956862 -70.25321768 255.95188545 -81.375 264.375 C-86.1023474 269.1023474 -88.54755155 273.46398197 -90 280 C-90 281.32 -90 282.64 -90 284 C-64.56761747 287.53068065 -44.19929194 280.66803105 -23 266.6875 C-22.21592773 266.171875 -21.43185547 265.65625 -20.62402344 265.125 C-16.29108978 262.39915853 -16.29108978 262.39915853 -14 258 C-14.66 258 -15.32 258 -16 258 C-16.495 256.02 -16.495 256.02 -17 254 C-18.88222361 254 -20.68500906 255.18846616 -22.375 255.9375 Z M-10 265 C-12.74832154 266.28184562 -12.74832154 266.28184562 -15 268 C-14.34 270.31 -13.68 272.62 -13 275 C-11.02 275 -9.04 275 -7 275 C-7 276.65 -7 278.3 -7 280 C-6.34 279.34 -5.68 278.68 -5 278 C-2.375 277.375 -2.375 277.375 0 277 C0 278.65 0 280.3 0 282 C0.66 280.68 1.32 279.36 2 278 C2.928125 278.061875 3.85625 278.12375 4.8125 278.1875 C7.97790291 278.3314563 7.97790291 278.3314563 9.6875 276.5 C10.120625 276.005 10.55375 275.51 11 275 C11.99 275 12.98 275 14 275 C14.433125 274.071875 14.433125 274.071875 14.875 273.125 C16 271 16 271 18 269 C14.55930376 266.70620251 13.27709699 266 9 266 C7.9275 266.53625 6.855 267.0725 5.75 267.625 C1.0944306 269.33204211 -1.48942683 268.76070619 -6 267 C-6.721875 266.566875 -7.44375 266.13375 -8.1875 265.6875 C-8.785625 265.460625 -9.38375 265.23375 -10 265 Z " fill="#000000" transform="translate(238,0)"/>
<path d="M0 0 C-0.0625 1.75 -0.0625 1.75 -1 4 C-3.24401207 5.51378819 -5.61454361 6.71114955 -8 8 C-7.36770514 33.01631843 -7.36770514 33.01631843 -6 58 C-3.69 58.99 -1.38 59.98 1 61 C0.67 62.65 0.34 64.3 0 66 C-8.25 66 -16.5 66 -25 66 C-25.33 64.68 -25.66 63.36 -26 62 C-22.91190305 60.23537317 -21.76687864 60 -18 60 C-18.11934238 55.60735635 -18.24364738 51.21488785 -18.37231445 46.82250977 C-18.41530564 45.33198748 -18.45700136 43.8414272 -18.49731445 42.35083008 C-18.70979119 34.52591516 -18.95778024 26.76847841 -20 19 C-22.17745187 23.26540055 -24.34180636 27.5373314 -26.5 31.8125 C-26.82024139 32.44515778 -27.14048279 33.07781555 -27.47042847 33.72964478 C-31.9057559 42.51119988 -36.07582468 51.30905788 -39.42578125 60.57543945 C-40.25390625 62.73046875 -40.25390625 62.73046875 -42 66 C-44.60913086 66.7043457 -44.60913086 66.7043457 -47 67 C-47.23944336 66.39486572 -47.47888672 65.78973145 -47.72558594 65.16625977 C-50.15513829 59.05533586 -52.66175413 52.98284967 -55.25 46.9375 C-55.63406006 46.0400708 -56.01812012 45.1426416 -56.41381836 44.21801758 C-60.07781768 35.71672844 -63.98772608 27.34159401 -68 19 C-68.93271437 21.79814312 -69.18774988 23.7720011 -69.31640625 26.68359375 C-69.35862305 27.60615967 -69.40083984 28.52872559 -69.44433594 29.47924805 C-69.48333008 30.45547119 -69.52232422 31.43169434 -69.5625 32.4375 C-69.6027832 33.42854736 -69.64306641 34.41959473 -69.68457031 35.44067383 C-69.7611418 37.4049898 -69.83462247 39.36942905 -69.90478516 41.33398438 C-69.96222262 42.94223346 -70.02328476 44.55036702 -70.09130859 46.15820312 C-70.16047444 47.83404304 -70.20663691 49.51079401 -70.25 51.1875 C-70.27578125 52.06792969 -70.3015625 52.94835937 -70.328125 53.85546875 C-69.91710744 56.54176211 -69.12711228 57.36066524 -67 59 C-64.40084462 60.19027984 -64.40084462 60.19027984 -62 61 C-62.33 62.65 -62.66 64.3 -63 66 C-70.59 66 -78.18 66 -86 66 C-85.67 64.35 -85.34 62.7 -85 61 C-84.01 60.62875 -83.02 60.2575 -82 59.875 C-78.86129224 58.39486699 -78.86129224 58.39486699 -78.51025391 56.05883789 C-78.43170166 54.80961548 -78.43170166 54.80961548 -78.3515625 53.53515625 C-78.28743164 52.54644531 -78.22330078 51.55773437 -78.15722656 50.5390625 C-77.86805051 44.0299071 -77.61829341 37.5223201 -77.44238281 31.0090332 C-77.3744599 28.54288998 -77.29683697 26.07716809 -77.21875 23.61132812 C-77.17389434 22.03387069 -77.12960285 20.45639708 -77.0859375 18.87890625 C-77.06203949 18.14660294 -77.03814148 17.41429962 -77.01351929 16.6598053 C-76.80777656 11.7187914 -76.80777656 11.7187914 -78 7 C-80.97763043 4.73674754 -80.97763043 4.73674754 -84 3 C-83.67 2.01 -83.34 1.02 -83 0 C-76.73 0 -70.46 0 -64 0 C-57.86339333 11.79191085 -52.51841569 23.83324946 -47.3059082 36.05322266 C-47.02865906 36.70135422 -46.75140991 37.34948578 -46.46575928 38.01725769 C-45.70135259 39.8059456 -44.94053915 41.59616786 -44.17993164 43.38647461 C-43.24095552 45.87688135 -43.24095552 45.87688135 -42 47 C-41.73896484 46.41734375 -41.47792969 45.8346875 -41.20898438 45.234375 C-35.72530273 33.01853778 -30.08354712 20.92800287 -24 9 C-23.72510742 8.28561768 -23.45021484 7.57123535 -23.16699219 6.83520508 C-22.27514045 4.65650388 -21.44172278 2.86359528 -20 1 C-16.95277434 -0.01891608 -15.0917457 -0.41967479 -12 -0.5625 C-11.2884375 -0.63017578 -10.576875 -0.69785156 -9.84375 -0.76757812 C-6.38815373 -1.05446998 -3.29688185 -1.15906003 0 0 Z " fill="#000000" transform="translate(217,332)"/>
<path d="M0 0 C5.74299174 12.5881738 11.29325956 25.24827571 16.66113281 38.00097656 C22.16573878 53.12237487 22.16573878 53.12237487 33 64 C33 65.32 33 66.64 33 68 C24.75 68 16.5 68 8 68 C7.67 66.68 7.34 65.36 7 64 C8.98 62.68 10.96 61.36 13 60 C12.45859375 58.62714844 12.45859375 58.62714844 11.90625 57.2265625 C11.4421875 56.03804688 10.978125 54.84953125 10.5 53.625 C10.0359375 52.44164062 9.571875 51.25828125 9.09375 50.0390625 C8 47 8 47 8 45 C0.08 45 -7.84 45 -16 45 C-18.47952145 53.00414646 -18.47952145 53.00414646 -20 61 C-19.030625 61.2475 -18.06125 61.495 -17.0625 61.75 C-15.5465625 62.36875 -15.5465625 62.36875 -14 63 C-13.125 65.125 -13.125 65.125 -13 67 C-17.58135278 67.96449532 -21.87714362 68.03107627 -26.52734375 67.9609375 C-28.76705039 67.99631991 -30.80059418 68.23011712 -33 68.625 C-33.99 68.74875 -34.98 68.8725 -36 69 C-36.66 68.34 -37.32 67.68 -38 67 C-36.93257852 64.18588883 -36.2923559 63.15948307 -33.59936523 61.69042969 C-30.50137393 59.67573148 -29.6531333 58.08755909 -28.09765625 54.765625 C-27.60289795 53.72414307 -27.10813965 52.68266113 -26.59838867 51.60961914 C-26.09154541 50.50094482 -25.58470215 49.39227051 -25.0625 48.25 C-24.53180908 47.1148999 -24.00111816 45.9797998 -23.4543457 44.81030273 C-19.3166488 35.8850722 -15.56534534 26.88410853 -12.12988281 17.66503906 C-11.50593918 15.99532157 -10.87840323 14.32694214 -10.24731445 12.65991211 C-9.63749764 11.04705893 -9.03663124 9.43078476 -8.44604492 7.81079102 C-5.49656987 0 -5.49656987 0 0 0 Z M-5 19 C-7.64 25.6 -10.28 32.2 -13 39 C-9.38639696 39.90340076 -6.56631036 40.1648261 -2.875 40.1875 C-1.29332031 40.20876953 -1.29332031 40.20876953 0.3203125 40.23046875 C3.15270059 40.27657564 3.15270059 40.27657564 5 38 C3.71887169 35.01619074 2.42336097 32.03884652 1.125 29.0625 C0.76019531 28.21236328 0.39539063 27.36222656 0.01953125 26.48632812 C-0.33496094 25.67744141 -0.68945312 24.86855469 -1.0546875 24.03515625 C-1.37937012 23.2862915 -1.70405273 22.53742676 -2.03857422 21.76586914 C-2.87847692 19.8225529 -2.87847692 19.8225529 -5 19 Z " fill="#000000" transform="translate(447,330)"/>
<path d="M0 0 C2.79013253 1.01395423 3.84320409 1.72842279 5.34936523 4.3371582 C5.74841064 5.31515381 6.14745605 6.29314941 6.55859375 7.30078125 C7.25130371 8.96451782 7.25130371 8.96451782 7.95800781 10.66186523 C8.44624023 11.86657471 8.93447266 13.07128418 9.4375 14.3125 C9.95859599 15.56082068 10.48174192 16.80828742 11.00683594 18.05493164 C12.11137923 20.67886282 13.21145048 23.30456396 14.30615234 25.93261719 C14.5850531 26.60208374 14.86395386 27.27155029 15.15130615 27.96130371 C15.71756407 29.32154441 16.28335928 30.68197782 16.84869385 32.04260254 C18.51632122 36.05013492 20.2080731 40.04591078 21.93240356 44.02938843 C22.47279475 45.29055669 23.00397402 46.55571638 23.52536011 47.82485962 C26.76010024 55.69130461 29.15102944 60.33884598 37 64 C36.505 65.98 36.505 65.98 36 68 C27.75 68 19.5 68 11 68 C10.67 66.68 10.34 65.36 10 64 C11.98 62.68 13.96 61.36 16 60 C15.566875 58.989375 15.13375 57.97875 14.6875 56.9375 C13.125 53.29166667 11.5625 49.64583333 10 46 C2.74 46 -4.52 46 -12 46 C-15.64050513 52.96753581 -15.64050513 52.96753581 -17 60 C-15.02 61.32 -13.04 62.64 -11 64 C-11.33 65.32 -11.66 66.64 -12 68 C-13.44632813 67.98259766 -13.44632813 67.98259766 -14.921875 67.96484375 C-16.18515625 67.95582031 -17.4484375 67.94679688 -18.75 67.9375 C-20.62945312 67.92009766 -20.62945312 67.92009766 -22.546875 67.90234375 C-25.31246929 67.98055626 -27.38308754 68.25317811 -30 69 C-32.1875 68.75 -32.1875 68.75 -34 68 C-34.33 67.01 -34.66 66.02 -35 65 C-30.25 61 -30.25 61 -28 61 C-27.71334473 60.27055176 -27.42668945 59.54110352 -27.13134766 58.78955078 C-26.11382832 56.28066516 -25.03293473 53.82483879 -23.8984375 51.3671875 C-23.49439697 50.48772461 -23.09035645 49.60826172 -22.67407227 48.70214844 C-22.03103149 47.30270996 -22.03103149 47.30270996 -21.375 45.875 C-12.80873115 27.89365769 -12.80873115 27.89365769 -6.3125 9.125 C-5.17349818 4.83875632 -3.42907491 2.78033101 0 0 Z M-2 18 C-4.64 24.6 -7.28 31.2 -10 38 C-5.89441282 40.05279359 -4.19793315 40.2216942 0.25 40.125 C1.86648437 40.09792969 1.86648437 40.09792969 3.515625 40.0703125 C4.33546875 40.04710937 5.1553125 40.02390625 6 40 C7.23980045 37.06891108 6.99509316 35.98688718 5.85546875 32.94140625 C5.30503906 31.82636719 4.75460938 30.71132813 4.1875 29.5625 C2.3248058 25.74419812 0.52065529 21.96853941 -1 18 C-1.33 18 -1.66 18 -2 18 Z " fill="#000000" transform="translate(88,330)"/>
<path d="M0 0 C2.48946795 0.97199127 3.75822046 1.5958021 5.14990234 3.92236328 C5.45879395 4.71368652 5.76768555 5.50500977 6.0859375 6.3203125 C6.45275635 7.23337158 6.8195752 8.14643066 7.19750977 9.0871582 C7.78036743 10.59088989 7.78036743 10.59088989 8.375 12.125 C9.24293074 14.28903169 10.11421669 16.45171976 10.98828125 18.61328125 C11.46217285 19.78842285 11.93606445 20.96356445 12.42431641 22.17431641 C15.32620456 29.28128871 18.46412021 36.28965147 21.5625 43.3125 C22.48756348 45.41002835 23.4122944 47.50769776 24.33552551 49.60603333 C25.14218691 51.43894417 25.95102777 53.2708954 26.76000977 55.1027832 C28 58 28 58 29 61 C32.00847418 62.22520264 32.00847418 62.22520264 35 63 C35.33 64.65 35.66 66.3 36 68 C27.42 68 18.84 68 10 68 C10.33 66.35 10.66 64.7 11 63 C13.5625 61.6875 13.5625 61.6875 16 61 C15.71125 60.22914063 15.4225 59.45828125 15.125 58.6640625 C14.75375 57.66117187 14.3825 56.65828125 14 55.625 C13.62875 54.62726563 13.2575 53.62953125 12.875 52.6015625 C12 50 12 50 12 48 C11.01 47.505 11.01 47.505 10 47 C10 46.67 10 46.34 10 46 C2.41 46 -5.18 46 -13 46 C-17.66766062 55.02885728 -17.66766062 55.02885728 -16 61 C-13.53884453 62.84434349 -13.53884453 62.84434349 -11 64 C-11.33 65.32 -11.66 66.64 -12 68 C-19.26 68 -26.52 68 -34 68 C-34 66.68 -34 65.36 -34 64 C-32.49759766 62.87851562 -32.49759766 62.87851562 -30.96484375 61.734375 C-24.93490971 56.90313533 -22.53145201 49.16896262 -19.5625 42.25 C-18.92149649 40.80008409 -18.27893098 39.35085769 -17.63476562 37.90234375 C-14.44295936 31.64681187 -14.44295936 31.64681187 -13 25 C-12.34 25 -11.68 25 -11 25 C-10.89300781 24.35289062 -10.78601563 23.70578125 -10.67578125 23.0390625 C-9.78779999 19.04571326 -8.51666765 15.24047019 -7.1875 11.375 C-6.93935547 10.611875 -6.69121094 9.84875 -6.43554688 9.0625 C-5.01268612 4.93511767 -4.03489442 2.18812062 0 0 Z M-2 19 C-6.74052379 28.72629644 -6.74052379 28.72629644 -10 39 C-6.53777385 40.06723961 -3.35960734 40.10173486 0.25 40.0625 C1.86648438 40.04896484 1.86648438 40.04896484 3.515625 40.03515625 C4.74539063 40.01775391 4.74539063 40.01775391 6 40 C7.17169756 36.48490731 6.852231 36.06894013 5.3125 32.875 C4.94253906 32.08996094 4.57257813 31.30492187 4.19140625 30.49609375 C3.79824219 29.67238281 3.40507812 28.84867187 3 28 C2.24505042 26.31470852 1.49479501 24.62730373 0.75 22.9375 C0.41484375 22.18339844 0.0796875 21.42929687 -0.265625 20.65234375 C-0.50796875 20.10707031 -0.7503125 19.56179688 -1 19 C-1.33 19 -1.66 19 -2 19 Z " fill="#000000" transform="translate(318,330)"/>
<path d="M0 0 C0.67289063 -0.00322266 1.34578125 -0.00644531 2.0390625 -0.00976562 C7.38473828 0.04699348 12.83667748 0.29637262 16.89453125 4.078125 C18.24910546 6.8159923 18.5063765 9.01962527 18.6875 12.0625 C18.75324219 13.04734375 18.81898438 14.0321875 18.88671875 15.046875 C18.94279297 16.16835938 18.94279297 16.16835938 19 17.3125 C17.35 17.6425 15.7 17.9725 14 18.3125 C13.55269531 17.68601562 13.10539062 17.05953125 12.64453125 16.4140625 C12.03996094 15.59679687 11.43539062 14.77953125 10.8125 13.9375 C10.22082031 13.12539063 9.62914062 12.31328125 9.01953125 11.4765625 C6.31416905 8.57758637 3.82543596 7.57870941 -0.0625 7.01171875 C-3.35084014 6.9918296 -5.85201889 7.26317296 -9 8.3125 C-11.48807651 10.80057651 -11.59626717 12.72212592 -11.6640625 16.1796875 C-10.0943137 21.2213513 -5.78366847 23.55967295 -1.3828125 25.92578125 C1.24008835 27.2886611 3.87418379 28.6245931 6.51953125 29.94335938 C12.70684581 33.17658014 19.38484713 37.34641002 21.66357422 44.3527832 C22.81213403 51.04326913 21.70262078 55.75249897 18 61.3125 C13.30658371 66.13628897 7.09807148 68.39398843 0.45703125 68.7109375 C-1.0911457 68.71877637 -2.6394794 68.71085656 -4.1875 68.6875 C-4.96802734 68.69910156 -5.74855469 68.71070313 -6.55273438 68.72265625 C-12.14372262 68.69420338 -15.24396988 67.45607898 -19.6875 64 C-22.89259971 59.87915752 -23.24092261 55.37187478 -23 50.3125 C-20.875 49.875 -20.875 49.875 -18 50.3125 C-16.61328125 51.73046875 -16.61328125 51.73046875 -15.1875 53.5625 C-11.61127436 58.07165407 -7.66423275 60.70638631 -1.921875 61.65625 C2.74980513 61.87022008 6.08938711 60.79240085 10 58.3125 C11.57455739 55.16338521 11.34799118 52.79241184 11 49.3125 C7.12202237 42.41831755 -0.14090631 39.71322712 -7 36.3125 C-8.12535156 35.74917969 -9.25070313 35.18585938 -10.41015625 34.60546875 C-11.26480469 34.17878906 -12.11945313 33.75210938 -13 33.3125 C-13 32.6525 -13 31.9925 -13 31.3125 C-13.5775 31.065 -14.155 30.8175 -14.75 30.5625 C-18.64725567 28.39735796 -20.56702504 26.25374992 -22.4375 22.1875 C-23.1974404 16.952355 -22.16883473 13.09693318 -20 8.3125 C-14.80410397 1.52896907 -8.2129151 -0.19666942 0 0 Z " fill="#000000" transform="translate(252,330.6875)"/>
<path d="M0 0 C2.39273523 4.88117987 2.18689491 9.67349504 2 15 C0.68 15.33 -0.64 15.66 -2 16 C-2.51949219 15.30132812 -3.03898437 14.60265625 -3.57421875 13.8828125 C-4.27160156 12.97273438 -4.96898437 12.06265625 -5.6875 11.125 C-6.37199219 10.22007812 -7.05648438 9.31515625 -7.76171875 8.3828125 C-11.07894049 4.8513897 -13.7355623 4.09031698 -18.5 3.75 C-21.83820644 3.98844332 -24.05875058 4.44286795 -27 6 C-28.49498913 8.98997825 -28.11577446 11.70042775 -28 15 C-27.34319588 18.06805352 -27.34319588 18.06805352 -25.17456055 19.06982422 C-24.45695557 19.37678223 -23.73935059 19.68374023 -23 20 C1.61103463 32.1787225 1.61103463 32.1787225 5 41 C5.74851927 46.89094386 5.49233022 52.0431442 2 57 C-2.79004772 61.92014778 -6.92272753 64.76422888 -13.92578125 65.30078125 C-15.38789747 65.32017227 -16.85029681 65.32353127 -18.3125 65.3125 C-19.44872803 65.30512817 -19.44872803 65.30512817 -20.60791016 65.29760742 C-26.01598959 65.18384523 -30.23794482 64.76199201 -35 62 C-36.9375 59.4375 -36.9375 59.4375 -38 57 C-38.33 56.34 -38.66 55.68 -39 55 C-39.13415472 52.3276379 -39.04318541 49.67749512 -39 47 C-36.75 46.6875 -36.75 46.6875 -34 47 C-30 51.10810811 -30 51.10810811 -30 54 C-28.67661368 54.68620031 -27.34050052 55.34786461 -26 56 C-25.2575 56.37125 -24.515 56.7425 -23.75 57.125 C-18.74717417 58.71680822 -14.59114468 58.51036716 -9.6875 56.9375 C-6.08305114 54.33894384 -5.41361081 52.16229848 -4 48 C-4.99 47.505 -4.99 47.505 -6 47 C-6.26111572 46.22615967 -6.52223145 45.45231934 -6.79125977 44.6550293 C-8.3636638 41.20120303 -10.05453305 40.36302641 -13.33984375 38.51953125 C-14.40267578 37.91302734 -15.46550781 37.30652344 -16.56054688 36.68164062 C-17.67494141 36.06482422 -18.78933594 35.44800781 -19.9375 34.8125 C-22.13432192 33.56937674 -24.33094557 32.32590303 -26.52734375 31.08203125 C-27.50437256 30.53780518 -28.48140137 29.9935791 -29.48803711 29.43286133 C-35.17394768 26.18953262 -37.17523659 23.23137291 -39 17 C-39.43183184 11.01324035 -37.94569228 6.58553428 -34 2 C-25.60253479 -4.4730461 -9.20838656 -6.30282769 0 0 Z " fill="#000000" transform="translate(39,334)"/>
<path d="M0 0 C18.48 0 36.96 0 56 0 C56 1.65 56 3.3 56 5 C48.08 5.495 48.08 5.495 40 6 C40.66 7.65 41.32 9.3 42 11 C42.62845264 16.3637702 42.95539632 22.020578 40.4375 26.9375 C35.27200716 33.42747818 30.1332421 35.76433737 22 37 C22.59663481 39.52282636 23.20205141 42.0430122 23.8125 44.5625 C23.97814453 45.26697266 24.14378906 45.97144531 24.31445312 46.69726562 C25.45916942 51.38412291 26.98821013 55.61326048 29 60 C33.99911924 59.52389341 36.97832683 57.96837781 41 55 C42.65 56.65 44.3 58.3 46 60 C45.05828332 62.56831821 44.38027893 63.77420939 42 65.1875 C35.62667029 66.91361013 28.36942673 67.95982361 22 66 C15.10503279 61.36372895 13.69412826 52.47959769 11.56591797 44.96972656 C10.7594957 42.16290393 9.87517921 39.39060639 8.9375 36.625 C8.65777344 35.77164063 8.37804687 34.91828125 8.08984375 34.0390625 C6.76676466 31.56362421 5.58331009 30.97746868 3 30 C3 29.01 3 28.02 3 27 C7.72934255 25.03905309 11.02097126 24.68478486 16 26 C17.9375 27.9375 17.9375 27.9375 19 30 C19 30.66 19 31.32 19 32 C25.63682494 29.29843789 25.63682494 29.29843789 30 24 C31.6378501 17.48728897 30.80141364 13.033814 28 7 C26.19605125 5.19605125 23.43322201 5.76294211 20.99609375 5.68359375 C19.78115234 5.64169922 18.56621094 5.59980469 17.31445312 5.55664062 C16.03505859 5.51732422 14.75566406 5.47800781 13.4375 5.4375 C12.15423828 5.39431641 10.87097656 5.35113281 9.54882812 5.30664062 C6.36600147 5.200152 3.18309326 5.09814038 0 5 C-0.33 4.01 -0.66 3.02 -1 2 C-0.67 1.34 -0.34 0.68 0 0 Z " fill="#000000" transform="translate(356,331)"/>
<path d="M0 0 C1.65 0 3.3 0 5 0 C5.8353125 1.794375 5.8353125 1.794375 6.6875 3.625 C8.12020571 6.52122229 9.6311856 8.93625066 11.75 11.375 C14 14 14 14 14 16 C14.66 16 15.32 16 16 16 C16.09667969 15.28328125 16.19335938 14.5665625 16.29296875 13.828125 C17.10741021 10.57035916 18.39282762 8.49591253 20.3125 5.75 C20.90675781 4.87859375 21.50101563 4.0071875 22.11328125 3.109375 C24.11414269 0.87238706 25.07138001 0.33617713 28 0 C29.95550711 4.21502162 30.60704214 8.36503594 31.125 12.9375 C31.21136719 13.62779297 31.29773438 14.31808594 31.38671875 15.02929688 C31.86587388 19.04127042 32.08848641 22.96122745 32 27 C29.69 26.67 27.38 26.34 25 26 C25 22.04 25 18.08 25 14 C24.34 14 23.68 14 23 14 C21.25150329 18.3039919 19.6229639 22.64750591 18 27 C13.55162659 27.36067893 13.55162659 27.36067893 11.375 25.9375 C9.41234056 23.17193443 8.30470337 20.11994283 7 17 C6.34 16.34 5.68 15.68 5 15 C5 18.3 5 21.6 5 25 C3.02 25.99 3.02 25.99 1 27 C0.34 26.67 -0.32 26.34 -1 26 C-1.4140625 23.0859375 -1.4140625 23.0859375 -1.625 19.375 C-1.69976562 18.16585938 -1.77453125 16.95671875 -1.8515625 15.7109375 C-2.29099307 4.72517321 -2.29099307 4.72517321 0 0 Z " fill="#000000" transform="translate(96,444)"/>
<path d="M0 0 C1.84765625 0.140625 1.84765625 0.140625 4 1 C5.74609375 3.109375 5.74609375 3.109375 7.4375 5.75 C10.07626309 9.83977667 12.41997944 12.41997944 16 16 C16.33 10.72 16.66 5.44 17 0 C18.65 0 20.3 0 22 0 C23.74545605 1.74545605 23.1302316 4.16124217 23.1328125 6.53125 C23.13474609 8.21154297 23.13474609 8.21154297 23.13671875 9.92578125 C23.13285156 11.10527344 23.12898438 12.28476562 23.125 13.5 C23.13080078 15.26923828 23.13080078 15.26923828 23.13671875 17.07421875 C23.13542969 18.19441406 23.13414062 19.31460937 23.1328125 20.46875 C23.13168457 21.50451172 23.13055664 22.54027344 23.12939453 23.60742188 C23 26 23 26 22 27 C19.26953125 27.3671875 19.26953125 27.3671875 16 27 C13.26171875 24.8828125 13.26171875 24.8828125 10.6875 22.125 C9.82511719 21.22007812 8.96273438 20.31515625 8.07421875 19.3828125 C6 17 6 17 5 15 C5.08378906 15.78246094 5.16757812 16.56492187 5.25390625 17.37109375 C5.35574219 18.38300781 5.45757812 19.39492188 5.5625 20.4375 C5.66691406 21.44683594 5.77132813 22.45617187 5.87890625 23.49609375 C5.91886719 24.32238281 5.95882813 25.14867187 6 26 C5 27 5 27 2.4375 27.0625 C1.633125 27.041875 0.82875 27.02125 0 27 C-1.81787189 20.91953196 -2.16764866 15.86638727 -1.6875 9.5625 C-1.63916016 8.74845703 -1.59082031 7.93441406 -1.54101562 7.09570312 C-1.14921177 1.14921177 -1.14921177 1.14921177 0 0 Z " fill="#000000" transform="translate(291,444)"/>
<path d="M0 0 C2.33984375 0.0703125 2.33984375 0.0703125 5 1 C6.87890625 3.6171875 6.87890625 3.6171875 8.5625 6.875 C10.63630338 10.85018893 12.15811139 13.59566708 16 16 C16.19658808 14.58456585 16.38187546 13.16755969 16.5625 11.75 C16.66691406 10.96109375 16.77132812 10.1721875 16.87890625 9.359375 C17.12606577 7.01391314 17.12606577 7.01391314 16.40234375 4.890625 C16.20318359 3.95476562 16.20318359 3.95476562 16 3 C16.66 2.01 17.32 1.02 18 0 C20.475 0.495 20.475 0.495 23 1 C23.02886751 5.14581887 23.04675327 9.29161216 23.0625 13.4375 C23.07087891 14.62150391 23.07925781 15.80550781 23.08789062 17.02539062 C23.09272461 18.71245117 23.09272461 18.71245117 23.09765625 20.43359375 C23.10551147 21.99678345 23.10551147 21.99678345 23.11352539 23.59155273 C23 26 23 26 22 27 C18.27519405 27.41386733 16.61874073 27.48847952 13.625 25.125 C12 23 12 23 12 21 C11.401875 20.7525 10.80375 20.505 10.1875 20.25 C7.70517913 18.83153093 6.63671965 17.30735262 5 15 C5.08378906 15.78246094 5.16757813 16.56492187 5.25390625 17.37109375 C5.35574219 18.38300781 5.45757812 19.39492188 5.5625 20.4375 C5.66691406 21.44683594 5.77132812 22.45617187 5.87890625 23.49609375 C5.91886719 24.32238281 5.95882812 25.14867187 6 26 C5 27 5 27 2.4375 27.0625 C1.633125 27.041875 0.82875 27.02125 0 27 C-1.82739397 20.71738932 -2.11498256 14.9126673 -1.6875 8.4375 C-1.64052979 7.72271484 -1.59355957 7.00792969 -1.54516602 6.27148438 C-1.14404393 1.14404393 -1.14404393 1.14404393 0 0 Z " fill="#000000" transform="translate(237,444)"/>
<path d="M0 0 C3.77554751 0.20226147 4.87851985 0.86902921 7.5 3.6953125 C8.34786916 4.82780323 9.18068183 5.97168516 10 7.125 C10.43352783 7.71667969 10.86705566 8.30835938 11.3137207 8.91796875 C12.16705499 10.08503124 13.01529967 11.25583564 13.85791016 12.43066406 C14.8014791 13.72721413 15.7915067 14.98981448 16.79296875 16.2421875 C18.96902925 18.98512091 20.04053156 20.36500554 19.8125 23.9375 C19.544375 24.618125 19.27625 25.29875 19 26 C14.25 25.25 14.25 25.25 12 23 C9.0906442 22.85482256 6.280054 22.81369204 3.375 22.875 C2.17230469 22.88853516 2.17230469 22.88853516 0.9453125 22.90234375 C-1.03658523 22.92593777 -3.01832981 22.96180935 -5 23 C-5 23.99 -5 24.98 -5 26 C-6.65614657 26.38218767 -8.32457024 26.71395102 -10 27 C-10.33 26.67 -10.66 26.34 -11 26 C-10.72342759 19.5005483 -8.08179847 14.63431299 -5 9 C-4.28650391 7.69289063 -4.28650391 7.69289063 -3.55859375 6.359375 C-2.38470101 4.23232149 -1.19929782 2.11280551 0 0 Z M2 9 C-0.2013866 12.80427492 -0.2013866 12.80427492 -1 17 C1.97 17.33 4.94 17.66 8 18 C8 13.58763974 5.9302707 12.21615077 3 9 C2.67 9 2.34 9 2 9 Z " fill="#000000" transform="translate(363,444)"/>
<path d="M0 0 C3.30895427 1.52720967 5.036404 4.25639306 7.12109375 7.1328125 C7.5591333 7.72449219 7.99717285 8.31617188 8.44848633 8.92578125 C9.31145569 10.09373383 10.17055204 11.2645599 11.02539062 12.43847656 C11.98002192 13.73197782 12.97512602 14.99550711 13.98046875 16.25 C16.15193514 18.99483111 17.22405594 20.37390479 16.99609375 23.9453125 C16.72796875 24.6259375 16.45984375 25.3065625 16.18359375 26.0078125 C11.43359375 25.2578125 11.43359375 25.2578125 9.18359375 23.0078125 C7.28329677 23.2411823 5.38336001 23.48282645 3.4921875 23.78125 C-0.33318697 24.15666746 -4.03225408 23.57718725 -7.81640625 23.0078125 C-8.14640625 24.3278125 -8.47640625 25.6478125 -8.81640625 27.0078125 C-10.46640625 26.6778125 -12.11640625 26.3478125 -13.81640625 26.0078125 C-13.35427639 19.88661874 -11.33342881 15.52639937 -8.37890625 10.1953125 C-7.97091797 9.43283203 -7.56292969 8.67035156 -7.14257812 7.88476562 C-2.87575298 0.01236883 -2.87575298 0.01236883 0 0 Z M-0.81640625 10.0078125 C-3.13232647 13.22895407 -3.13232647 13.22895407 -3.81640625 17.0078125 C-0.84640625 17.3378125 2.12359375 17.6678125 5.18359375 18.0078125 C5.46094385 14.82291243 5.46094385 14.82291243 3.18359375 12.0078125 C2.52359375 12.0078125 1.86359375 12.0078125 1.18359375 12.0078125 C1.18359375 11.3478125 1.18359375 10.6878125 1.18359375 10.0078125 C0.52359375 10.0078125 -0.13640625 10.0078125 -0.81640625 10.0078125 Z " fill="#000000" transform="translate(142.81640625,443.9921875)"/>
<path d="M0 0 C7.11567303 0.26600647 14.0365627 0.75137085 20 5 C22.30655974 8.66335959 23.02199422 10.87829466 22.9375 15.1875 C21.56710127 19.29869618 19.7578955 20.99647698 16.015625 23.1328125 C10.78708756 25.71102234 6.80592992 26.5183866 1 26 C-0.79989737 24.20010263 -0.34203636 21.43715335 -0.5 19 C-0.77291378 14.92866334 -1.12079147 10.91529849 -1.6875 6.875 C-2 3 -2 3 0 0 Z M5 5 C5.33 10.28 5.66 15.56 6 21 C11.07693209 19.3076893 13.20559694 18.3480027 17 15 C17.30110818 12.11095637 17.30110818 12.11095637 16 9 C12.8687389 7.21225577 8.69170604 5 5 5 Z " fill="#000000" transform="translate(318,445)"/>
<path d="M0 0 C0.77279297 0.00410889 1.54558594 0.00821777 2.34179688 0.01245117 C3.60443359 0.01535156 3.60443359 0.01535156 4.89257812 0.01831055 C5.77300781 0.03055664 6.6534375 0.04280273 7.56054688 0.05541992 C8.88119141 0.05638672 8.88119141 0.05638672 10.22851562 0.05737305 C16.77974573 0.10251935 16.77974573 0.10251935 19.06054688 1.24291992 C18.73054688 2.56291992 18.40054688 3.88291992 18.06054688 5.24291992 C13.11054688 5.24291992 8.16054687 5.24291992 3.06054688 5.24291992 C3.06054688 6.23291992 3.06054688 7.22291992 3.06054688 8.24291992 C7.02054688 8.24291992 10.98054687 8.24291992 15.06054688 8.24291992 C15.39054687 9.56291992 15.72054687 10.88291992 16.06054688 12.24291992 C12.0649408 15.07314089 8.63317364 14.00502438 4.06054688 13.24291992 C4.06054688 15.55291992 4.06054688 17.86291992 4.06054688 20.24291992 C8.02054688 20.24291992 11.98054687 20.24291992 16.06054688 20.24291992 C16.39054687 21.56291992 16.72054687 22.88291992 17.06054688 24.24291992 C15.06054688 26.24291992 15.06054688 26.24291992 11.40039062 26.47338867 C9.93287824 26.46939725 8.46536479 26.4546415 6.99804688 26.43041992 C6.25232422 26.42977539 5.50660156 26.42913086 4.73828125 26.4284668 C-0.79917153 26.38320152 -0.79917153 26.38320152 -1.93945312 25.24291992 C-2.08405018 23.79135933 -2.16642424 22.33346706 -2.22070312 20.87573242 C-2.27677734 19.54735352 -2.27677734 19.54735352 -2.33398438 18.19213867 C-2.36878906 17.26014648 -2.40359375 16.3281543 -2.43945312 15.36791992 C-2.50839851 13.5370369 -2.58115488 11.70629236 -2.65820312 9.87573242 C-2.68849609 9.05991699 -2.71878906 8.24410156 -2.75 7.40356445 C-2.87117692 5.06082678 -2.87117692 5.06082678 -3.93945312 2.24291992 C-1.93945312 0.24291992 -1.93945312 0.24291992 0 0 Z " fill="#000000" transform="translate(188.939453125,444.757080078125)"/>
<path d="M0 0 C6.88764636 0.7356774 13.00252375 1.62050456 18.3984375 6.20703125 C20.48186654 10.20027025 20.85869716 13.66980365 19.8984375 18.08203125 C17.7109375 20.45703125 17.7109375 20.45703125 14.8984375 22.08203125 C14.0734375 22.63890625 13.2484375 23.19578125 12.3984375 23.76953125 C7.63118021 26.27234133 3.21708981 26.18631855 -2.1015625 26.08203125 C-3.29203363 23.701089 -3.17016462 22.35678821 -3.1015625 19.70703125 C-3.02704118 14.59486878 -3.48952978 9.62578 -4.078125 4.55078125 C-4.08585938 3.73609375 -4.09359375 2.92140625 -4.1015625 2.08203125 C-2.1015625 0.08203125 -2.1015625 0.08203125 0 0 Z M2.8984375 5.08203125 C1.8349292 8.44847482 1.89765032 11.26726108 2.2109375 14.76953125 C2.28957031 15.74277344 2.36820313 16.71601563 2.44921875 17.71875 C2.67158203 18.88857422 2.67158203 18.88857422 2.8984375 20.08203125 C3.5584375 20.41203125 4.2184375 20.74203125 4.8984375 21.08203125 C6.85172103 20.46455408 6.85172103 20.46455408 8.8984375 19.39453125 C9.5996875 19.06066406 10.3009375 18.72679687 11.0234375 18.3828125 C13.25591549 16.83403089 14.01287797 15.63481738 14.8984375 13.08203125 C14.22020431 10.33265211 14.22020431 10.33265211 11.8984375 8.08203125 C8.97166601 6.77894571 5.99732884 5.88111644 2.8984375 5.08203125 Z " fill="#000000" transform="translate(164.1015625,444.91796875)"/>
<path d="M0 0 C2.475 0.99 2.475 0.99 5 2 C5.89850507 9.25221951 6.68130126 16.70199329 6 24 C5.34 24.66 4.68 25.32 4 26 C1.375 25.625 1.375 25.625 -1 25 C-2.21518865 21.35443406 -2.18405888 17.98305836 -2.1875 14.1875 C-2.19974609 13.48818359 -2.21199219 12.78886719 -2.22460938 12.06835938 C-2.23699659 7.65438345 -1.62789183 4.09868416 0 0 Z " fill="#000000" transform="translate(344,445)"/>
<path d="M0 0 C1.03387512 8.0125322 1.10466648 15.92905177 1 24 C-0.65 24.33 -2.3 24.66 -4 25 C-6.20192224 21.69711664 -6.23959968 20.72537273 -6.1953125 16.89453125 C-6.18886719 15.91162109 -6.18242187 14.92871094 -6.17578125 13.91601562 C-6.15902344 12.89185547 -6.14226562 11.86769531 -6.125 10.8125 C-6.11597656 9.77673828 -6.10695313 8.74097656 -6.09765625 7.67382812 C-6.0740786 5.11565315 -6.0411703 2.55794252 -6 0 C-3.50907189 -1.24546405 -2.58919267 -0.7767578 0 0 Z " fill="#000000" transform="translate(285,446)"/>
<path d="M0 0 C2.125 0.375 2.125 0.375 4 1 C4.90483637 6.36489595 5.12303662 11.50317457 5.0625 16.9375 C5.05798828 17.71673828 5.05347656 18.49597656 5.04882812 19.29882812 C5.03716908 21.19925268 5.01923877 23.09963706 5 25 C3.35 25.33 1.7 25.66 0 26 C-2.14394034 22.7840895 -2.25580474 21.88969066 -2.265625 18.18359375 C-2.26820313 17.25482422 -2.27078125 16.32605469 -2.2734375 15.36914062 C-2.26183594 13.91797852 -2.26183594 13.91797852 -2.25 12.4375 C-2.25773438 11.46619141 -2.26546875 10.49488281 -2.2734375 9.49414062 C-2.27085937 8.56666016 -2.26828125 7.63917969 -2.265625 6.68359375 C-2.26336914 5.83337646 -2.26111328 4.98315918 -2.25878906 4.10717773 C-2 2 -2 2 0 0 Z " fill="#000000" transform="translate(227,445)"/>
<path d="M0 0 C1.27875 -0.061875 2.5575 -0.12375 3.875 -0.1875 C4.95394531 -0.23970703 4.95394531 -0.23970703 6.0546875 -0.29296875 C6.69664062 -0.19628906 7.33859375 -0.09960938 8 0 C10 3 10 3 9.8125 6.5625 C9 10 9 10 6 12 C3 11.9375 3 11.9375 0 11 C-2.0625 8.8125 -2.0625 8.8125 -3 6 C-1.6875 2.6875 -1.6875 2.6875 0 0 Z " fill="#000000" transform="translate(169,405)"/>
</svg>
