<?xml version="1.0" encoding="UTF-8"?>
<svg version="1.1" xmlns="http://www.w3.org/2000/svg" width="652" height="129">
<path d="M0 0 C6.6 0 13.2 0 20 0 C25.03839317 22.59150484 29.49763676 45.29684443 34 68 C34.15650024 66.98860962 34.15650024 66.98860962 34.31616211 65.95678711 C37.81889436 43.70729837 42.77296121 21.89890107 48 0 C53.61 0 59.22 0 65 0 C69.62 22.44 74.24 44.88 79 68 C80.29407448 62.82370209 81.43875702 57.88727349 82.33203125 52.66015625 C82.57325778 51.26423017 82.81455281 49.86831592 83.0559082 48.47241211 C83.17938629 47.75197723 83.30286438 47.03154236 83.43008423 46.28927612 C85.42951381 34.64675931 87.50857562 23.02405154 89.8125 11.4375 C90.12247925 9.86077515 90.12247925 9.86077515 90.4387207 8.25219727 C90.72622192 6.82605103 90.72622192 6.82605103 91.01953125 5.37109375 C91.26860229 4.1325061 91.26860229 4.1325061 91.52270508 2.86889648 C92 1 92 1 93 0 C94.41570123 -0.08651611 95.835595 -0.10704904 97.25390625 -0.09765625 C98.53491211 -0.09282227 98.53491211 -0.09282227 99.84179688 -0.08789062 C101.18854492 -0.07532227 101.18854492 -0.07532227 102.5625 -0.0625 C103.46419922 -0.05798828 104.36589844 -0.05347656 105.29492188 -0.04882812 C107.53001314 -0.03700225 109.76497437 -0.0205222 112 0 C111.36754283 5.95984233 110.24406757 11.61943165 108.79101562 17.42944336 C108.56814377 18.33608734 108.34527191 19.24273132 108.11564636 20.17684937 C107.38373519 23.14899292 106.64519237 26.1194412 105.90625 29.08984375 C105.39410863 31.16102292 104.88227233 33.23227754 104.37072754 35.30360413 C103.30102656 39.6306252 102.22811823 43.9568343 101.15283203 48.2824707 C99.77184728 53.83868957 98.39819061 59.39668898 97.02680206 64.95528316 C95.97258371 69.22542096 94.91490809 73.4946963 93.85612488 77.7637043 C93.34797054 79.81407827 92.84081875 81.86470097 92.33467102 83.91557121 C91.62957374 86.7700275 90.91993047 89.62331406 90.20898438 92.47631836 C89.99908371 93.32977341 89.78918304 94.18322845 89.57292175 95.06254578 C88.11433168 100.88566832 88.11433168 100.88566832 87 102 C84.46950598 102.07313567 81.96695163 102.09247527 79.4375 102.0625 C78.37112305 102.05573242 78.37112305 102.05573242 77.28320312 102.04882812 C75.52209987 102.03700864 73.76103964 102.01907263 72 102 C69.59459591 96.00629181 67.96146109 90.10128676 66.58984375 83.796875 C66.37687149 82.83783264 66.16389923 81.87879028 65.94447327 80.89068604 C65.49723411 78.87093335 65.05281683 76.85055394 64.61108398 74.82958984 C63.94221574 71.77156013 63.26385425 68.7157567 62.58398438 65.66015625 C58.66856877 47.95720826 58.66856877 47.95720826 57.36157227 39.02050781 C57.08734382 36.93913389 57.08734382 36.93913389 56 35 C55.82726563 36.24523438 55.65453125 37.49046875 55.4765625 38.7734375 C53.3357541 53.17244533 50.22172185 67.27907458 46.875 81.4375 C46.65144836 82.3952533 46.42789673 83.35300659 46.1975708 84.33978271 C45.55534898 87.08177228 44.90102997 89.820556 44.2421875 92.55859375 C44.04643127 93.39608658 43.85067505 94.23357941 43.64898682 95.09645081 C43.16265323 97.08090056 42.5896535 99.04376128 42 101 C38.93466836 102.53266582 35.73245728 102.10276471 32.375 102.0625 C31.66859375 102.05798828 30.9621875 102.05347656 30.234375 102.04882812 C28.48954725 102.03703875 26.744763 102.01910324 25 102 C22.88472698 95.94775918 21.13010659 89.89024045 19.63989258 83.65649414 C19.42487595 82.77081757 19.20985931 81.88514099 18.98832703 80.97262573 C18.28658334 78.07770943 17.59042045 75.18148494 16.89453125 72.28515625 C16.40584808 70.2625018 15.91688599 68.23991472 15.42765808 66.21739197 C14.40742653 61.99601553 13.38983444 57.7740147 12.37426758 53.55151367 C11.07041743 48.13088214 9.76106099 42.7115992 8.44989491 37.29273319 C7.4418593 33.12487916 6.43613876 28.95646937 5.43118858 24.78787041 C4.94892579 22.78817054 4.46606898 20.78861384 3.98261452 18.78920174 C3.31010856 16.0059245 2.64058277 13.22194772 1.97192383 10.43774414 C1.77092072 9.60815689 1.5699176 8.77856964 1.36282349 7.92384338 C0 2.22884239 0 2.22884239 0 0 Z " fill="#000000" transform="translate(0,0)"/>
<path d="M0 0 C6.27 0 12.54 0 19 0 C19.02254879 13.1514933 19.04091379 26.30297386 19.05181217 39.45448208 C19.05704156 45.56056369 19.0641402 51.66663144 19.07543945 57.77270508 C19.08626637 63.66005147 19.09227642 69.54738449 19.09487724 75.43474007 C19.09673185 77.68632277 19.10035313 79.93790469 19.10573006 82.18948174 C19.11293789 85.33133427 19.11399105 88.47313083 19.11352539 91.61499023 C19.11712067 92.55581955 19.12071594 93.49664886 19.12442017 94.46598816 C19.11405216 100.88594784 19.11405216 100.88594784 18 102 C15.13732433 102.07325168 12.299281 102.09238205 9.4375 102.0625 C8.63119141 102.05798828 7.82488281 102.05347656 6.99414062 102.04882812 C4.99606244 102.03700518 2.99802217 102.01906914 1 102 C0.34 100.02 -0.32 98.04 -1 96 C-1.721875 96.78375 -2.44375 97.5675 -3.1875 98.375 C-8.10700134 102.96653458 -12.62528751 103.46281268 -19.15234375 103.3046875 C-25.46471842 102.62928939 -30.24805857 100.36715451 -34.375 95.5 C-39.99676015 86.81106286 -40.48708197 76.50619698 -40.375 66.4375 C-40.38660156 65.39142578 -40.39820313 64.34535156 -40.41015625 63.26757812 C-40.37376438 53.49636227 -39.126313 43.26449635 -32 36 C-26.34754219 31.10120323 -19.95306273 31.31668437 -12.77734375 31.59765625 C-7.71445303 32.13693003 -4.63723486 33.36276514 -1 37 C-0.67 24.79 -0.34 12.58 0 0 Z M-16 46 C-21.36845961 52.71057452 -21.20408804 59.08852051 -21.25 67.3125 C-21.270625 68.22451172 -21.29125 69.13652344 -21.3125 70.07617188 C-21.35282456 77.10776734 -20.65761779 83.12689969 -15.6875 88.5 C-12.40313728 90.33313268 -10.70767977 90.61794663 -7 90 C-3.05328748 87.57815368 -1.26691029 85.43418603 0 81 C2.04276314 70.81622493 2.80904103 57.53892089 -2 48 C-3.99082619 45.61646289 -4.80370237 45.05547542 -7.875 44.1875 C-11.39205674 43.9764766 -12.99118684 44.17887624 -16 46 Z " fill="#000000" transform="translate(459,0)"/>
<path d="M0 0 C6.27 0 12.54 0 19 0 C19.33 19.47 19.66 38.94 20 59 C29.43625125 46.94905091 29.43625125 46.94905091 37.94921875 34.46875 C39 33 39 33 41 32 C42.52148326 31.91627341 44.04655778 31.89269973 45.5703125 31.90234375 C46.46621094 31.90556641 47.36210937 31.90878906 48.28515625 31.91210938 C49.22230469 31.92048828 50.15945313 31.92886719 51.125 31.9375 C52.06988281 31.94201172 53.01476562 31.94652344 53.98828125 31.95117188 C56.32558387 31.96297643 58.66276061 31.97944241 61 32 C60.12400642 36.55418167 57.45259583 39.25572398 54.4375 42.625 C53.3438755 43.87397074 52.25143264 45.12397711 51.16015625 46.375 C50.35408936 47.29539062 50.35408936 47.29539062 49.53173828 48.234375 C47.42910641 50.65806541 45.39154016 53.12939229 43.375 55.625 C42.76398438 56.38039062 42.15296875 57.13578125 41.5234375 57.9140625 C40.08513593 59.88342926 39.05890758 61.81189577 38 64 C39.89128557 66.64910961 41.78827246 69.29407876 43.6875 71.9375 C44.26459717 72.74131104 44.84169434 73.54512207 45.4362793 74.37329102 C50.15041256 80.90373898 55.02082531 87.30087355 60.03588867 93.60327148 C60.816698 94.60209351 60.816698 94.60209351 61.61328125 95.62109375 C62.07516846 96.2030249 62.53705566 96.78495605 63.01293945 97.38452148 C64 99 64 99 64 102 C60.64735102 102.26358012 57.29737401 102.42185411 53.9375 102.5625 C52.99455078 102.63791016 52.05160156 102.71332031 51.08007812 102.79101562 C47.11314029 102.91541437 44.20253294 102.98832752 41.05102539 100.39819336 C39.16610025 98.02647074 37.58645209 95.58108007 36 93 C34.60845091 90.95499882 33.2137708 88.9121256 31.81640625 86.87109375 C30.39420634 84.72936616 28.97701655 82.58430986 27.5625 80.4375 C25.066875 76.663125 22.57125 72.88875 20 69 C19.67 79.89 19.34 90.78 19 102 C12.73 102 6.46 102 0 102 C0 68.34 0 34.68 0 0 Z " fill="#000000" transform="translate(238,0)"/>
<path d="M0 0 C1.05574219 0.0009668 1.05574219 0.0009668 2.1328125 0.00195312 C8.2066158 0.17629378 11.52872111 1.66976759 16.125 5.5 C16.785 3.85 17.445 2.2 18.125 0.5 C20.75006802 0.47309156 23.37486173 0.45320596 26 0.4375 C26.74636719 0.42912109 27.49273438 0.42074219 28.26171875 0.41210938 C33.8984375 0.38671875 33.8984375 0.38671875 36.125 1.5 C36.14812589 10.3488239 36.16591634 19.19763747 36.17681217 28.04648495 C36.18204046 32.15494285 36.18913713 36.26338014 36.20043945 40.37182617 C36.21127025 44.33346828 36.21727724 48.29509052 36.21987724 52.25674629 C36.22173114 53.77148311 36.2253511 55.28621879 36.23073006 56.80094719 C36.23794307 58.91541813 36.23899083 61.02980594 36.23852539 63.14428711 C36.240746 64.35007919 36.24296661 65.55587128 36.24525452 66.79820251 C36.125 69.5 36.125 69.5 35.125 70.5 C32.26232433 70.57325168 29.424281 70.59238205 26.5625 70.5625 C25.75619141 70.55798828 24.94988281 70.55347656 24.11914062 70.54882812 C22.12106244 70.53700518 20.12302217 70.51906914 18.125 70.5 C17.465 68.52 16.805 66.54 16.125 64.5 C15.073125 65.675625 15.073125 65.675625 14 66.875 C8.83220913 71.59341775 3.6494229 71.95977006 -3.125 71.8125 C-8.94320416 71.15134044 -12.60289777 68.77210223 -16.6875 64.6875 C-23.16085936 55.25489065 -23.08107426 46.35433219 -23.125 35.3125 C-23.145625 34.03568359 -23.16625 32.75886719 -23.1875 31.44335938 C-23.22899745 21.35429282 -22.50863871 12.77140323 -15.66796875 4.97265625 C-10.82373983 0.99384513 -6.14521937 -0.05237403 0 0 Z M1.125 14.5 C-4.77086056 20.88718227 -4.11960312 26.90860663 -4.1875 35.1875 C-4.21650391 36.34701172 -4.24550781 37.50652344 -4.27539062 38.70117188 C-4.32776861 45.78831616 -3.80645425 50.52843976 0.125 56.5 C3.8623856 58.9915904 5.69831583 58.95793285 10.125 58.5 C13.38146981 56.61848411 14.78945144 55.2214294 16.375 51.8125 C19.00828964 40.18213741 19.29998923 27.68813012 14.9375 16.4375 C11.0164081 12.24598797 5.94724902 11.50238574 1.125 14.5 Z " fill="#000000" transform="translate(513.875,31.5)"/>
<path d="M0 0 C3.12498063 -0.02895976 6.2499269 -0.04678483 9.375 -0.0625 C10.70917969 -0.07506836 10.70917969 -0.07506836 12.0703125 -0.08789062 C13.34648438 -0.09272461 13.34648438 -0.09272461 14.6484375 -0.09765625 C15.43395996 -0.10289307 16.21948242 -0.10812988 17.02880859 -0.11352539 C19 0 19 0 21 1 C21.69607544 2.65658569 21.69607544 2.65658569 22.32861328 4.82958984 C22.56871124 5.64068207 22.8088092 6.45177429 23.05618286 7.28744507 C23.30834564 8.16969757 23.56050842 9.05195007 23.8203125 9.9609375 C24.21559647 11.31319931 24.21559647 11.31319931 24.61886597 12.69277954 C25.17558102 14.60334928 25.72846152 16.51503983 26.27783203 18.42773438 C27.12016627 21.35818365 27.97506567 24.28473761 28.83203125 27.2109375 C29.37054077 29.06488674 29.90832532 30.91904675 30.4453125 32.7734375 C30.70152374 33.65164154 30.95773499 34.52984558 31.22171021 35.43466187 C31.45550385 36.25205841 31.68929749 37.06945496 31.93017578 37.91162109 C32.13732208 38.63030365 32.34446838 39.34898621 32.55789185 40.08944702 C33 42 33 42 33 45 C33.66 45 34.32 45 35 45 C35.1124707 44.44892578 35.22494141 43.89785156 35.34082031 43.33007812 C36.48805702 37.91806369 37.95406207 32.72952175 39.75 27.5 C40.0087793 26.73824463 40.26755859 25.97648926 40.53417969 25.19165039 C41.07631556 23.60104727 41.6209351 22.01128863 42.16796875 20.42236328 C43.00646409 17.98118054 43.83166473 15.53575516 44.65625 13.08984375 C45.18670512 11.53879043 45.71792703 9.98799908 46.25 8.4375 C46.61883301 7.33921875 46.61883301 7.33921875 46.99511719 6.21875 C48.77079173 1.11460413 48.77079173 1.11460413 51 0 C52.37548156 -0.08308638 53.75485796 -0.10736016 55.1328125 -0.09765625 C55.93847656 -0.09443359 56.74414062 -0.09121094 57.57421875 -0.08789062 C58.83685547 -0.07532227 58.83685547 -0.07532227 60.125 -0.0625 C60.97449219 -0.05798828 61.82398438 -0.05347656 62.69921875 -0.04882812 C64.79950909 -0.03702874 66.8997633 -0.01909306 69 0 C68.40866171 3.33478799 67.59094555 6.31620013 66.30444336 9.44677734 C65.95519806 10.30287094 65.60595276 11.15896454 65.24612427 12.04100037 C64.67376541 13.42449425 64.67376541 13.42449425 64.08984375 14.8359375 C63.6902243 15.81196426 63.29060486 16.78799103 62.87887573 17.79359436 C61.56931825 20.98915221 60.25347345 24.18207962 58.9375 27.375 C58.03370047 29.57674103 57.13030194 31.77864671 56.22729492 33.98071289 C54.38729361 38.46581973 52.544788 42.94988503 50.70019531 47.43310547 C48.17626266 53.56856203 45.66090103 59.70749578 43.1484375 65.84765625 C41.70334817 69.37769557 40.25799851 72.90762822 38.8125 76.4375 C38.46943817 77.27537048 38.12637634 78.11324097 37.7729187 78.97650146 C36.81430475 81.31671462 35.85460973 83.65648111 34.89453125 85.99609375 C34.61318329 86.68333023 34.33183533 87.37056671 34.04196167 88.07862854 C32.11489633 92.77020733 32.11489633 92.77020733 31 95 C31.66 95 32.32 95 33 95 C33 95.66 33 96.32 33 97 C25.08 97 17.16 97 9 97 C9 96.34 9 95.68 9 95 C9.66 95 10.32 95 11 95 C11.14550293 94.46415283 11.29100586 93.92830566 11.44091797 93.3762207 C12.78128338 88.8910774 14.37060224 85.23472523 17.0078125 81.35546875 C20.90614015 75.1896048 24.86521162 68.51390484 23.67706299 60.94195557 C21.04909212 50.5300701 15.82059442 40.79844676 11.05957031 31.234375 C8.20718328 25.4584463 5.86145279 19.51650248 3.5625 13.5 C3.19278076 12.57574219 2.82306152 11.65148437 2.44213867 10.69921875 C2.11189697 9.86003906 1.78165527 9.02085938 1.44140625 8.15625 C1.15982666 7.44275391 0.87824707 6.72925781 0.58813477 5.99414062 C0 4 0 4 0 0 Z " fill="#000000" transform="translate(558,32)"/>
<path d="M0 0 C7.39359011 4.70021086 11.08921727 11.65036339 13.0625 20 C15.11778418 31.77117303 15.48844553 46.59155428 9.375 57.22265625 C4.35787811 64.01667548 -1.61180797 67.71382413 -9.9375 69 C-20.6078308 69.99143608 -29.20935976 68.60660682 -38.3125 62.875 C-46.36033337 54.06070631 -47.15475484 44.83517069 -47.25 33.4375 C-47.27900391 32.30763672 -47.30800781 31.17777344 -47.33789062 30.01367188 C-47.40403285 21.17605344 -46.29024131 13.04048312 -40.5 6.0625 C-39.654375 5.381875 -38.80875 4.70125 -37.9375 4 C-36.7309375 2.9171875 -36.7309375 2.9171875 -35.5 1.8125 C-26.72597509 -4.39351762 -9.6379779 -4.3835826 0 0 Z M-25.9375 15 C-28.75034946 20.75849704 -28.30553163 26.5305143 -28.3125 32.8125 C-28.33699219 33.96298828 -28.36148438 35.11347656 -28.38671875 36.29882812 C-28.41084777 43.31635107 -27.90265185 48.1218363 -23.9375 54 C-20.49288801 56.09041934 -17.96566203 56.41103694 -13.9375 56 C-10.44488579 54.61919903 -9.20078115 53.45550812 -7.31640625 50.1953125 C-5.07732768 44.67577325 -5.50360856 38.79719857 -5.5625 32.9375 C-5.55089844 31.77927734 -5.53929687 30.62105469 -5.52734375 29.42773438 C-5.55108232 22.53959327 -5.83171769 17.45086923 -10.625 12.125 C-16.52319118 9.25560969 -21.60701327 10.2874115 -25.9375 15 Z " fill="#000000" transform="translate(160.9375,34)"/>
<path d="M0 0 C0.91265625 -0.02900391 1.8253125 -0.05800781 2.765625 -0.08789062 C10.45771547 -0.15911368 16.33318016 1.49439567 22.3984375 6.3203125 C23.31496094 7.36832031 23.31496094 7.36832031 24.25 8.4375 C24.87648438 9.12070312 25.50296875 9.80390625 26.1484375 10.5078125 C30.90611841 18.23635299 31.3513275 26.44071402 31.25 35.3125 C31.26160156 36.32828125 31.27320313 37.3440625 31.28515625 38.390625 C31.24891475 47.81341477 29.747188 57.35152404 22.875 64.3125 C14.06989821 71.28243321 4.82315699 72.0692288 -6.125 71.3125 C-13.69531787 70.17020238 -19.10321849 67.10149813 -24.125 61.3125 C-31.77050666 50.34483866 -31.25872288 35.16998322 -29.5 22.5 C-27.78937188 14.57212345 -24.17033856 8.35552475 -17.4375 3.75 C-11.58396291 0.18126323 -6.69588652 0.06917238 0 0 Z M-9.125 18.3125 C-10.87042731 24.02815984 -11.4822038 29.22912171 -11.4375 35.1875 C-11.43186035 35.97398926 -11.4262207 36.76047852 -11.42041016 37.57080078 C-11.26560903 44.99972224 -10.90191944 51.53558056 -5.4375 57 C-1.29461053 58.64152224 1.67353871 58.8566268 5.875 57.3125 C9.8718055 53.63123178 11.61945515 49.2967696 12.08203125 43.89477539 C12.18003219 41.07290986 12.19694944 38.26099355 12.1875 35.4375 C12.20361328 34.48230469 12.21972656 33.52710937 12.23632812 32.54296875 C12.24093999 25.81887296 11.65257644 19.73105561 7.25 14.3125 C0.7190267 11.5626165 -4.99347326 12.30300656 -9.125 18.3125 Z " fill="#000000" transform="translate(378.125,31.6875)"/>
<path d="M0 0 C21.12 0 42.24 0 64 0 C64 3.96 64 7.92 64 12 C57.4340948 15.2829526 49.34090518 13 42 13 C42 42.37 42 71.74 42 102 C35.73 102 29.46 102 23 102 C21.18884376 100.18884376 21.88004624 97.70122499 21.87557983 95.29098511 C21.87917511 94.47171539 21.88277039 93.65244568 21.88647461 92.80834961 C21.88632858 91.94988937 21.88618256 91.09142914 21.8860321 90.20695496 C21.88673153 87.35539262 21.8945253 84.50389475 21.90234375 81.65234375 C21.90420782 79.68079158 21.90563178 77.70923895 21.90663147 75.73768616 C21.91045749 70.53773733 21.92028848 65.33781625 21.93133545 60.13787842 C21.94154778 54.83606339 21.94612871 49.5342439 21.95117188 44.23242188 C21.96191067 33.82160237 21.97898809 23.41080349 22 13 C21.40461426 13.00523682 20.80922852 13.01047363 20.19580078 13.01586914 C17.50554453 13.03661999 14.81530511 13.04965407 12.125 13.0625 C11.18785156 13.07087891 10.25070312 13.07925781 9.28515625 13.08789062 C7.94130859 13.09272461 7.94130859 13.09272461 6.5703125 13.09765625 C5.74289551 13.10289307 4.91547852 13.10812988 4.06298828 13.11352539 C2 13 2 13 0 12 C0 8.04 0 4.08 0 0 Z " fill="#000000" transform="translate(290,0)"/>
<path d="M0 0 C1.58206057 0.00667536 3.16410534 0.0186375 4.74609375 0.03515625 C5.55240234 0.03966797 6.35871094 0.04417969 7.18945312 0.04882812 C9.18753131 0.06065107 11.18557158 0.07858711 13.18359375 0.09765625 C13.84359375 2.07765625 14.50359375 4.05765625 15.18359375 6.09765625 C15.65410156 5.74832031 16.12460938 5.39898437 16.609375 5.0390625 C17.23199219 4.58402344 17.85460937 4.12898438 18.49609375 3.66015625 C19.11097656 3.20769531 19.72585937 2.75523438 20.359375 2.2890625 C23.53558802 0.21466213 26.18428852 -0.01827571 29.87109375 0.03515625 C32.00578125 0.06609375 32.00578125 0.06609375 34.18359375 0.09765625 C34.18359375 4.38765625 34.18359375 8.67765625 34.18359375 13.09765625 C32.73726562 13.35289063 32.73726562 13.35289063 31.26171875 13.61328125 C29.9984375 13.855625 28.73515625 14.09796875 27.43359375 14.34765625 C26.180625 14.5796875 24.92765625 14.81171875 23.63671875 15.05078125 C19.97101307 16.16210379 18.50178167 17.10426796 16.18359375 20.09765625 C15.23705235 22.93728046 15.03365151 24.80172154 14.97827148 27.75268555 C14.95832626 28.6934343 14.93838104 29.63418304 14.91783142 30.60343933 C14.89276268 32.12231499 14.89276268 32.12231499 14.8671875 33.671875 C14.8464064 34.71084427 14.82562531 35.74981354 14.80421448 36.82026672 C14.73878719 40.14182878 14.67986554 43.46347041 14.62109375 46.78515625 C14.57790206 49.03581555 14.53428756 51.28646677 14.49023438 53.53710938 C14.38311277 59.05720735 14.28133359 64.57738462 14.18359375 70.09765625 C11.20436782 70.12449612 8.2253808 70.14441662 5.24609375 70.16015625 C4.39595703 70.16853516 3.54582031 70.17691406 2.66992188 70.18554688 C1.86103516 70.18876953 1.05214844 70.19199219 0.21875 70.1953125 C-0.53011475 70.20054932 -1.27897949 70.20578613 -2.05053711 70.21118164 C-3.81640625 70.09765625 -3.81640625 70.09765625 -4.81640625 69.09765625 C-4.91588818 66.98627724 -4.94440263 64.87153339 -4.94580078 62.7578125 C-4.94842926 61.7651387 -4.94842926 61.7651387 -4.95111084 60.75241089 C-4.95552842 58.55496635 -4.95259172 56.35760167 -4.94921875 54.16015625 C-4.94989182 52.63940414 -4.95086186 51.11865213 -4.95211792 49.59790039 C-4.95359476 46.40672789 -4.95144077 43.21558333 -4.94677734 40.02441406 C-4.94108005 35.92501095 -4.94435913 31.82567329 -4.95034981 27.72627258 C-4.95395579 24.58483381 -4.95281667 21.44341067 -4.95022202 18.30197144 C-4.94955285 16.79002881 -4.95038082 15.27808479 -4.95270157 13.7661438 C-4.9552287 11.65655738 -4.95138669 9.54707838 -4.94580078 7.4375 C-4.94500519 6.23472412 -4.94420959 5.03194824 -4.94338989 3.79272461 C-4.7448477 -0.42108414 -4.41427071 0.11295473 0 0 Z " fill="#000000" transform="translate(191.81640625,31.90234375)"/>
<path d="M0 0 C3.79853672 1.7956719 5.52011124 3.29616315 7.875 6.75 C9.23767339 10.68661201 9.73932875 13.88440332 9 18 C6.77864953 22.3604287 4.59457298 25.20212362 0 27 C-4.61083638 27.54782214 -8.60460927 27.56409412 -12.9375 25.8125 C-16.18793694 22.95605541 -17.64065058 20.2715441 -18.8125 16.125 C-19.08965969 11.50567185 -18.50294782 7.98791064 -15.65625 4.22265625 C-10.98405098 -0.46056211 -6.41673816 -1.22828651 0 0 Z M-10 5 C-6.7 5.33 -3.4 5.66 0 6 C0.33 8.31 0.66 10.62 1 13 C0.34 13 -0.32 13 -1 13 C-0.45773019 16.79588866 1.20127563 18.47211993 4 21 C6.35039116 17.32751381 6.51756902 14.28842905 6 10 C4.21523759 7.02760759 2.14791945 4.57395973 -1 3 C-6.0298641 2.45475431 -6.0298641 2.45475431 -10 5 Z M-12 5 C-14.94600576 8.06384599 -15.83117567 10.77939181 -16 15 C-14.43616066 19.3105786 -14.43616066 19.3105786 -11 22 C-10.67 16.39 -10.34 10.78 -10 5 C-10.66 5 -11.32 5 -12 5 Z M-6 8 C-6 9.32 -6 10.64 -6 12 C-5.01 11.67 -4.02 11.34 -3 11 C-3 10.01 -3 9.02 -3 8 C-3.99 8 -4.98 8 -6 8 Z M-6 16 C-6.0825 16.78375 -6.165 17.5675 -6.25 18.375 C-7 21 -7 21 -9.0625 22.3125 C-9.701875 22.539375 -10.34125 22.76625 -11 23 C-6.95634201 25.021829 -4.36886712 25.19150921 0 24 C0.33 23.34 0.66 22.68 1 22 C0.01 21.67 -0.98 21.34 -2 21 C-3.0409066 19.35857037 -4.04504326 17.69287785 -5 16 C-5.33 16 -5.66 16 -6 16 Z " fill="#000000" transform="translate(643,9)"/>
</svg>
