<?xml version="1.0" encoding="UTF-8"?>
<svg version="1.1" xmlns="http://www.w3.org/2000/svg" width="724" height="295">
<path d="M0 0 C1.203125 1.54296875 1.203125 1.54296875 1.703125 4.54296875 C1.203125 7.54296875 1.203125 7.54296875 -0.98046875 9.1328125 C-16.83995953 17.07355615 -38.59598229 15.20930668 -55.9453125 16.0390625 C-56.82081757 16.08128433 -57.69632263 16.12350616 -58.59835815 16.16700745 C-62.92765219 16.37464977 -67.25703119 16.57420364 -71.58740234 16.75805664 C-100.73302102 18.04992138 -128.07138345 23.56010459 -149.796875 44.54296875 C-160.28218295 56.25598681 -164.69420513 69.0631148 -164.31640625 84.59375 C-163.54245532 97.17524975 -159.2690712 109.48025079 -155.796875 121.54296875 C-155.31543488 123.22277386 -154.83415754 124.90262563 -154.35302734 126.58251953 C-151.26895364 137.33986773 -151.26895364 137.33986773 -148.16015625 148.09008789 C-145.14396333 158.52047018 -142.44252028 168.95299896 -140.046875 179.54296875 C-137.51941325 190.56389532 -134.12364834 200.56292215 -128.796875 210.54296875 C-127.97316406 212.09371094 -127.97316406 212.09371094 -127.1328125 213.67578125 C-123.15022854 220.68104431 -117.69776711 227.90933805 -109.796875 230.54296875 C-105.85733913 230.91462308 -103.36363934 230.79743437 -99.734375 229.16796875 C-91.05580091 221.41264722 -87.38422632 209.77950128 -86.57568359 198.44116211 C-86.43171634 194.78779079 -86.29318304 191.13467498 -86.171875 187.48046875 C-86.13768967 186.47929016 -86.13768967 186.47929016 -86.10281372 185.45788574 C-85.76987974 175.37853167 -85.92716269 165.40742936 -86.52734375 155.33984375 C-86.82072227 150.40785838 -86.982933 145.48311733 -87.046875 140.54296875 C-87.06806396 139.8065918 -87.08925293 139.07021484 -87.11108398 138.31152344 C-87.14081363 133.8656369 -86.6148849 131.02705372 -83.796875 127.54296875 C-82.0625 126.35546875 -82.0625 126.35546875 -80.046875 125.54296875 C-78.86158203 125.05957031 -78.86158203 125.05957031 -77.65234375 124.56640625 C-74.89049258 123.57652252 -72.10837567 122.67491101 -69.31152344 121.78955078 C-59.01466824 118.51093731 -49.60253553 114.28745118 -42.796875 105.54296875 C-40.77007519 101.32046914 -40.77405536 99.01028394 -41.796875 94.54296875 C-51.66212709 91.34265526 -60.70502287 91.26268933 -70.921875 91.54296875 C-93.37105571 92.15588246 -93.37105571 92.15588246 -100.859375 86.04296875 C-104.71362534 81.0697425 -104.36084326 75.58074659 -103.796875 69.54296875 C-101.93020472 62.37899091 -96.61951873 57.74256338 -90.796875 53.54296875 C-82.08161386 48.73651574 -73.16190155 46.02727091 -63.484375 43.91796875 C-62.16805735 43.62248186 -60.85181509 43.32665898 -59.53564453 43.03051758 C18.69998142 25.6474096 18.69998142 25.6474096 49.828125 45.29296875 C51.30570314 46.34990302 52.76364996 47.43470036 54.203125 48.54296875 C55.00363281 49.15527344 55.80414063 49.76757812 56.62890625 50.3984375 C69.06763879 60.70923756 75.86990916 74.59661282 81.203125 89.54296875 C81.60273438 90.65414062 82.00234375 91.7653125 82.4140625 92.91015625 C92.85331507 124.38489519 90.44392819 159.07528448 76.06884766 188.89599609 C56.59286618 227.29652585 24.78365463 257.81711655 -16.046875 272.23046875 C-33.03072595 277.65313138 -49.89593197 279.77929816 -67.671875 279.79296875 C-68.45721619 279.79364349 -69.24255737 279.79431824 -70.05169678 279.79501343 C-81.57124264 279.77926951 -92.57949385 279.3900198 -103.796875 276.54296875 C-104.49828613 276.36604492 -105.19969727 276.18912109 -105.92236328 276.00683594 C-148.58580993 264.99630079 -185.11374456 238.32912399 -207.73828125 200.38330078 C-217.12374348 184.06696907 -223.66928897 166.88403636 -227.796875 148.54296875 C-227.96348633 147.82254395 -228.13009766 147.10211914 -228.30175781 146.35986328 C-235.60483392 113.45066006 -231.51372962 76.82126801 -213.953125 47.8125 C-189.99111158 11.47879487 -154.15198315 -3.7315971 -112.796875 -12.45703125 C-82.08258629 -18.54990642 -26.27764294 -21.3077409 0 0 Z M0.203125 72.54296875 C-3.97400113 79.60442365 -5.51905559 87.75916465 -7.296875 95.66796875 C-7.44683929 96.32470581 -7.59680359 96.98144287 -7.75131226 97.65808105 C-12.8017364 119.78285595 -16.35253939 141.93278278 -17.55078125 164.6015625 C-17.796875 167.54296875 -17.796875 167.54296875 -18.796875 170.54296875 C-20.828125 171.45703125 -20.828125 171.45703125 -23.296875 172.16796875 C-26.31275579 172.88991406 -26.31275579 172.88991406 -28.796875 174.54296875 C-28.51218297 179.56796569 -28.51218297 179.56796569 -25.796875 183.54296875 C-23.47412323 183.94344319 -21.13948143 184.28267915 -18.796875 184.54296875 C-18.70712402 185.08598633 -18.61737305 185.62900391 -18.52490234 186.18847656 C-15.2118238 206.87468175 -15.2118238 206.87468175 -2.75390625 223.08984375 C2.42993457 225.99808232 7.16110107 228.08466745 13.203125 227.54296875 C22.2102604 224.89381128 27.20998129 220.035222 31.87109375 212.078125 C34.55924877 206.961959 35.43192513 203.37737211 35.203125 197.54296875 C31.41562585 197.76213687 30.25540326 198.49061439 27.51953125 201.23046875 C26.11914916 202.87985193 24.75588708 204.55502654 23.39648438 206.23828125 C20.12637351 210.07892209 18.12521366 210.96424993 13.203125 211.54296875 C13.12891046 207.61035931 13.07449364 203.67802153 13.03833008 199.74487305 C13.01584167 197.74969174 12.97772302 195.75470662 12.93945312 193.75976562 C12.92978516 192.50615234 12.92011719 191.25253906 12.91015625 189.9609375 C12.8944458 188.80360107 12.87873535 187.64626465 12.86254883 186.45385742 C13.203125 183.54296875 13.203125 183.54296875 14.48657227 181.72631836 C17.44879687 179.68423293 20.90413686 178.89281247 24.328125 177.91796875 C29.14057316 176.87683056 29.14057316 176.87683056 33.203125 174.54296875 C33.24376332 172.8767976 33.245846 171.2090878 33.203125 169.54296875 C30.16099233 168.02190241 26.92264928 168.16867537 23.578125 167.98046875 C22.51851562 167.91569336 22.51851562 167.91569336 21.4375 167.84960938 C19.69293963 167.74352124 17.94805803 167.64273986 16.203125 167.54296875 C16.03245125 161.39960036 16.6558985 155.722098 17.70703125 149.67578125 C17.86595856 148.7349469 18.02488586 147.79411255 18.18862915 146.82476807 C18.70731712 143.7712639 19.23636623 140.71965675 19.765625 137.66796875 C20.1248644 135.55942604 20.48399443 133.4508647 20.84301758 131.34228516 C22.52770832 121.54374891 24.29806293 111.77727098 26.3984375 102.05859375 C26.56848801 101.26722015 26.73853851 100.47584656 26.91374207 99.66049194 C27.70648194 95.99525368 28.52471552 92.33841437 29.38305664 88.68798828 C29.66785889 87.41036621 29.95266113 86.13274414 30.24609375 84.81640625 C30.50414795 83.71731934 30.76220215 82.61823242 31.02807617 81.48583984 C31.24467966 77.84436368 30.40616768 76.39596086 28.203125 73.54296875 C20.96358253 68.34534852 7.3146527 66.52552224 0.203125 72.54296875 Z M-58.796875 129.54296875 C-62.88647032 133.3810215 -66.55967968 137.07613738 -67.109375 142.79296875 C-66.73758217 147.25448273 -65.65819728 149.14031523 -62.796875 152.54296875 C-59.94082881 154.85868188 -58.12852741 155.49290801 -54.484375 156.04296875 C-48.69450828 155.25790208 -44.49207773 152.67564315 -40.859375 148.10546875 C-38.94936913 143.49898401 -38.41736409 140.76583724 -39.921875 135.91796875 C-42.30011867 131.63713014 -44.55992124 129.36710961 -49.171875 127.66796875 C-52.96079296 127.48754409 -55.28428316 128.02892054 -58.796875 129.54296875 Z M-62.359375 168.91796875 C-67.42441075 178.16716447 -64.63590176 191.90341343 -63.546875 201.91796875 C-63.43730469 203.06007812 -63.32773438 204.2021875 -63.21484375 205.37890625 C-61.60636831 220.29096434 -61.60636831 220.29096434 -53.796875 232.54296875 C-50.56876974 233.90217097 -49.17993543 233.6733723 -45.859375 232.54296875 C-41.5920808 229.75616438 -38.0935799 226.13637856 -35.796875 221.54296875 C-35.13537885 211.03989242 -36.18249185 200.3685811 -36.91381836 189.89257812 C-37.11084692 187.02152025 -37.28886483 184.14964054 -37.46679688 181.27734375 C-37.59258562 179.43872205 -37.7194979 177.6001768 -37.84765625 175.76171875 C-37.92286247 174.48355286 -37.92286247 174.48355286 -37.99958801 173.17956543 C-38.3403805 168.63153583 -38.7350242 165.15624931 -41.796875 161.54296875 C-49.70314261 160.15590426 -56.58807674 163.56896061 -62.359375 168.91796875 Z " fill="#000000" transform="translate(230.796875,15.45703125)"/>
<path d="M0 0 C0.67289063 -0.01611328 1.34578125 -0.03222656 2.0390625 -0.04882812 C7.15436057 -0.05376567 10.53587131 1.01905389 15 3.3125 C17 5.3125 17 5.3125 17.24365234 7.70996094 C17.1501649 16.53126885 16.55855033 25.26442171 15.8314209 34.05093384 C14.54285376 49.7291992 13.53314753 65.41369395 12.75 81.125 C12.70321106 82.02311401 12.65642212 82.92122803 12.60821533 83.84655762 C12.47717903 86.38311698 12.3542661 88.9199235 12.234375 91.45703125 C12.1949881 92.21141983 12.1556012 92.96580841 12.11502075 93.74305725 C11.97461874 96.92844237 11.98150333 99.25701 13 102.3125 C14.04800781 102.34988281 15.09601563 102.38726562 16.17578125 102.42578125 C17.55472305 102.49144515 18.93362771 102.55789235 20.3125 102.625 C21.00279297 102.64755859 21.69308594 102.67011719 22.40429688 102.69335938 C27.51518585 102.96495251 27.51518585 102.96495251 29.9453125 104.70703125 C31 106.3125 31 106.3125 31.5625 108.6875 C30.88174319 111.8643651 29.54693372 113.35399724 26.98828125 115.3203125 C23.84415556 116.88928681 20.74096041 116.92323794 17.26953125 116.9765625 C14.9744766 117.16382276 14.9744766 117.16382276 13.1875 118.4296875 C11.38376101 121.28956313 11.87486084 123.4874906 12.1875 126.8125 C12.30351563 128.05257812 12.41953125 129.29265625 12.5390625 130.5703125 C13.1501171 135.53124733 13.97193429 140.42170197 15 145.3125 C18.87383969 145.78015844 18.87383969 145.78015844 20.4921875 143.84375 C21.17667969 142.83828125 21.17667969 142.83828125 21.875 141.8125 C22.3803125 141.090625 22.885625 140.36875 23.40625 139.625 C23.9321875 138.861875 24.458125 138.09875 25 137.3125 C26.11848188 135.80763347 27.24317803 134.3073592 28.375 132.8125 C28.87773438 132.1421875 29.38046875 131.471875 29.8984375 130.78125 C30.26195312 130.2965625 30.62546875 129.811875 31 129.3125 C35.875 130.1875 35.875 130.1875 37 131.3125 C37.78599875 139.24979882 36.98328034 145.40722855 33 152.3125 C32.401875 153.364375 31.80375 154.41625 31.1875 155.5 C27.24771356 160.56543971 22.36554226 165.27745748 15.95703125 166.796875 C8.48858706 167.7219282 2.17905505 167.12275495 -4.125 162.75 C-15.38451895 153.38940786 -20.12670678 140.70304306 -22.25 126.5625 C-23.015206 121.85684705 -23.015206 121.85684705 -26.296875 118.73046875 C-28.95228621 117.69846968 -28.95228621 117.69846968 -31.625 117.18359375 C-34.82320311 116.0105686 -35.53116916 114.29364681 -37 111.3125 C-37.556875 112.02535156 -38.11375 112.73820312 -38.6875 113.47265625 C-45.96644835 122.60822825 -52.97868338 130.46366317 -64.375 134.0625 C-75.36248936 135.10892756 -84.79889136 133.71156871 -93.9609375 127.171875 C-103.75178557 118.24382197 -106.09425866 104.21910257 -106.92480469 91.62695312 C-107.5711505 71.73293264 -100.38676093 52.64019592 -86.859375 37.96484375 C-79.39978046 31.33583432 -71.90881072 29.94414087 -62.20703125 30.03125 C-57.6534322 30.43059121 -55.55381833 31.45399395 -52 34.3125 C-47.42873054 40.40752594 -47.48113364 46.95047163 -48 54.3125 C-49.40514579 62.97541716 -53.43752115 69.8265611 -60.43359375 75.171875 C-65.25786455 78.25588373 -69.26688508 80.06323413 -75 80.3125 C-75.53238988 91.68026802 -75.53238988 91.68026802 -72 102.3125 C-69.61334867 104.82476455 -67.81728219 105.98988861 -64.625 107.25 C-60.33392778 107.35216839 -56.61557936 105.7330612 -53.42041016 102.92358398 C-51.39272975 100.78473835 -49.44772221 98.58923201 -47.5390625 96.34375 C-46.0625 94.734375 -46.0625 94.734375 -43 92.3125 C-39.1875 92.328125 -39.1875 92.328125 -36 93.3125 C-34.67770811 95.95708379 -34.90322806 97.99011301 -34.9375 100.9375 C-34.94652344 101.94039063 -34.95554687 102.94328125 -34.96484375 103.9765625 C-34.97644531 104.74742187 -34.98804688 105.51828125 -35 106.3125 C-33.88625 105.9 -32.7725 105.4875 -31.625 105.0625 C-30.99851562 104.83046875 -30.37203125 104.5984375 -29.7265625 104.359375 C-27.40158395 102.9496595 -26.9706532 101.85816047 -26 99.3125 C-25.75625691 96.10309473 -25.75625691 96.10309473 -25.875 92.50390625 C-25.89244619 91.11767921 -25.90960487 89.73144854 -25.92651367 88.34521484 C-25.93895111 87.61695496 -25.95138855 86.88869507 -25.96420288 86.1383667 C-26.29942679 64.94295603 -25.02434683 43.99870509 -22.5625 22.9375 C-22.39754028 21.47546143 -22.39754028 21.47546143 -22.22924805 19.98388672 C-21.45559643 13.89495194 -20.29490226 8.64010828 -16.75 3.5 C-11.81961125 0.15437906 -5.77153311 -0.02764144 0 0 Z M-67.375 43.25 C-70.62158648 46.63186092 -72.7580583 50.80441293 -74 55.3125 C-73.90813329 57.51201663 -73.90813329 57.51201663 -73 59.3125 C-70.06271544 60.66324193 -70.06271544 60.66324193 -67.5625 59.25 C-63.55998896 56.22371117 -61.49980763 52.97852543 -60.0625 48.1875 C-59.75834965 45.27983637 -59.75834965 45.27983637 -61.3125 42.9375 C-63.94960525 40.39806531 -64.58334882 40.97260035 -67.375 43.25 Z " fill="#000000" transform="translate(592,68.6875)"/>
<path d="M0 0 C3.79847116 3.46331194 5.02357362 6.92528496 5.27755737 11.96411133 C5.22025847 15.1750719 5.10878181 18.37796018 4.948946 21.5854187 C4.75299268 25.58537268 4.61911241 29.58757555 4.47998047 33.58984375 C4.44830182 34.47412552 4.41662317 35.35840729 4.38398457 36.26948547 C3.97619097 48.30118105 3.94835013 60.33758742 3.87890625 72.375 C3.8626377 74.7995626 3.84606514 77.22412317 3.82919312 79.64868164 C3.76085168 89.63781721 3.69859445 99.62696795 3.64819336 109.61621094 C3.61648364 115.8174677 3.57530496 122.01860058 3.52799797 128.21975708 C3.51202084 130.56094175 3.49967957 132.90215425 3.49109077 135.24337769 C3.47898844 138.48139293 3.45488333 141.71911012 3.42797852 144.95703125 C3.42738937 145.91467377 3.42680023 146.87231628 3.42619324 147.85897827 C3.41647491 148.73800812 3.40675659 149.61703796 3.39674377 150.52270508 C3.39251184 151.28343826 3.3882799 152.04417145 3.38391972 152.82795715 C3.08217903 155.28638294 2.44822963 156.84718153 1.125 158.9375 C-5.7464208 163.5184472 -15.80889745 162.8957614 -23.68359375 161.40625 C-27.10168566 160.37352601 -29.33218843 159.48031157 -31.875 156.9375 C-33.87644217 152.93461565 -34.12103741 149.42812729 -34.375 145.00390625 C-34.41560547 144.32956039 -34.45621094 143.65521454 -34.49804688 142.96043396 C-34.62755286 140.80716349 -34.75186594 138.65364365 -34.875 136.5 C-35.03733533 133.66769236 -35.20472346 130.83574622 -35.375 128.00390625 C-35.48328125 126.1158728 -35.48328125 126.1158728 -35.59375 124.18969727 C-35.81557799 121.6246186 -36.13717183 119.39039438 -36.875 116.9375 C-37.49375 118.09765625 -37.49375 118.09765625 -38.125 119.28125 C-43.7984857 129.5137867 -50.22239206 138.38107817 -61.875 141.9375 C-68.64755104 142.85843654 -75.23477679 142.85564007 -81.2265625 139.265625 C-86.37483617 135.11772678 -88.38883334 130.29933622 -89.875 123.9375 C-91.52978301 108.54582627 -88.51235855 95.29845988 -78.875 82.9375 C-69.02168374 72.36990989 -57.50345489 67.49092148 -43.671875 64.16796875 C-42.68703125 63.92691406 -41.7021875 63.68585938 -40.6875 63.4375 C-39.36685547 63.14359375 -39.36685547 63.14359375 -38.01953125 62.84375 C-35.77133948 62.13319553 -35.77133948 62.13319553 -34.78540039 60.22338867 C-33.73236874 57.57937277 -33.4289468 55.29062749 -33.1640625 52.45703125 C-33.05594238 51.38324219 -32.94782227 50.30945313 -32.83642578 49.203125 C-32.72540527 48.06359375 -32.61438477 46.9240625 -32.5 45.75 C-28.82649702 11.52070578 -28.82649702 11.52070578 -20.10546875 3.26171875 C-13.98226572 -1.31456983 -7.21981684 -2.66819318 0 0 Z M-37.875 77.9375 C-51.39705242 84.83344691 -59.38976091 100.22545213 -64.375 113.8125 C-64.6426416 114.52599609 -64.9102832 115.23949219 -65.18603516 115.97460938 C-66.69815908 120.34182829 -67.0866874 123.33597284 -65.875 127.9375 C-62.20170432 127.82618801 -60.17038536 126.60996232 -57.5625 124.1875 C-46.57569824 112.43970764 -38.1317896 94.64472483 -34.875 78.9375 C-35.865 78.6075 -36.855 78.2775 -37.875 77.9375 Z " fill="#000000" transform="translate(424.875,64.0625)"/>
<path d="M0 0 C6.17698491 3.64149955 10.56849205 9.16523807 14.5 15.0625 C14.6875 18.1875 14.6875 18.1875 14.5 21.0625 C13.5 22.0625 13.5 22.0625 10.9375 22.3125 C7.90451345 22.09191916 6.33722626 21.69660644 3.625 20.5625 C-1.66650891 18.44185711 -6.04354979 18.26039381 -11.5625 20.0625 C-22.52982648 27.5296159 -28.30822787 40.8014251 -31.078125 53.41796875 C-31.60545708 56.72355964 -31.72744665 59.72661581 -31.5 63.0625 C-29.25775342 63.65213678 -29.25775342 63.65213678 -26.5 63.0625 C-20.25365894 56.68269012 -16.14583919 49.02439152 -11.7109375 41.3359375 C-4.52539975 29.1806666 -4.52539975 29.1806666 2.875 27.125 C8.57024543 27.02680611 12.66072854 27.78300681 17.375 31.0625 C22.31940049 38.0428301 21.7085917 47.01827626 21.5 55.25 C20.82372698 72.63031039 20.82372698 72.63031039 27.5 88.0625 C29.33992584 89.74894582 29.33992584 89.74894582 31.25 90.9375 C32.3225 91.63875 33.395 92.34 34.5 93.0625 C34.5 100.43961406 32.77689812 103.92054163 27.609375 109.1796875 C22.47742054 113.76043204 17.23669173 115.02704373 10.5 115.0625 C3.96926848 114.1459061 -0.28434274 110.96362998 -4.5 106.0625 C-9.06845215 99.02461426 -11.354674 91.76862013 -12.95703125 83.58203125 C-13.24590846 81.13583377 -13.24590846 81.13583377 -14.5 80.0625 C-14.85191406 80.6915625 -15.20382812 81.320625 -15.56640625 81.96875 C-20.42921646 90.39931392 -25.6116537 99.21693272 -35.5 102.0625 C-40.97553593 102.88899599 -46.13274901 102.75829794 -50.90234375 99.58984375 C-58.93550543 91.91021975 -60.84709581 81.48512652 -61.46484375 70.87109375 C-61.67506075 48.09758562 -53.63275173 24.96188304 -38.125 8.25 C-28.09168 -1.34407327 -13.16229924 -5.97539638 0 0 Z " fill="#000000" transform="translate(689.5,100.9375)"/>
<path d="M0 0 C2.68843354 3.91484254 2.01933633 7.35279958 1.67578125 11.96875 C1.58768188 13.47381104 1.58768188 13.47381104 1.49780273 15.00927734 C1.31124923 18.09241306 1.10289164 21.17350312 0.89050293 24.25494385 C0.65780645 27.73466124 0.44909426 31.21577873 0.23783875 34.69685364 C-0.06622057 39.68384571 -0.38244614 44.67005196 -0.69921875 49.65625 C-0.76029816 50.63061005 -0.82137756 51.60497009 -0.88430786 52.6088562 C-2.99805743 85.92237549 -2.99805743 85.92237549 -9.26953125 91.97265625 C-13.7676683 95.491787 -17.20766016 97.53125 -23.01171875 97.53125 C-26.78330813 96.37076096 -28.03815429 95.78718367 -30.26171875 92.53125 C-37.77181374 73.20033286 -34.86847693 50.03804758 -32.94921875 29.78125 C-32.8315918 28.4921875 -32.71396484 27.203125 -32.59277344 25.875 C-30.82599736 8.74043512 -30.82599736 8.74043512 -25.19921875 3.15625 C-18.2354372 -2.10690279 -7.77386416 -5.04831247 0 0 Z " fill="#000000" transform="translate(476.26171875,117.46875)"/>
<path d="M0 0 C5.4060952 5.92096141 6.19844407 11.02742126 5.97265625 18.87109375 C5.28383531 24.82281622 3.23327324 29.75395791 -1.25 33.8125 C-6.640934 37.37051644 -10.85001669 38.40201776 -17.1953125 37.47265625 C-22.15219061 36.11351225 -24.69303435 33.01160942 -27.25 28.75 C-29.55753507 22.39391539 -29.28283505 15.39607263 -26.875 9.125 C-24.2922201 3.99633705 -19.92318366 -0.87682472 -14.3984375 -2.8203125 C-9.00166368 -3.63295412 -4.61482756 -2.90563217 0 0 Z " fill="#000000" transform="translate(476.375,72.125)"/>
<path d="M0 0 C3.68087082 2.95723491 5.21447916 6.20853713 7.015625 10.515625 C7.73153809 12.20606934 7.73153809 12.20606934 8.46191406 13.93066406 C9.05198242 15.35604492 9.64205078 16.78142578 10.25 18.25 C12.1475 22.7875 14.045 27.325 16 32 C16.33 21.77 16.66 11.54 17 1 C18.98 1 20.96 1 23 1 C23 14.53 23 28.06 23 42 C20.03 42 17.06 42 14 42 C11.68256572 39.19158388 10.45560921 37.23166001 9 34 C8.60232422 33.1740332 8.20464844 32.34806641 7.79492188 31.49707031 C6.56736614 28.89122366 5.40148076 26.26526397 4.25 23.625 C3.46370061 21.8462839 2.67724988 20.06763468 1.890625 18.2890625 C1.55063477 17.51256348 1.21064453 16.73606445 0.86035156 15.93603516 C0.27103407 14.60990357 -0.35101309 13.29797383 -1 12 C-1.33 21.9 -1.66 31.8 -2 42 C-3.98 42 -5.96 42 -8 42 C-8 28.47 -8 14.94 -8 1 C-5.15916359 -0.42041821 -3.14522722 -0.31452272 0 0 Z " fill="#000000" transform="translate(637,248)"/>
<path d="M0 0 C6.56084992 0.03369763 13.47374836 0.24529937 18.609375 4.79296875 C21.06139044 7.59836288 21.07317242 9.61604117 21.0625 13.25 C21.06636719 14.56291016 21.06636719 14.56291016 21.0703125 15.90234375 C20.91034642 18.80525768 20.57947353 20.69727537 18.4375 22.75 C16.58054175 24.68433151 16.23356426 25.64792168 15.9375 28.3125 C16.94228965 31.07815965 16.94228965 31.07815965 18.4375 33.875 C19.90625 36.75390625 19.90625 36.75390625 20.9375 39.3125 C20.6075 40.3025 20.2775 41.2925 19.9375 42.3125 C17.75 42.8125 17.75 42.8125 14.9375 42.3125 C11.47210429 38.25101581 9.21242275 33.10181106 6.9375 28.3125 C4.2975 28.3125 1.6575 28.3125 -1.0625 28.3125 C-2.41341528 31.01433055 -2.40108058 33.43058206 -2.625 36.4375 C-2.70878906 37.53320312 -2.79257812 38.62890625 -2.87890625 39.7578125 C-2.93949219 40.60085938 -3.00007812 41.44390625 -3.0625 42.3125 C-4.72861905 42.355221 -6.39632885 42.35313832 -8.0625 42.3125 C-10.15691119 40.21808881 -9.22664502 35.64584318 -9.23046875 32.75390625 C-9.23379715 31.89441879 -9.23712555 31.03493134 -9.24055481 30.1493988 C-9.2456277 28.32771339 -9.24796302 26.50601864 -9.24780273 24.68432617 C-9.24998803 21.8903071 -9.26813644 19.09668343 -9.28710938 16.30273438 C-9.2900434 14.53645969 -9.29202814 12.77018312 -9.29296875 11.00390625 C-9.30015427 10.16428848 -9.30733978 9.32467072 -9.31474304 8.45960999 C-9.28372692 0.62217621 -7.54919323 0.02267025 0 0 Z M-3.0625 9.3125 C-3.91869129 13.50089525 -3.67855556 17.18752898 -1.625 20.9375 C1.74406934 22.74529331 4.01541113 22.60197269 7.73828125 21.98046875 C11.30532074 20.89705178 12.91880461 19.40783294 14.9375 16.3125 C15.27410145 12.66842863 15.27410145 12.66842863 13.9375 9.3125 C10.41824955 5.90322612 6.68149218 5.96175589 2.0234375 5.9140625 C-0.62787638 6.42049324 -1.49946393 7.12619722 -3.0625 9.3125 Z " fill="#000000" transform="translate(541.0625,247.6875)"/>
<path d="M0 0 C1.64453125 1.72265625 1.64453125 1.72265625 1.64453125 5.72265625 C0.35869141 5.68785156 0.35869141 5.68785156 -0.953125 5.65234375 C-9.86718488 5.43316585 -9.86718488 5.43316585 -18.35546875 7.72265625 C-22.06403557 13.28550648 -21.92298704 20.20135518 -21.35546875 26.72265625 C-20.46573567 30.4777502 -19.05789659 33.08043651 -16.16796875 35.72265625 C-12.19826802 37.1341054 -9.47719247 36.49111321 -5.35546875 35.72265625 C-5.35546875 32.75265625 -5.35546875 29.78265625 -5.35546875 26.72265625 C-7.00546875 26.06265625 -8.65546875 25.40265625 -10.35546875 24.72265625 C-10.02546875 23.07265625 -9.69546875 21.42265625 -9.35546875 19.72265625 C-7.89723663 19.69565195 -6.438862 19.67625838 -4.98046875 19.66015625 C-4.16835938 19.64855469 -3.35625 19.63695312 -2.51953125 19.625 C-0.35546875 19.72265625 -0.35546875 19.72265625 1.64453125 20.72265625 C2.91318603 26.55846823 3.20289359 32.77940967 2.64453125 38.72265625 C0.64453125 41.72265625 0.64453125 41.72265625 -2.35546875 42.72265625 C-4.97586589 42.89696838 -7.54608959 42.9995006 -10.16796875 43.03515625 C-11.21694336 43.07866211 -11.21694336 43.07866211 -12.28710938 43.12304688 C-17.42524412 43.18553121 -20.29394262 42.11529603 -24.35546875 38.72265625 C-29.53258442 32.48174969 -29.80745637 23.67365909 -29.1015625 15.94140625 C-28.23581577 10.76252492 -27.00110429 6.6487253 -23.35546875 2.72265625 C-16.91694791 -1.65171035 -7.12199763 -3.86217782 0 0 Z " fill="#000000" transform="translate(718.35546875,248.27734375)"/>
<path d="M0 0 C1.0209375 0.02900391 1.0209375 0.02900391 2.0625 0.05859375 C3.0834375 0.06052734 3.0834375 0.06052734 4.125 0.0625 C6.75408395 0.65086354 7.38718326 1.35441874 9.0625 3.49609375 C10.00340955 6.1052697 10.80822189 8.63850204 11.54296875 11.3046875 C11.86954216 12.44938255 11.86954216 12.44938255 12.20271301 13.61720276 C12.66027974 15.22890467 13.11302756 16.84198141 13.5612793 18.45629883 C14.24737809 20.92416287 14.94953931 23.38701671 15.65429688 25.84960938 C16.09731168 27.41769855 16.53940019 28.98604978 16.98046875 30.5546875 C17.18979538 31.29021347 17.39912201 32.02573944 17.61479187 32.78355408 C18.55347884 36.18673781 19.0625 38.93426289 19.0625 42.49609375 C17.0825 42.49609375 15.1025 42.49609375 13.0625 42.49609375 C11.5775 38.04109375 11.5775 38.04109375 10.0625 33.49609375 C5.1125 33.49609375 0.1625 33.49609375 -4.9375 33.49609375 C-6.2575 36.46609375 -7.5775 39.43609375 -8.9375 42.49609375 C-10.5875 42.49609375 -12.2375 42.49609375 -13.9375 42.49609375 C-13.39270848 34.94330227 -11.64393326 27.93029356 -9.60888672 20.64672852 C-9.05957777 18.67309435 -8.52732787 16.69536296 -7.99609375 14.71679688 C-7.64933594 13.46189453 -7.30257813 12.20699219 -6.9453125 10.9140625 C-6.47569092 9.20899536 -6.47569092 9.20899536 -5.99658203 7.46948242 C-3.67083445 0.93991124 -3.67083445 0.93991124 0 0 Z M1.0625 6.49609375 C0.19771219 9.2640132 -0.65461674 12.03475001 -1.5 14.80859375 C-1.74685547 15.59427734 -1.99371094 16.37996094 -2.24804688 17.18945312 C-2.47685547 17.94677734 -2.70566406 18.70410156 -2.94140625 19.484375 C-3.15611572 20.18087158 -3.3708252 20.87736816 -3.59204102 21.5949707 C-4.13356696 23.70913191 -4.13356696 23.70913191 -2.9375 26.49609375 C1.04446457 27.5501432 4.04445309 27.33708031 8.0625 26.49609375 C7.55455798 19.76586199 5.92179655 13.63548899 3.0625 7.49609375 C2.4025 7.16609375 1.7425 6.83609375 1.0625 6.49609375 Z " fill="#000000" transform="translate(378.9375,247.50390625)"/>
<path d="M0 0 C0.94673584 0.00410889 1.89347168 0.00821777 2.86889648 0.01245117 C3.89563477 0.01438477 4.92237305 0.01631836 5.98022461 0.01831055 C7.05594727 0.03055664 8.13166992 0.04280273 9.23999023 0.05541992 C10.31958008 0.05606445 11.39916992 0.05670898 12.51147461 0.05737305 C20.53734426 0.10277394 20.53734426 0.10277394 21.67749023 1.24291992 C21.67749023 2.89291992 21.67749023 4.54291992 21.67749023 6.24291992 C12.27249023 6.73791992 12.27249023 6.73791992 2.67749023 7.24291992 C2.08120544 14.42302833 2.08120544 14.42302833 3.67749023 17.24291992 C6.69060838 17.67443964 6.69060838 17.67443964 10.17749023 17.80541992 C16.58104936 18.14647905 16.58104936 18.14647905 17.67749023 19.24291992 C17.71812856 20.90909107 17.72021124 22.57680087 17.67749023 24.24291992 C12.6910375 25.57264065 7.79971558 25.31121626 2.67749023 25.24291992 C2.67749023 28.87291992 2.67749023 32.50291992 2.67749023 36.24291992 C8.94749023 36.57291992 15.21749023 36.90291992 21.67749023 37.24291992 C21.67749023 38.89291992 21.67749023 40.54291992 21.67749023 42.24291992 C17.53167137 42.27178743 13.38587807 42.2896732 9.23999023 42.30541992 C7.46398437 42.31798828 7.46398437 42.31798828 5.65209961 42.33081055 C4.52739258 42.3340332 3.40268555 42.33725586 2.24389648 42.34057617 C0.68070679 42.3484314 0.68070679 42.3484314 -0.9140625 42.35644531 C-3.32250977 42.24291992 -3.32250977 42.24291992 -4.32250977 41.24291992 C-4.43600137 38.38197775 -4.48669468 35.54608537 -4.49047852 32.68432617 C-4.49380692 31.82483871 -4.49713531 30.96535126 -4.50056458 30.07981873 C-4.50563747 28.25813331 -4.50797279 26.43643857 -4.5078125 24.61474609 C-4.50999779 21.82072703 -4.52814621 19.02710335 -4.54711914 16.2331543 C-4.55005317 14.46687961 -4.5520379 12.70060304 -4.55297852 10.93432617 C-4.56016403 10.0947084 -4.56734955 9.25509064 -4.57475281 8.39002991 C-4.54343045 0.47521426 -4.54343045 0.47521426 0 0 Z " fill="#000000" transform="translate(481.322509765625,247.757080078125)"/>
<path d="M0 0 C0.94746094 -0.01417969 1.89492188 -0.02835938 2.87109375 -0.04296875 C5.60751644 0.19135482 7.22678123 0.79048617 9.5625 2.1875 C9.5625 3.8375 9.5625 5.4875 9.5625 7.1875 C8.68207031 7.15269531 7.80164063 7.11789063 6.89453125 7.08203125 C5.15236328 7.04142578 5.15236328 7.04142578 3.375 7 C2.22644531 6.96519531 1.07789063 6.93039063 -0.10546875 6.89453125 C-3.75570512 7.21547818 -5.55439462 7.96892163 -8.4375 10.1875 C-11.65532931 17.10583302 -11.8273579 23.82652427 -10.203125 31.109375 C-9.22488132 33.76460784 -8.54453353 35.24647517 -6.4375 37.1875 C-3.59183959 37.64468128 -1.10133827 37.88271446 1.75 37.9375 C2.87438477 37.98197266 2.87438477 37.98197266 4.02148438 38.02734375 C5.86791307 38.0979079 7.71521261 38.14498476 9.5625 38.1875 C9.5625 39.8375 9.5625 41.4875 9.5625 43.1875 C6.46333704 44.73708148 3.21178151 44.45431073 -0.1875 44.5 C-0.89132812 44.52900391 -1.59515625 44.55800781 -2.3203125 44.58789062 C-7.45132359 44.64988239 -10.53938702 43.80636219 -14.4375 40.1875 C-17.93530612 34.44667228 -17.9260669 28.09906328 -17.875 21.5625 C-17.89498047 20.64726562 -17.91496094 19.73203125 -17.93554688 18.7890625 C-17.93141534 13.07102183 -17.28911336 9.6951574 -13.4375 5.1875 C-9.01376118 1.19534545 -5.90472906 0.04005922 0 0 Z " fill="#000000" transform="translate(329.4375,246.8125)"/>
<path d="M0 0 C9.57 0 19.14 0 29 0 C29.33 1.32 29.66 2.64 30 4 C28.1043461 5.8956539 24.70510972 5.36630149 22.12890625 5.5234375 C19.61527629 5.82873755 19.61527629 5.82873755 18 9 C17.76034953 11.46384903 17.62758 13.82540576 17.5859375 16.29296875 C17.56657135 16.99899734 17.5472052 17.70502594 17.5272522 18.43244934 C17.46754776 20.68401061 17.4211086 22.93562328 17.375 25.1875 C17.33681171 26.71551689 17.29775948 28.24351245 17.2578125 29.77148438 C17.16185404 33.51414935 17.07778989 37.2569151 17 41 C15.35 41 13.7 41 12 41 C10.54792847 38.09585695 10.92523443 35.58701342 10.97265625 32.34765625 C10.98530266 31.00065361 10.99766361 29.65364827 11.00976562 28.30664062 C11.0345903 26.18228755 11.06256954 24.05807445 11.09594727 21.93383789 C11.12615445 19.88426824 11.14392566 17.83487753 11.16015625 15.78515625 C11.17699463 14.55676025 11.19383301 13.32836426 11.21118164 12.06274414 C11.24248639 8.82623286 11.24248639 8.82623286 9 6 C6.80545319 5.42006301 6.80545319 5.42006301 4.375 5.3125 C3.55773437 5.24675781 2.74046875 5.18101562 1.8984375 5.11328125 C1.27195312 5.07589844 0.64546875 5.03851563 0 5 C0 3.35 0 1.7 0 0 Z " fill="#000000" transform="translate(420,249)"/>
<path d="M0 0 C1.65 0 3.3 0 5 0 C5 13.53 5 27.06 5 41 C3.35 41 1.7 41 0 41 C0 27.47 0 13.94 0 0 Z " fill="#000000" transform="translate(592,249)"/>
</svg>
