<?xml version="1.0" encoding="UTF-8"?>
<svg version="1.1" xmlns="http://www.w3.org/2000/svg" width="784" height="143">
<path d="M0 0 C0.495 6.435 0.495 6.435 1 13 C25.42 13 49.84 13 75 13 C82.77777778 48.55555556 82.77777778 48.55555556 85.37109375 62.921875 C86.12050885 65.55148804 86.55932619 66.67338366 88.77050781 68.31225586 C90.84308367 69.34922504 90.84308367 69.34922504 93.0012207 70.18017578 C95.7683146 71.3151338 97.69151137 73.04607545 99.875 75.0625 C100.98488281 76.06990234 100.98488281 76.06990234 102.1171875 77.09765625 C104.74137625 79.74906688 106 81.19509339 106 85 C103.89679937 85.50404808 101.79240209 86.00310508 99.6875 86.5 C98.51574219 86.7784375 97.34398437 87.056875 96.13671875 87.34375 C93 88 93 88 90 88 C89.88286148 88.67288055 89.76572296 89.34576111 89.64503479 90.03903198 C88.48888399 96.55435967 87.15433786 103.00162624 85.65234375 109.4453125 C85.32720543 110.85005325 85.32720543 110.85005325 84.99549866 112.28317261 C84.54219155 114.23791842 84.08754474 116.19235402 83.6315918 118.14648438 C82.93137517 121.15128312 82.23795127 124.15759894 81.54492188 127.1640625 C81.10196884 129.07040696 80.65862402 130.97666044 80.21484375 132.8828125 C79.90389015 134.23416794 79.90389015 134.23416794 79.58665466 135.61282349 C79.39297806 136.43813568 79.19930145 137.26344788 78.99975586 138.11376953 C78.83035995 138.84226105 78.66096405 139.57075256 78.48643494 140.32131958 C78 142 78 142 77 143 C75.38537354 143.10117664 73.76622963 143.13082817 72.1484375 143.1328125 C71.08898926 143.13579346 70.02954102 143.13877441 68.93798828 143.1418457 C64.50035165 143.12086469 60.06302422 143.07839285 55.62564087 143.026474 C50.99089118 142.98295042 46.36804591 143.05099258 41.7348175 143.17082214 C21.83620922 143.64549191 7.0056824 143.35356971 -9.41601562 130.87451172 C-13.1429033 128.17089838 -17.08690708 125.92096607 -21.08520508 123.64526367 C-23.14270033 122.47119441 -25.18474417 121.2695965 -27.2097168 120.0402832 C-31.92183654 117.19119348 -36.36417244 114.75199818 -41.59765625 113.0078125 C-47.1774443 110.95462809 -51.73663968 109.19366422 -55 104 C-58.93741552 92.05699195 -58.75312371 78.45669842 -59 66 C-59.78262207 65.70722168 -60.56524414 65.41444336 -61.37158203 65.11279297 C-64.32869796 63.86083919 -65.76670846 62.52284231 -67.875 60.125 C-68.49117188 59.44695313 -69.10734375 58.76890625 -69.7421875 58.0703125 C-71 56 -71 56 -70.91796875 53.8828125 C-69.2780565 50.5192478 -66.25067454 49.65488885 -63 48 C-63.40992188 47.33613281 -63.81984375 46.67226563 -64.2421875 45.98828125 C-64.78101562 45.10527344 -65.31984375 44.22226562 -65.875 43.3125 C-66.40867187 42.44238281 -66.94234375 41.57226562 -67.4921875 40.67578125 C-69.82887453 36.5290698 -71 33.81269897 -71 29 C-68.36 29 -65.72 29 -63 29 C-62.0998164 24.20406383 -61.70560238 19.48600386 -61.4375 14.625 C-61.39431641 13.88894531 -61.35113281 13.15289062 -61.30664062 12.39453125 C-61.20156201 10.59651932 -61.10037907 8.79828042 -61 7 C-60.24074219 7.42152344 -59.48148438 7.84304687 -58.69921875 8.27734375 C-57.20841797 9.09912109 -57.20841797 9.09912109 -55.6875 9.9375 C-54.70136719 10.48277344 -53.71523438 11.02804687 -52.69921875 11.58984375 C-49.00449238 13.61841048 -49.00449238 13.61841048 -44.94432068 13.58876038 C-43.7642318 13.21236671 -43.7642318 13.21236671 -42.56030273 12.82836914 C-41.21892494 12.40782005 -41.21892494 12.40782005 -39.85044861 11.97877502 C-38.40660545 11.51168373 -38.40660545 11.51168373 -36.93359375 11.03515625 C-35.448843 10.56691689 -35.448843 10.56691689 -33.93409729 10.08921814 C-30.765874 9.08858277 -27.60159831 8.07609583 -24.4375 7.0625 C-21.26922277 6.0545317 -18.10018624 5.04904571 -14.93019104 4.04649353 C-12.95584553 3.42134025 -10.98261569 2.79265084 -9.01060486 2.16017151 C-8.11950516 1.87665329 -7.22840546 1.59313507 -6.31030273 1.30102539 C-5.52437241 1.04930069 -4.73844208 0.79757599 -3.92869568 0.53822327 C-2 0 -2 0 0 0 Z " fill="#1E1E1C" transform="translate(71,0)"/>
<path d="M0 0 C3.00399216 3.65134156 5.77378504 7.43360461 8.51611328 11.28149414 C25.78740929 35.49814187 43.00770665 50.27793627 72.57421875 57.51953125 C81.89930618 58.82738274 89.8785734 57.64218401 98.875 55.0625 C100.87212312 54.51073073 102.86950999 53.95991498 104.8671875 53.41015625 C105.73456543 53.16402588 106.60194336 52.91789551 107.49560547 52.66430664 C120.32666208 49.26078694 120.32666208 49.26078694 125.9140625 51.90625 C127.5625 53.125 127.5625 53.125 130 56 C130.375 59.3125 130.375 59.3125 130 62 C130.67804688 62.09796875 131.35609375 62.1959375 132.0546875 62.296875 C141.14531343 63.75741878 149.68059969 66.22152607 157 72 C157 72.66 157 73.32 157 74 C156.41476563 74.0515625 155.82953125 74.103125 155.2265625 74.15625 C135.0741045 76.81903724 116.02068288 89.96734868 101 103 C100.34 102.67 99.68 102.34 99 102 C100.08287995 100.6038149 101.1663274 99.20806996 102.25 97.8125 C102.85328125 97.03519531 103.4565625 96.25789063 104.078125 95.45703125 C105.02945313 94.24080078 105.02945313 94.24080078 106 93 C106.62519531 92.16726562 107.25039062 91.33453125 107.89453125 90.4765625 C116.37544867 80.50086372 128.7875636 74.91891616 141 71 C134.11595841 67.13822057 126.70111646 67.28742906 119 67 C119.33 66.401875 119.66 65.80375 120 65.1875 C121.20787988 62.94613529 121.20787988 62.94613529 121 60 C114.27330927 56.63665463 106.08884194 59.26492738 99.375 61.5 C75.9357703 69.68286825 56.89578222 83.13202858 38 99 C37.01 98.505 37.01 98.505 36 98 C38.31 94.7 40.62 91.4 43 88 C42.113125 88.165 41.22625 88.33 40.3125 88.5 C34.58209173 89.34061774 28.77575419 89.0781681 23 89 C24.1446875 87.948125 24.1446875 87.948125 25.3125 86.875 C27.96590478 84.03647396 29.44000743 81.53050949 31 78 C30.32195313 77.97421875 29.64390625 77.9484375 28.9453125 77.921875 C22.21206176 77.51153839 15.88130082 76.50941818 10 73 C9.67 72.01 9.34 71.02 9 70 C9.83144531 69.60167969 9.83144531 69.60167969 10.6796875 69.1953125 C11.40414063 68.84210938 12.12859375 68.48890625 12.875 68.125 C13.59429688 67.77695313 14.31359375 67.42890625 15.0546875 67.0703125 C17.15135019 66.03442457 17.15135019 66.03442457 19 64 C18.16597656 63.82984375 17.33195312 63.6596875 16.47265625 63.484375 C5.96599814 61.22177279 -1.65826915 59.21992488 -8.8828125 51 C-10 49 -10 49 -9.90234375 46.890625 C-8.28992453 43.51222282 -5.2488788 42.65397466 -2 41 C-2.40992188 40.33613281 -2.81984375 39.67226563 -3.2421875 38.98828125 C-3.78101563 38.10527344 -4.31984375 37.22226562 -4.875 36.3125 C-5.40867187 35.44238281 -5.94234375 34.57226562 -6.4921875 33.67578125 C-8.82887453 29.5290698 -10 26.81269897 -10 22 C-7.36 22 -4.72 22 -2 22 C-1.0998164 17.20406383 -0.70560238 12.48600386 -0.4375 7.625 C-0.39431641 6.88894531 -0.35113281 6.15289062 -0.30664062 5.39453125 C-0.20156201 3.59651932 -0.10037907 1.79828042 0 0 Z " fill="#FAFAFA" transform="translate(10,7)"/>
<path d="M0 0 C29.33333333 0 29.33333333 0 36.4375 5.8125 C40.85210878 10.81409278 41.40552367 16.06538989 41.25 22.5390625 C40.6015647 28.92209753 37.67156943 32.8334651 33 37 C34.98318682 42.33857867 37.78160369 47.16766543 40.5390625 52.13671875 C42 55 42 55 42 57 C42.66 57 43.32 57 44 57 C44.25974609 55.72350586 44.51949219 54.44701172 44.78710938 53.13183594 C45.95129973 47.90572782 47.61850263 42.93194312 49.40625 37.890625 C49.73161743 36.96078796 50.05698486 36.03095093 50.39221191 35.07293701 C51.42337067 32.13025798 52.46169834 29.19016522 53.5 26.25 C54.19705914 24.26187456 54.89367778 22.27359462 55.58984375 20.28515625 C58.14667999 12.99867888 58.14667999 12.99867888 59.42773438 9.37207031 C59.68373413 8.64642883 59.93973389 7.92078735 60.20349121 7.17315674 C61.08665545 4.76357339 62.04688742 2.38278144 63 0 C67.95 0 72.9 0 78 0 C82.42977756 10.18418764 86.13457655 20.57333742 89.78588867 31.05712891 C90.82077816 34.02373007 91.86619592 36.98648888 92.91210938 39.94921875 C93.57355578 41.84092248 94.23438581 43.73284188 94.89453125 45.625 C95.20695267 46.50728271 95.51937408 47.38956543 95.84126282 48.29858398 C96.26752205 49.53137085 96.26752205 49.53137085 96.70239258 50.7890625 C96.95378494 51.50787598 97.20517731 52.22668945 97.46418762 52.96728516 C98 55 98 55 98 59 C93.38 59 88.76 59 84 59 C83.01 55.7 82.02 52.4 81 49 C74.07 49 67.14 49 60 49 C59.34 51.97 58.68 54.94 58 58 C57 59 57 59 54.13256836 59.11352539 C52.88096924 59.10828857 51.62937012 59.10305176 50.33984375 59.09765625 C49.34314415 59.09553383 49.34314415 59.09553383 48.3263092 59.09336853 C46.19666101 59.08775518 44.06711661 59.07520054 41.9375 59.0625 C40.49674631 59.05748671 39.05599097 59.05292351 37.61523438 59.04882812 C34.07678898 59.03778145 30.53840461 59.02050792 27 59 C25.4933028 56.2118978 23.99580196 53.41896042 22.5 50.625 C22.07074219 49.8309375 21.64148438 49.036875 21.19921875 48.21875 C20.79316406 47.45820312 20.38710938 46.69765625 19.96875 45.9140625 C19.59169922 45.2123291 19.21464844 44.5105957 18.82617188 43.78759766 C18 42 18 42 18 40 C16.35 40 14.7 40 13 40 C13 46.27 13 52.54 13 59 C8.71 59 4.42 59 0 59 C0 39.53 0 20.06 0 0 Z M13 14 C13 18.62 13 23.24 13 28 C19.62356757 28.57990351 19.62356757 28.57990351 25.625 26.4375 C27.51879045 23.08032602 27.48258091 20.79170715 27 17 C25.89739382 15.18848155 25.89739382 15.18848155 24 14 C21.25756437 13.63729516 21.25756437 13.63729516 18.3125 13.8125 C16.559375 13.874375 14.80625 13.93625 13 14 Z M70 19 C69.16301614 21.45714547 68.33027576 23.91558857 67.5 26.375 C67.26152344 27.07367188 67.02304687 27.77234375 66.77734375 28.4921875 C65.46264088 32.16403079 65.46264088 32.16403079 65 36 C68.96 36 72.92 36 77 36 C76.2175752 33.35110382 75.42462432 30.70620175 74.625 28.0625 C74.40328125 27.30775391 74.1815625 26.55300781 73.953125 25.77539062 C73.36037548 23.83152088 72.68548828 21.91313548 72 20 C71.34 19.67 70.68 19.34 70 19 Z " fill="#1D1D1B" transform="translate(547,27)"/>
<path d="M0 0 C14 0 14 0 17.203125 2.75390625 C18.27978516 4.57397461 18.27978516 4.57397461 19.25 6.5625 C20.03228397 7.93058655 20.81619076 9.29774619 21.6015625 10.6640625 C21.98731445 11.3746582 22.37306641 12.08525391 22.77050781 12.81738281 C24.84370638 16.49776311 27.2496832 19.94804836 29.625 23.4375 C31.06875 25.603125 32.5125 27.76875 34 30 C34.33 20.1 34.66 10.2 35 0 C39.29 0 43.58 0 48 0 C48 19.47 48 38.94 48 59 C43.71 59 39.42 59 35 59 C32.36042475 56.17188366 30.85227974 54.21024035 29.09326172 50.92871094 C27.23533706 47.65099661 25.1240313 44.53814909 23.04907227 41.39501953 C20.34171463 37.27925033 17.67512533 33.13679175 15 29 C14.67 38.9 14.34 48.8 14 59 C9.38 59 4.76 59 0 59 C0 39.53 0 20.06 0 0 Z " fill="#1D1D1B" transform="translate(310,27)"/>
<path d="M0 0 C34.96938306 0 34.96938306 0 44.0859375 8.74609375 C50.4670463 16.26017493 51.71065039 25.45498986 51 35 C49.82387893 43.33624274 45.71682222 49.90879167 39 55 C28 59 28 59 0 59 C0 39.53 0 20.06 0 0 Z M14 14 C14 24.23 14 34.46 14 45 C24.20298204 45.70272688 24.20298204 45.70272688 32 42 C36.47702923 37.03896761 37.29959717 34.07449255 37.21484375 27.5390625 C36.80517337 22.69750352 35.00491107 19.92954274 31.5 16.6875 C25.43814307 12.59574657 22.61802788 14 14 14 Z " fill="#1D1D1B" transform="translate(449,27)"/>
<path d="M0 0 C6.37468923 4.5567223 9.77280883 10.89356696 11.58203125 18.421875 C13.2015718 28.41156439 12.19286962 37.82485786 6.421875 46.32421875 C1.9908624 51.72326789 -3.01216432 55.6253438 -10 57 C-17.94220358 57.71037305 -25.12306956 57.32264199 -32 53 C-39.64313574 46.25529078 -43.34215739 39.16687536 -44.16015625 29.01171875 C-44.52661502 20.04144544 -42.45592926 11.69288513 -36.66796875 4.71875 C-26.50535289 -5.75326634 -12.68608842 -6.5765305 0 0 Z M-25 13 C-28.7990294 17.11059002 -30.33949743 20.97205619 -30.5625 26.5625 C-30.26444192 32.70249647 -28.43458986 36.29490016 -24.3125 40.875 C-19.47884506 43.22650781 -14.75954204 43.59758032 -9.6875 41.875 C-5.79315285 39.15801362 -3.50471001 36.51413003 -2 32 C-1.49150797 25.77097262 -1.26555791 20.27972848 -5 15 C-8.51611191 11.17364292 -11.75844812 10.23132914 -16.79296875 9.9140625 C-20.31488018 10.05119887 -22.1799975 10.88499813 -25 13 Z " fill="#1D1D1B" transform="translate(295,30)"/>
<path d="M0 0 C4.29 0 8.58 0 13 0 C13.33 7.26 13.66 14.52 14 22 C16.2712607 19.08366525 18.54202446 16.16694592 20.8125 13.25 C21.45509766 12.425 22.09769531 11.6 22.75976562 10.75 C23.38173828 9.95078125 24.00371094 9.1515625 24.64453125 8.328125 C25.50075073 7.22839355 25.50075073 7.22839355 26.37426758 6.10644531 C28.03033833 4.01649838 28.03033833 4.01649838 29.47265625 1.75390625 C31 0 31 0 34.79296875 -0.390625 C36.25832231 -0.36410276 37.72341551 -0.31649117 39.1875 -0.25 C39.93708984 -0.23195313 40.68667969 -0.21390625 41.45898438 -0.1953125 C43.3065371 -0.14824109 45.15343159 -0.07649766 47 0 C45.69136584 2.80427103 44.23555321 5.132192 42.28515625 7.53125 C41.76373047 8.17707031 41.24230469 8.82289062 40.70507812 9.48828125 C40.16302734 10.15214844 39.62097656 10.81601562 39.0625 11.5 C37.48584343 13.4448578 35.91043434 15.39045579 34.34423828 17.34375 C33.2770385 18.65865797 32.17376276 19.94427113 31.05859375 21.21875 C29.81174105 22.90231393 29.81174105 22.90231393 30.21118164 24.69702148 C31.30028532 27.87669186 32.91447236 30.71428038 34.5625 33.62890625 C34.9138501 34.25981674 35.2652002 34.89072723 35.62719727 35.54075623 C36.74707919 37.55049103 37.87307869 39.55670518 39 41.5625 C40.12617835 43.57226192 41.25097724 45.58276037 42.37280273 47.59495544 C43.07012462 48.84521993 43.7700619 50.09403013 44.47290039 51.34120178 C45.89098749 53.8795011 47.07751098 56.23253294 48 59 C42.60408495 60.3714906 37.20688838 61.48190748 32 59 C26.17128933 52.81163059 22.55539444 44.6429893 19 37 C16.43115304 39.04442525 14.32130843 40.72685022 13.49365234 44.00634766 C13.28591423 46.28439066 13.2047555 48.52518715 13.1875 50.8125 C13.16236328 51.60076172 13.13722656 52.38902344 13.11132812 53.20117188 C13.05277019 55.13358373 13.02344512 57.06684327 13 59 C8.71 59 4.42 59 0 59 C0 39.53 0 20.06 0 0 Z " fill="#1D1D1B" transform="translate(208,27)"/>
<path d="M0 0 C1.39456452 0.00667256 2.78911118 0.01863093 4.18359375 0.03515625 C4.89451172 0.03966797 5.60542969 0.04417969 6.33789062 0.04882812 C8.09899388 0.06064761 9.86005411 0.07858362 11.62109375 0.09765625 C15.37382974 10.71004018 19.1205267 21.3245403 22.86108398 31.94122314 C23.56507195 33.93870136 24.26973512 35.93593988 24.97460938 37.93310547 C26.11008972 41.15346899 27.24144168 44.37524454 28.37109375 47.59765625 C28.70560547 48.54455322 29.04011719 49.4914502 29.38476562 50.46704102 C29.83432617 51.75372681 29.83432617 51.75372681 30.29296875 53.06640625 C30.55174805 53.80310547 30.81052734 54.53980469 31.07714844 55.29882812 C31.62109375 57.09765625 31.62109375 57.09765625 31.62109375 59.09765625 C27.00109375 59.09765625 22.38109375 59.09765625 17.62109375 59.09765625 C14.62109375 52.47265625 14.62109375 52.47265625 14.62109375 49.09765625 C7.69109375 49.09765625 0.76109375 49.09765625 -6.37890625 49.09765625 C-7.36890625 52.39765625 -8.35890625 55.69765625 -9.37890625 59.09765625 C-13.99890625 59.09765625 -18.61890625 59.09765625 -23.37890625 59.09765625 C-21.95835083 52.01456457 -19.88845012 45.34758311 -17.5 38.53515625 C-17.1278688 37.46265625 -16.75573761 36.39015625 -16.37232971 35.28515625 C-15.59053779 33.03546261 -14.80631432 30.78661261 -14.01977539 28.53857422 C-12.81110581 25.08250015 -11.61104639 21.6235234 -10.41210938 18.1640625 C-9.65024207 15.97508546 -8.88788972 13.78627717 -8.125 11.59765625 C-7.58437172 10.04002563 -7.58437172 10.04002563 -7.03282166 8.45092773 C-6.69899979 7.49903564 -6.36517792 6.54714355 -6.02124023 5.56640625 C-5.72749008 4.72529297 -5.43373993 3.88417969 -5.13108826 3.01757812 C-3.86405705 -0.2164808 -3.76989998 0.10895665 0 0 Z M3.62109375 19.09765625 C1.29778391 24.70292319 -0.84636269 30.22290593 -2.37890625 36.09765625 C1.58109375 36.09765625 5.54109375 36.09765625 9.62109375 36.09765625 C7.33587034 27.53284877 7.33587034 27.53284877 4.62109375 19.09765625 C4.29109375 19.09765625 3.96109375 19.09765625 3.62109375 19.09765625 Z " fill="#1D1D1B" transform="translate(752.37890625,26.90234375)"/>
<path d="M0 0 C12.87 0 25.74 0 39 0 C39 4.62 39 9.24 39 14 C30.75 14 22.5 14 14 14 C14 16.97 14 19.94 14 23 C19.94 23 25.88 23 32 23 C32 26.96 32 30.92 32 35 C26.06 35 20.12 35 14 35 C14 38.3 14 41.6 14 45 C22.25 45 30.5 45 39 45 C39 49.62 39 54.24 39 59 C26.13 59 13.26 59 0 59 C0 39.53 0 20.06 0 0 Z " fill="#1D1D1B" transform="translate(503,27)"/>
<path d="M0 0 C12.87 0 25.74 0 39 0 C39 4.62 39 9.24 39 14 C30.42 14 21.84 14 13 14 C13 16.97 13 19.94 13 23 C19.27 23 25.54 23 32 23 C32 26.96 32 30.92 32 35 C25.73 35 19.46 35 13 35 C13 38.3 13 41.6 13 45 C21.58 45 30.16 45 39 45 C39 49.62 39 54.24 39 59 C26.13 59 13.26 59 0 59 C0 39.53 0 20.06 0 0 Z " fill="#1D1D1B" transform="translate(406,27)"/>
<path d="M0 0 C3.90157897 3.10828196 7.07793903 6.34269842 9 11 C9 11.99 9 12.98 9 14 C-0.76374745 17.76510523 -0.76374745 17.76510523 -5 16 C-5.7425 15.34 -6.485 14.68 -7.25 14 C-11.02432029 11.25503979 -14.36695801 10.66498285 -19 11 C-22.69172238 12.70913073 -24.48668415 14.29846834 -26.875 17.5625 C-28.84303263 23.57593302 -28.84303263 29.42406698 -26.875 35.4375 C-24.48668415 38.70153166 -22.69172238 40.29086927 -19 42 C-15.800475 42.28214506 -13.05554696 41.99588197 -10 41 C-7.16588845 38.666508 -7.16588845 38.666508 -5 36 C-2.5319085 34.31914458 -1.4489631 33.93724172 1.54296875 34.35546875 C2.41566406 34.63003906 3.28835938 34.90460938 4.1875 35.1875 C5.06792969 35.44917969 5.94835937 35.71085937 6.85546875 35.98046875 C7.56316406 36.31691406 8.27085937 36.65335938 9 37 C10 40 10 40 9.25 41.83203125 C4.97111714 48.61138628 0.0366577 54.00941731 -7.7734375 56.52734375 C-15.94825282 58.26269928 -23.83561753 57.42436202 -31 53 C-38.71858339 46.31843717 -41.72690334 39.69228034 -42.875 29.75 C-43.38252789 20.43092412 -41.78377257 11.94705458 -35.66796875 4.68359375 C-25.79362218 -5.28325255 -12.19876418 -7.00867021 0 0 Z " fill="#1D1D1B" transform="translate(686,30)"/>
<path d="M0 0 C12.54 0 25.08 0 38 0 C38 4.62 38 9.24 38 14 C29.75 14 21.5 14 13 14 C13 17.3 13 20.6 13 24 C19.27 24 25.54 24 32 24 C32 28.62 32 33.24 32 38 C25.73 38 19.46 38 13 38 C13 44.93 13 51.86 13 59 C8.71 59 4.42 59 0 59 C0 39.53 0 20.06 0 0 Z " fill="#1D1D1B" transform="translate(364,27)"/>
<path d="M0 0 C1.98 0 3.96 0 6 0 C6 2.31 6 4.62 6 7 C7.98 6.34 9.96 5.68 12 5 C12 7.31 12 9.62 12 12 C10.02 12.66 8.04 13.32 6 14 C6 14.66 6 15.32 6 16 C8.64 15.67 11.28 15.34 14 15 C13.9175 13.80375 13.835 12.6075 13.75 11.375 C13.73416505 6.91746125 15.1340108 4.4560458 18 1 C21.70987327 -0.85493664 25.96139651 -0.59596347 30 0 C32.29327525 1.44785148 33.34437719 2.79250293 35 5 C35.45375 4.175 35.9075 3.35 36.375 2.5 C39.3366898 -0.32065695 40.07383461 -0.4293115 44 -0.5625 C47.48989452 -0.39263788 48.72086938 -0.19937901 51.625 1.875 C53 4 53 4 53 6 C47.58461538 7.23076923 47.58461538 7.23076923 44.625 6.0625 C44.08875 5.711875 43.5525 5.36125 43 5 C44.305239 7.61047801 45.35826574 7.68066423 48.0625 8.625 C48.79597656 8.88539062 49.52945313 9.14578125 50.28515625 9.4140625 C50.85105469 9.60742188 51.41695312 9.80078125 52 10 C52.38091797 9.16855469 52.38091797 9.16855469 52.76953125 8.3203125 C53.11371094 7.59585938 53.45789063 6.87140625 53.8125 6.125 C54.14894531 5.40570313 54.48539063 4.68640625 54.83203125 3.9453125 C56 2 56 2 59 0 C63.62268633 -0.66369119 67.68004854 -0.9336242 71.5625 1.8125 C73 4 73 4 74 7 C69.63686411 7.76996516 66.30728348 8.01347847 62 7 C60.64381501 8.12534105 60.64381501 8.12534105 60.9375 11.0625 C60.958125 12.031875 60.97875 13.00125 61 14 C63.84273894 14.73099001 65.72632223 15.05864524 68.625 14.4375 C71 14 71 14 74 16 C72.63016497 19.16115776 72.0109362 19.9927092 69 22 C65.03114189 22.63905342 60.73292897 23.10033322 57.234375 20.87890625 C55.875 19.5 55.875 19.5 54 17 C53.566875 17.825 53.13375 18.65 52.6875 19.5 C49.01736022 22.91408352 46.40766849 22.52138582 41.55859375 22.46875 C38.67663657 21.94075785 37.69579658 21.35686983 36 19 C36.125 16.875 36.125 16.875 37 15 C37.99 14.67 38.98 14.34 40 14 C39.01 13.01 38.02 12.02 37 11 C36.61908203 11.93972656 36.61908203 11.93972656 36.23046875 12.8984375 C35.88628906 13.71570313 35.54210937 14.53296875 35.1875 15.375 C34.85105469 16.18710938 34.51460937 16.99921875 34.16796875 17.8359375 C33 20 33 20 30 22 C27.66015625 22.30078125 27.66015625 22.30078125 25.0625 22.3125 C24.20785156 22.32925781 23.35320313 22.34601563 22.47265625 22.36328125 C19.5578644 21.93504169 18.18673321 20.92290461 16 19 C15.67 19.99 15.34 20.98 15 22 C10.05 22 5.1 22 0 22 C0 14.74 0 7.48 0 0 Z M23 6 C20.68436913 7.88500271 20.68436913 7.88500271 20.75 11 C20.68436913 14.11499729 20.68436913 14.11499729 23 16 C25.60280568 15.67958603 25.60280568 15.67958603 28 15 C28.76716851 12.14921909 28.76716851 12.14921909 29 9 C27.87359395 7.03959519 27.87359395 7.03959519 26 6 C25.01 6 24.02 6 23 6 Z M42 14 C42.33 14.99 42.66 15.98 43 17 C44.32 16.67 45.64 16.34 47 16 C46.67 15.34 46.34 14.68 46 14 C44.68 14 43.36 14 42 14 Z " fill="#1D1D1B" transform="translate(624,98)"/>
<path d="M0 0 C4.29 0 8.58 0 13 0 C13.09953497 5.94070658 13.17178154 11.88091827 13.21972656 17.82226562 C13.23973216 19.83960435 13.2669456 21.8568859 13.30175781 23.87402344 C13.35076577 26.78855573 13.37307964 29.70231559 13.390625 32.6171875 C13.41127014 33.50614716 13.43191528 34.39510681 13.45318604 35.31100464 C13.45560533 42.19866849 12.18604357 49.2581647 7.58770752 54.65866089 C2.13538211 59.45369188 -3.17059101 60.45346648 -10.19921875 60.3203125 C-14.23801057 59.85841441 -17.89162286 58.6928187 -21 56 C-21.92578125 54.15625 -21.92578125 54.15625 -22 52 C-20.56640625 49.640625 -20.56640625 49.640625 -18.5625 47.25 C-17.90378906 46.45078125 -17.24507812 45.6515625 -16.56640625 44.828125 C-16.04949219 44.22484375 -15.53257812 43.6215625 -15 43 C-14.25363281 43.33773437 -13.50726562 43.67546875 -12.73828125 44.0234375 C-9.19078203 45.28859414 -6.64634969 44.71497053 -3 44 C-0.97671828 38.92404761 -0.66355948 34.47899941 -0.5859375 29.1015625 C-0.56657135 28.26660248 -0.5472052 27.43164246 -0.5272522 26.57138062 C-0.46780386 23.92268874 -0.42121106 21.27395257 -0.375 18.625 C-0.33678818 16.82159636 -0.29773461 15.01821034 -0.2578125 13.21484375 C-0.16213119 8.81004016 -0.07797289 4.4051512 0 0 Z " fill="#1D1D1B" transform="translate(717,27)"/>
<path d="M0 0 C2.2877649 1.45262949 3.34552667 2.79403556 5 5 C5.45375 4.175 5.9075 3.35 6.375 2.5 C9.3366898 -0.32065695 10.07383461 -0.4293115 14 -0.5625 C17.48989452 -0.39263788 18.72086938 -0.19937901 21.625 1.875 C23 4 23 4 23 6 C17.58461538 7.23076923 17.58461538 7.23076923 14.625 6.0625 C14.08875 5.711875 13.5525 5.36125 13 5 C14.305239 7.61047801 15.35826574 7.68066423 18.0625 8.625 C18.79597656 8.88539062 19.52945313 9.14578125 20.28515625 9.4140625 C20.85105469 9.60742188 21.41695313 9.80078125 22 10 C22.38091797 9.16855469 22.38091797 9.16855469 22.76953125 8.3203125 C23.11371094 7.59585938 23.45789063 6.87140625 23.8125 6.125 C24.14894531 5.40570313 24.48539062 4.68640625 24.83203125 3.9453125 C26 2 26 2 29 0 C32.3913932 -0.54607179 35.60837729 -0.54546798 39 0 C42.125 2.375 42.125 2.375 44 5 C44 5.66 44 6.32 44 7 C39.63686411 7.76996516 36.30728348 8.01347847 32 7 C30.64381501 8.12534105 30.64381501 8.12534105 30.9375 11.0625 C30.958125 12.031875 30.97875 13.00125 31 14 C34.74738373 14.96361296 37.25094263 14.78927524 41 14 C41.99 14.33 42.98 14.66 44 15 C42.75023244 18.65316671 42.32901247 19.78065836 39 22 C35.03114189 22.63905342 30.73292897 23.10033322 27.234375 20.87890625 C25.875 19.5 25.875 19.5 24 17 C23.566875 17.825 23.13375 18.65 22.6875 19.5 C19.01736022 22.91408352 16.40766849 22.52138582 11.55859375 22.46875 C8.67663657 21.94075785 7.69579658 21.35686983 6 19 C6.125 16.875 6.125 16.875 7 15 C7.99 14.67 8.98 14.34 10 14 C9.01 13.01 8.02 12.02 7 11 C6.61908203 11.93972656 6.61908203 11.93972656 6.23046875 12.8984375 C5.88628906 13.71570313 5.54210937 14.53296875 5.1875 15.375 C4.85105469 16.18710938 4.51460938 16.99921875 4.16796875 17.8359375 C3 20 3 20 0 22 C-4.93296654 22.79429122 -8.79827278 22.7602764 -13.0625 20.0625 C-15.60245045 16.04773962 -16.29970407 12.72866414 -16 8 C-13.07143563 -0.05355202 -7.96412617 -1.30621814 0 0 Z M-7 6 C-9.31563087 7.88500271 -9.31563087 7.88500271 -9.25 11 C-9.31563087 14.11499729 -9.31563087 14.11499729 -7 16 C-3.69316534 15.71016731 -3.69316534 15.71016731 -1 14 C-0.74994614 11.04182893 -0.74994614 11.04182893 -1 8 C-1.66 7.34 -2.32 6.68 -3 6 C-4.32 6 -5.64 6 -7 6 Z M12 14 C12.33 14.99 12.66 15.98 13 17 C14.32 16.67 15.64 16.34 17 16 C16.67 15.34 16.34 14.68 16 14 C14.68 14 13.36 14 12 14 Z " fill="#1D1D1B" transform="translate(394,98)"/>
<path d="M0 0 C11.93023256 -0.602537 11.93023256 -0.602537 14.9765625 1.11328125 C16.3125 2.5 16.3125 2.5 18 5 C18.61875 4.175 19.2375 3.35 19.875 2.5 C22.42568693 -0.05068693 24.42743595 -0.46503445 28 -0.625 C31.89944911 -0.43903521 32.84505684 -0.12016 36.0625 2.375 C39.14782455 6.55511714 39.56103066 9.87198293 39 15 C37.36312815 18.58552881 36.31027417 19.79315055 33 22 C27.91017857 22.81954752 24.15094948 22.80566463 19.875 19.8125 C17.87793556 16.81690334 17.49844458 15.51088794 18 12 C17.34 12 16.68 12 16 12 C15.67 12.99 15.34 13.98 15 15 C12.29120665 16.35439668 9.99066732 16.06501451 7 16 C7 17.98 7 19.96 7 22 C4.69 22 2.38 22 0 22 C0 14.74 0 7.48 0 0 Z M7 6 C7 7.32 7 8.64 7 10 C8.32 9.67 9.64 9.34 11 9 C10.67 8.01 10.34 7.02 10 6 C9.01 6 8.02 6 7 6 Z M25.25 7.125 C23.66725699 9.07035975 23.66725699 9.07035975 24.3125 12.1875 C24.539375 13.115625 24.76625 14.04375 25 15 C27.39719432 15.67958603 27.39719432 15.67958603 30 16 C32.31563087 14.11499729 32.31563087 14.11499729 32.25 11 C32.31563087 7.88500271 32.31563087 7.88500271 30 6 C27.07385347 5.7296212 27.07385347 5.7296212 25.25 7.125 Z " fill="#1D1D1B" transform="translate(509,98)"/>
<path d="M0 0 C0.66 0 1.32 0 2 0 C2.67493341 2.22667765 3.33963044 4.45645977 4 6.6875 C4.37125 7.92886719 4.7425 9.17023437 5.125 10.44921875 C5.87703457 13.5010019 6.19034899 15.88898362 6 19 C4.87464844 19.17015625 3.74929687 19.3403125 2.58984375 19.515625 C-6.47236642 20.93125433 -15.24261354 22.6912382 -24.05859375 25.23046875 C-27 26 -27 26 -30 26 C-30.69584576 23.04340215 -31.38198507 20.08512767 -32.0625 17.125 C-32.26166016 16.28324219 -32.46082031 15.44148438 -32.66601562 14.57421875 C-32.84970703 13.76855469 -33.03339844 12.96289062 -33.22265625 12.1328125 C-33.48187866 11.01737061 -33.48187866 11.01737061 -33.74633789 9.87939453 C-34 8 -34 8 -33 6 C-28.38 8.31 -23.76 10.62 -19 13 C-18.34 11.02 -17.68 9.04 -17 7 C-16.01 6.01 -15.02 5.02 -14 4 C-11.36 5.98 -8.72 7.96 -6 10 C-5.34 8.68 -4.68 7.36 -4 6 C-2 2.75 -2 2.75 0 0 Z " fill="#F8F8F8" transform="translate(124,33)"/>
<path d="M0 0 C2.31 0 4.62 0 7 0 C7.99 2.97 8.98 5.94 10 9 C10.66 6.69 11.32 4.38 12 2 C14.31 2 16.62 2 19 2 C19.66 3.65 20.32 5.3 21 7 C22.20628008 4.66785852 23.1654738 2.50357861 24 0 C25.98 0 27.96 0 30 0 C29.47458553 7.7498635 27.44408524 14.6450086 25 22 C22.69 22 20.38 22 18 22 C17.34 19.69 16.68 17.38 16 15 C14.25372522 17.61941217 13.61277612 19.03824877 13 22 C10.69 22 8.38 22 6 22 C3.42718118 14.77160428 1.63304408 7.49347179 0 0 Z " fill="#1D1D1B" transform="translate(290,98)"/>
<path d="M0 0 C7 0 7 0 8.77734375 1.53125 C9.16019531 2.1809375 9.54304688 2.830625 9.9375 3.5 C10.33839844 4.1496875 10.73929687 4.799375 11.15234375 5.46875 C11.43207031 5.9740625 11.71179688 6.479375 12 7 C12.33 4.69 12.66 2.38 13 0 C15.31 0 17.62 0 20 0 C20 7.26 20 14.52 20 22 C13 22 13 22 11.22265625 20.46875 C10.83980469 19.8190625 10.45695312 19.169375 10.0625 18.5 C9.66160156 17.8503125 9.26070313 17.200625 8.84765625 16.53125 C8.56792969 16.0259375 8.28820312 15.520625 8 15 C7.67 17.31 7.34 19.62 7 22 C4.69 22 2.38 22 0 22 C0 14.74 0 7.48 0 0 Z " fill="#1D1D1B" transform="translate(462,98)"/>
<path d="M0 0 C0.84304688 -0.03996094 1.68609375 -0.07992187 2.5546875 -0.12109375 C6.43096931 0.72132008 7.80790003 2.252002 10.125 5.4375 C10.70663865 8.40754663 10.60158372 11.23843257 10.4375 14.25 C10.41494141 15.03826172 10.39238281 15.82652344 10.36914062 16.63867188 C10.31054161 18.57243929 10.22086827 20.50522167 10.125 22.4375 C7.72725255 22.57322155 5.33724755 22.67186868 2.9375 22.75 C1.92719727 22.8128418 1.92719727 22.8128418 0.89648438 22.87695312 C-2.98517404 22.97162772 -4.68946904 22.57968261 -7.80078125 20.1953125 C-10.73267896 16.29715848 -11.17934378 13.23936847 -10.875 8.4375 C-8.74883956 2.59055878 -6.27314945 0.16207225 0 0 Z M-1.875 6.4375 C-4.19063087 8.32250271 -4.19063087 8.32250271 -4.125 11.4375 C-4.19063087 14.55249729 -4.19063087 14.55249729 -1.875 16.4375 C0.70854218 16.60437448 0.70854218 16.60437448 3.125 16.4375 C2.135 16.1075 1.145 15.7775 0.125 15.4375 C0.125 13.1275 0.125 10.8175 0.125 8.4375 C1.115 8.1075 2.105 7.7775 3.125 7.4375 C0.72780568 6.75791397 0.72780568 6.75791397 -1.875 6.4375 Z " fill="#1D1D1B" transform="translate(611.875,97.5625)"/>
<path d="M0 0 C7 0 7 0 8.77734375 1.75 C9.16019531 2.4925 9.54304688 3.235 9.9375 4 C10.33839844 4.7425 10.73929687 5.485 11.15234375 6.25 C11.43207031 6.8275 11.71179688 7.405 12 8 C12.33 5.36 12.66 2.72 13 0 C14.98 0 16.96 0 19 0 C19 7.26 19 14.52 19 22 C12 22 12 22 10.22265625 20.25 C9.83980469 19.5075 9.45695312 18.765 9.0625 18 C8.66160156 17.2575 8.26070313 16.515 7.84765625 15.75 C7.56792969 15.1725 7.28820312 14.595 7 14 C6.67 16.64 6.34 19.28 6 22 C4.02 22 2.04 22 0 22 C0 14.74 0 7.48 0 0 Z " fill="#1D1D1B" transform="translate(358,98)"/>
<path d="M0 0 C2.82424288 2.19022918 4.41508603 3.83017207 6 7 C6.50866466 13.10397596 6.05703618 16.10769166 2 21 C-1.73007327 22.86503664 -5.93782611 22.54928766 -10 22 C-13.05227085 20.00668026 -14.4637855 18.61201593 -15.62109375 15.1328125 C-16.59886602 9.95162746 -15.54835324 6.55063079 -13 2 C-8.7741215 -0.81725233 -4.96375312 -0.79958384 0 0 Z M-7 6 C-9.31563087 7.88500271 -9.31563087 7.88500271 -9.25 11 C-9.31563087 14.11499729 -9.31563087 14.11499729 -7 16 C-3.69316534 15.71016731 -3.69316534 15.71016731 -1 14 C-0.74994614 11.04182893 -0.74994614 11.04182893 -1 8 C-1.66 7.34 -2.32 6.68 -3 6 C-4.32 6 -5.64 6 -7 6 Z " fill="#1D1D1B" transform="translate(335,98)"/>
<path d="M0 0 C12.46024735 -0.41077739 12.46024735 -0.41077739 17 3 C19.82368571 7.23552856 19.66653757 11.02477314 19 16 C17.20353146 18.93423195 16.0558929 20.47205355 13 22 C8.66396021 22.1393329 4.33919329 22.04254111 0 22 C0 14.74 0 7.48 0 0 Z M6 7 C6 9.97 6 12.94 6 16 C9.93075644 15.42547254 9.93075644 15.42547254 13 13 C12.71016731 9.69316534 12.71016731 9.69316534 11 7 C9.33382885 6.95936168 7.66611905 6.957279 6 7 Z " fill="#1D1D1B" transform="translate(549,98)"/>
<path d="M0 0 C5.28 0 10.56 0 16 0 C16 2.31 16 4.62 16 7 C15.01 7.33 14.02 7.66 13 8 C13 9.98 13 11.96 13 14 C11.02 14 9.04 14 7 14 C7 14.66 7 15.32 7 16 C9.97 16 12.94 16 16 16 C16 17.98 16 19.96 16 22 C10.72 22 5.44 22 0 22 C0 14.74 0 7.48 0 0 Z " fill="#1D1D1B" transform="translate(585,98)"/>
<path d="M0 0 C5.28 0 10.56 0 16 0 C16 2.31 16 4.62 16 7 C15.01 7.33 14.02 7.66 13 8 C13 9.98 13 11.96 13 14 C10.69 14 8.38 14 6 14 C6 14.66 6 15.32 6 16 C9.3 16 12.6 16 16 16 C16 17.98 16 19.96 16 22 C10.72 22 5.44 22 0 22 C0 14.74 0 7.48 0 0 Z " fill="#1D1D1B" transform="translate(492,98)"/>
<path d="M0 0 C12.45616041 4.61427823 23.14470997 12.28272524 33.31542969 20.63916016 C36.1115232 22.89791744 38.99091868 25.04297091 41.875 27.1875 C42.86242187 27.92355469 43.84984375 28.65960938 44.8671875 29.41796875 C45.57101563 29.94003906 46.27484375 30.46210937 47 31 C42.46088396 32.45987279 39.28674023 30.91383642 35.0625 29.125 C34.30904297 28.80837402 33.55558594 28.49174805 32.77929688 28.16552734 C19.492698 22.35193719 6.5065858 13.29606664 0 0 Z " fill="#F1F1F0" transform="translate(33,25)"/>
<path d="M0 0 C2.31 0 4.62 0 7 0 C7 5.28 7 10.56 7 16 C9.64 16 12.28 16 15 16 C15 17.98 15 19.96 15 22 C10.05 22 5.1 22 0 22 C0 14.74 0 7.48 0 0 Z " fill="#1D1D1B" transform="translate(569,98)"/>
<path d="M0 0 C1.98 0 3.96 0 6 0 C6 5.28 6 10.56 6 16 C8.97 16 11.94 16 15 16 C15 17.98 15 19.96 15 22 C10.05 22 5.1 22 0 22 C0 14.74 0 7.48 0 0 Z " fill="#1D1D1B" transform="translate(342,98)"/>
<path d="M0 0 C2.31 0 4.62 0 7 0 C7 7.26 7 14.52 7 22 C4.69 22 2.38 22 0 22 C0 14.74 0 7.48 0 0 Z " fill="#1D1D1B" transform="translate(446,98)"/>
<path d="M0 0 C1.98 0 3.96 0 6 0 C6 7.26 6 14.52 6 22 C4.02 22 2.04 22 0 22 C0 14.74 0 7.48 0 0 Z " fill="#1D1D1B" transform="translate(484,98)"/>
<path d="M0 0 C2.16965398 3.25448097 3.36143262 6.5253585 4.625 10.1875 C4.85445312 10.84169922 5.08390625 11.49589844 5.3203125 12.16992188 C5.88395144 13.77864135 6.44247984 15.38914977 7 17 C1.13808411 16.59572994 -2.2945653 15.80916142 -7 12 C-7.66 11.01 -8.32 10.02 -9 9 C-6.69 9 -4.38 9 -2 9 C-1.34 6.03 -0.68 3.06 0 0 Z " fill="#282826" transform="translate(10,20)"/>
<path d="M0 0 C2.14950992 0.88283443 3.84727024 1.93297615 5.71875 3.30859375 C6.33234375 3.75203125 6.9459375 4.19546875 7.578125 4.65234375 C8.03703125 5.03390625 8.4959375 5.41546875 8.96875 5.80859375 C8.96875 6.13859375 8.96875 6.46859375 8.96875 6.80859375 C6.36430652 6.8625408 3.76098002 6.90223844 1.15625 6.93359375 C0.41826172 6.95035156 -0.31972656 6.96710937 -1.08007812 6.984375 C-4.94371426 7.01934003 -6.74028668 7.0025693 -10.03125 4.80859375 C-8.79180724 3.93917881 -7.53917941 3.08853918 -6.28125 2.24609375 C-5.58515625 1.77042969 -4.8890625 1.29476562 -4.171875 0.8046875 C-2.03125 -0.19140625 -2.03125 -0.19140625 0 0 Z " fill="#262624" transform="translate(10.03125,48.19140625)"/>
<path d="M0 0 C2.62143655 0.5962112 4.26610801 1.59423301 6.1640625 3.4921875 C2.81466369 5.51777631 0.29443699 5.70957737 -3.5859375 5.6171875 C-4.57078125 5.59914063 -5.555625 5.58109375 -6.5703125 5.5625 C-7.69179687 5.52769531 -7.69179687 5.52769531 -8.8359375 5.4921875 C-9.1659375 4.1721875 -9.4959375 2.8521875 -9.8359375 1.4921875 C-6.04903251 -1.03241583 -4.33746079 -0.57927001 0 0 Z " fill="#F5F5F5" transform="translate(116.8359375,71.5078125)"/>
<path d="M0 0 C1.65 0.33 3.3 0.66 5 1 C4.25 5.75 4.25 5.75 2 8 C-1.125 8.125 -1.125 8.125 -4 8 C-2.87548273 5.0280615 -1.77706209 2.66559313 0 0 Z " fill="#1D1D1B" transform="translate(669,89)"/>
<path d="M0 0 C2.4375 0.375 2.4375 0.375 5 1 C5.33 1.66 5.66 2.32 6 3 C4.9375 5.625 4.9375 5.625 3 8 C-0.1875 8.3125 -0.1875 8.3125 -3 8 C-2.37240135 5.07120629 -1.41377341 2.63904371 0 0 Z " fill="#1D1D1B" transform="translate(428,89)"/>
<path d="M0 0 C1.98 0.66 3.96 1.32 6 2 C5.01 3.98 4.02 5.96 3 8 C1.02 8 -0.96 8 -3 8 C-2.45276317 4.62537285 -1.9451 2.91765 0 0 Z " fill="#1D1D1B" transform="translate(688,89)"/>
<path d="M0 0 C1.65 0.33 3.3 0.66 5 1 C4.125 5.75 4.125 5.75 3 8 C0.69 8 -1.62 8 -4 8 C-2.68 5.36 -1.36 2.72 0 0 Z " fill="#1D1D1B" transform="translate(409,89)"/>
</svg>
