<?xml version="1.0" encoding="UTF-8"?>
<svg version="1.1" xmlns="http://www.w3.org/2000/svg" width="668" height="198">
<path d="M0 0 C1.45070134 -0.00307895 1.45070134 -0.00307895 2.93070978 -0.0062201 C6.19063941 -0.01190117 9.45052694 -0.01043148 12.71046066 -0.00901413 C15.06362321 -0.01159712 17.41678532 -0.0146101 19.76994681 -0.01801753 C25.57126339 -0.02525022 31.37256893 -0.02779053 37.17388969 -0.02834659 C44.12183329 -0.02926034 51.06976838 -0.03592819 58.01770831 -0.04269341 C74.81016965 -0.058754 91.60263008 -0.06465658 108.39509772 -0.06944216 C116.33806392 -0.07177786 124.28102939 -0.07538047 132.22399502 -0.07913754 C159.41072748 -0.09197257 186.59745953 -0.10269221 213.78419495 -0.10614014 C215.49082763 -0.10636177 217.19746032 -0.10658355 218.90409301 -0.10680549 C220.61485631 -0.10702613 222.32561961 -0.10724661 224.03638291 -0.10746694 C227.4684933 -0.10790949 230.90060369 -0.10835661 234.33271408 -0.10880661 C235.183678 -0.108916 236.03464191 -0.10902539 236.91139261 -0.1091381 C264.50961464 -0.11276947 292.10781041 -0.1286928 319.70602239 -0.15199697 C348.88105633 -0.17658762 378.05607526 -0.1903126 407.23111987 -0.19150805 C410.43316444 -0.19167951 413.63520901 -0.19189494 416.83725357 -0.19214249 C418.01991299 -0.19222614 418.01991299 -0.19222614 419.22646453 -0.19231148 C431.91943603 -0.19346254 444.61238061 -0.20448908 457.30534302 -0.21902954 C470.06070039 -0.23338895 482.8160232 -0.23663466 495.57138643 -0.22858956 C502.48277695 -0.22452353 509.39408474 -0.22525626 516.30546379 -0.23964691 C522.63053394 -0.252339 528.95544479 -0.25122958 535.28051457 -0.2390562 C537.57055198 -0.23709107 539.86060049 -0.24021507 542.15062228 -0.24890056 C545.2610754 -0.25995227 548.3709623 -0.25253306 551.48139954 -0.24050903 C552.37240842 -0.24810423 553.26341731 -0.25569942 554.18142647 -0.26352477 C564.92301992 -0.17376063 573.0332844 3.42896199 580.61738205 11.06892776 C589.72186861 21.98169838 589.07976111 35.35871188 588.9884758 48.79158401 C588.98863118 50.67239818 588.99012657 52.55321266 588.99288559 54.43402481 C588.99426176 58.35487082 588.98184239 62.27534755 588.95893478 66.19612503 C588.93053303 71.19106755 588.9333035 76.18539863 588.94602489 81.18038654 C588.95301944 85.05745938 588.94515024 88.93439389 588.93276787 92.81144905 C588.92829136 94.65201599 588.92788283 96.49259798 588.93183327 98.33316612 C588.948675 113.0779283 588.56938437 126.60696758 577.82831955 137.87752151 C571.07446274 144.06084704 563.77470418 147.27572533 554.63300705 147.22908401 C553.51796799 147.22586136 552.40292892 147.2226387 551.2541008 147.21931839 C550.09523361 147.21093948 548.93636642 147.20256058 547.74238205 147.19392776 C545.98087814 147.18716019 545.98087814 147.18716019 544.1837883 147.18025589 C541.28660133 147.16847871 538.38951751 147.15203103 535.49238205 147.13142776 C535.82238205 144.16142776 536.15238205 141.19142776 536.49238205 138.13142776 C537.61515549 138.08244339 538.73792892 138.03345901 539.8947258 137.98299026 C557.87477671 137.30432787 557.87477671 137.30432787 572.2541008 127.24080276 C577.72322381 120.51364904 578.79373529 113.46184007 578.78290939 104.94636917 C578.78962662 104.17122467 578.79634384 103.39608017 578.80326462 102.59744644 C578.82211429 100.05922748 578.82616194 97.52127467 578.82831955 94.98299026 C578.83475578 93.20233938 578.84148474 91.42168953 578.84849167 89.6410408 C578.86043132 85.91743393 578.86417584 82.1939196 578.86298752 78.47029495 C578.86278435 73.72045325 578.89009947 68.97120995 578.92453194 64.22150993 C578.94686672 60.54612423 578.95082307 56.87088116 578.94976807 53.19543457 C578.95211362 51.44529404 578.96087763 49.69514896 578.9764328 47.94507599 C579.06289676 37.21436115 578.75266028 27.81112628 572.30488205 18.75642776 C565.93170506 12.80812924 559.00019535 11.53847754 550.52660084 11.62526989 C549.07449095 11.61609985 549.07449095 11.61609985 547.5930455 11.60674456 C544.35376194 11.59116183 541.1152289 11.60400415 537.87594223 11.61676407 C535.52828581 11.61143819 533.1806328 11.60437227 530.8329863 11.59571701 C525.06072632 11.57902268 519.28868184 11.58092679 513.51641094 11.59073016 C506.60002299 11.6014439 499.68372569 11.58894191 492.76734886 11.57581506 C479.21633739 11.55088903 465.66539583 11.54898977 452.11436813 11.55708917 C440.25500649 11.56416277 428.39567198 11.56421859 416.5363102 11.55722618 C414.94532645 11.55631485 413.35434271 11.55540409 411.76335896 11.55449389 C409.36587542 11.55311076 406.96839188 11.55171967 404.57090835 11.55030776 C382.28265589 11.53732773 359.99441251 11.53221178 337.70615864 11.54384136 C336.4460069 11.54449832 336.4460069 11.54449832 335.16039755 11.54516855 C328.33823905 11.54877535 321.51608068 11.55261013 314.69392232 11.55645948 C288.08104989 11.57130779 261.46828009 11.56252627 234.85541916 11.53450394 C204.95259329 11.50307758 175.04982817 11.48810544 145.14698547 11.49830395 C141.95874688 11.49934072 138.77050828 11.50032795 135.58226967 11.50128746 C134.79724978 11.50153635 134.01222989 11.50178523 133.20342152 11.50204166 C121.35261786 11.50548189 109.50186785 11.49617498 97.65107536 11.48051643 C84.17439347 11.4627505 70.69784215 11.46261156 57.22116584 11.48586809 C50.34400617 11.49727004 43.4670707 11.5007845 36.58992195 11.48156738 C30.29507219 11.46479216 24.00068345 11.47107444 17.70586371 11.49578417 C15.42804459 11.50067747 13.15018849 11.49712473 10.87240023 11.48429673 C7.77571308 11.46811473 4.68062004 11.48276121 1.5840044 11.50501537 C0.69997461 11.4930237 -0.18405518 11.48103202 -1.09487376 11.46867695 C-8.43238002 11.57632217 -14.94576015 13.88086403 -20.43108818 18.88679334 C-26.1787558 25.03536485 -27.96050504 31.39020333 -27.91167068 39.58601761 C-27.91853394 40.40163666 -27.92539719 41.21725571 -27.93246841 42.05759048 C-27.95067013 44.7360292 -27.94690802 47.41387836 -27.9412117 50.09236526 C-27.94577711 51.96652286 -27.95108376 53.84067879 -27.9570961 55.71483231 C-27.96601453 59.63696989 -27.96361904 63.55890373 -27.95366287 67.48103714 C-27.94218263 72.48997735 -27.96237668 77.49821158 -27.99158001 82.5070591 C-28.00998941 86.37629488 -28.00963999 90.24536303 -28.00394249 94.11463165 C-28.00378981 95.96048471 -28.00978951 97.80634953 -28.02223396 99.65216064 C-28.37612468 112.9835403 -28.37612468 112.9835403 -23.50761795 125.13142776 C-22.93011795 126.03892776 -22.35261795 126.94642776 -21.75761795 127.88142776 C-14.45475677 135.18428894 -5.96819943 137.3252581 4.15992168 137.40308025 C5.35247269 137.39734307 5.35247269 137.39734307 6.56911564 137.39148998 C7.87703339 137.39719849 7.87703339 137.39719849 9.21137372 137.40302232 C12.12340767 137.41330144 15.03524537 137.40943877 17.94729233 137.40558243 C20.05998397 137.41003675 22.17267394 137.41535144 24.28536147 137.42145115 C30.08352199 137.43561684 35.88162886 137.43729472 41.67980421 137.43685424 C47.93541595 137.43850358 54.19100567 137.45157183 60.44660568 137.46304703 C73.40648295 137.48469402 86.36633667 137.49330067 99.32622854 137.49808203 C100.3819343 137.49847379 100.3819343 137.49847379 101.45896745 137.49887347 C102.1641886 137.49913375 102.86940976 137.49939402 103.59600126 137.49966218 C111.41584562 137.50274621 119.23568661 137.50925129 127.05552864 137.51587486 C150.67124929 137.53551426 174.28696631 137.55192514 197.90269566 137.5547514 C198.65754223 137.55484546 199.41238881 137.55493952 200.19010952 137.55503643 C203.24913306 137.55541491 206.30815659 137.5557789 209.36718012 137.55613941 C211.66957491 137.55641113 213.97196969 137.55668781 216.27436447 137.55696487 C217.41555788 137.55709691 217.41555788 137.55709691 218.57980569 137.55723161 C242.5073251 137.56013981 266.43476387 137.58226469 290.3622551 137.61848831 C317.24358455 137.6591827 344.12485905 137.68290969 371.006221 137.68321091 C373.8702521 137.68330773 376.73428319 137.68347446 379.59831429 137.68369102 C380.65611684 137.6837572 380.65611684 137.6837572 381.73528913 137.6838247 C393.09753078 137.68494587 404.45969175 137.70237271 415.82190739 137.72551034 C427.23022932 137.74831191 438.63841141 137.75217906 450.04675863 137.73796105 C456.23055921 137.73076245 462.41407927 137.73177649 468.59784889 137.75437164 C474.25214284 137.77483524 479.90593836 137.77248016 485.56022616 137.7514968 C487.61183537 137.74797774 489.66347964 137.75301286 491.71504281 137.76720124 C494.49226171 137.78517913 497.26769228 137.77270753 500.04485416 137.75225353 C500.851594 137.76481691 501.65833384 137.77738028 502.48952034 137.79032436 C506.42025778 137.7278454 508.10173149 137.51525566 510.95719641 134.70966107 C514.10908766 129.41628755 515.06226005 125.70023562 513.69404221 119.53279495 C512.40956412 115.12865247 510.85624392 110.82202311 509.30488205 106.50642776 C508.75309411 104.91865532 508.2033138 103.33018385 507.65546799 101.74104691 C505.96464694 96.86027408 504.23096796 91.99534791 502.49238205 87.13142776 C501.9398011 85.57832421 501.38754857 84.02510376 500.83564377 82.4717598 C500.56946747 81.72305618 500.30329117 80.97435257 500.02904892 80.20296097 C499.50791999 78.73702873 498.98693077 77.27104681 498.46609116 75.80501175 C497.25387658 72.39651591 496.03430379 68.99111146 494.79633713 65.59187698 C494.3608757 64.38676468 493.92541428 63.18165237 493.47675705 61.94002151 C493.09229416 60.88613235 492.70783127 59.83224319 492.31171799 58.746418 C491.49238205 56.13142776 491.49238205 56.13142776 491.49238205 53.13142776 C495.12238205 53.13142776 498.75238205 53.13142776 502.49238205 53.13142776 C515.58065326 90.00847334 515.58065326 90.00847334 520.49238205 105.13142776 C522.04139588 102.25774821 523.01432653 99.5425796 523.80512619 96.37874222 C524.04199646 95.44129669 524.27886673 94.50385117 524.52291489 93.5379982 C524.89645348 92.03157005 524.89645348 92.03157005 525.2775383 90.49470901 C525.53868927 89.45952637 525.79984024 88.42434372 526.06890488 87.3577919 C526.90195771 84.05425709 527.72897061 80.74925466 528.55488205 77.44392776 C529.3847643 74.12799548 530.21600323 70.81243307 531.05157089 67.49792862 C531.5714092 65.4354865 532.08789645 63.37219643 532.60079575 61.30801773 C532.83451385 60.38002869 533.06823196 59.45203964 533.30903244 58.49592972 C533.51395813 57.6752652 533.71888382 56.85460068 533.93001938 56.00906754 C534.49238205 54.13142776 534.49238205 54.13142776 535.49238205 53.13142776 C537.34525707 53.05916275 539.20072083 53.04761557 541.05488205 53.06892776 C542.06679611 53.0779512 543.07871017 53.08697464 544.1212883 53.09627151 C544.90374924 53.10787308 545.68621017 53.11947464 546.49238205 53.13142776 C541.67265041 72.12984905 536.82380482 91.12146405 531.75574875 110.05540848 C531.33438985 111.63196917 530.91511587 113.20908875 530.49805832 114.78679276 C523.56643396 140.97327898 523.56643396 140.97327898 515.91348338 145.73656422 C511.64257021 147.47791606 508.19125895 147.54927746 503.62976074 147.5117445 C502.74450258 147.51640442 501.85924441 147.52106434 500.94716024 147.52586547 C497.97162601 147.53784559 494.99654584 147.52840827 492.02100754 147.51910782 C489.86980751 147.52327942 487.71860968 147.52875598 485.56741595 147.53542763 C479.64861301 147.54992398 473.72994882 147.54562439 467.81113815 147.53826082 C461.43061122 147.53354174 455.05011485 147.5460279 448.66959763 147.55627823 C436.88916863 147.57250125 425.10878803 147.57490616 413.32835022 147.56997324 C402.44339322 147.56541751 391.55845272 147.56601341 380.67349625 147.57181358 C379.2138615 147.57257045 377.75422675 147.57332643 376.29459201 147.57408153 C374.0950802 147.57522672 371.8955684 147.57637659 369.6960566 147.57754077 C349.24292644 147.588248 328.78980177 147.59296887 308.33666992 147.58507061 C307.56546515 147.58477344 306.79426037 147.58447626 305.99968575 147.58417008 C299.7368362 147.58172111 293.47398671 147.57910954 287.21113723 147.57648595 C262.78728126 147.56638583 238.36349405 147.57473356 213.93964767 147.5979805 C186.50123813 147.62405446 159.06286998 147.63690045 131.62444758 147.62979275 C128.69847537 147.62907669 125.77250315 147.6284023 122.84653091 147.6277523 C122.1260796 147.6275825 121.40562828 147.62741269 120.6633451 147.62723773 C109.78840197 147.62493486 98.91349728 147.6329113 88.03856277 147.64604378 C75.66890136 147.66095461 63.29934704 147.6614245 50.92968562 147.64397287 C44.61761425 147.63544546 38.30571487 147.63335592 31.99365234 147.64862442 C26.21500163 147.66242961 20.43667095 147.65776174 14.65803894 147.63838518 C12.56788018 147.63461204 10.47769604 147.6375848 8.3875598 147.64799684 C-11.59370339 147.74045281 -11.59370339 147.74045281 -19.50761795 143.13142776 C-20.53886795 142.57455276 -21.57011795 142.01767776 -22.63261795 141.44392776 C-32.62382559 133.40752162 -36.96324721 124.77148341 -38.50761795 112.13142776 C-38.60094638 109.52871154 -38.65459821 106.95304409 -38.65288162 104.35115433 C-38.65624023 103.60702286 -38.65959885 102.86289139 -38.66305923 102.09621048 C-38.67249814 99.65480722 -38.6745089 97.21347309 -38.6755867 94.77205276 C-38.67880461 93.0596298 -38.68216908 91.3472071 -38.68567276 89.6347847 C-38.6916467 86.05065143 -38.69351449 82.46654222 -38.69292068 78.88240433 C-38.69281926 74.31553826 -38.70645876 69.74882835 -38.72369289 65.18199921 C-38.73487533 61.64556054 -38.73683797 58.10915885 -38.73631096 54.57270432 C-38.73748217 52.89039193 -38.74185504 51.20807831 -38.74964333 49.52578354 C-38.80995252 35.15150209 -38.76300839 21.32493076 -28.61699295 10.02595901 C-19.89247774 1.97123927 -11.57206104 -0.02274215 0 0 Z " fill="#001019" transform="translate(57.50761795043945,27.868572235107422)"/>
<path d="M0 0 C1.19794189 -0.00315216 2.39588379 -0.00630432 3.63012695 -0.009552 C4.93425537 -0.00752777 6.23838379 -0.00550354 7.58203125 -0.00341797 C8.9234214 -0.00409107 10.26481144 -0.00506115 11.60620117 -0.00631714 C14.42074746 -0.00779382 17.23526207 -0.00564051 20.04980469 -0.00097656 C23.66493756 0.00472073 27.2799962 0.00144156 30.89512634 -0.00454903 C33.66598067 -0.00815544 36.43681727 -0.00701569 39.20767212 -0.00442123 C41.19142708 -0.0034258 43.17518272 -0.00647288 45.15893555 -0.009552 C46.35687744 -0.00639984 47.55481934 -0.00324768 48.7890625 0 C49.84971924 0.00079559 50.91037598 0.00159119 52.00317383 0.00241089 C54.39453125 0.12939453 54.39453125 0.12939453 55.39453125 1.12939453 C55.39453125 6.40939453 55.39453125 11.68939453 55.39453125 17.12939453 C41.20453125 17.12939453 27.01453125 17.12939453 12.39453125 17.12939453 C12.39453125 24.71939453 12.39453125 32.30939453 12.39453125 40.12939453 C25.92453125 40.12939453 39.45453125 40.12939453 53.39453125 40.12939453 C53.39453125 45.40939453 53.39453125 50.68939453 53.39453125 56.12939453 C39.86453125 56.12939453 26.33453125 56.12939453 12.39453125 56.12939453 C12.39453125 68.66939453 12.39453125 81.20939453 12.39453125 94.12939453 C6.45453125 94.12939453 0.51453125 94.12939453 -5.60546875 94.12939453 C-7.45894243 92.27592085 -6.73201178 89.64414127 -6.74099731 87.17764282 C-6.73897308 86.3225412 -6.73694885 85.46743958 -6.73486328 84.58642578 C-6.7366156 83.69055756 -6.73836792 82.79468933 -6.74017334 81.87167358 C-6.74459322 78.89506116 -6.74165339 75.91850762 -6.73828125 72.94189453 C-6.73895425 70.88305652 -6.73992424 68.82421859 -6.74118042 66.76538086 C-6.74265758 62.44432826 -6.74050226 58.1232963 -6.73583984 53.80224609 C-6.73014255 48.25002907 -6.73342146 42.69786039 -6.73941231 37.14564514 C-6.74301744 32.89245232 -6.74187956 28.63927104 -6.73928452 24.38607788 C-6.73861511 22.33824661 -6.73944413 20.2904143 -6.74176407 18.24258423 C-6.74428981 15.38581545 -6.74045111 12.52912611 -6.73486328 9.67236328 C-6.73688751 8.81726166 -6.73891174 7.96216003 -6.74099731 7.08114624 C-6.71654123 0.36803914 -6.64049022 0.004981 0 0 Z " fill="#001726" transform="translate(67.60546875,52.87060546875)"/>
<path d="M0 0 C8.75700647 -0.19283563 18.51989521 -0.27097859 25.64453125 5.50390625 C33.36153786 14.20919436 32.078125 26.30096757 32.078125 37.12109375 C17.558125 37.12109375 3.038125 37.12109375 -11.921875 37.12109375 C-10.94778669 48.02678794 -10.94778669 48.02678794 -7.921875 52.12109375 C-4.56054558 53.43971051 -1.05694637 53.28794305 2.515625 53.30859375 C3.62808594 53.32277344 4.74054688 53.33695313 5.88671875 53.3515625 C9.18286142 53.11353017 11.26068263 52.85528667 14.078125 51.12109375 C14.738125 49.14109375 15.398125 47.16109375 16.078125 45.12109375 C21.358125 45.12109375 26.638125 45.12109375 32.078125 45.12109375 C31.64049368 58.25003328 31.64049368 58.25003328 27.83007812 61.95678711 C20.08127792 67.10645659 11.48338838 67.72887244 2.453125 67.55859375 C1.38578125 67.56568359 0.3184375 67.57277344 -0.78125 67.58007812 C-8.71027017 67.51676285 -16.37017166 66.9324203 -22.296875 61.18359375 C-30.28801691 50.43994741 -29.15805713 33.60217372 -27.41796875 20.93359375 C-25.81112603 12.26582502 -23.91168523 8.01566196 -16.734375 2.80859375 C-11.443359 0.06045828 -5.83033909 0.2416317 0 0 Z M-9.921875 16.12109375 C-11.70219482 19.75913861 -11.921875 22.04837703 -11.921875 26.12109375 C-3.011875 26.12109375 5.898125 26.12109375 15.078125 26.12109375 C15.66208423 18.86785083 15.66208423 18.86785083 13.890625 15.68359375 C9.96809114 12.30209904 4.53994442 12.83621585 -0.4140625 12.91015625 C-4.30289756 13.23725453 -6.58803275 14.03744234 -9.921875 16.12109375 Z " fill="#001727" transform="translate(187.921875,79.87890625)"/>
<path d="M0 0 C3.3 0 6.6 0 10 0 C10 30.69 10 61.38 10 93 C6.37 93 2.74 93 -1 93 C-1.33 91.68 -1.66 90.36 -2 89 C-2.763125 89.639375 -3.52625 90.27875 -4.3125 90.9375 C-9.06633763 94.585794 -13.39511172 94.21484731 -19.125 94.25 C-19.94226563 94.270625 -20.75953125 94.29125 -21.6015625 94.3125 C-28.04481121 94.35328006 -34.83042641 93.73128932 -39.88916016 89.37207031 C-46.77692814 82.15631337 -46.31450062 73.68859068 -46.25 64.25 C-46.25773437 63.13367188 -46.26546875 62.01734375 -46.2734375 60.8671875 C-46.25077065 51.14310955 -46.07405945 40.99218349 -40 33 C-34.51991111 27.56239242 -28.14853608 27.18182294 -20.703125 26.9296875 C-12.82720525 27.07923028 -8.11447143 27.97023202 -2 33 C-1.96241577 31.55379272 -1.96241577 31.55379272 -1.92407227 30.07836914 C-1.83014694 26.51312158 -1.72989061 22.94807567 -1.62768555 19.38305664 C-1.58428015 17.83785711 -1.54260929 16.29260786 -1.50268555 14.74731445 C-1.44511801 12.53060904 -1.38138576 10.3141552 -1.31640625 8.09765625 C-1.29133751 7.05545677 -1.29133751 7.05545677 -1.26576233 5.99220276 C-1.11387171 1.11387171 -1.11387171 1.11387171 0 0 Z M-32 40 C-35.54621554 46.81409439 -35.45515507 54.1260482 -35.375 61.625 C-35.38660156 62.718125 -35.39820313 63.81125 -35.41015625 64.9375 C-35.38496985 71.87215573 -34.96580443 77.29274447 -30.5 82.875 C-26.67177885 85.74616586 -22.10914455 85.1836825 -17.5625 85.1875 C-16.79873047 85.19974609 -16.03496094 85.21199219 -15.24804688 85.22460938 C-9.81918737 85.28981343 -9.81918737 85.28981343 -5 83 C-0.05145806 76.03538541 -0.78465803 68.87360995 -0.75 60.625 C-0.729375 59.40554687 -0.70875 58.18609375 -0.6875 56.9296875 C-0.68234375 55.74890625 -0.6771875 54.568125 -0.671875 53.3515625 C-0.6625293 52.27729004 -0.65318359 51.20301758 -0.64355469 50.09619141 C-1.27390618 44.62076841 -3.75830082 40.47048115 -8 37 C-15.78137238 34.37115798 -25.75810087 34.43656817 -32 40 Z " fill="#000A12" transform="translate(463,53)"/>
<path d="M0 0 C17.10265221 -1.52399871 17.10265221 -1.52399871 21.421875 1.9453125 C22.91951068 4.57825264 23.92057425 7.17116011 25 10 C26.65 12.64 28.3 15.28 30 18 C33.3 12.06 36.6 6.12 40 0 C46.27 0 52.54 0 59 0 C55.73916346 6.82737651 52.10392559 13.23269842 48.0625 19.62890625 C45.58069461 23.68534196 43.28174652 27.82868215 41 32 C41.32162109 32.50225098 41.64324219 33.00450195 41.97460938 33.52197266 C48.59201186 43.87523396 55.00295048 54.27450758 61 65 C54.4 65 47.8 65 41 65 C35.555 55.1 35.555 55.1 30 45 C26.55839983 49.25930402 26.55839983 49.25930402 23.859375 53.76953125 C23.38709473 54.66442261 23.38709473 54.66442261 22.90527344 55.57739258 C22.5240332 56.31497803 22.14279297 57.05256348 21.75 57.8125 C20.5125 60.184375 19.275 62.55625 18 65 C11.4 65 4.8 65 -2 65 C-0.906875 63.06125 0.18625 61.1225 1.3125 59.125 C1.68729492 58.45936035 2.06208984 57.7937207 2.44824219 57.10791016 C4.54300328 53.43072587 6.72455698 49.83199753 9.015625 46.2734375 C9.52053467 45.48050293 10.02544434 44.68756836 10.5456543 43.87060547 C11.54351847 42.31109136 12.55510617 40.7602593 13.58129883 39.21923828 C14.04044678 38.49720215 14.49959473 37.77516602 14.97265625 37.03125 C15.38781494 36.39767578 15.80297363 35.76410156 16.23071289 35.11132812 C17.33664023 32.07608228 16.81373881 30.0958153 16 27 C14.77611299 24.44581888 14.77611299 24.44581888 13.1640625 22.03125 C12.59429687 21.13019531 12.02453125 20.22914062 11.4375 19.30078125 C10.839375 18.37652344 10.24125 17.45226562 9.625 16.5 C2.41584188 5.21404722 2.41584188 5.21404722 0 0 Z " fill="#001727" transform="translate(225,81)"/>
<path d="M0 0 C9.17396527 -0.22668228 19.41773887 -0.19650314 27.0703125 5.4140625 C32.18718779 11.80284679 31.83821869 18.58237978 31.73046875 26.3984375 C31.72622391 27.56492325 31.72197906 28.731409 31.71760559 29.9332428 C31.70087522 33.64193249 31.66323221 37.35006957 31.625 41.05859375 C31.60994593 43.58007025 31.59625879 46.10155531 31.58398438 48.62304688 C31.55098997 54.78927392 31.49924553 60.95509028 31.4375 67.12109375 C28.1375 67.12109375 24.8375 67.12109375 21.4375 67.12109375 C21.1075 65.47109375 20.7775 63.82109375 20.4375 62.12109375 C19.674375 62.76046875 18.91125 63.39984375 18.125 64.05859375 C13.03618923 67.96396015 7.96060891 67.33886251 1.8125 67.37109375 C0.85214844 67.39171875 -0.10820312 67.41234375 -1.09765625 67.43359375 C-8.99341528 67.47644726 -15.42415313 66.77412925 -21.59375 61.55859375 C-24.24244481 56.93388853 -24.23180115 53.35403843 -24.0625 48.12109375 C-24.06507813 47.24453125 -24.06765625 46.36796875 -24.0703125 45.46484375 C-23.98024361 39.48426934 -22.97173588 35.18739396 -19.1875 30.37109375 C-11.61314718 24.5446685 0.33166412 25.3985904 9.4375 26.12109375 C13.67657331 26.96579907 17.57273443 28.18871097 21.4375 30.12109375 C21.20942927 27.51328504 20.9561505 24.91226485 20.6875 22.30859375 C20.625625 21.57060547 20.56375 20.83261719 20.5 20.07226562 C20.02723364 15.7074393 20.02723364 15.7074393 17.609375 12.171875 C13.09734355 9.98889576 9.07174695 9.93108473 4.0625 9.87109375 C2.13277344 9.83242187 2.13277344 9.83242187 0.1640625 9.79296875 C-3.84172017 10.14567917 -6.21282831 10.91973765 -9.5625 13.12109375 C-11.01217902 16.69046545 -11.01217902 16.69046545 -11.5625 20.12109375 C-15.1925 20.12109375 -18.8225 20.12109375 -22.5625 20.12109375 C-21.77496459 9.72562633 -21.77496459 9.72562633 -18.5625 5.12109375 C-12.55228136 0.67353195 -7.27518951 0.34379707 0 0 Z M-12.21484375 38.890625 C-14.54667992 42.74998284 -14.09344288 46.75320368 -13.5625 51.12109375 C-11.94977433 54.80732386 -10.932175 55.87464375 -7.5625 58.12109375 C-4.30645506 58.5507771 -1.03137859 58.44532134 2.25 58.43359375 C3.58514648 58.45776367 3.58514648 58.45776367 4.94726562 58.48242188 C10.17918727 58.48630025 13.95585061 58.12527631 18.4375 55.12109375 C20.58914703 51.8936232 20.70995079 50.91603736 20.6875 47.18359375 C20.69265625 46.32894531 20.6978125 45.47429687 20.703125 44.59375 C20.41745383 41.93448753 19.88718995 40.35844857 18.4375 38.12109375 C11.32021597 33.37623773 -5.88393773 32.11071855 -12.21484375 38.890625 Z " fill="#000A12" transform="translate(510.5625,79.87890625)"/>
<path d="M0 0 C5.0506195 8.60475914 5.15271117 17.62217031 5.0625 27.375 C5.07410156 28.62925781 5.08570313 29.88351563 5.09765625 31.17578125 C5.04517708 47.88165108 5.04517708 47.88165108 0.06005859 53.81054688 C-6.55027715 60.18415979 -14.42016432 60.21716883 -23.125 60.1875 C-24.52588867 60.21166992 -24.52588867 60.21166992 -25.95507812 60.23632812 C-32.86797413 60.24112542 -40.77180086 59.88599173 -46.26098633 55.21801758 C-51.31920672 49.82072529 -52.5645009 44.13209049 -52.578125 36.82421875 C-52.58003845 36.1659761 -52.5819519 35.50773346 -52.58392334 34.82954407 C-52.58527702 33.44373185 -52.58163796 32.05790659 -52.57324219 30.67211914 C-52.56258219 28.57864035 -52.57313803 26.48602969 -52.5859375 24.39257812 C-52.60700991 4.9977349 -52.60700991 4.9977349 -46.3125 -2.125 C-34.72168268 -10.67425533 -10.40737539 -9.56353414 0 0 Z M-39.3125 5.875 C-42.28981464 11.60304617 -41.64765337 17.88400036 -41.62817383 24.16723633 C-41.6250144 26.30276575 -41.64849795 28.43690719 -41.67382812 30.57226562 C-41.67610163 31.9427066 -41.67680438 33.31315127 -41.67578125 34.68359375 C-41.67876221 35.91907959 -41.68174316 37.15456543 -41.68481445 38.42749023 C-41.17594583 43.13944687 -39.82891828 46.38997348 -36.42553711 49.72290039 C-32.49099501 51.86814639 -28.25751692 51.34536141 -23.875 51.3125 C-22.93333984 51.33248047 -21.99167969 51.35246094 -21.02148438 51.37304688 C-16.75982053 51.37003935 -14.0369267 51.28429642 -10.27734375 49.16015625 C-5.19159607 43.24532048 -5.97295567 36.48247987 -5.99682617 29.06494141 C-5.99998032 27.01280285 -5.97651991 24.96211635 -5.95117188 22.91015625 C-5.70875429 13.37242164 -5.70875429 13.37242164 -9.3125 4.875 C-14.16323343 1.96812666 -18.75021792 1.35466878 -24.3125 1.4375 C-25.01584473 1.44434814 -25.71918945 1.45119629 -26.44384766 1.45825195 C-31.92896744 1.62890296 -35.20008994 2.25216256 -39.3125 5.875 Z " fill="#000A12" transform="translate(401.3125,87.125)"/>
<path d="M0 0 C23.1 0 46.2 0 70 0 C70 3.63 70 7.26 70 11 C60.1 11 50.2 11 40 11 C40 38.06 40 65.12 40 93 C36.37 93 32.74 93 29 93 C29 65.94 29 38.88 29 11 C19.43 11 9.86 11 0 11 C0 7.37 0 3.74 0 0 Z " fill="#000A12" transform="translate(285,53)"/>
<path d="M0 0 C5.28 0 10.56 0 16 0 C16 31.02 16 62.04 16 94 C10.72 94 5.44 94 0 94 C-1.85347368 92.14652632 -1.12654303 89.51474674 -1.13552856 87.04824829 C-1.13350433 86.19314667 -1.1314801 85.33804504 -1.12939453 84.45703125 C-1.13114685 83.56116302 -1.13289917 82.6652948 -1.13470459 81.74227905 C-1.13912447 78.76566663 -1.13618464 75.78911308 -1.1328125 72.8125 C-1.1334855 70.75366199 -1.13445549 68.69482406 -1.13571167 66.63598633 C-1.13718883 62.31493373 -1.13503351 57.99390177 -1.13037109 53.67285156 C-1.1246738 48.12063454 -1.12795271 42.56846586 -1.13394356 37.01625061 C-1.13754869 32.76305779 -1.13641081 28.50987651 -1.13381577 24.25668335 C-1.13314636 22.20885207 -1.13397538 20.16101977 -1.13629532 18.1131897 C-1.13882106 15.25642092 -1.13498236 12.39973157 -1.12939453 9.54296875 C-1.13141876 8.68786713 -1.13344299 7.8327655 -1.13552856 6.95175171 C-1.11426239 1.11426239 -1.11426239 1.11426239 0 0 Z " fill="#001727" transform="translate(133,53)"/>
</svg>
