<svg width="562" height="75" viewBox="0 0 562 75" fill="none" xmlns="http://www.w3.org/2000/svg">
<path d="M28.6424 0.00291142C28.6424 0.00291142 32.3527 11.1828 21.2217 22.3626C16.2746 27.3315 11.3275 32.3003 6.38037 37.2691C-8.46095 52.1756 6.22964 66.9307 13.801 74.5353C13.801 74.5353 10.0907 63.3555 21.2217 52.1756C26.1688 47.2068 31.1159 42.238 36.063 37.2691C50.9044 22.3626 36.063 7.45324 28.6424 0" fill="black"/>
<path d="M30.999 53.4858C30.9236 53.5615 30.8541 53.6372 30.7816 53.7158C14.9605 69.5947 35.805 74.5383 35.805 74.5383C49.855 70.931 57.7221 52.5192 46.8665 37.5515L31.0019 53.4858H30.999Z" fill="black"/>
<path d="M19.3346 16.9037C24.8654 11.3516 19.3346 5.79664 16.5693 3.02206C16.5693 3.02206 17.952 7.18539 13.8039 11.3516C11.9623 13.2033 10.1197 15.054 8.27612 16.9037C4.27012 20.9273 6.04123 24.9218 8.39207 27.8914L19.3346 16.9037Z" fill="black"/>
<path d="M69.6562 65.0214V59.4247L74.6133 58.4653V25.0449L69.6562 24.0855V18.4568H91.8192C95.3798 18.4568 98.45 19.0857 101.03 20.3437C103.61 21.5803 105.593 23.3179 106.978 25.5566C108.364 27.774 109.057 30.3644 109.057 33.328C109.057 36.2916 108.364 38.8928 106.978 41.1315C105.593 43.3488 103.61 45.0758 101.03 46.3124C98.45 47.5277 95.3798 48.1353 91.8192 48.1353H83.9519V58.4653L88.9409 59.4247V65.0214H69.6562ZM83.9519 40.9396H91.8192C94.4204 40.9396 96.3819 40.236 97.7038 38.8288C99.047 37.4003 99.7186 35.588 99.7186 33.392C99.7186 31.1533 99.047 29.3091 97.7038 27.8592C96.3819 26.3881 94.4204 25.6525 91.8192 25.6525H83.9519V40.9396Z" fill="black"/>
<path d="M133.395 65.693C130.261 65.693 127.404 65.1067 124.824 63.9341C122.244 62.7614 120.016 61.1197 118.14 59.009C116.285 56.8769 114.856 54.3823 113.854 51.5254C112.852 48.647 112.351 45.5022 112.351 42.0909V41.3873C112.351 37.9973 112.852 34.8738 113.854 32.0168C114.856 29.1385 116.285 26.6333 118.14 24.5012C119.995 22.3691 122.212 20.7168 124.792 19.5441C127.372 18.3715 130.229 17.7852 133.363 17.7852C136.518 17.7852 139.397 18.3715 141.998 19.5441C144.599 20.7168 146.838 22.3691 148.714 24.5012C150.59 26.6333 152.029 29.1385 153.031 32.0168C154.055 34.8738 154.566 37.9973 154.566 41.3873V42.0909C154.566 45.5022 154.055 48.647 153.031 51.5254C152.029 54.3823 150.59 56.8769 148.714 59.009C146.838 61.1197 144.599 62.7614 141.998 63.9341C139.418 65.1067 136.55 65.693 133.395 65.693ZM133.395 58.4333C136.039 58.4333 138.235 57.751 139.983 56.3865C141.731 55.022 143.043 53.1138 143.917 50.6619C144.812 48.21 145.26 45.353 145.26 42.0909V41.3233C145.26 38.1039 144.812 35.2789 143.917 32.8483C143.021 30.3964 141.689 28.4882 139.919 27.1237C138.171 25.7591 135.985 25.0769 133.363 25.0769C130.762 25.0769 128.598 25.7591 126.871 27.1237C125.144 28.4669 123.843 30.3538 122.969 32.7844C122.116 35.2149 121.69 38.0613 121.69 41.3233V42.0909C121.69 45.353 122.116 48.21 122.969 50.6619C123.843 53.1138 125.144 55.022 126.871 56.3865C128.619 57.751 130.794 58.4333 133.395 58.4333Z" fill="black"/>
<path d="M173.18 65.0214L162.37 24.5652L157.605 24.0855V18.4568H176.346V24.0855L171.325 24.821L176.793 47.4637L177.785 51.6213H177.977L179.16 47.4637L188.371 18.4568H195.247L204.809 48.2633L205.928 51.9411H206.12L207.08 48.2633L212.74 24.821L207.431 24.0855V18.4568H225.821V24.0855L221.375 24.5652L210.438 65.0214H201.995L193.168 37.8054L192.048 33.9677H191.857L190.609 37.9333L181.687 65.0214H173.18Z" fill="black"/>
<path d="M228.731 65.0214V59.4247L233.688 58.4653V25.0449L228.731 24.0855V18.4568H264.87V31.0254H257.706L257.29 25.6525H243.027V37.3577H258.793V44.5534H243.027V57.8576H258.058L258.473 52.2929H265.573V65.0214H228.731Z" fill="black"/>
<path d="M270.562 65.0214V59.4247L275.519 58.4653V25.0449L270.562 24.0855V18.4568H292.629C296.211 18.4568 299.282 19.0111 301.84 20.1198C304.399 21.2285 306.36 22.8169 307.725 24.885C309.11 26.9531 309.803 29.437 309.803 32.3366C309.803 35.0657 309.121 37.5069 307.757 39.6603C306.392 41.8137 304.494 43.5087 302.064 44.7453C299.633 45.9819 296.83 46.6109 293.653 46.6322H284.858V58.4653L289.847 59.4247V65.0214H270.562ZM300.529 65.0214L292.693 44.9052L301.104 42.8265L307.884 58.4973L311.85 59.4247V65.0214H300.529ZM284.858 39.4365H292.47C295.156 39.4365 297.16 38.8714 298.482 37.7414C299.825 36.5901 300.497 34.9271 300.497 32.7524C300.497 30.599 299.836 28.8826 298.514 27.6034C297.192 26.3028 295.231 25.6525 292.629 25.6525H284.858V39.4365Z" fill="black"/>
<path d="M331.647 65.0214V59.4247L336.604 58.4653V25.0449L331.647 24.0855V18.4568H368.713V31.2173H361.549L361.133 25.6525H345.942V38.477H362.253V45.6728H345.942V58.4653L350.931 59.4247V65.0214H331.647Z" fill="black"/>
<path d="M372.135 65.0214V59.4247L377.092 58.4653V25.0449L372.135 24.0855V18.4568H392.059V24.0855L386.43 25.0449V57.8576H399.575L400.022 51.0456H407.154V65.0214H372.135Z" fill="black"/>
<path d="M410.033 65.0214V59.4247L413.359 58.945L428.166 18.4568H437.728L452.44 58.945L455.766 59.4247V65.0214H439.903V59.4247L443.133 58.8491L441.086 52.4528H424.712L422.665 58.8491L425.895 59.4247V65.0214H410.033ZM426.919 45.5768H438.88L433.443 29.6182L432.995 28.211H432.803L432.323 29.7142L426.919 45.5768Z" fill="black"/>
<path d="M458.868 65.0214V59.4247L463.825 58.4653V25.0449L458.868 24.0855V18.4568H477.641L490.337 50.9177H490.529L502.81 18.4568H521.615V24.0855L516.626 25.0449V58.4653L521.615 59.4247V65.0214H502.33V59.4247L507.543 58.4653V49.5425L507.703 28.5309L507.511 28.4989L493.6 64.3818H486.532L472.3 28.7867L472.108 28.8187L472.652 48.5831V58.4653L478.153 59.4247V65.0214H458.868Z" fill="black"/>
<path d="M524.941 65.0214V59.4247L529.898 58.4653V25.0449L524.941 24.0855V18.4568H561.08V31.0254H553.916L553.5 25.6525H539.237V37.3577H555.004V44.5534H539.237V57.8576H554.268L554.684 52.2929H561.784V65.0214H524.941Z" fill="black"/>
</svg>
