<?xml version="1.0" encoding="UTF-8"?>
<svg version="1.1" xmlns="http://www.w3.org/2000/svg" width="5000" height="2126">
<path d="M0 0 C0.70495605 0.29600098 1.40991211 0.59200195 2.13623047 0.89697266 C26.35935541 11.27350685 48.34761858 26.56269696 68 44 C69.36705078 45.20076172 69.36705078 45.20076172 70.76171875 46.42578125 C77.58095788 52.54122164 84.07471249 58.97398751 90.5625 65.4375 C91.44429932 66.31462646 92.32609863 67.19175293 93.23461914 68.09545898 C94.06598389 68.92891846 94.89734863 69.76237793 95.75390625 70.62109375 C96.49970947 71.3680249 97.2455127 72.11495605 98.01391602 72.88452148 C99.84493919 74.83483688 101.44529979 76.82612514 103 79 C106.73323926 77.75558691 107.59860164 76.27312032 110 73.1875 C114.61869748 67.40291771 119.53527187 61.9546957 124.57519531 56.53808594 C126.02487319 54.97314923 127.46324659 53.39853927 128.8984375 51.8203125 C154.06326495 24.15056348 185.42521091 0.01409829 222 -10 C223.12921875 -10.31453125 224.2584375 -10.6290625 225.421875 -10.953125 C268.22797362 -21.39863232 312.81466073 -12.8775003 350.14648438 9.61572266 C358.17405438 14.56861812 365.69660932 20.03855902 373 26 C373.78189697 26.63542725 373.78189697 26.63542725 374.57958984 27.28369141 C404.12189808 51.43155418 427.09072576 79.27358712 445 113 C445.42249023 113.79438477 445.84498047 114.58876953 446.28027344 115.40722656 C469.52538969 159.53729021 483.60762005 207.98764905 492 257 C492.16725586 257.97179199 492.33451172 258.94358398 492.50683594 259.94482422 C493.51331661 265.94582997 494.32733843 271.95278376 495 278 C495.10296387 278.90250488 495.20592773 279.80500977 495.31201172 280.73486328 C498.80588065 313.0959273 499.46756349 347.85559142 494 380 C493.82307617 381.0504248 493.64615234 382.10084961 493.46386719 383.18310547 C488.89520651 409.44698643 481.54109289 434.44413794 469 458 C468.68305176 458.60585937 468.36610352 459.21171875 468.03955078 459.8359375 C462.99028922 469.42665516 456.947195 477.72515288 450 486 C449.23558594 486.91910156 448.47117187 487.83820313 447.68359375 488.78515625 C442.35667565 494.95065895 436.46896955 500.0624221 430 505 C429.25621094 505.58265625 428.51242187 506.1653125 427.74609375 506.765625 C412.92727999 517.79597681 395.44329694 526.02756361 377 528 C377 528.66 377 529.32 377 530 C332.79375238 536.02157316 293.0062642 532.60651331 256.390625 505.03515625 C251.19014192 500.95713768 246.25600573 496.61356783 241.37890625 492.15625 C239.22489491 490.20384564 237.02972274 488.31722641 234.8125 486.4375 C230.80503571 482.9329645 227.41531763 479.07393753 224 475 C223.17628906 474.0409375 222.35257813 473.081875 221.50390625 472.09375 C215.23870682 464.78736205 209.21616841 457.31461118 203.32324219 449.70556641 C202.05725475 448.07379736 200.78349536 446.4484129 199.5078125 444.82421875 C192.70185713 436.0938958 186.29082751 427.10729505 180 418 C179.57750977 417.38962891 179.15501953 416.77925781 178.71972656 416.15039062 C167.16241935 399.36854727 156.99057972 381.6659305 146.53198242 364.19116211 C142.10274199 356.80336552 137.59819799 349.46624841 133.04785156 342.15258789 C128.54339677 334.9033587 124.10914393 327.61240152 119.6875 320.3125 C111.52321183 306.83483048 103.27685144 293.40880271 95 280 C92.64268157 282.99562127 90.75545414 286.08029911 88.91796875 289.41796875 C88.02549438 291.03288208 88.02549438 291.03288208 87.11499023 292.68041992 C86.80133514 293.25118256 86.48768005 293.82194519 86.16452026 294.41000366 C85.16997573 296.21938196 84.17160588 298.02659946 83.17211914 299.83325195 C81.78892775 302.33362453 80.40673991 304.83454678 79.02539062 307.3359375 C70.97429703 321.90786219 62.81721941 336.40982467 54.39038086 350.76806641 C50.55415359 357.31080823 46.77819461 363.88559734 43.03393555 370.48120117 C28.30534664 396.42529585 13.11802548 422.24891569 -5 446 C-5.67627441 446.89259521 -5.67627441 446.89259521 -6.36621094 447.80322266 C-12.08044522 455.32013766 -18.06634695 462.45458755 -24.52734375 469.33984375 C-26.52921897 471.49351994 -28.43187709 473.67980983 -30.3125 475.9375 C-56.02530475 505.36708458 -94.06384731 527.17226172 -133 532 C-135.62723933 532.11193454 -138.22836361 532.18633624 -140.85546875 532.203125 C-141.59075302 532.21013931 -142.32603729 532.21715363 -143.08360291 532.22438049 C-145.45163131 532.24182904 -147.81940962 532.24823531 -150.1875 532.25 C-151.40043732 532.25101212 -151.40043732 532.25101212 -152.63787842 532.25204468 C-164.98279721 532.23566642 -176.92262079 531.77867239 -189 529 C-190.12148437 528.75056641 -190.12148437 528.75056641 -191.265625 528.49609375 C-227.44576386 520.18942922 -259.65105845 497.3399628 -279.55859375 466.03515625 C-312.50242846 412.64902547 -311.8302874 345.55360297 -307 285 C-306.91411621 283.86804199 -306.82823242 282.73608398 -306.73974609 281.56982422 C-303.26558214 237.87125354 -291.74218762 192.05341749 -273.1171875 152.40527344 C-271.85177151 149.68086821 -270.62792024 146.93960538 -269.40625 144.1953125 C-252.66145289 106.75509954 -230.17128562 73.75243261 -202 44 C-201.29101562 43.24847656 -200.58203125 42.49695312 -199.8515625 41.72265625 C-194.62101594 36.33199092 -188.8837187 31.65729712 -183 27 C-182.02289062 26.2059375 -181.04578125 25.411875 -180.0390625 24.59375 C-128.131882 -16.7227967 -61.08956578 -25.69238516 0 0 Z M-131 36 C-131.65887207 36.34047363 -132.31774414 36.68094727 -132.99658203 37.03173828 C-142.76347341 42.1385943 -151.53378673 47.95528679 -160 55 C-160.59087402 55.48936035 -161.18174805 55.9787207 -161.79052734 56.48291016 C-187.63344697 77.9924759 -207.86066513 104.5977622 -224 134 C-224.4522998 134.81952148 -224.90459961 135.63904297 -225.37060547 136.48339844 C-236.40332639 156.60626677 -245.32397611 177.24592408 -252.5625 199 C-252.82247772 199.78021515 -253.08245544 200.5604303 -253.35031128 201.36428833 C-254.09626198 203.61556225 -254.8335617 205.8694287 -255.56640625 208.125 C-255.8922319 209.11746986 -255.8922319 209.11746986 -256.22463989 210.12998962 C-257.80944514 215.07928527 -258.86015205 219.87068425 -260 225 C-243.83 225 -227.66 225 -211 225 C-209.741875 221.08125 -208.48375 217.1625 -207.1875 213.125 C-194.7309905 175.30019649 -177.02353196 139.36078729 -151 109 C-150.20851563 108.07316406 -149.41703125 107.14632813 -148.6015625 106.19140625 C-130.46481344 85.56586039 -104.74266987 69.09641975 -77 66 C-40.1268494 63.9113248 -9.74956394 82.01591273 17.078125 105.703125 C37.97083022 124.43374842 55.938249 146.59536127 70.91796875 170.29736328 C71.66568662 171.47393919 72.4412237 172.63312817 73.23828125 173.77685547 C74.40625 175.55859375 74.40625 175.55859375 76 179 C74.93440909 183.36967051 73.02935614 186.9510731 70.7265625 190.7890625 C69.74623047 192.43273804 69.74623047 192.43273804 68.74609375 194.10961914 C68.03921714 195.28150605 67.33218214 196.45329744 66.625 197.625 C65.89403637 198.84532545 65.16357299 200.06595068 64.43359375 201.28686523 C62.97095306 203.73109145 61.50505616 206.17331406 60.03613281 208.61376953 C58.29582812 211.50801727 56.56309683 214.40649226 54.8359375 217.30859375 C37.99473867 245.57109888 20.51382093 273.45883185 2.79785156 301.1796875 C0.959678 304.06325362 -0.86850244 306.95297364 -2.6953125 309.84375 C-10.24022268 321.75159906 -17.97026403 333.51648637 -25.875 345.1875 C-26.30749054 345.82686493 -26.73998108 346.46622986 -27.18557739 347.12496948 C-38.78672605 364.25663167 -50.74907623 381.09450375 -64 397 C-64.81984375 398.00675781 -65.6396875 399.01351563 -66.484375 400.05078125 C-84.0894136 421.50671545 -108.00472489 445.37809193 -137 449 C-158.12715323 450.85682087 -178.39794167 446.68903964 -194.9921875 432.7890625 C-195.65476562 432.19867187 -196.31734375 431.60828125 -197 431 C-197.66257812 430.43023438 -198.32515625 429.86046875 -199.0078125 429.2734375 C-209.4087194 419.688288 -215.46441571 407.16154213 -220 394 C-220.37898438 392.90429688 -220.75796875 391.80859375 -221.1484375 390.6796875 C-226.84417294 372.5646793 -227.5164496 353.77836641 -227.375 334.9375 C-227.36951645 333.33515503 -227.36951645 333.33515503 -227.36392212 331.70043945 C-227.2777491 310.18490383 -225.70711777 289.26902991 -221.55078125 268.125 C-220.88428357 264.87231392 -220.88428357 264.87231392 -221 261 C-227.53278786 260.97472998 -234.06556321 260.95716708 -240.59838867 260.94506836 C-242.82267732 260.94002683 -245.04696263 260.93319377 -247.27124023 260.92456055 C-250.46078309 260.91248702 -253.65028229 260.90677004 -256.83984375 260.90234375 C-257.84087631 260.89718246 -258.84190887 260.89202118 -259.87327576 260.88670349 C-261.25459435 260.88659019 -261.25459435 260.88659019 -262.66381836 260.88647461 C-263.47878281 260.884254 -264.29374725 260.88203339 -265.13340759 260.87974548 C-267.01477856 260.79471755 -267.01477856 260.79471755 -268 262 C-279.18699616 318.26378518 -280.53450776 396.91505577 -249 447 C-232.13866049 471.82520518 -207.8308709 488.489508 -178.40136719 494.55957031 C-171.31260899 495.85970449 -164.18839638 496.55681069 -157 497 C-155.87335937 497.0721875 -154.74671875 497.144375 -153.5859375 497.21875 C-121.85648774 498.18268265 -91.76926909 483.92139455 -68.9375 462.625 C-67.90369814 461.63932997 -66.87108121 460.65241516 -65.83984375 459.6640625 C-63 457 -63 457 -60.33203125 454.875 C-58.19631056 453.15783763 -56.51006828 451.46396992 -54.75 449.375 C-52.1895363 446.36947716 -49.56397139 443.45339049 -46.875 440.5625 C-27.55625718 419.02845447 -12.57978875 393.85379281 2 369 C2.86939209 367.52345947 2.86939209 367.52345947 3.75634766 366.01708984 C16.4054279 344.52399522 28.76405311 322.86008773 40.91967773 301.08447266 C44.23693216 295.14206306 47.57653856 289.21324156 50.9387207 283.29614258 C56.45406916 273.58644252 61.83309896 263.81326407 67.12524414 253.98022461 C71.34542967 246.15813769 75.7002011 238.41923683 80.09643555 230.69506836 C86.2305187 219.88730905 92.12100557 208.94804577 98 198 C100.21356759 201.32035138 100.8410513 203.87721398 101.78515625 207.74609375 C106.76474559 227.22547784 113.62100329 242.89575516 124.74902344 259.57470703 C128.20708034 264.78871789 131.39817873 270.16615433 134.61621094 275.53015137 C136.38198377 278.46794184 138.16429135 281.39565693 139.9453125 284.32421875 C143.98724228 290.97898788 143.98724228 290.97898788 145.84667969 294.04150391 C152.50685904 305.00894211 159.20006227 315.95483769 165.9375 326.875 C171.24879496 335.48488192 176.49682992 344.1293876 181.6875 352.8125 C203.11739634 388.60994571 226.40174371 421.90473091 253.70117188 453.47851562 C255.03079488 455.036074 256.33042355 456.61565564 257.62890625 458.19921875 C260.78023558 461.92162917 264.25587032 464.88949226 268 468 C268.77778809 468.66225586 268.77778809 468.66225586 269.57128906 469.33789062 C290.7286179 487.30778788 312.77615204 497 341 497 C341 481.82 341 466.64 341 451 C335.72 449.35 330.44 447.7 325 446 C315.7158267 441.95532972 307.57825526 436.71507041 300 430 C299.15824219 429.26652344 298.31648438 428.53304688 297.44921875 427.77734375 C288.42635838 419.79505604 280.49057404 411.43617769 273 402 C272.13568119 400.92687023 271.27109011 399.8539597 270.40625 398.78125 C252.95513443 377.00137177 238.48724561 353.30684698 224.08837891 329.45800781 C213.87573752 312.5435222 203.51883797 295.72586044 193 279 C192.47164551 278.15985352 191.94329102 277.31970703 191.39892578 276.45410156 C183.9130134 264.56032622 176.37237222 252.7012774 168.81542969 240.85253906 C167.05080094 238.07982225 165.29420524 235.30216603 163.5390625 232.5234375 C157.2130392 222.54022222 150.78173432 212.6387231 144.21484375 202.8125 C143.6095282 201.90663147 143.00421265 201.00076294 142.3805542 200.06744385 C139.3557566 195.54413362 136.3250977 191.02487435 133.28662109 186.51074219 C126.88518752 176.97721384 120.69000866 167.35154697 114.68582153 157.56285095 C110.13144208 150.15730042 105.3823097 142.90413095 100.48657227 135.72045898 C99.16236836 133.77558893 97.84752693 131.82460395 96.53320312 129.87304688 C91.64831143 122.65464823 86.5755754 115.70929918 81 109 C80.5356958 108.42531982 80.0713916 107.85063965 79.59301758 107.25854492 C73.00764601 99.11512417 65.81732435 91.6103706 58.4375 84.1875 C57.57552002 83.31633545 56.71354004 82.4451709 55.82543945 81.54760742 C49.86035096 75.61074936 43.59932768 70.21830051 37 65 C36.0872229 64.26777222 36.0872229 64.26777222 35.15600586 63.52075195 C-12.58441105 25.38117027 -74.01692292 6.32894546 -131 36 Z M170.78125 61.3359375 C168.55564184 63.46777004 166.30402635 65.46862767 163.9375 67.4375 C158.66620395 71.99705987 154.08907523 77.25877709 149.42675781 82.42480469 C148.16688656 83.81575084 146.89306719 85.19403572 145.6171875 86.5703125 C138.57690666 94.21620889 131.77114848 102.34327727 126 111 C128.11773228 114.15078327 130.24538187 117.29474075 132.375 120.4375 C132.97828125 121.33533203 133.5815625 122.23316406 134.203125 123.15820312 C135.07324219 124.43920898 135.07324219 124.43920898 135.9609375 125.74609375 C136.76217041 126.93223267 136.76217041 126.93223267 137.57958984 128.14233398 C138.87776741 130.12175184 138.87776741 130.12175184 141 131 C142.07314453 129.5459375 142.07314453 129.5459375 143.16796875 128.0625 C153.07353724 114.7070553 163.26040232 101.67051964 174.66015625 89.55078125 C177.01231986 87.05404787 177.01231986 87.05404787 179.0078125 84.4296875 C193.01079062 67.35154555 217.6159407 55.49373363 239 52 C240.15628906 51.80664062 240.15628906 51.80664062 241.3359375 51.609375 C272.8959355 47.27984459 305.55851178 58.75152794 330.625 77.6875 C388.36692611 123.09438073 411.18760693 208.51045249 421 278 C421.18079102 279.27133789 421.36158203 280.54267578 421.54785156 281.85253906 C424.03438042 300.35567526 424.32441702 318.85404975 424.4375 337.5 C424.45595978 339.20346588 424.45595978 339.20346588 424.47479248 340.94134521 C424.76525514 372.99601626 420.17360581 406.60129825 397.80078125 431.18359375 C391.52727812 437.49209551 384.96329252 441.01835374 377 445 C377 460.18 377 475.36 377 491 C398.76080597 486.16426534 418.20245628 471.33123371 430.39453125 452.63671875 C430.92433594 451.76660156 431.45414063 450.89648438 432 450 C432.64324219 448.95457031 433.28648437 447.90914062 433.94921875 446.83203125 C473.62517188 380.74656423 465.86465471 293.61949346 448 222 C436.43727369 176.89161816 419.09985903 132.44902971 391 95 C389.95585937 93.60587891 389.95585937 93.60587891 388.890625 92.18359375 C362.60778399 58.35258146 324.3788911 27.97546004 281.02001953 21.72290039 C238.7461471 16.51448504 201.05599875 32.18905273 170.78125 61.3359375 Z M192.4921875 121.85546875 C190.28203893 124.53695725 188.13389387 127.25750895 186 130 C185.15633558 131.05449713 184.31121653 132.1078317 183.46484375 133.16015625 C178.08418605 139.88109042 172.89984635 146.74217234 167.8125 153.6875 C167.23532227 154.46617432 166.65814453 155.24484863 166.06347656 156.04711914 C165.53334961 156.77793701 165.00322266 157.50875488 164.45703125 158.26171875 C163.98241455 158.91100342 163.50779785 159.56028809 163.01879883 160.22924805 C161.75065106 162.09290162 161.75065106 162.09290162 162 165 C163.05552911 167.0842318 163.05552911 167.0842318 164.53515625 169.296875 C165.08945313 170.16119141 165.64375 171.02550781 166.21484375 171.91601562 C166.82457031 172.85123047 167.43429687 173.78644531 168.0625 174.75 C168.6915625 175.72646484 169.320625 176.70292969 169.96875 177.70898438 C171.97095111 180.81140491 173.98371889 183.90671427 176 187 C176.94528564 188.45116211 176.94528564 188.45116211 177.90966797 189.93164062 C180.39994954 193.75202552 182.89235063 197.57100968 185.38867188 201.38745117 C191.43043591 210.63206866 197.35860357 219.94689776 203.27050781 229.27490234 C204.99652049 231.99451747 206.72778815 234.71070944 208.4609375 237.42578125 C219.94699367 255.42243397 231.30315312 273.49520945 242.375 291.75 C242.727901 292.33171967 243.080802 292.91343933 243.44439697 293.51278687 C247.06562231 299.48412744 250.67800502 305.46067098 254.27345276 311.4475708 C263.14740595 326.21931159 272.22386334 340.80162509 282 355 C282.44891602 355.65597168 282.89783203 356.31194336 283.36035156 356.98779297 C307.33805178 392.15199451 307.33805178 392.15199451 342 415 C350.75583222 415.64041459 358.34985378 415.71498808 366 411 C366.61101562 410.67257812 367.22203125 410.34515625 367.8515625 410.0078125 C377.42780144 404.22832028 382.93021482 391.13514057 385.58251953 380.71044922 C387.84588258 370.93187901 389.73244581 361.05073149 390 351 C390.02046387 350.26136719 390.04092773 349.52273438 390.06201172 348.76171875 C391.21837698 299.60185996 383.8832613 250.50209018 368 204 C367.65243652 202.97148926 367.30487305 201.94297852 366.94677734 200.88330078 C352.71394944 159.31966048 331.47037633 115.49008652 290.82421875 94.73339844 C251.9824218 75.72080039 219.1481713 91.50418501 192.4921875 121.85546875 Z M-116.55664062 124.55957031 C-117.88923227 125.8894571 -119.26335015 127.17738253 -120.640625 128.4609375 C-149.14494733 155.44144385 -178.30511407 209.99832745 -180.421875 249.203125 C-180.49690447 253.15904374 -180.33330595 257.05852491 -180 261 C-181.32 261 -182.64 261 -184 261 C-194.48497244 300.49295769 -201.96346546 356.00858513 -182 394 C-175.53049731 404.03781353 -167.56855099 410.93759443 -155.8515625 413.7578125 C-142.91647251 416.13979877 -133.43167443 412.7029772 -122.5859375 405.3671875 C-110.19935083 395.95688314 -98.9641187 384.90621828 -89.34423828 372.70361328 C-88.38297037 371.48535548 -87.41729798 370.27056786 -86.44873047 369.05810547 C-77.40042845 357.72592003 -69.04702387 346.05844109 -61 334 C-60.22030926 332.8360907 -59.44034585 331.67236403 -58.66015625 330.50878906 C-48.98880444 316.08268231 -39.34637911 301.63951594 -30 287 C-29.4834082 286.19288574 -28.96681641 285.38577148 -28.43457031 284.55419922 C-14.34746302 262.53745349 -0.5439615 240.35461399 13 218 C15.64356152 213.64025965 18.28862203 209.28142917 20.93389893 204.92272949 C22.03251677 203.1119202 23.13033802 201.30063006 24.22802734 199.48925781 C24.90687988 198.3700293 25.58573242 197.25080078 26.28515625 196.09765625 C26.9208252 195.04078613 27.55649414 193.98391602 28.21142578 192.89501953 C29.32210186 191.09725856 30.47065907 189.32165284 31.67529297 187.58544922 C34.39864864 183.84375 34.39864864 183.84375 34.62109375 179.40625 C32.55121129 176.33384616 30.39087506 173.37874023 28.0625 170.5 C27.57305908 169.88761475 27.08361816 169.27522949 26.5793457 168.64428711 C25.0620299 166.75523501 23.53352511 164.87590968 22 163 C21.54915039 162.44715332 21.09830078 161.89430664 20.63378906 161.32470703 C10.99341561 149.56631844 0.90819124 137.51793947 -11 128 C-12.01191406 127.16210938 -13.02382812 126.32421875 -14.06640625 125.4609375 C-47.29467094 98.2892663 -84.2050278 91.97777137 -116.55664062 124.55957031 Z " fill="#000000" transform="translate(3044,1367)"/>
<path d="M0 0 C1.53333984 0.81210937 1.53333984 0.81210937 3.09765625 1.640625 C15.04462606 8.26532427 25.98599933 16.82136916 35.96484375 26.1171875 C37.65909563 27.68461438 39.37699061 29.13489207 41.1875 30.5625 C44.86649834 33.75096523 47.89874234 37.25432516 51 41 C51.43618652 41.52384277 51.87237305 42.04768555 52.32177734 42.58740234 C58.72787081 50.31425024 64.64918236 58.20467447 70.125 66.61328125 C73.73208335 72.15067697 77.46568165 77.60187067 81.1875 83.0625 C82.2849353 84.67451294 82.2849353 84.67451294 83.40454102 86.3190918 C85.60215852 89.54665407 87.80089626 92.77345024 90 96 C90.65726074 96.96454102 91.31452148 97.92908203 91.99169922 98.92285156 C95.71214795 104.38229869 99.43428214 109.84059437 103.15722656 115.29833984 C106.27216287 119.86509728 109.38602178 124.43258924 112.5 129 C113.74999495 130.83333678 114.99999495 132.66667011 116.25 134.5 C118.75 138.16666667 121.25 141.83333333 123.75 145.5 C124.36858887 146.4072583 124.98717773 147.3145166 125.62451172 148.24926758 C126.87615952 150.08502855 128.12778708 151.92080332 129.37939453 153.7565918 C132.47901847 158.30289492 135.57897869 162.84896796 138.6796875 167.39453125 C146.01513334 178.14904083 153.34061413 188.91026571 160.65917969 199.67626953 C167.1497046 209.2229838 173.65190823 218.76170226 180.15722656 228.29833984 C183.27216287 232.86509728 186.38602178 237.43258924 189.5 242 C190.74999495 243.83333678 191.99999495 245.66667011 193.25 247.5 C195.75 251.16666667 198.25 254.83333333 200.75 258.5 C201.36858887 259.4072583 201.98717773 260.3145166 202.62451172 261.24926758 C203.87615952 263.08502855 205.12778708 264.92080332 206.37939453 266.7565918 C209.47901847 271.30289492 212.57897869 275.84896796 215.6796875 280.39453125 C223.01513334 291.14904083 230.34061413 301.91026571 237.65917969 312.67626953 C244.1497046 322.2229838 250.65190823 331.76170226 257.15722656 341.29833984 C260.27216287 345.86509728 263.38602178 350.43258924 266.5 355 C267.74999495 356.83333678 268.99999495 358.66667011 270.25 360.5 C277.75 371.5 285.25 382.5 292.75 393.5 C293.36858887 394.4072583 293.98717773 395.3145166 294.62451172 396.24926758 C295.87615952 398.08502855 297.12778708 399.92080332 298.37939453 401.7565918 C301.47901847 406.30289492 304.57897869 410.84896796 307.6796875 415.39453125 C311.45455853 420.92871097 315.22769078 426.4640738 319 432 C319.7101123 433.04188477 320.42022461 434.08376953 321.15185547 435.15722656 C325.4884922 441.52144372 329.81714976 447.8909787 334.13916016 454.26513672 C335.74316504 456.62253146 337.35834988 458.97146624 338.98046875 461.31640625 C351.31205385 479.24842245 360.11683339 498.60063812 365.8125 519.625 C366.08658691 520.62345947 366.08658691 520.62345947 366.36621094 521.64208984 C370.17324233 536.66262313 371.55685207 551.73601208 371.4375 567.1875 C371.43293793 568.45335434 371.43293793 568.45335434 371.42828369 569.74478149 C371.1729216 617.91344836 352.89682496 661.91005338 320 697 C319.54028809 697.49371094 319.08057617 697.98742187 318.60693359 698.49609375 C304.73663079 713.27388564 288.87368975 724.52986708 271 734 C270.29407715 734.37495605 269.5881543 734.74991211 268.86083984 735.13623047 C246.75296513 746.66782321 220.76310041 753.97288278 195.75 754.23828125 C194.98258484 754.24802979 194.21516968 754.25777832 193.42449951 754.26782227 C175.91570775 754.44434443 159.13194021 754.0523948 142 750 C141.19804199 749.81808105 140.39608398 749.63616211 139.56982422 749.44873047 C109.70088642 742.51874055 81.23317642 727.00482413 59 706 C57.67058052 704.87037767 56.33736282 703.74520688 55 702.625 C41.6336512 690.88934575 31.44201005 675.93094553 21.7421875 661.15234375 C18.49198406 656.20675082 15.15122542 651.32358555 11.8125 646.4375 C11.17465576 645.50341309 10.53681152 644.56932617 9.87963867 643.60693359 C8.57184583 641.6920621 7.26381988 639.77734979 5.95556641 637.86279297 C2.80051078 633.24404362 -0.34955299 628.62189352 -3.5 624 C-4.74997473 622.16664944 -5.99997476 620.33331613 -7.25 618.5 C-14.75 607.5 -22.25 596.5 -29.75 585.5 C-30.36858887 584.5927417 -30.98717773 583.6854834 -31.62451172 582.75073242 C-32.87615952 580.91497145 -34.12778708 579.07919668 -35.37939453 577.2434082 C-38.47901847 572.69710508 -41.57897869 568.15103204 -44.6796875 563.60546875 C-50.57338477 554.96470919 -56.46352931 546.32156913 -62.34375 537.67163086 C-63.77302912 535.56930238 -65.20271195 533.46724831 -66.6328125 531.36547852 C-70.1974716 526.12619958 -73.75642186 520.88321013 -77.3046875 515.6328125 C-78.66145606 513.63020679 -80.0182268 511.62760256 -81.375 509.625 C-81.99955078 508.69751953 -82.62410156 507.77003906 -83.26757812 506.81445312 C-83.84701172 505.96044922 -84.42644531 505.10644531 -85.0234375 504.2265625 C-85.78019775 503.10628662 -85.78019775 503.10628662 -86.55224609 501.96337891 C-87.91098307 500.12072077 -89.33502307 498.56598164 -91 497 C-91.4218457 497.63800537 -91.84369141 498.27601074 -92.27832031 498.93334961 C-107.21839431 521.50356178 -107.21839431 521.50356178 -114.84082031 532.11694336 C-118.31001062 536.95951581 -121.61723005 541.90034287 -124.91162109 546.86328125 C-128.25938644 551.89158253 -131.6616919 556.88248583 -135.0625 561.875 C-135.79710449 562.95434814 -136.53170898 564.03369629 -137.28857422 565.14575195 C-143.90557983 574.86728594 -150.5303649 584.58352271 -157.15722656 594.29833984 C-160.27216287 598.86509728 -163.38602178 603.43258924 -166.5 608 C-167.74999495 609.83333678 -168.99999495 611.66667011 -170.25 613.5 C-170.86875 614.4075 -171.4875 615.315 -172.125 616.25 C-174 619 -175.875 621.75 -177.75 624.5 C-178.36907227 625.4079834 -178.98814453 626.3159668 -179.62597656 627.25146484 C-180.87268093 629.07994293 -182.11942555 630.90839357 -183.36621094 632.73681641 C-187.1887343 638.34271776 -191.00968669 643.94968596 -194.82958984 649.55737305 C-196.71556229 652.32447297 -198.60371214 655.0900766 -200.4921875 657.85546875 C-202.69439094 661.08093637 -204.88743744 664.31220662 -207.0703125 667.55078125 C-235.91587565 710.20790761 -276.40147956 739.70534175 -327 751 C-327.75474609 751.17644043 -328.50949219 751.35288086 -329.28710938 751.53466797 C-374.575152 761.68925353 -425.9765539 751.20899888 -464.98779297 726.75390625 C-506.96273921 699.66162589 -537.18336091 658.27110935 -548.3515625 609.34375 C-549.36097059 604.58142543 -550.27121341 599.8134697 -551 595 C-551.10094971 594.35796631 -551.20189941 593.71593262 -551.3059082 593.05444336 C-554.27706086 570.97198412 -553.17874953 546.58994666 -548 525 C-547.78569336 524.09411133 -547.57138672 523.18822266 -547.35058594 522.25488281 C-544.24236112 509.52790112 -539.74352815 497.75356471 -534 486 C-533.69320312 485.34741211 -533.38640625 484.69482422 -533.0703125 484.02246094 C-526.41840441 469.92979667 -517.29869771 457.33408154 -508.45898438 444.56152344 C-504.68694704 439.10698133 -500.97213687 433.61366939 -497.25 428.125 C-490.12409997 417.64384447 -482.98486241 407.17178793 -475.84277344 396.70166016 C-472.72783713 392.13490272 -469.61397822 387.56741076 -466.5 383 C-465.25000505 381.16666322 -464.00000505 379.33332989 -462.75 377.5 C-462.13125 376.5925 -461.5125 375.685 -460.875 374.75 C-395.25000001 278.50000001 -395.25000001 278.50000001 -393.37548828 275.75073242 C-392.12384048 273.91497145 -390.87221292 272.07919668 -389.62060547 270.2434082 C-386.52098153 265.69710508 -383.42102131 261.15103204 -380.3203125 256.60546875 C-373.70625559 246.9085887 -367.09883724 237.20724473 -360.5 227.5 C-353.29030183 216.89414595 -346.06952425 206.29590011 -338.84277344 195.70166016 C-335.72783713 191.13490272 -332.61397822 186.56741076 -329.5 182 C-328.25000505 180.16666322 -327.00000505 178.33332989 -325.75 176.5 C-324.821875 175.13875 -324.821875 175.13875 -323.875 173.75 C-288.24999999 121.49999999 -288.24999999 121.49999999 -286.37548828 118.75073242 C-285.12384048 116.91497145 -283.87221292 115.07919668 -282.62060547 113.2434082 C-279.52098153 108.69710508 -276.42102131 104.15103204 -273.3203125 99.60546875 C-272.71147217 98.7127124 -272.10263184 97.81995605 -271.4753418 96.90014648 C-270.2428965 95.09335144 -269.00998711 93.28687288 -267.77661133 91.48071289 C-264.37905923 86.50232764 -260.99594994 81.5147033 -257.62890625 76.515625 C-247.82078622 61.97240204 -238.103596 47.75993135 -226 35 C-225.54318848 34.51063965 -225.08637695 34.0212793 -224.61572266 33.51708984 C-211.89409463 19.95945705 -197.31111524 8.90199849 -181 0 C-180.05954834 -0.51554443 -180.05954834 -0.51554443 -179.10009766 -1.04150391 C-123.19391295 -31.271415 -55.61994077 -30.02151416 0 0 Z M-205 65 C-233.05334145 97.16846658 -243.54735089 138.02884094 -241 180 C-238.43129626 206.94338158 -227.60292306 231.10565203 -212.4375 253.1875 C-211.45721371 254.63381833 -210.47798014 256.08085068 -209.49975586 257.52856445 C-207.10940871 261.06045488 -204.70601106 264.58319505 -202.29724121 268.10253906 C-200.44375705 270.81361065 -198.60078373 273.53177453 -196.7578125 276.25 C-193.7675171 280.65451469 -190.76363422 285.04951185 -187.75341797 289.44042969 C-184.70333446 293.89282116 -181.66465609 298.35298624 -178.625 302.8125 C-178.01084229 303.71315186 -177.39668457 304.61380371 -176.76391602 305.54174805 C-171.28231282 313.58166988 -165.811357 321.62881563 -160.34082031 329.67626953 C-153.8502954 339.2229838 -147.34809177 348.76170226 -140.84277344 358.29833984 C-137.72783713 362.86509728 -134.61397822 367.43258924 -131.5 372 C-130.25000505 373.83333678 -129.00000505 375.66667011 -127.75 377.5 C-125.25 381.16666667 -122.75 384.83333333 -120.25 388.5 C-119.63141113 389.4072583 -119.01282227 390.3145166 -118.37548828 391.24926758 C-117.12384048 393.08502855 -115.87221292 394.92080332 -114.62060547 396.7565918 C-111.52098153 401.30289492 -108.42102131 405.84896796 -105.3203125 410.39453125 C-97.98486666 421.14904083 -90.65938587 431.91026571 -83.34082031 442.67626953 C-76.8502954 452.2229838 -70.34809177 461.76170226 -63.84277344 471.29833984 C-60.72783713 475.86509728 -57.61397822 480.43258924 -54.5 485 C-53.25000505 486.83333678 -52.00000505 488.66667011 -50.75 490.5 C-48.25 494.16666667 -45.75 497.83333333 -43.25 501.5 C-42.63141113 502.4072583 -42.01282227 503.3145166 -41.37548828 504.24926758 C-40.12384048 506.08502855 -38.87221292 507.92080332 -37.62060547 509.7565918 C-34.52098153 514.30289492 -31.42102131 518.84896796 -28.3203125 523.39453125 C-20.98486666 534.14904083 -13.65938587 544.91026571 -6.34082031 555.67626953 C0.1497046 565.2229838 6.65190823 574.76170226 13.15722656 584.29833984 C16.27216287 588.86509728 19.38602178 593.43258924 22.5 598 C23.74999495 599.83333678 24.99999495 601.66667011 26.25 603.5 C33.75 614.5 33.75 614.5 35.6262207 617.25219727 C36.87164634 619.07855109 38.11757437 620.90456243 39.36401367 622.73022461 C42.56328617 627.41760869 45.75261055 632.1113058 48.92578125 636.81640625 C66.087162 662.46381985 66.087162 662.46381985 88 684 C88.50063965 684.39654785 89.0012793 684.7930957 89.51708984 685.20166016 C121.88652381 710.56163179 161.78615219 722.72260482 202.8293457 718.0546875 C217.81552761 716.11101173 232.25171683 712.28450295 246 706 C246.63180176 705.71817871 247.26360352 705.43635742 247.91455078 705.14599609 C264.24514329 697.79459092 278.22258023 687.47364753 291 675 C292.16208984 673.93072266 292.16208984 673.93072266 293.34765625 672.83984375 C320.40944411 647.30535256 334.76756288 608.23728866 336.125 571.62890625 C336.82695247 530.16983844 320.35024736 497.60639912 297.35546875 464.40625 C294.00053102 459.56083325 290.68944643 454.68565867 287.375 449.8125 C286.16430893 448.0375923 284.95337006 446.2628536 283.7421875 444.48828125 C279.65500572 438.49657271 275.57731366 432.49842631 271.5 426.5 C264.29034572 415.89411617 257.06952419 405.29590003 249.84277344 394.70166016 C246.72783713 390.13490272 243.61397822 385.56741076 240.5 381 C239.25000505 379.16666322 238.00000505 377.33332989 236.75 375.5 C234.25 371.83333333 231.75 368.16666667 229.25 364.5 C228.63141113 363.5927417 228.01282227 362.6854834 227.37548828 361.75073242 C226.12384048 359.91497145 224.87221292 358.07919668 223.62060547 356.2434082 C220.52098153 351.69710508 217.42102131 347.15103204 214.3203125 342.60546875 C206.98486666 331.85095917 199.65938587 321.08973429 192.34082031 310.32373047 C185.8502954 300.7770162 179.34809177 291.23829774 172.84277344 281.70166016 C169.72783713 277.13490272 166.61397822 272.56741076 163.5 268 C162.25000505 266.16666322 161.00000505 264.33332989 159.75 262.5 C152.25 251.5 144.75 240.5 137.25 229.5 C136.3221167 228.13911255 136.3221167 228.13911255 135.37548828 226.75073242 C134.12384048 224.91497145 132.87221292 223.07919668 131.62060547 221.2434082 C128.52098153 216.69710508 125.42102131 212.15103204 122.3203125 207.60546875 C114.98486666 196.85095917 107.65938587 186.08973429 100.34082031 175.32373047 C93.8502954 165.7770162 87.34809177 156.23829774 80.84277344 146.70166016 C78.35455842 143.0537286 75.86703815 139.40532362 73.37963867 135.75683594 C72.12735887 133.9201372 70.87491766 132.0835485 69.62231445 130.24707031 C66.50659029 125.67869297 63.39332112 121.10868061 60.28515625 116.53515625 C51.28193167 103.29317431 42.24790344 90.07273409 33 77 C32.53287598 76.33645508 32.06575195 75.67291016 31.58447266 74.98925781 C8.74857906 42.84985201 -26.38074534 21.61115585 -65.04614258 14.5871582 C-117.87190157 5.98346032 -169.37794219 25.68494268 -205 65 Z M-278 171 C-279.52367249 172.99770394 -280.99048872 175.00997099 -282.4375 177.0625 C-282.88778564 177.69736328 -283.33807129 178.33222656 -283.80200195 178.98632812 C-287.2560714 183.88305386 -290.60120058 188.84633042 -293.90722656 193.84375 C-297.6191152 199.44980607 -301.39613486 205.00993754 -305.1875 210.5625 C-305.82518311 211.49642578 -306.46286621 212.43035156 -307.11987305 213.39257812 C-308.42786412 215.30758816 -309.7360525 217.22246345 -311.04443359 219.13720703 C-314.19948922 223.75595638 -317.34955299 228.37810648 -320.5 233 C-321.74997473 234.83335056 -322.99997476 236.66668387 -324.25 238.5 C-324.86875 239.4075 -325.4875 240.315 -326.125 241.25 C-358.9375 289.375 -358.9375 289.375 -391.75 337.5 C-392.3692334 338.4082251 -392.9884668 339.3164502 -393.62646484 340.25219727 C-394.87152138 342.07824774 -396.11663818 343.90425712 -397.36181641 345.73022461 C-400.56295683 350.42464381 -403.76292056 355.11985855 -406.9609375 359.81640625 C-407.6118335 360.77192383 -408.26272949 361.72744141 -408.93334961 362.71191406 C-410.21070171 364.58722692 -411.48757074 366.46286893 -412.76391602 368.33886719 C-415.46762609 372.3082129 -418.17883684 376.27054923 -420.94140625 380.19921875 C-421.37018066 380.81015381 -421.79895508 381.42108887 -422.24072266 382.05053711 C-423.34234554 383.61487755 -424.45017999 385.17483888 -425.55859375 386.734375 C-427.17892712 388.83369442 -427.17892712 388.83369442 -427 391 C-426.08863281 390.75765625 -425.17726563 390.5153125 -424.23828125 390.265625 C-416.24881377 388.1828289 -408.23354315 386.3716398 -400.125 384.8125 C-399.27075439 384.64588867 -398.41650879 384.47927734 -397.53637695 384.30761719 C-351.50807114 375.65036705 -301.58577923 386.15479093 -262.68334961 412.09277344 C-220.21654815 441.12594193 -192.47531966 483.30202788 -182.62353516 533.70507812 C-180.94069584 542.76028984 -179.78498468 551.82622379 -179 561 C-175.13531603 556.34133392 -171.70802312 551.39943303 -168.25 546.4375 C-167.6202124 545.53563965 -166.9904248 544.6337793 -166.34155273 543.70458984 C-162.57134089 538.29272337 -158.86024018 532.84838512 -155.2265625 527.34375 C-150.23926799 519.8175558 -145.09749867 512.39290022 -140.00537109 504.9375 C-138.02923052 502.04281734 -136.05521123 499.14670142 -134.08203125 496.25 C-126.7469751 485.48226382 -119.39287865 474.72812744 -112 464 C-117.17328631 455.62868215 -122.70889886 447.52604832 -128.28125 439.41796875 C-132.33324129 433.52188573 -136.35486168 427.60532924 -140.375 421.6875 C-147.62558969 411.01861281 -154.88814574 400.35795487 -162.15722656 389.70166016 C-165.27216287 385.13490272 -168.38602178 380.56741076 -171.5 376 C-172.74999495 374.16666322 -173.99999495 372.33332989 -175.25 370.5 C-177.75 366.83333333 -180.25 363.16666667 -182.75 359.5 C-183.6778833 358.13911255 -183.6778833 358.13911255 -184.62451172 356.75073242 C-185.87615952 354.91497145 -187.12778708 353.07919668 -188.37939453 351.2434082 C-191.47901847 346.69710508 -194.57897869 342.15103204 -197.6796875 337.60546875 C-205.01158346 326.85616366 -212.33440467 316.10074586 -219.64819336 305.33911133 C-223.76548672 299.28194389 -227.88947881 293.2294364 -232.02124023 287.18212891 C-233.89228232 284.44123938 -235.75911725 281.69752859 -237.625 278.953125 C-239.69329028 275.91111155 -241.77484438 272.87945794 -243.875 269.859375 C-249.7921928 261.28323922 -254.63030317 252.45557874 -259 243 C-259.53367187 241.86046875 -260.06734375 240.7209375 -260.6171875 239.546875 C-270.43022571 217.68362926 -274.79661689 194.74435217 -277 171 C-277.33 171 -277.66 171 -278 171 Z M-434 433 C-434.65452148 433.33902344 -435.30904297 433.67804688 -435.98339844 434.02734375 C-455.13046726 444.03624713 -471.97539171 457.6805388 -485 475 C-485.4031543 475.52819336 -485.80630859 476.05638672 -486.22167969 476.60058594 C-510.78207641 508.93875625 -520.84580252 549.21866695 -515.40673828 589.38818359 C-510.34169792 621.91267446 -495.76678073 650.40533633 -473 674 C-472.33484375 674.71671875 -471.6696875 675.4334375 -470.984375 676.171875 C-445.24625982 703.20771027 -406.59633477 717.66615048 -369.8515625 719.125 C-327.45888203 719.90106738 -288.23304267 703.16783841 -257.89453125 673.9296875 C-253.53188328 669.59134796 -249.68396597 664.92336716 -246 660 C-245.28585937 659.06285156 -244.57171875 658.12570312 -243.8359375 657.16015625 C-229.33447815 637.25267583 -219.71957491 614.34890958 -216 590 C-215.72542969 588.24236328 -215.72542969 588.24236328 -215.4453125 586.44921875 C-213.41987461 569.5523771 -214.03605395 551.56195962 -218 535 C-218.16628906 534.27345215 -218.33257813 533.5469043 -218.50390625 532.79833984 C-224.72597453 506.18747558 -238.26412622 482.79054218 -257 463 C-257.81984375 462.11570312 -258.6396875 461.23140625 -259.484375 460.3203125 C-278.8545488 440.0905156 -304.93651375 426.60311864 -332 420 C-332.66596191 419.83483887 -333.33192383 419.66967773 -334.01806641 419.49951172 C-367.13487649 411.68688538 -404.05192497 417.25948141 -434 433 Z " fill="#000000" transform="translate(2625,270)"/>
<path d="M0 0 C0.7319458 -0.00067474 1.4638916 -0.00134949 2.21801758 -0.00204468 C65.66247333 0.0896034 129.46777153 19.89537826 180.9375 57.25 C181.62650391 57.74822266 182.31550781 58.24644531 183.02539062 58.75976562 C187.7268772 62.17626602 192.35193438 65.6798186 196.9375 69.25 C197.48293457 69.66523926 198.02836914 70.08047852 198.59033203 70.50830078 C200.04048509 71.62341372 201.45900304 72.77932325 202.875 73.9375 C203.64714844 74.56011719 204.41929687 75.18273438 205.21484375 75.82421875 C207.03331095 78.38491746 207.21524105 79.28952034 207.48155212 82.3092041 C207.70370635 84.7415759 207.92491334 87.15899593 208.25958443 89.57873535 C209.31701841 97.40262924 209.93496193 105.0039182 205.22555542 111.73120117 C201.40239377 116.39121802 197.04349747 120.4785671 192.65234375 124.59375 C191.07312844 126.14320472 189.4981244 127.69696208 187.92713928 129.25476074 C183.80558699 133.31737189 179.62635736 137.31517936 175.43261719 141.30303955 C172.02036995 144.567654 168.65157058 147.87520201 165.2841711 151.18596649 C158.31705506 158.03458686 151.32196375 164.855565 144.24975586 171.59570312 C143.61102036 172.21380356 142.97228485 172.83190399 142.31419373 173.46873474 C135.84253765 179.58828059 129.75490122 183.34455884 120.6875 183.5 C119.34945312 183.53867188 119.34945312 183.53867188 117.984375 183.578125 C111.13022262 182.83998551 105.90434468 179.85644971 100.5 175.6875 C64.50471823 149.14091841 19.77443879 137.90561171 -24.625 144.375 C-58.92542579 150.08171964 -90.80462608 165.48267239 -115.63964844 189.86230469 C-116.9607573 191.15077119 -118.31133671 192.40883046 -119.6640625 193.6640625 C-149.36620139 221.85752132 -165.84828431 264.14990484 -167.27734375 304.6328125 C-168.34825473 350.90246652 -151.84169625 393.71416476 -120.0625 427.25 C-119.22074219 428.14460938 -118.37898438 429.03921875 -117.51171875 429.9609375 C-89.25233584 459.16093663 -48.12505287 477.3390887 -7.46484375 478.48828125 C42.37959077 479.22674207 85.4854494 462.59723789 121.5625 427.9375 C132.86826647 416.30042902 141.93259699 402.762992 149.57910156 388.51000977 C149.90274689 387.907295 150.22639221 387.30458023 150.55984497 386.68360138 C151.35309793 385.20611055 152.14539516 383.72810667 152.9375 382.25 C151.91266132 382.24780016 151.91266132 382.24780016 150.86711884 382.24555588 C134.22384579 382.20846455 117.58080902 382.14941916 100.93770599 382.06609726 C92.88913143 382.02632944 84.84065433 381.99392553 76.79199219 381.97900391 C69.7747576 381.96597563 62.75773765 381.93898115 55.74062395 381.89538693 C52.02688411 381.8727983 48.31340874 381.85708774 44.59959412 381.85811615 C40.44825513 381.85900354 36.29769393 381.82870352 32.14648438 381.79589844 C30.92224762 381.8009288 29.69801086 381.80595917 28.43667603 381.81114197 C20.03288992 381.70844464 14.68963527 380.49048046 8.1875 374.875 C1.15234226 366.66731597 -0.36792377 359.25902515 -0.3371582 348.77978516 C-0.3448246 347.41224342 -0.3448246 347.41224342 -0.35264587 346.01707458 C-0.3664658 343.02433579 -0.36559079 340.03182927 -0.36328125 337.0390625 C-0.36717242 334.94452836 -0.37150796 332.849995 -0.37626648 330.75546265 C-0.38371242 326.37275633 -0.38344926 321.99013059 -0.37817383 317.60742188 C-0.37238225 312.01021998 -0.38931077 306.41334933 -0.4125185 300.81620216 C-0.42729962 296.49230035 -0.42812157 292.16847751 -0.42500877 287.8445549 C-0.42551981 285.78182698 -0.4307164 283.71909438 -0.44082069 281.65639114 C-0.45325252 278.76371408 -0.4463531 275.87167194 -0.43481445 272.97900391 C-0.44245819 272.13920486 -0.45010193 271.29940582 -0.45797729 270.43415833 C-0.38139235 261.68274723 1.58311713 252.6368861 7.9375 246.25 C12.85728509 242.5433126 17.24107422 240.13090099 23.49540043 240.11298561 C24.43572339 240.10791107 25.37604635 240.10283653 26.34486395 240.09760821 C27.89735843 240.09686157 27.89735843 240.09686157 29.48121643 240.09609985 C31.12831656 240.08952647 31.12831656 240.08952647 32.80869144 240.0828203 C36.50730966 240.06941031 40.20590405 240.06324845 43.90454102 240.05712891 C46.54882488 240.04922962 49.19310567 240.04096589 51.83738708 240.03234863 C59.78730286 240.00782611 67.73722488 239.99319665 75.68716684 239.98028857 C77.93312497 239.97657619 80.17908249 239.97260298 82.42504001 239.9685359 C96.37557309 239.9432963 110.32610717 239.92124564 124.27665806 239.90880775 C127.50808783 239.9058781 130.73951757 239.90291644 133.97094727 239.89990234 C134.77409365 239.89915629 135.57724002 239.89841024 136.40472417 239.89764158 C149.40849599 239.88499424 162.41213088 239.85177972 175.41583873 239.81010051 C188.77046945 239.76764799 202.12503015 239.7441088 215.47972816 239.73888719 C222.97624425 239.73547657 230.47254646 239.72376296 237.96899605 239.69078445 C244.35502082 239.66273691 250.74078787 239.65180504 257.12686945 239.66297992 C260.38296782 239.66815498 263.6384157 239.66261054 266.89445877 239.64051437 C270.43171964 239.61781958 273.96762973 239.62612125 277.50489807 239.64199829 C278.52427934 239.6281162 279.5436606 239.61423412 280.59393221 239.59993136 C288.32660123 239.6852133 295.2643711 241.55200346 300.85573202 247.18121874 C318.52302913 268.33150253 312.39053382 315.3823135 310.43359375 341.046875 C309.84660639 347.15842302 308.98115187 353.20089193 307.9375 359.25 C307.76589355 360.26787598 307.59428711 361.28575195 307.41748047 362.33447266 C295.20220742 432.84246962 258.35901209 503.01042719 201.65625 548.0859375 C199.90469251 549.480137 198.17343286 550.90042425 196.46875 552.3515625 C143.16882661 597.590695 71.38860347 621.4416753 2 621.5 C0.90075195 621.50101212 0.90075195 621.50101212 -0.22070312 621.50204468 C-71.71044064 621.39891965 -140.82916718 596.59843101 -196.0625 551.25 C-196.59020996 550.82525391 -197.11791992 550.40050781 -197.66162109 549.96289062 C-206.04213126 543.20119734 -213.74400676 535.77451011 -221.375 528.1875 C-222.29410156 527.27766357 -223.21320313 526.36782715 -224.16015625 525.43041992 C-230.21840731 519.34426326 -235.75024406 512.99407244 -241.0625 506.25 C-241.64813721 505.51305908 -242.23377441 504.77611816 -242.8371582 504.0168457 C-244.42743 502.00158132 -245.99975273 499.97416683 -247.5625 497.9375 C-248.11147949 497.22255371 -248.66045898 496.50760742 -249.22607422 495.77099609 C-253.57150805 490.04263588 -257.49329233 484.13048492 -261.2578125 478.0078125 C-262.83672942 475.35176133 -262.83672942 475.35176133 -264.49023438 473.92944336 C-266.56808364 471.70995189 -267.68132365 469.34773833 -269.0234375 466.62109375 C-269.57773438 465.50283203 -270.13203125 464.38457031 -270.703125 463.23242188 C-271.27546875 462.06259766 -271.8478125 460.89277344 -272.4375 459.6875 C-273.00210937 458.54474609 -273.56671875 457.40199219 -274.1484375 456.22460938 C-275.26843366 453.95739492 -276.38508433 451.68852456 -277.49829102 449.41796875 C-278.86558009 446.64881892 -280.26646258 443.90019966 -281.67578125 441.15234375 C-316.51976716 371.44322874 -318.21308442 285.20987399 -294.25 212.0625 C-285.92945771 187.40918967 -274.26772949 164.600852 -261.0625 142.25 C-260.5989209 141.45722656 -260.1353418 140.66445312 -259.65771484 139.84765625 C-259.21766113 139.11417969 -258.77760742 138.38070313 -258.32421875 137.625 C-257.93580811 136.97273438 -257.54739746 136.32046875 -257.1472168 135.6484375 C-256.61028198 134.95621094 -256.61028198 134.95621094 -256.0625 134.25 C-255.4025 134.25 -254.7425 134.25 -254.0625 134.25 C-253.85753906 133.58226562 -253.65257812 132.91453125 -253.44140625 132.2265625 C-251.55704452 128.15890346 -248.86650539 125.04641881 -246 121.625 C-245.46439453 120.97660156 -244.92878906 120.32820313 -244.37695312 119.66015625 C-243.23684684 118.28023912 -242.09275244 116.90361019 -240.9453125 115.52978516 C-239.62691629 113.93341796 -238.32620957 112.32235224 -237.0390625 110.70068359 C-231.64194047 103.93847868 -225.86810778 97.74441012 -219.73388672 91.66064453 C-218.18870622 90.12619784 -216.65453991 88.58131998 -215.12109375 87.03515625 C-208.76085466 80.66545252 -202.15518544 74.80946393 -195.0625 69.25 C-194.33240723 68.67121094 -193.60231445 68.09242187 -192.85009766 67.49609375 C-137.64395267 24.01386969 -70.37408159 0.05936279 0 0 Z M-179.0625 103.25 C-179.88621094 103.96285156 -180.70992187 104.67570312 -181.55859375 105.41015625 C-192.97095178 115.43579098 -203.80816372 126.18991018 -213.0625 138.25 C-213.59182129 138.93481445 -214.12114258 139.61962891 -214.66650391 140.32519531 C-223.24052697 149.56102384 -223.24052697 149.56102384 -227.96800232 160.13372803 C-226.70405931 163.08772065 -224.84619606 164.84031164 -222.57446289 167.11035156 C-222.10935806 167.57910706 -221.64425323 168.04786255 -221.16505432 168.53082275 C-219.62905727 170.07491198 -218.08248679 171.60789963 -216.53515625 173.140625 C-215.46469379 174.21056883 -214.39474932 175.28103112 -213.32530212 176.35198975 C-211.08459248 178.59260973 -208.83880855 180.82797527 -206.58911133 183.05957031 C-203.7008254 185.92512828 -200.82378701 188.80167151 -197.95021915 191.68198013 C-195.7433406 193.89219361 -193.53151701 196.09740185 -191.31805229 198.30101776 C-190.25494315 199.36026947 -189.19318912 200.42088296 -188.13279915 201.48285675 C-186.65337882 202.9626464 -185.16765451 204.43579058 -183.67993164 205.90722656 C-182.83467422 206.74787659 -181.98941681 207.58852661 -181.11854553 208.45465088 C-179.26634771 210.46924615 -179.26634771 210.46924615 -177.0625 210.25 C-175.48166144 207.88178223 -174.01082226 205.51022828 -172.5625 203.0625 C-163.73629049 188.57961664 -153.06037606 176.20923555 -141.0625 164.25 C-140.0725 163.20779297 -140.0725 163.20779297 -139.0625 162.14453125 C-105.75876168 127.47481929 -54.14024467 108.19700847 -6.70703125 107.046875 C38.18339398 106.52946275 82.24294014 117.41956913 118.9375 144.25 C124.98015914 139.24744121 130.49848043 133.81822676 136.02734375 128.2578125 C136.98118954 127.30209752 137.93525941 126.34660612 138.88954163 125.3913269 C141.37903194 122.89805084 143.86550224 120.40178475 146.35131836 117.90484619 C148.89707994 115.34878491 151.44573777 112.79561495 153.99414062 110.2421875 C158.97807069 105.24758981 163.95881048 100.24982201 168.9375 95.25 C167.36043625 90.51880876 163.438394 88.70878059 159.4375 85.9375 C158.5503833 85.32229492 157.6632666 84.70708984 156.74926758 84.07324219 C119.15755696 58.49852717 76.03517845 42.64845876 30.9375 37.25 C29.75401978 37.10643066 29.75401978 37.10643066 28.54663086 36.95996094 C19.67534614 36.01662089 10.78670407 36.0064739 1.875 36 C1.03701874 35.99932526 0.19903748 35.99865051 -0.66433716 35.99795532 C-65.92258477 36.08098799 -130.09266358 59.94827385 -179.0625 103.25 Z M-248.0625 193.25 C-277.69222348 262.05552767 -283.54559974 336.88525022 -256.578125 407.70703125 C-255.33123674 411.22926893 -255.33123674 411.22926893 -253.0625 413.25 C-245.73625929 406.59975199 -238.49343161 399.87004935 -231.34192276 393.03197575 C-228.01699375 389.85761523 -224.67123724 386.71535596 -221.25927734 383.63452148 C-206.25490659 371.1832431 -206.25490659 371.1832431 -197.27429199 354.65472412 C-197.18147893 347.91647268 -198.79741652 341.98524636 -201.18714905 335.73178101 C-202.38296038 332.34143585 -202.64672675 329.3311858 -202.8125 325.75 C-202.86535156 324.6878125 -202.91820312 323.625625 -202.97265625 322.53125 C-203.00230469 321.4484375 -203.03195312 320.365625 -203.0625 319.25 C-203.12244141 317.34734375 -203.12244141 317.34734375 -203.18359375 315.40625 C-203.62166539 294.65353434 -201.66181383 272.59394307 -194.90625 252.875 C-193.97441075 249.97594457 -193.667035 248.2744136 -194.0625 245.25 C-196.03661372 242.53489384 -196.03661372 242.53489384 -198.80419922 239.90893555 C-199.56015884 239.14706184 -199.56015884 239.14706184 -200.33139038 238.36979675 C-201.99810281 236.6963785 -203.68205563 235.04157095 -205.3671875 233.38671875 C-206.52919522 232.22896089 -207.69024452 231.07024037 -208.85037231 229.91059875 C-211.28249512 227.48464042 -213.72265522 225.06718063 -216.16943359 222.65600586 C-219.31117238 219.55961491 -222.43736976 216.44809954 -225.55836296 213.33081341 C-227.95442077 210.93917582 -230.35586829 208.5530161 -232.75928116 206.16877174 C-233.91422411 205.02272849 -235.06808268 203.8755914 -236.2208519 202.72736168 C-237.82950755 201.12771166 -239.44464671 199.53492921 -241.06201172 197.9440918 C-241.98134491 197.03539841 -242.9006781 196.12670502 -243.84786987 195.19047546 C-245.82246019 193.03032706 -245.82246019 193.03032706 -248.0625 193.25 Z M35.9375 275.25 C35.9375 298.68 35.9375 322.11 35.9375 346.25 C91.0475 346.25 146.1575 346.25 202.9375 346.25 C189.98762586 389.41624713 189.98762586 389.41624713 179.9375 408.25 C179.46207764 409.15081299 179.46207764 409.15081299 178.97705078 410.06982422 C168.95978359 428.89439321 155.27067391 445.51551834 139.9375 460.25 C144.94005879 466.29265914 150.36927324 471.81098043 155.9296875 477.33984375 C156.88540248 478.29368954 157.84089388 479.24775941 158.7961731 480.20204163 C161.28944916 482.69153194 163.78571525 485.17800224 166.28265381 487.66381836 C168.83871509 490.20957994 171.39188505 492.75823777 173.9453125 495.30664062 C178.93991019 500.29057069 183.93767799 505.27131048 188.9375 510.25 C202.08496141 499.12778673 212.83251972 486.14906903 222.9375 472.25 C223.57727783 471.37214844 223.57727783 471.37214844 224.22998047 470.4765625 C230.32698233 462.04711732 235.78648987 453.2788583 240.9375 444.25 C241.33050293 443.5679248 241.72350586 442.88584961 242.12841797 442.18310547 C258.01205029 414.3275294 268.24045272 382.93758302 272.9375 351.25 C273.11555176 350.07219971 273.29360352 348.89439941 273.47705078 347.6809082 C275.06963995 336.30871524 275.24538732 325.01600927 275.19824219 313.54614258 C275.18745489 310.42444719 275.19823683 307.30331944 275.2109375 304.18164062 C275.20961666 302.15624876 275.20705584 300.13085723 275.203125 298.10546875 C275.20919769 296.73626534 275.20919769 296.73626534 275.21539307 295.33940125 C275.16516916 288.28739485 274.13232881 282.41897287 272.9375 275.25 C194.7275 275.25 116.5175 275.25 35.9375 275.25 Z M-188.11891174 398.18615723 C-189.02270065 399.09216675 -189.92648956 399.99817627 -190.85766602 400.93164062 C-191.35524414 401.42907272 -191.85282227 401.92650482 -192.36547852 402.43901062 C-194.01816747 404.09239915 -195.66728117 405.74930738 -197.31640625 407.40625 C-198.45819208 408.54989985 -199.60019813 409.69332988 -200.74241638 410.83654785 C-203.75476297 413.8527209 -206.76409514 416.87188444 -209.77282715 419.8916626 C-212.84089079 422.96993762 -215.91177121 426.04539971 -218.98242188 429.12109375 C-225.01188832 435.16129977 -231.03817583 441.20466524 -237.0625 447.25 C-236.29157581 448.82784181 -235.51640217 450.40360771 -234.73950195 451.97851562 C-234.30829544 452.85624634 -233.87708893 453.73397705 -233.43281555 454.63830566 C-231.36311459 458.58296372 -228.86282902 462.15061732 -226.25 465.75 C-225.72083984 466.48774658 -225.19167969 467.22549316 -224.64648438 467.9855957 C-220.62562678 473.55590375 -216.47749565 478.98501453 -212.0625 484.25 C-211.65660645 484.74467773 -211.25071289 485.23935547 -210.83251953 485.74902344 C-199.26525096 499.83719986 -186.5631842 513.16009501 -172.0625 524.25 C-170.80116549 525.25014564 -169.54082541 526.25154612 -168.28125 527.25390625 C-144.60326511 545.93308125 -118.47278254 560.15769429 -90.0625 570.25 C-89.26457031 570.53568848 -88.46664063 570.82137695 -87.64453125 571.11572266 C-45.7341021 585.87153801 1.11930882 589.84067046 44.9375 582.25 C45.91219238 582.08371094 46.88688477 581.91742187 47.89111328 581.74609375 C71.51804078 577.57595456 94.21946592 570.42491265 115.9375 560.25 C116.65583008 559.91500488 117.37416016 559.58000977 118.11425781 559.23486328 C133.10567084 552.16828685 147.30278325 543.65506473 160.9375 534.25 C159.39793866 530.59118823 157.19660943 528.2670821 154.39599609 525.48144531 C153.93728622 525.02244339 153.47857635 524.56344147 153.00596619 524.0905304 C151.4956509 522.58160325 149.97838612 521.07987546 148.4609375 519.578125 C147.4096083 518.53052776 146.35872115 517.48248672 145.30825806 516.434021 C142.54748984 513.6808748 139.78076751 510.93378873 137.01275635 508.18792725 C134.18717072 505.38283084 131.36726555 502.57203679 128.546875 499.76171875 C123.01595626 494.25222468 117.47873411 488.74912123 111.9375 483.25 C108.54103771 484.58482782 105.35609519 486.03197028 102.15625 487.7890625 C52.57110953 514.62234451 -3.49271661 522.0790035 -58.0625 506.25 C-88.38768686 497.05480603 -116.1765044 481.27948379 -139.0625 459.25 C-139.61228516 458.73131348 -140.16207031 458.21262695 -140.72851562 457.67822266 C-159.73111016 439.69107289 -172.58376521 419.03391946 -185.0625 396.25 C-186.41189642 396.13575031 -186.41189642 396.13575031 -188.11891174 398.18615723 Z " fill="#000000" transform="translate(1689.0625,1322.75)"/>
<path d="M0 0 C26.84715424 23.7552067 44.10134448 56.52133452 46.65625 92.609375 C48.2860809 129.78989242 36.6950945 161.04868292 15.6875 191.3515625 C9.23661376 200.66274736 2.9235011 210.06719527 -3.40625 219.4609375 C-4.69099177 221.36621605 -5.97574113 223.27148948 -7.26049805 225.17675781 C-14.66483295 236.16153288 -22.0394779 247.16531922 -29.37307739 258.19741821 C-37.77472034 270.8334663 -46.26686406 283.4080711 -54.75830078 295.98388672 C-61.941608 306.62329606 -69.1135748 317.26916237 -76.21875 327.9609375 C-83.95512324 339.60253123 -91.77184003 351.18919083 -99.59375 362.7734375 C-107.83597787 374.98025471 -116.06531932 387.1946038 -124.21875 399.4609375 C-133.00348667 412.67703214 -141.87786115 425.83195789 -150.75830078 438.98388672 C-157.941608 449.62329606 -165.1135748 460.26916237 -172.21875 470.9609375 C-179.95512324 482.60253123 -187.77184003 494.18919083 -195.59375 505.7734375 C-203.83597787 517.98025471 -212.06531932 530.1946038 -220.21875 542.4609375 C-229.00348667 555.67703214 -237.87786115 568.83195789 -246.75830078 581.98388672 C-254.62626376 593.63736 -262.46770387 605.30671905 -270.25 617.01757812 C-278.65753924 629.65215509 -287.1625541 642.22122029 -295.65966797 654.7956543 C-301.60955983 663.60383895 -307.53611213 672.42473406 -313.38354492 681.30126953 C-336.79747561 716.80272577 -365.99735574 741.47450178 -408.21875 750.4609375 C-443.10679406 757.40959358 -479.92909876 749.62087518 -509.625 730.28125 C-541.09808255 709.04414808 -560.83816303 677.45825327 -568.21875 640.4609375 C-571.38481538 621.14624109 -570.61316811 599.26383118 -565.21875 580.4609375 C-565.03683105 579.79545898 -564.85491211 579.12998047 -564.66748047 578.44433594 C-561.04589458 565.45323159 -554.94452032 553.58090854 -547.79296875 542.2109375 C-547.15294922 541.1908535 -547.15294922 541.1908535 -546.5 540.15016174 C-541.35993216 532.02013439 -535.95991156 524.06515708 -530.55792236 516.10787964 C-527.35271717 511.38601768 -524.15710034 506.65767281 -520.9609375 501.9296875 C-520.31087738 500.96844467 -519.66081726 500.00720184 -518.99105835 499.01683044 C-512.56434949 489.50675861 -506.19963603 479.9559228 -499.84375 470.3984375 C-489.57821079 454.96913218 -479.2233143 439.6026867 -468.82554626 424.26228333 C-462.38178408 414.7534985 -455.95522701 405.23309629 -449.53125 395.7109375 C-448.90826019 394.78752563 -448.28527039 393.86411377 -447.6434021 392.91271973 C-439.74707611 381.2059193 -431.87953635 369.48085383 -424.06222534 357.72116089 C-415.66131681 345.08621032 -407.16989694 332.51270945 -398.67919922 319.93798828 C-391.495892 309.29857894 -384.3239252 298.65271263 -377.21875 287.9609375 C-369.48237676 276.31934377 -361.66565997 264.73268417 -353.84375 253.1484375 C-345.60152213 240.94162029 -337.37218068 228.7272712 -329.21875 216.4609375 C-320.43401333 203.24484286 -311.55963885 190.08991711 -302.67919922 176.93798828 C-295.495892 166.29857894 -288.3239252 155.65271263 -281.21875 144.9609375 C-272.85219864 132.37105995 -264.39141799 119.84533351 -255.93225098 107.31756592 C-248.63929106 96.51559672 -241.35981992 85.70549054 -234.14346313 74.85217285 C-231.79085652 71.31492035 -229.43375323 67.7806628 -227.07652283 64.24649048 C-224.75648408 60.76806324 -222.43845823 57.28831363 -220.12255859 53.80712891 C-217.35559836 49.64999283 -214.57940072 45.49913402 -211.79821777 41.35150146 C-210.72466672 39.74763965 -209.65383028 38.14195659 -208.58605957 36.53424072 C-185.25467864 1.4199262 -155.44261245 -22.43790533 -113.4296875 -30.99609375 C-72.40049244 -37.93412065 -31.75902885 -26.73964211 0 0 Z M-119.21875 7.4609375 C-120.18748047 7.76644531 -120.18748047 7.76644531 -121.17578125 8.078125 C-152.97083671 18.56855063 -170.12562691 43.36328992 -187.59375 70.2109375 C-194.79931853 81.26646677 -202.01300984 92.28487017 -209.68687439 103.02218628 C-216.27416885 112.28190601 -222.43610367 121.82777748 -228.65625 131.3359375 C-236.64434197 143.53566429 -244.68940444 155.68387762 -252.9519043 167.69970703 C-258.8274055 176.24772332 -264.60933827 184.85953863 -270.40625 193.4609375 C-271.04103271 194.40235596 -271.67581543 195.34377441 -272.32983398 196.3137207 C-280.34085069 208.19530754 -288.32556354 220.09327652 -296.25708008 232.02807617 C-303.32035708 242.64286653 -310.45887571 253.2066905 -317.59375 263.7734375 C-325.83597787 275.98025471 -334.06531932 288.1946038 -342.21875 300.4609375 C-351.00348667 313.67703214 -359.87786115 326.83195789 -368.75830078 339.98388672 C-375.941608 350.62329606 -383.1135748 361.26916237 -390.21875 371.9609375 C-398.58262057 384.54678103 -407.04041939 397.0686832 -415.49719238 409.59222412 C-423.75991762 421.82977861 -431.98994116 434.08779826 -440.16436768 446.38449097 C-448.42382657 458.80620529 -456.80140846 471.14569899 -465.21875 483.4609375 C-461.64466067 484.68189305 -458.99975731 484.23225721 -455.32421875 483.54296875 C-448.35275097 482.38803054 -441.58834954 482.11449968 -434.53125 482.1484375 C-433.30954102 482.15335205 -432.08783203 482.1582666 -430.82910156 482.16333008 C-394.50963623 482.63062328 -361.19765591 497.90653261 -335.70043945 523.61694336 C-316.35826228 543.7977718 -306.52219333 568.66249967 -300.21875 595.4609375 C-289.74722931 582.56494692 -280.86599326 568.46732232 -271.78125 554.5859375 C-264.29722586 543.16046253 -256.79542364 531.75931099 -249.02270508 520.52783203 C-243.36781574 512.34821051 -237.83829446 504.08215678 -232.28125 495.8359375 C-231.64469482 494.89186035 -231.00813965 493.9477832 -230.35229492 492.97509766 C-222.22147708 480.91538256 -214.1173493 468.83868431 -206.06552124 456.72610474 C-197.66351109 444.08950789 -189.17100544 431.51435113 -180.67919922 418.93798828 C-173.495892 408.29857894 -166.3239252 397.65271263 -159.21875 386.9609375 C-151.48237676 375.31934377 -143.66565997 363.73268417 -135.84375 352.1484375 C-127.60152213 339.94162029 -119.37218068 327.7272712 -111.21875 315.4609375 C-102.43401333 302.24484286 -93.55963885 289.08991711 -84.67919922 275.93798828 C-76.80589752 264.27660767 -68.95790314 252.60013272 -61.17211914 240.88012695 C-55.42489313 232.24116516 -49.618474 223.64288574 -43.80688477 215.04711914 C-33.73879023 200.15435207 -23.67880007 185.25545925 -13.76254272 170.26098633 C-12.7915641 168.7942863 -11.81835466 167.32906012 -10.84268188 165.86547852 C5.97430562 140.61917001 14.90164158 114.13079965 9.19384766 83.63696289 C3.69909311 57.1015441 -12.25181764 33.78471419 -34.84375 18.8984375 C-59.82662771 2.95177714 -90.89973144 -1.48191047 -119.21875 7.4609375 Z M-464.21875 521.4609375 C-464.86344238 521.67524414 -465.50813477 521.88955078 -466.17236328 522.11035156 C-491.69341281 530.86151753 -512.2507362 549.26042776 -524.1953125 573.34765625 C-529.83852811 585.31245055 -533.6822036 598.18141403 -534.21875 611.4609375 C-534.2703125 612.24726562 -534.321875 613.03359375 -534.375 613.84375 C-535.27710028 638.4259825 -526.35618055 663.06363008 -510.21875 681.4609375 C-509.61675781 682.20601562 -509.01476562 682.95109375 -508.39453125 683.71875 C-494.02533248 701.00998709 -470.94738323 713.06591003 -448.76171875 716.1796875 C-420.14369725 718.45145988 -392.85862374 712.89459836 -370.46875 694.1484375 C-350.03999321 676.39670033 -336.69106451 652.56080099 -334.21875 625.4609375 C-332.73885109 597.02980267 -341.0158336 570.7827964 -360.21875 549.4609375 C-360.90453125 548.69265625 -361.5903125 547.924375 -362.296875 547.1328125 C-378.02804512 530.46942489 -400.97399498 518.74158032 -424.0168457 517.28393555 C-437.92525511 516.98776088 -450.94698748 516.98593212 -464.21875 521.4609375 Z " fill="#000000" transform="translate(1368.21875,334.5390625)"/>
<path d="M0 0 C8.89286947 7.94780842 17.51330872 16.21715797 23.68164062 26.50292969 C24.33390625 27.54578125 24.98617187 28.58863281 25.65820312 29.66308594 C37.67424521 49.34672211 42.85433272 71.32961834 42.81027508 94.24794865 C42.81202812 95.4083873 42.81378115 96.56882596 42.81558731 97.76442942 C42.81942977 100.97713897 42.81882264 104.18981162 42.81630954 107.40252132 C42.81467166 110.90102454 42.8188213 114.39952178 42.82221872 117.89802307 C42.8273664 124.02709361 42.82879101 130.15615625 42.8277626 136.28522873 C42.826237 145.3997629 42.83040096 154.51428834 42.83563723 163.62882082 C42.84530767 180.85598237 42.84812137 198.08314094 42.84869429 215.31030489 C42.84915389 228.6156375 42.85121252 241.92096896 42.85439491 255.22630119 C42.85529246 259.05671483 42.85618228 262.88712847 42.85706979 266.71754211 C42.85740136 268.14594266 42.85740136 268.14594266 42.85773963 269.60319979 C42.86389387 296.38903118 42.8678402 323.17486218 42.86739635 349.96069431 C42.86737299 351.47551248 42.86737299 351.47551248 42.86734915 353.02093304 C42.86726604 358.1393679 42.867167 363.25780277 42.86706444 368.37623764 C42.86704449 369.39276815 42.86702455 370.40929867 42.867004 371.45663314 C42.86696356 373.51230641 42.86692176 375.56797968 42.86687861 377.62365295 C42.86626597 409.60042487 42.87377026 441.57718619 42.88745117 473.55395508 C42.90281726 509.48430636 42.91141706 545.41465068 42.91048795 581.34500545 C42.91041332 585.17761958 42.91036461 589.0102337 42.91033363 592.84284782 C42.91032198 593.78652548 42.91031032 594.73020314 42.91029832 595.70247709 C42.91026756 610.87835241 42.9166492 626.0542185 42.9252659 641.23009108 C42.93374966 656.4876194 42.93472667 671.74513425 42.92815658 687.00266362 C42.92446565 696.06202137 42.92627959 705.12133818 42.93609892 714.18069158 C42.94210999 720.23950824 42.94079094 726.29829533 42.93362842 732.35711065 C42.9297564 735.8043712 42.92894367 739.25155265 42.93708577 742.69880755 C43.00198841 776.80871323 43.00198841 776.80871323 38.05664062 792.50292969 C37.79866699 793.33759766 37.54069336 794.17226563 37.27490234 795.03222656 C31.3407404 813.41937613 21.0009991 828.67905006 7.68164062 842.50292969 C7.09898437 843.14875 6.51632813 843.79457031 5.91601562 844.45996094 C-13.16467118 865.03433788 -43.45466942 875.3573599 -70.84960938 876.78417969 C-93.88476301 877.50512724 -115.28764519 871.59728934 -135.31835938 860.50292969 C-136.28257812 859.97054687 -137.24679688 859.43816406 -138.24023438 858.88964844 C-163.05970804 844.09342375 -180.85906588 819.33344277 -189.13085938 791.87792969 C-189.42331543 790.91246216 -189.42331543 790.91246216 -189.72167969 789.92749023 C-192.66129365 779.50274811 -193.6171952 768.95130297 -193.57283497 758.15919113 C-193.57604145 756.98261808 -193.57924792 755.80604503 -193.58255157 754.59381825 C-193.58937872 751.35446113 -193.5873772 748.11525446 -193.58149584 744.87590019 C-193.5772991 741.34157861 -193.58474237 737.80727741 -193.59064835 734.2729609 C-193.59938719 728.08717748 -193.60073073 721.90142717 -193.59714508 715.71563911 C-193.59182702 706.51678729 -193.59794448 697.31796739 -193.60622801 688.11911904 C-193.6214549 670.73220638 -193.62317442 653.34530831 -193.62070499 635.95839038 C-193.6188711 622.53016303 -193.62063394 609.10194044 -193.62492943 595.67371368 C-193.62553183 593.74330464 -193.62613303 591.81289559 -193.62673303 589.88248654 C-193.6276403 586.9734058 -193.62854897 584.06432507 -193.62946538 581.15524434 C-193.63789301 554.11362657 -193.64223193 527.07201059 -193.63805866 500.03039169 C-193.63790229 499.01132217 -193.63774591 497.99225266 -193.6375848 496.94230224 C-193.63677903 491.7774628 -193.63593326 486.61262336 -193.63507149 481.44778392 C-193.63490041 480.42206338 -193.63472932 479.39634284 -193.63455305 478.33953987 C-193.63420639 476.26528457 -193.63385786 474.19102928 -193.63350746 472.11677398 C-193.62815069 439.84395179 -193.6360802 407.57115693 -193.65454102 375.29833984 C-193.67526656 339.02405359 -193.68598266 302.74978427 -193.68196553 266.47549176 C-193.6815702 262.60613076 -193.68120865 258.73676976 -193.68086815 254.86740875 C-193.68077742 253.91470247 -193.68068669 252.96199618 -193.6805932 251.98042001 C-193.67942824 237.61139785 -193.68606782 223.24239282 -193.69668007 208.87337494 C-193.70874023 192.52738953 -193.71028162 176.18144178 -193.6978899 159.83545581 C-193.69126966 150.69406445 -193.69287307 141.55276319 -193.70647842 132.41137907 C-193.71474278 126.29674416 -193.71199965 120.1821765 -193.70050315 114.06754702 C-193.69426636 110.58927067 -193.69259459 107.11116967 -193.70436648 103.63290367 C-193.75077493 86.44858381 -193.41283882 69.91464126 -187.69335938 53.50292969 C-187.44175049 52.76929199 -187.1901416 52.0356543 -186.9309082 51.27978516 C-175.98628714 20.7704721 -153.68242947 -2.28159843 -124.81445312 -16.18457031 C-84.25705118 -34.31078347 -34.17394222 -29.43341386 0 0 Z M-102.31835938 13.50292969 C-103.3728125 13.85355469 -104.42726563 14.20417969 -105.51367188 14.56542969 C-113.63924616 17.62047589 -120.44893937 22.30787425 -127.31835938 27.50292969 C-128.05957031 28.05722656 -128.80078125 28.61152344 -129.56445312 29.18261719 C-144.75809506 41.47204185 -154.80723028 61.34436138 -157.31835938 80.50292969 C-157.46637871 84.32090893 -157.45780426 88.13642617 -157.45258045 91.95689201 C-157.45493268 93.122311 -157.45728491 94.28773 -157.45970842 95.48846471 C-157.46522591 98.72912621 -157.46627087 101.96975381 -157.46543101 105.21041878 C-157.46560072 108.7340114 -157.47150917 112.25759517 -157.47667187 115.78118336 C-157.48599473 122.7725344 -157.48991939 129.76387912 -157.49219084 136.7552356 C-157.49515375 145.12865277 -157.50385171 153.50206154 -157.51260512 161.87547431 C-157.53344739 182.11540276 -157.54391915 202.35533266 -157.55273473 222.59526934 C-157.55694173 232.17119923 -157.56216366 241.7471285 -157.56741926 251.32305787 C-157.58530966 284.10538957 -157.60030529 316.88772145 -157.60773945 349.6700573 C-157.6082142 351.72808602 -157.60869009 353.78611474 -157.60916711 355.84414346 C-157.60940349 356.86473636 -157.60963986 357.88532927 -157.6098834 358.93684923 C-157.61108459 364.10763907 -157.61230005 369.27842891 -157.61352539 374.44921875 C-157.61376554 375.4753759 -157.61400569 376.50153306 -157.61425312 377.55878588 C-157.62214496 410.82461489 -157.64557431 444.09040823 -157.67808133 477.35622167 C-157.71239011 512.53009229 -157.73209158 547.70394204 -157.73538369 582.87782967 C-157.73580122 586.74026053 -157.73628079 590.60269138 -157.73680687 594.46512222 C-157.73693006 595.41615513 -157.73705325 596.36718804 -157.73718018 597.34704013 C-157.73951093 612.64304356 -157.75516399 627.93900553 -157.77564872 643.23499418 C-157.7959189 658.61500007 -157.80137837 673.99495622 -157.79187808 689.37497298 C-157.78666773 698.50768239 -157.79251859 707.64022606 -157.81441275 716.77291156 C-157.82794633 722.88072386 -157.82682133 728.9884224 -157.8140108 735.0962359 C-157.8071311 738.57160457 -157.80638561 742.04665698 -157.82357088 745.52199708 C-157.89784524 763.93226404 -157.13854134 779.91995599 -148.31835938 796.50292969 C-147.8775 797.34210937 -147.43664063 798.18128906 -146.98242188 799.04589844 C-143.26299421 805.67305546 -138.55188537 811.02856886 -133.31835938 816.50292969 C-132.76535156 817.13070312 -132.21234375 817.75847656 -131.64257812 818.40527344 C-119.69299686 831.48161423 -99.82719465 839.52748369 -82.31542969 840.62890625 C-58.12199263 841.52161131 -37.75795579 834.80441954 -19.38476562 818.97558594 C-4.9291494 805.32194564 5.98416947 785.30511219 6.77521846 765.11445847 C6.81394436 762.11491671 6.81998998 759.11681753 6.8158617 756.11702347 C6.81821393 754.95895716 6.82056616 753.80089086 6.82298967 752.60773164 C6.82850693 749.3876776 6.82955215 746.16765767 6.82871226 742.94760014 C6.82888198 739.44631681 6.83479052 735.94504237 6.83995312 732.44376349 C6.84927583 725.49668233 6.85320062 718.54960753 6.85547209 711.60252089 C6.85843507 703.28199327 6.86713311 694.9614741 6.87588637 686.64095091 C6.89672911 666.52801612 6.90720075 646.41507985 6.91601598 626.30213677 C6.92022319 616.78534187 6.92544512 607.2685476 6.93070051 597.75175324 C6.94859158 565.16918099 6.96358673 532.58660856 6.9710207 500.00403214 C6.97149545 497.95850197 6.97197134 495.9129718 6.97244836 493.86744164 C6.97268474 492.85304956 6.97292111 491.83865747 6.97316465 490.79352624 C6.97436584 485.65418025 6.97558129 480.51483426 6.97680664 475.37548828 C6.97704679 474.35557202 6.97728694 473.33565575 6.97753437 472.28483294 C6.98542486 439.22699061 7.0088511 406.16918419 7.04136258 373.11135754 C7.07567911 338.15426203 7.09537358 303.19718751 7.09866494 268.24007487 C7.09908247 264.40063778 7.09956203 260.56120069 7.10008812 256.72176361 C7.10021131 255.77639815 7.1003345 254.83103269 7.10046143 253.85701978 C7.1027913 238.65811385 7.11843953 223.45924969 7.13892997 208.26035864 C7.15921034 192.9744155 7.16465483 177.68852241 7.15515933 162.40256831 C7.14995281 153.3280454 7.15578161 144.25368939 7.177694 135.17919058 C7.19124353 129.10761112 7.1900886 123.03614601 7.17729205 116.9645653 C7.17042285 113.51153098 7.16963027 110.05881473 7.18685213 106.60580936 C7.3892061 80.49043439 7.3892061 80.49043439 -1.06835938 56.06542969 C-1.41342529 55.41550049 -1.75849121 54.76557129 -2.11401367 54.09594727 C-10.50103266 38.68706084 -21.84416715 26.84984618 -37.31835938 18.50292969 C-38.20007812 18.02082031 -39.08179687 17.53871094 -39.99023438 17.04199219 C-59.38079487 7.34671194 -81.96688451 6.73394899 -102.31835938 13.50292969 Z " fill="#000000" transform="translate(4075.318359375,158.4970703125)"/>
<path d="M0 0 C0.81855469 0.69738281 1.63710937 1.39476562 2.48046875 2.11328125 C25.07300828 21.83359095 39.22007001 46.98058953 46 76 C46.32291016 77.31097656 46.32291016 77.31097656 46.65234375 78.6484375 C53.97277271 112.5254591 45.76766132 149.42157292 27.4744873 178.41809082 C23.33086049 184.7822963 19.03972297 191.0463115 14.75 197.3125 C13.49018013 199.16293148 12.23106214 201.01384101 10.97265625 202.86523438 C9.10525311 205.61228331 7.23732326 208.35895554 5.36657715 211.10372925 C1.03543053 217.46082045 -3.24805781 223.84787168 -7.50616455 230.25404358 C-13.01372139 238.53579626 -18.58488808 246.77440528 -24.15283203 255.015625 C-33.13957822 268.31876501 -42.11306242 281.62994298 -51 295 C-59.78471093 308.21611162 -68.6591113 321.37102061 -77.53955078 334.52294922 C-84.722858 345.16235856 -91.8948248 355.80822487 -99 366.5 C-107.36144364 379.08219152 -115.81575184 391.60119009 -124.27139282 404.12020874 C-130.52329867 413.37713239 -136.77292 422.63509401 -142.95703125 431.9375 C-143.41074097 432.619832 -143.86445068 433.302164 -144.33190918 434.00517273 C-146.38654968 437.09694369 -148.43782727 440.1908742 -150.48388672 443.28833008 C-165.68442848 466.21148109 -165.68442848 466.21148109 -173 473.8125 C-173.50362061 474.34399658 -174.00724121 474.87549316 -174.52612305 475.4230957 C-199.80679683 501.81211633 -233.71813037 516.45143529 -270.22338867 517.35351562 C-303.30960101 517.6095243 -335.88556497 506.91004141 -361 485 C-361.94230469 484.20207031 -362.88460938 483.40414062 -363.85546875 482.58203125 C-388.70346954 461.08354907 -403.88443735 430.42816262 -408 398 C-410.16175368 355.36723575 -399.05825143 324.2074786 -375.125 289.25 C-373.8103542 287.31763103 -372.49656084 285.38468186 -371.18359375 283.45117188 C-368.605625 279.65523685 -366.02495756 275.86116185 -363.44238281 272.06835938 C-359.25194149 265.90710246 -355.11773053 259.71004487 -351 253.5 C-343.26493843 241.85754575 -335.44690065 230.27173287 -327.625 218.6875 C-319.38277213 206.48068279 -311.15343068 194.2663337 -303 182 C-294.21526333 168.78390536 -285.34088885 155.62897961 -276.46044922 142.47705078 C-268.59100822 130.82138836 -260.74815066 119.14980168 -252.96435547 107.43676758 C-244.6050725 94.87474586 -236.14827729 82.3782906 -227.69970703 69.8762207 C-222.27665074 61.84792912 -216.85782398 53.81804757 -211.5234375 45.73046875 C-185.65438672 6.51076326 -157.65020075 -19.14679679 -110.66015625 -29.75390625 C-71.98030044 -36.59101302 -29.68242078 -25.79127991 0 0 Z M-161.9375 37.875 C-166.24282952 42.8214703 -169.83771754 48.09690777 -173.43359375 53.57421875 C-174.68216848 55.4616138 -175.9312885 57.34864822 -177.1809082 59.23535156 C-177.81549957 60.19485718 -178.45009094 61.15436279 -179.10391235 62.14294434 C-182.04788826 66.57897505 -185.02626554 70.99151187 -188.0078125 75.40234375 C-188.58529739 76.25737488 -189.16278229 77.11240601 -189.75776672 77.99334717 C-190.93956686 79.74300168 -192.12154971 81.4925328 -193.30371094 83.24194336 C-202.24086823 96.46917575 -211.16320859 109.70547373 -220 123 C-228.73992706 136.14865062 -237.56925865 149.23624897 -246.40478516 162.32080078 C-254.3593413 174.10206588 -262.28663065 185.90016393 -270.15570068 197.73867798 C-278.55691391 210.37397404 -287.04859772 222.9478499 -295.53955078 235.52294922 C-303.40226012 247.16864118 -311.24452047 258.82630814 -319.01367188 270.53466797 C-323.72265484 277.61891091 -328.48099866 284.66833565 -333.2578125 291.70703125 C-334.56648489 293.63796754 -335.87507801 295.56895756 -337.18359375 297.5 C-339.13091189 300.3736749 -341.07981278 303.24619229 -343.03466797 306.11474609 C-357.31922058 327.07662682 -371.86403719 348.77819179 -373 375 C-373.0515625 375.83789062 -373.103125 376.67578125 -373.15625 377.5390625 C-373.98160253 402.50597642 -365.44490616 427.25215827 -349 446 C-348.39800781 446.74507812 -347.79601563 447.49015625 -347.17578125 448.2578125 C-332.80619056 465.54952121 -309.73187775 477.60085772 -287.546875 480.71875 C-273.78284047 481.81017124 -260.37736697 481.66416663 -247 478 C-245.47052734 477.58234375 -245.47052734 477.58234375 -243.91015625 477.15625 C-231.41061373 473.34561417 -220.15127878 467.18254593 -210 459 C-209.16984375 458.33484375 -208.3396875 457.6696875 -207.484375 456.984375 C-195.21791856 446.56945916 -186.79150301 432.90019588 -178.0234375 419.58984375 C-172.30564161 410.91061673 -166.47569588 402.30708668 -160.65618896 393.69589233 C-151.73213771 380.48954803 -142.8231719 367.27398648 -134 354 C-125.2152719 340.7838997 -116.3408888 327.62897954 -107.46044922 314.47705078 C-100.277142 303.83764144 -93.1051752 293.19177513 -86 282.5 C-78.26362523 270.85840398 -70.44666064 259.27191722 -62.625 247.6875 C-53.59086863 234.30558041 -44.56025328 220.92185513 -35.63452148 207.46728516 C-31.3490883 201.00991436 -27.03914842 194.57048854 -22.69322205 188.15361023 C-20.14796196 184.39272677 -17.61116556 180.62616956 -15.07498169 176.85916138 C-13.83650512 175.02412393 -12.59433441 173.19157314 -11.34811401 171.36178589 C6.10047958 145.73320953 16.89776086 119.32718312 11.7421875 87.6875 C6.26270471 60.46312236 -8.03163019 37.20153921 -31.16796875 21.45703125 C-73.90914773 -6.55110219 -127.10649611 2.02122602 -161.9375 37.875 Z " fill="#000000" transform="translate(1641,560)"/>
<path d="M0 0 C0.75410156 0.61101562 1.50820312 1.22203125 2.28515625 1.8515625 C23.58187856 19.5049302 37.11294321 47.7788446 40 75 C40.69482303 87.10555395 40.55618397 99.24643698 40.52289867 111.36724436 C40.51376478 116.2964313 40.52785876 121.22556367 40.53881836 126.15473938 C40.55651964 135.78513807 40.55280135 145.41541141 40.5411678 155.04581482 C40.53210104 162.87842283 40.53092343 170.71099594 40.53526306 178.54360771 C40.53587599 179.66220884 40.53648893 180.78080997 40.53712043 181.93330811 C40.53839945 184.20635054 40.5396963 186.47939296 40.5410108 188.75243538 C40.55239188 210.02064671 40.53934152 231.28878885 40.51780933 252.55698883 C40.49993816 270.77248354 40.50304745 288.98787626 40.52148438 307.20336914 C40.54293063 328.40171165 40.55129605 349.59999367 40.53903532 370.79834551 C40.53776124 373.06229968 40.53650375 375.32625386 40.53526306 377.59020805 C40.53433741 379.26069128 40.53433741 379.26069128 40.53339306 380.96492164 C40.52995159 388.7809258 40.53574238 396.59689131 40.54518127 404.41288948 C40.55644436 413.94819949 40.55327099 423.48337792 40.5320583 433.01867301 C40.52160599 437.8758035 40.51732576 442.73271529 40.53065491 447.58984375 C40.54270638 452.04909425 40.53580988 456.50792642 40.5147447 460.96713977 C40.510332 462.56713446 40.5124222 464.16716562 40.52224785 465.76713622 C40.70642413 498.29129502 27.99221158 527.35864869 5.625 550.75 C-17.58123985 572.85312633 -47.85260208 584.66787407 -79.87255859 584.3515625 C-108.54160363 583.50228406 -135.52615412 573.07225815 -157 554 C-157.88945312 553.21109375 -158.77890625 552.4221875 -159.6953125 551.609375 C-173.81501779 538.24213049 -183.66271529 521.60712438 -189.875 503.3125 C-190.16149414 502.46993652 -190.44798828 501.62737305 -190.74316406 500.75927734 C-194.63423257 488.67168006 -195.29427621 476.82084011 -195.26742554 464.23350525 C-195.27116823 462.55789393 -195.27577221 460.88228435 -195.28115618 459.2066775 C-195.29332523 454.63001055 -195.29313294 450.05341703 -195.29076743 445.47673762 C-195.29035771 440.52969731 -195.30141323 435.58268007 -195.31088257 430.63565063 C-195.32746044 420.95339114 -195.33299067 411.27115601 -195.33410732 401.58888351 C-195.3350594 393.71366157 -195.33917763 385.83844763 -195.34550858 377.96322823 C-195.36311281 355.60799548 -195.37234881 333.2527819 -195.37084763 310.89754217 C-195.37076772 309.69361156 -195.3706878 308.48968094 -195.37060547 307.24926758 C-195.37048283 305.44115213 -195.37048283 305.44115213 -195.37035771 303.59650911 C-195.36954521 284.07146488 -195.3886759 264.54649787 -195.4168822 245.02147596 C-195.44565306 224.94632853 -195.45942016 204.8712187 -195.45769465 184.79605013 C-195.45703216 173.53627641 -195.46246227 162.27658362 -195.48405075 151.01682854 C-195.50231798 141.42827072 -195.50656459 131.83983052 -195.4930319 122.25126278 C-195.48652994 117.36582537 -195.48628403 112.48061325 -195.5037384 107.59519768 C-195.51959796 103.10973703 -195.5164759 98.62467789 -195.49917014 94.13922627 C-195.4961283 92.52956526 -195.49962426 90.9198733 -195.51089029 89.31024884 C-195.69830414 60.59728569 -186.14764041 33.52852039 -167 12 C-166.31550781 11.17242187 -165.63101563 10.34484375 -164.92578125 9.4921875 C-145.72836271 -13.14728206 -116.93465513 -25.71567126 -87.8125 -28.75 C-55.52645807 -30.60961271 -24.38507895 -21.61493398 0 0 Z M-139.25 34.37109375 C-155.48290064 53.67936814 -160.32805624 75.34860489 -160.26069641 100.14093018 C-160.26372311 101.73633367 -160.26761517 103.33173571 -160.27228898 104.92713523 C-160.28251109 109.2773777 -160.28040202 113.62753721 -160.27610838 117.9777863 C-160.27363056 122.68277564 -160.28266842 127.38774555 -160.29014587 132.09272766 C-160.30286594 141.2975921 -160.30468991 150.50242733 -160.30234561 159.70729908 C-160.30055916 167.19349799 -160.30231909 174.67968807 -160.30657005 182.16588593 C-160.30716524 183.23328107 -160.30776043 184.30067621 -160.30837366 185.40041666 C-160.30958547 187.56917828 -160.3107996 189.73793991 -160.31201603 191.90670153 C-160.32288134 212.22530575 -160.32073394 232.54389335 -160.31463119 252.86249849 C-160.30946374 271.42530562 -160.32071474 289.98806024 -160.33972941 308.55085698 C-160.35913079 327.63839505 -160.36735972 346.72590831 -160.36360615 365.8134563 C-160.3616975 376.51869354 -160.36414885 387.22388612 -160.37832069 397.9291153 C-160.39026485 407.04338635 -160.39160549 416.15758524 -160.37953053 425.27185735 C-160.37366292 429.91601174 -160.37248335 434.56003434 -160.38453293 439.20417976 C-160.39546339 443.46677532 -160.39220431 447.72913017 -160.37827124 451.99171481 C-160.37564385 453.52257405 -160.37792822 455.05345261 -160.38600711 456.5842928 C-160.51499854 482.88010719 -153.33159331 506.20567821 -134.65625 525.41015625 C-117.39289726 541.74868652 -96.17138093 548.76452141 -72.71484375 548.24609375 C-50.84998055 547.36306431 -30.86698056 536.73766757 -16 521 C0.53825764 501.40595459 5.16189251 479.52229541 5.13371277 454.44052124 C5.13558293 452.85952024 5.13788445 451.27851971 5.14057809 449.6975199 C5.14667727 445.3686036 5.14656472 441.03970667 5.14538372 436.71078706 C5.14517923 432.03576502 5.15070307 427.36074913 5.15544128 422.68572998 C5.16373833 413.53179535 5.16649571 404.37786717 5.16705366 395.22392909 C5.16752932 387.78004914 5.16958656 380.33617131 5.17275429 372.89229202 C5.18155868 351.77183832 5.18617406 330.65138969 5.18542381 309.53093414 C5.18538386 308.39295732 5.1853439 307.2549805 5.18530273 306.08251953 C5.18524141 304.37346168 5.18524141 304.37346168 5.18517885 302.6298774 C5.18477256 284.17217473 5.19433851 265.71449246 5.2084411 247.25679569 C5.22281853 228.28917874 5.22971052 209.32157173 5.22884732 190.35394919 C5.2285158 179.71132331 5.23124318 169.06871883 5.24202538 158.42609787 C5.25114841 149.36328977 5.25329087 140.30051277 5.24651595 131.23770206 C5.2432597 126.61815161 5.24316156 121.99866077 5.2518692 117.37911606 C5.25977498 113.14118544 5.25826149 108.90336128 5.24958507 104.66543312 C5.248059 103.14121876 5.24983212 101.61699628 5.25544515 100.09279148 C5.35196731 71.99699214 -1.5949491 50.04969761 -21.1875 29.375 C-36.92796803 13.98238762 -58.60712605 6.55840756 -80.375 6.78515625 C-103.00152056 8.12616771 -123.62304143 17.90310095 -139.25 34.37109375 Z " fill="#000000" transform="translate(3799,451)"/>
<path d="M0 0 C0.92167969 0.75796875 1.84335938 1.5159375 2.79296875 2.296875 C24.44213489 20.98416651 39.28922437 49.38027075 41.85498047 77.88867188 C44.16551725 111.52759801 35.69405964 141.952244 14 168 C13.44441406 168.69609375 12.88882813 169.3921875 12.31640625 170.109375 C-4.75849597 191.02497338 -31.98317382 203.3898313 -58 208 C-58.74121094 208.13277344 -59.48242188 208.26554687 -60.24609375 208.40234375 C-90.25333292 212.67237973 -120.60856363 204.15193494 -145.265625 187.05859375 C-149.7906813 183.6518728 -153.91361381 179.91557262 -158 176 C-159.23363281 174.87851562 -159.23363281 174.87851562 -160.4921875 173.734375 C-181.78638548 153.70058126 -192.86925529 124.03616653 -194.28515625 95.23828125 C-195.1616425 64.95739678 -185.35701609 37.18302597 -166 14 C-165.10861328 12.88044922 -165.10861328 12.88044922 -164.19921875 11.73828125 C-146.25663174 -10.05832207 -117.18943381 -23.71349789 -89.43945312 -26.7890625 C-56.78715158 -29.61248009 -25.35988099 -21.09138617 0 0 Z M-112 17 C-112.91394531 17.41894531 -113.82789062 17.83789062 -114.76953125 18.26953125 C-122.72129558 22.21697363 -128.78452191 27.79323927 -135 34 C-135.74378906 34.7321875 -136.48757812 35.464375 -137.25390625 36.21875 C-151.7726907 51.4478468 -158.5695381 72.14728271 -158.34887695 92.89355469 C-157.66634808 116.12283096 -147.74762569 136.41653015 -131.0078125 152.43359375 C-112.81560218 167.95603814 -90.73388154 174.75033362 -67 173 C-44.85428249 170.54673189 -25.23331076 158.9515448 -11 142 C-7.9106655 137.90746481 -5.39527583 133.52821192 -3 129 C-2.52046875 128.12085938 -2.0409375 127.24171875 -1.546875 126.3359375 C8.2813131 106.73876726 8.47112283 84.23503894 1.93359375 63.640625 C-0.75961255 56.06764888 -4.31603061 49.51765315 -9 43 C-9.64582031 42.09507812 -10.29164063 41.19015625 -10.95703125 40.2578125 C-23.31543807 24.07036312 -40.38046484 14.66057923 -60 10 C-60.7528125 9.80664062 -61.505625 9.61328125 -62.28125 9.4140625 C-79.48176497 6.79444384 -96.38624827 9.56589447 -112 17 Z " fill="#000000" transform="translate(3519,826)"/>
</svg>
