<?xml version="1.0" encoding="UTF-8"?>
<svg version="1.1" xmlns="http://www.w3.org/2000/svg" width="620" height="539">
<path d="M0 0 C11.00240461 6.99498911 20.70375093 16.10760429 30.50390625 24.64892578 C37.43072906 30.6789133 44.4059531 36.47612756 51.81494141 41.91601562 C55.8335619 44.92862883 59.68182536 48.12306522 63.53759766 51.34179688 C65.59119652 53.11676755 65.59119652 53.11676755 67.71728516 54.09179688 C67.86423828 52.73634766 67.86423828 52.73634766 68.01416016 51.35351562 C68.16369141 50.17402344 68.31322266 48.99453125 68.46728516 47.77929688 C68.60650391 46.60753906 68.74572266 45.43578125 68.88916016 44.22851562 C69.71728516 41.09179687 69.71728516 41.09179687 71.27709961 39.43432617 C74.64380386 37.58204937 77.83419945 37.55595317 81.58837891 37.47460938 C82.34772232 37.44954315 83.10706573 37.42447693 83.88941956 37.39865112 C85.49207732 37.34977674 87.09497207 37.30819843 88.69799805 37.2734375 C91.14381052 37.21704989 93.58701825 37.12864796 96.03173828 37.03710938 C97.59223226 36.99350667 99.15277996 36.95177782 100.71337891 36.91210938 C101.44060654 36.8841629 102.16783417 36.85621643 102.917099 36.8274231 C107.37216078 36.75895949 110.22607891 37.25402937 113.71728516 40.09179688 C114.66761789 42.94279509 114.82081491 44.58402404 114.76733398 47.52807617 C114.74785454 48.87043587 114.74785454 48.87043587 114.72798157 50.23991394 C114.71027206 51.2055275 114.69256256 52.17114105 114.67431641 53.16601562 C114.65191745 55.21613604 114.63046322 57.26626696 114.60986328 59.31640625 C114.57285478 62.54447854 114.52991931 65.77201422 114.47045898 68.99975586 C114.41570694 72.11775319 114.38679686 75.23515572 114.36181641 78.35351562 C114.33803421 79.30900803 114.31425201 80.26450043 114.28974915 81.24894714 C114.26187352 88.44065967 115.6942922 93.7230669 120.55737305 99.14233398 C121.17862061 99.62968018 121.79986816 100.11702637 122.43994141 100.61914062 C123.13764648 101.17883545 123.83535156 101.73853027 124.55419922 102.31518555 C125.28864258 102.88084229 126.02308594 103.44649902 126.77978516 104.02929688 C127.54129883 104.63555908 128.3028125 105.24182129 129.08740234 105.86645508 C130.60355313 107.07292195 132.12411941 108.27386434 133.64941406 109.46875 C136.28460906 111.53708251 138.87853382 113.65323226 141.46728516 115.77929688 C142.73765625 116.81763672 142.73765625 116.81763672 144.03369141 117.87695312 C148.28568554 121.38624086 152.49838042 124.94096918 156.69384766 128.51757812 C158.51339143 130.06677625 160.33952258 131.6083527 162.17822266 133.13476562 C167.64723874 137.73971783 172.29438374 142.28735944 172.95556641 149.79882812 C173.10614333 156.09928375 173.20512826 160.25873507 168.71728516 165.09179688 C164.18891963 169.63162661 159.51021579 172.39508779 153.71728516 175.09179688 C152.04922244 176.75985959 152.58904641 178.76764156 152.58598328 181.05987549 C152.5819751 182.1363031 152.57796692 183.21273071 152.57383728 184.32177734 C152.574366 185.51335449 152.57489471 186.70493164 152.57543945 187.93261719 C152.57196503 189.17984558 152.5684906 190.42707397 152.56491089 191.71209717 C152.55753515 194.43329638 152.55187051 197.15444634 152.54862022 199.8756485 C152.54271122 204.18917344 152.52616727 208.50261578 152.50727844 212.81610107 C152.50094008 214.29370493 152.49461447 215.77130885 152.48830128 217.24891281 C152.48513547 217.98923044 152.48196965 218.72954806 152.47870791 219.49229956 C152.43668917 229.53619229 152.40371706 239.58004881 152.39135742 249.62402344 C152.38294034 256.39446107 152.36030741 263.16469625 152.32200176 269.93503261 C152.3023463 273.51423707 152.28980072 277.09313961 152.29483604 280.67240143 C152.30040594 284.68129248 152.27491327 288.68944201 152.24731445 292.69824219 C152.25391586 293.86552856 152.26051727 295.03281494 152.26731873 296.23547363 C152.16822219 305.06018779 151.11836471 315.33287843 145.39306641 322.47851562 C144.61318359 323.23777344 143.83330078 323.99703125 143.02978516 324.77929688 C142.24216797 325.56691406 141.45455078 326.35453125 140.64306641 327.16601562 C140.00755859 327.80152344 139.37205078 328.43703125 138.71728516 329.09179688 C138.38728516 329.75179688 138.05728516 330.41179687 137.71728516 331.09179688 C138.32572266 331.12917969 138.93416016 331.1665625 139.56103516 331.20507812 C148.08427986 331.84432148 156.34906401 333.42235251 164.71728516 335.09179688 C165.04728516 336.08179688 165.37728516 337.07179688 165.71728516 338.09179688 C44.93728516 338.09179688 -75.84271484 338.09179688 -200.28271484 338.09179688 C-199.95271484 337.10179687 -199.62271484 336.11179687 -199.28271484 335.09179688 C-198.02612061 334.87245483 -198.02612061 334.87245483 -196.74414062 334.64868164 C-193.63887752 334.10512045 -190.53412315 333.55876369 -187.4296875 333.01049805 C-186.08548411 332.77369622 -184.74108324 332.53801263 -183.39648438 332.3034668 C-181.46481709 331.96631601 -179.53390966 331.62482077 -177.60302734 331.28320312 C-176.4404541 331.07896729 -175.27788086 330.87473145 -174.08007812 330.66430664 C-171.34325495 330.22989832 -171.34325495 330.22989832 -169.28271484 329.09179688 C-169.74162109 328.67929687 -170.20052734 328.26679688 -170.67333984 327.84179688 C-178.31498851 320.64965695 -181.80095514 312.7305154 -182.46230507 302.2442379 C-182.53225014 298.95569481 -182.53838978 295.67279607 -182.5222168 292.38354492 C-182.52423096 291.14019882 -182.52624512 289.89685272 -182.52832031 288.61582947 C-182.53185281 285.92959739 -182.53195453 283.24361376 -182.52654457 280.55740929 C-182.51889172 276.30870205 -182.52963604 272.06016125 -182.54374695 267.81147766 C-182.58137204 255.73653417 -182.5996448 243.66166953 -182.58813477 231.58666992 C-182.58192183 224.90377916 -182.59347216 218.22115999 -182.62458009 211.5383361 C-182.64323268 207.31508687 -182.63992104 203.09260731 -182.62041247 198.86937082 C-182.61192324 195.63051342 -182.63595433 192.39187076 -182.6550293 189.15307617 C-182.64326157 187.98470215 -182.63149384 186.81632813 -182.61936951 185.61254883 C-182.52973822 179.43149074 -182.52973822 179.43149074 -185.69523621 174.39949036 C-187.85644442 173.30723095 -189.97342157 172.24235205 -192.22021484 171.34179688 C-196.97042855 169.08364604 -199.63465949 165.55409085 -202.28271484 161.09179688 C-204.18403334 155.38784139 -204.32827058 148.63826441 -201.97021484 143.02929688 C-196.97120053 134.45955805 -187.5181541 128.40117463 -179.76660156 122.41552734 C-174.55014537 118.36742122 -169.57773533 114.07188347 -164.61230469 109.72192383 C-160.43184739 106.06634495 -156.16993063 102.55116612 -151.80615234 99.11523438 C-148.74893529 96.66378169 -145.76561134 94.13273487 -142.78271484 91.59179688 C-138.29556358 87.77312373 -133.75569582 84.04172551 -129.13818359 80.38085938 C-125.34501771 77.34009985 -121.59532106 74.24790968 -117.84521484 71.15429688 C-117.10609863 70.54457031 -116.36698242 69.93484375 -115.60546875 69.30664062 C-114.15785347 68.11233394 -112.71026164 66.91799883 -111.26269531 65.72363281 C-106.11126668 61.47799176 -100.93722849 57.25992448 -95.76708984 53.03710938 C-90.09527284 48.40116315 -84.43615777 43.75012479 -78.78271484 39.09179688 C-72.29366483 33.74494484 -65.79426651 28.4112337 -59.28271484 23.09179688 C-57.44926448 21.59193992 -55.61593313 20.09193747 -53.78271484 18.59179688 C-52.87521484 17.85058594 -51.96771484 17.109375 -51.03271484 16.34570312 C-49.19426401 14.83890464 -47.36093826 13.32583196 -45.53271484 11.80664062 C-18.0994832 -10.91150433 -18.0994832 -10.91150433 0 0 Z M-58.28271484 94.09179688 C-59.52173195 95.96272369 -59.52173195 95.96272369 -59.28271484 98.09179688 C-57.09602862 100.69596036 -57.09602862 100.69596036 -54.28271484 103.09179688 C-51.36524461 105.76614459 -50.00238007 107.21638127 -49.28271484 111.09179688 C-49.23131901 114.03257938 -49.23541115 116.94244883 -49.29833984 119.88085938 C-49.3230838 121.16855728 -49.3230838 121.16855728 -49.34832764 122.48226929 C-49.38578827 124.29960464 -49.4263297 126.11687874 -49.46972656 127.93408203 C-49.53201328 130.68580277 -49.57377299 133.43734383 -49.61474609 136.18945312 C-49.91591344 151.79982734 -53.59472135 162.28585592 -60.80123901 176.0022583 C-63.0512798 180.28774199 -65.26982409 184.58954564 -67.49365234 188.88867188 C-67.96091232 189.79013947 -68.4281723 190.69160706 -68.90959167 191.62039185 C-73.93465026 201.32447891 -78.87296806 211.07157029 -83.77426147 220.83868408 C-84.72815285 222.73736701 -85.68450155 224.63481764 -86.64346313 226.53094482 C-99.26971686 249.07885382 -99.26971686 249.07885382 -99.43115234 273.95117188 C-96.01054287 281.6300911 -90.47908883 286.94196037 -82.7731781 290.25476074 C-76.86473027 292.51873623 -71.39300163 292.65605704 -65.12280273 292.609375 C-63.94907608 292.61638428 -62.77534943 292.62339355 -61.5660553 292.63061523 C-57.71224838 292.64812281 -53.85918461 292.63659652 -50.00537109 292.62304688 C-47.31073927 292.62393965 -44.61612036 292.62962315 -41.92149353 292.63464355 C-36.2837632 292.64189762 -30.64624323 292.63239265 -25.00854492 292.61328125 C-18.51685393 292.59152716 -12.02566587 292.59856187 -5.5339871 292.62058687 C0.06638347 292.63881794 5.66660383 292.64126152 11.26699454 292.6308322 C14.60013367 292.62463783 17.93285007 292.62524879 21.26600456 292.63697815 C24.98700235 292.64719929 28.70705094 292.63156256 32.42797852 292.609375 C33.51351013 292.61747192 34.59904175 292.62556885 35.71746826 292.63391113 C45.46514715 292.52687517 55.53502045 290.10528774 62.71728516 283.09179688 C67.51274847 277.49069573 69.35121915 271.38273225 69.71728516 264.09179688 C68.6159028 251.1527589 62.2435495 240.14948162 56.43212891 228.81054688 C55.40835205 226.7830363 54.38612603 224.75474196 53.3653717 222.72570801 C50.69214596 217.42085493 48.00051353 212.12557362 45.30401611 206.83251953 C40.98051454 198.33688135 36.68732335 189.82586554 32.39059639 181.31666565 C30.89212745 178.35501415 29.38692218 175.39687016 27.88035583 172.43933105 C26.95995073 170.62495992 26.03962287 168.81054959 25.11938477 166.99609375 C24.70115448 166.17939209 24.28292419 165.36269043 23.85202026 164.52124023 C21.04210745 158.96565083 18.46244241 153.77195035 18.47436523 147.41918945 C18.46975029 146.11302422 18.46975029 146.11302422 18.46504211 144.7804718 C18.47582039 143.39737068 18.47582039 143.39737068 18.48681641 141.98632812 C18.48727463 141.02530685 18.48773285 140.06428558 18.48820496 139.07414246 C18.49121597 137.05112466 18.49906763 135.02810894 18.51147461 133.00512695 C18.52978469 129.90437645 18.53198373 126.80392405 18.53173828 123.703125 C18.53665201 121.73502345 18.54247969 119.76692393 18.54931641 117.79882812 C18.55042923 116.87068802 18.55154205 115.94254791 18.5526886 114.98628235 C18.55906845 114.12496201 18.5654483 113.26364166 18.57202148 112.3762207 C18.57583328 111.61932449 18.57964508 110.86242828 18.58357239 110.08259583 C18.71728516 108.09179688 18.71728516 108.09179688 19.71728516 105.09179688 C21.70873907 104.07488424 23.70915589 103.07537039 25.71728516 102.09179688 C28.01989275 99.27581501 28.01989275 99.27581501 27.59228516 96.09179688 C26.54803415 92.51150771 25.93311216 91.87574252 22.71728516 90.09179688 C20.14943587 89.79703531 17.82472754 89.6712241 15.25830078 89.68774414 C14.51311691 89.68088089 13.76793304 89.67401764 13.00016785 89.66694641 C10.54109556 89.64867005 8.08266067 89.6525165 5.62353516 89.65820312 C3.91247347 89.65364207 2.20141362 89.64833673 0.49035645 89.64231873 C-3.0940699 89.63338628 -6.67827345 89.63581264 -10.26269531 89.64575195 C-14.85634581 89.65724854 -19.4492284 89.6370207 -24.04277802 89.60783482 C-27.57555017 89.58949132 -31.10813761 89.58976143 -34.64094543 89.59547234 C-36.33463113 89.59562574 -38.02832919 89.58956538 -39.7219696 89.57718086 C-42.08971401 89.56230504 -44.45603081 89.57292079 -46.82373047 89.59008789 C-47.87274284 89.57558594 -47.87274284 89.57558594 -48.94294739 89.56079102 C-53.4894843 89.62983166 -55.51341029 90.47534476 -58.28271484 94.09179688 Z " fill="#000000" transform="translate(324.28271484375,6.908203125)"/>
<path d="M0 0 C7.44996672 1.20403503 13.57677581 4.40905538 19.8828125 8.4375 C27.20422868 13.10132027 34.47681954 16.42422798 43.3203125 15.375 C49.68297654 13.83604615 55.61201663 11.97808689 61.2578125 8.625 C64.76894178 6.55433402 67.17022226 5.40986273 71.3203125 6.375 C75.15381063 10.38880581 77.19286024 15.01071902 79.4453125 20 C83.01427481 27.7343834 86.82388837 35.29578328 90.86962891 42.79150391 C96.06212247 52.4706531 100.53988133 60.93563013 98.6953125 72.1875 C96.14435175 78.10109084 92.13310619 80.90147077 86.3203125 83.375 C83.48093339 84.22009057 80.94742342 84.5036187 77.98957825 84.51544189 C77.13042816 84.52115204 76.27127808 84.52686218 75.38609314 84.53274536 C73.9841848 84.53442215 73.9841848 84.53442215 72.55395508 84.53613281 C71.56320984 84.54109772 70.5724646 84.54606262 69.55169678 84.55117798 C66.2727387 84.56578683 62.99382903 84.57260018 59.71484375 84.578125 C57.43283589 84.58387834 55.15082803 84.58963605 52.86882019 84.59539795 C48.08140844 84.60590488 43.29401346 84.61174929 38.5065918 84.61523438 C32.38457799 84.6207126 26.26278732 84.64472775 20.14084339 84.67320633 C15.42495587 84.69187073 10.70912163 84.69704038 5.9932003 84.69857025 C3.73705516 84.70158967 1.48091079 84.70959411 -0.77519798 84.72275543 C-3.93908809 84.73989202 -7.10243919 84.73791673 -10.26635742 84.73144531 C-11.19084183 84.7406601 -12.11532623 84.74987488 -13.06782532 84.7593689 C-19.73886451 84.7168243 -26.50559593 83.95682449 -31.8359375 79.62109375 C-32.50109375 78.72583984 -32.50109375 78.72583984 -33.1796875 77.8125 C-33.87578125 76.91337891 -33.87578125 76.91337891 -34.5859375 75.99609375 C-37.94772025 71.01345146 -37.2441439 65.16448116 -36.6796875 59.375 C-35.44446439 55.30223078 -33.61211286 51.68799722 -31.6171875 47.9375 C-31.08931641 46.89634033 -30.56144531 45.85518066 -30.01757812 44.7824707 C-28.8715729 42.52415652 -27.71541804 40.27097033 -26.55029297 38.02246094 C-24.53527749 34.11925939 -22.60801374 30.17501494 -20.68359375 26.2265625 C-19.67908215 24.1757611 -18.67336479 22.12555682 -17.66702271 20.07565308 C-17.01265507 18.74141298 -16.3598642 17.40639833 -15.70870972 16.07058716 C-14.79052014 14.1926395 -13.86158638 12.32039347 -12.9296875 10.44921875 C-12.39859375 9.37244873 -11.8675 8.29567871 -11.3203125 7.1862793 C-8.36226266 2.11753764 -6.14798118 -0.36298044 0 0 Z M45.9453125 60.9375 C43.97671444 63.38959258 43.97671444 63.38959258 44.3828125 67 C44.995397 70.63016924 44.995397 70.63016924 48.3203125 72.375 C51.89207365 72.29332511 51.89207365 72.29332511 55.3203125 71.375 C57.68170552 68.48038099 57.68170552 68.48038099 57.1328125 64.8125 C56.67191488 61.11674248 56.67191488 61.11674248 53.3203125 59.375 C50.04095531 58.87048351 48.73865834 59.09977247 45.9453125 60.9375 Z " fill="#000000" transform="translate(277.6796875,201.625)"/>
<path d="M0 0 C1.40378906 -0.02126953 1.40378906 -0.02126953 2.8359375 -0.04296875 C5.82227775 0.20380166 7.95463686 0.84288252 10.625 2.1875 C11.82322872 4.58395744 11.78127315 6.14412027 11.83032227 8.82080078 C11.85026749 9.78164581 11.87021271 10.74249084 11.89076233 11.73245239 C11.90747482 12.77207123 11.92418732 13.81169006 11.94140625 14.8828125 C11.96218735 15.94539276 11.98296844 17.00797302 12.00437927 18.10275269 C12.06990261 21.50593438 12.12877273 24.90919489 12.1875 28.3125 C12.23068257 30.61589366 12.27429677 32.91927926 12.31835938 35.22265625 C12.42558682 40.87752021 12.52734802 46.53246303 12.625 52.1875 C13.27218994 51.71626709 13.91937988 51.24503418 14.58618164 50.75952148 C28.12036171 41.06539399 41.23909063 37.95821483 57.67626953 40.50537109 C70.09013776 42.96921635 80.8072262 49.19409342 88.625 59.1875 C91.30214877 63.72565705 93.55209433 68.33818958 95.625 73.1875 C95.90093994 73.77321777 96.17687988 74.35893555 96.46118164 74.96240234 C101.02653648 85.46422069 101.05240108 101.51227056 97.04296875 112.1640625 C95.25225579 116.09311314 93.05377414 119.62175872 90.625 123.1875 C90.11324219 123.99960937 89.60148438 124.81171875 89.07421875 125.6484375 C81.44002793 136.87392371 70.84367925 142.84189998 57.875 146 C41.17982358 149.1644452 24.69179659 147.31956124 10.2421875 138.09765625 C-1.51494127 129.51670705 -7.97846152 117.75725416 -10.91253662 103.59243774 C-11.49230634 99.32381907 -11.53054303 95.15181636 -11.53613281 90.84912109 C-11.54109772 89.9280809 -11.54606262 89.00704071 -11.55117798 88.05809021 C-11.56572818 85.02569827 -11.57258729 81.99335853 -11.578125 78.9609375 C-11.5838794 76.84917195 -11.5896371 74.7374064 -11.59539795 72.62564087 C-11.60588553 68.20582842 -11.61174383 63.78603406 -11.61523438 59.36621094 C-11.62073476 53.69888224 -11.6448051 48.0317919 -11.67320633 42.36453819 C-11.69180678 38.00657442 -11.69703678 33.64866861 -11.69857025 29.29066849 C-11.7015998 27.20064608 -11.70963844 25.11062477 -11.72275543 23.02064133 C-11.73977231 20.10260388 -11.73794709 17.18515649 -11.73144531 14.26708984 C-11.7406601 13.40257706 -11.74987488 12.53806427 -11.7593689 11.64735413 C-11.73481873 8.13763535 -11.70982998 5.81587462 -10.04022217 2.68252563 C-6.99439789 -0.0519956 -3.90899265 0.02677392 0 0 Z M19.625 70.1875 C12.80814344 79.71220721 10.54728335 88.50996266 11.625 100.1875 C13.31419047 107.87483386 16.78428798 114.8352461 22.625 120.1875 C31.26039128 125.62756745 39.8613514 128.64395554 50.08203125 126.7265625 C59.83033948 124.18092133 66.35269434 118.68909288 71.625 110.1875 C76.10844434 101.71098805 76.7299344 92.78029134 74.4375 83.546875 C71.09456311 73.83950056 64.50390658 66.54428792 55.5 61.75 C43.13454637 56.81663249 28.35226876 60.17994731 19.625 70.1875 Z " fill="#000000" transform="translate(521.375,391.8125)"/>
<path d="M0 0 C9.86969006 7.73570302 17.75061535 18.11196371 20.25 30.71875 C21.60831131 45.19886116 21.60831131 45.19886116 18.45703125 49.92578125 C14.89285162 51.11384113 12.07426019 51.03847409 8.31103516 51.0234375 C7.58711075 51.02197723 6.86318634 51.02051697 6.11732483 51.01901245 C4.54586734 51.0152081 2.97441415 51.00909324 1.40297318 51.00094604 C-1.0854147 50.98818376 -3.57374926 50.98166686 -6.06216431 50.97680664 C-12.24392439 50.96343288 -18.42563391 50.93925507 -24.60736084 50.91540527 C-29.82882019 50.89566351 -35.05026058 50.88002547 -40.27174759 50.86984253 C-42.72069956 50.86336903 -45.16957345 50.85085935 -47.61849976 50.83813477 C-49.12506035 50.83450089 -50.63162166 50.83114932 -52.13818359 50.828125 C-53.45039886 50.82288818 -54.76261414 50.81765137 -56.11459351 50.81225586 C-59.07066677 50.91014169 -61.67756191 51.23109554 -64.54296875 51.92578125 C-64.26291349 58.50707988 -61.85611732 62.97197672 -57.54296875 67.92578125 C-54.72431909 70.3231936 -51.79865625 72.17746025 -48.54296875 73.92578125 C-47.92808594 74.26609375 -47.31320313 74.60640625 -46.6796875 74.95703125 C-39.76306051 78.15615637 -31.081275 78.13512933 -23.81640625 76.19921875 C-18.40243893 73.97206831 -14.79651215 70.81761151 -11.19140625 66.19140625 C-7.5731537 61.66375333 -4.31155267 58.30322893 1.45703125 56.92578125 C7.11812157 56.48126461 12.79033609 56.6939619 18.45703125 56.92578125 C17.06803853 68.186062 11.4352709 76.66382838 2.9140625 84.1640625 C-3.43016406 89.02522311 -9.99497253 92.33999059 -17.54296875 94.92578125 C-18.25582031 95.17199219 -18.96867187 95.41820312 -19.703125 95.671875 C-34.66431522 99.85178364 -51.19945973 96.85018721 -64.65234375 89.71875 C-77.36057043 81.8362148 -85.27761906 69.98087727 -89.1640625 55.6328125 C-91.47532538 39.12038802 -89.34377218 23.67671839 -79.54296875 9.92578125 C-60.81155951 -13.92047775 -24.3058234 -17.01772043 0 0 Z M-59.54296875 19.92578125 C-61.84735345 23.11125422 -64.02363037 26.28954043 -65.54296875 29.92578125 C-65.21296875 30.91578125 -64.88296875 31.90578125 -64.54296875 32.92578125 C-44.41296875 32.92578125 -24.28296875 32.92578125 -3.54296875 32.92578125 C-2.14294763 29.79105372 -2.14294763 29.79105372 -3.98046875 26.23828125 C-8.79315068 17.28867067 -15.87270422 12.27609005 -25.4296875 9.34765625 C-38.27036286 6.78426819 -50.87268016 9.93610092 -59.54296875 19.92578125 Z " fill="#000000" transform="translate(188.54296875,442.07421875)"/>
<path d="M0 0 C12.21776912 11.94626314 16.94565704 27.45835778 17.14169312 44.16598511 C17.14391876 45.3048819 17.14614441 46.44377869 17.1484375 47.6171875 C17.1584227 49.41290695 17.1584227 49.41290695 17.16860962 51.24490356 C17.17867826 53.75765456 17.18342845 56.27043198 17.18310547 58.78320312 C17.18751093 62.63455377 17.22398159 66.48478667 17.26171875 70.3359375 C17.26758156 72.78385026 17.27155453 75.23176844 17.2734375 77.6796875 C17.28780853 78.83072968 17.30217957 79.98177185 17.31698608 81.16769409 C17.31083282 82.23625641 17.30467957 83.30481873 17.29833984 84.40576172 C17.30118988 85.34378632 17.30403992 86.28181091 17.30697632 87.2482605 C16.65756677 90.53386479 15.43023698 91.71925059 12.8125 93.75 C9.28125 94.28125 9.28125 94.28125 5.3125 94.25 C3.34796875 94.26546875 3.34796875 94.26546875 1.34375 94.28125 C-2.1875 93.75 -2.1875 93.75 -4.609375 91.953125 C-6.73923088 88.97976185 -6.91086045 86.34631411 -7.1875 82.75 C-8.00541016 83.33007812 -8.00541016 83.33007812 -8.83984375 83.921875 C-22.04810684 93.04347891 -35.0675429 96.23510779 -51 94.0625 C-64.98570861 91.50023277 -75.81116581 84.83691348 -84.3984375 73.546875 C-93.09849715 59.94590838 -94.79364905 43.45700104 -91.9375 27.8671875 C-88.87945899 15.15720455 -81.95504612 4.28035782 -71.1875 -3.25 C-47.61589879 -16.93044467 -22.17368859 -15.65201547 0 0 Z M-60.36328125 16.5546875 C-67.77254555 25.47118972 -70.00838144 35.45527939 -69.1875 46.75 C-67.59327392 55.81547204 -63.49753132 63.70208001 -55.9375 69.125 C-48.07536766 73.88192041 -39.80723308 76.02302559 -30.75 74.28125 C-21.00061198 71.78445551 -14.42548421 66.25152577 -9.1875 57.75 C-4.67578008 49.47851348 -4.97772182 38.88760795 -6.7734375 29.77734375 C-9.58952765 21.62618372 -15.8673608 14.12025564 -23.5625 10.1875 C-36.546585 5.03863871 -50.07542746 6.91373729 -60.36328125 16.5546875 Z " fill="#000000" transform="translate(478.1875,444.25)"/>
<path d="M0 0 C4.28961561 3.11685831 7.25183516 6.78705935 10.0625 11.25 C10.701875 12.260625 11.34125 13.27125 12 14.3125 C13.34885702 18.04169294 13.01622127 20.4351149 12.0625 24.25 C9.72305271 26.58944729 9.18650261 26.56880066 6 26.625 C0.75360565 26.4898272 -3.51732776 25.07544343 -7.9375 22.25 C-9.6518618 20.29072937 -11.32155168 18.29119788 -12.9375 16.25 C-19.47615718 11.52846395 -26.03124705 10.38469795 -33.9375 11.25 C-37.84306096 12.51684582 -40.90195375 14.31153621 -43.9375 17.0625 C-45.44833439 20.36745024 -45.44088122 22.66340881 -44.9375 26.25 C-38.70884185 34.81440495 -25.90553041 35.77041486 -16.22460938 37.91210938 C-5.82214862 40.30297209 4.54974487 43.51758132 11.375 52.1875 C15.69545937 60.02833368 16.1629464 68.10044661 14.59765625 76.84765625 C12.04790969 85.64352752 6.45514731 90.56476656 -1.34765625 94.96484375 C-16.40702722 102.43774428 -33.88315853 101.57613105 -49.6875 96.6875 C-58.66190591 93.10038496 -65.28902414 86.41677209 -69.16796875 77.6171875 C-70.27750968 74.2040819 -70.45597988 71.8052906 -69.9375 68.25 C-67.29507723 65.60757723 -65.99337947 65.95147802 -62.3125 65.9375 C-52.18412397 66.17980565 -52.18412397 66.17980565 -47.9375 69.25 C-46.23547155 71.46842058 -44.80739862 73.75851612 -43.37109375 76.15625 C-40.86984117 79.80930554 -37.64995442 80.75428951 -33.5625 81.9375 C-25.08296704 82.94696821 -17.91360916 82.23208187 -10.9375 77 C-8.46023916 73.59376634 -7.9375 71.45058204 -7.9375 67.25 C-9.3206694 64.25854664 -10.28026311 62.61970023 -13.17749023 60.98999023 C-21.45601667 58.25608696 -29.81776511 56.37188523 -38.35351562 54.62695312 C-48.85581066 52.35031858 -58.15448635 48.96022087 -64.9375 40.25 C-68.7681056 33.73797048 -69.7243703 25.88668201 -68.46484375 18.46484375 C-66.17854146 10.181683 -61.97968502 4.15734941 -54.9375 -0.75 C-38.37857447 -9.86336549 -16.19329646 -9.81249421 0 0 Z " fill="#000000" transform="translate(69.9375,438.75)"/>
<path d="M0 0 C1.47601221 2.95202442 1.24810352 5.65327952 1.3125 8.9375 C1.36857422 10.80728516 1.36857422 10.80728516 1.42578125 12.71484375 C1 16 1 16 -0.7421875 17.9140625 C-3.15591247 19.07498904 -4.77669804 19.35910549 -7.4375 19.4375 C-11.77618538 19.81508674 -14.00519797 20.65286832 -17 24 C-19.37182987 28.4165108 -20.66922336 31.98082479 -20 37 C-19.00631211 39.28926823 -19.00631211 39.28926823 -17 41 C-13.38885607 41.280818 -9.95857744 40.99300626 -6.34765625 40.75 C-3 41 -3 41 -0.58203125 42.58984375 C1.49131798 45.74850171 1.46895063 47.80874511 1.375 51.5625 C1.36210937 52.69816406 1.34921875 53.83382812 1.3359375 55.00390625 C1 58 1 58 -1 61 C-4.02396021 61.21440191 -6.93279558 60.9928271 -9.95703125 60.8125 C-13.51583205 61.03178426 -15.23268819 61.77422676 -18 64 C-19.36204133 67.60066581 -19.11323444 71.30324841 -19.09765625 75.10766602 C-19.09619598 75.81544189 -19.09473572 76.52321777 -19.0932312 77.25244141 C-19.0894333 78.78514367 -19.08332528 80.31784157 -19.07516479 81.85052681 C-19.06238655 84.27543643 -19.05588202 86.70029128 -19.05102539 89.12522888 C-19.03960517 94.27101052 -19.02035788 99.41674697 -19 104.5625 C-18.97641284 110.52894202 -18.95602009 116.49535822 -18.94406128 122.46183586 C-18.9375726 124.85216086 -18.92506581 127.24240685 -18.91235352 129.63270569 C-18.90872148 131.09571259 -18.90536969 132.55872023 -18.90234375 134.02172852 C-18.89710693 135.29983902 -18.89187012 136.57794952 -18.88647461 137.89479065 C-19 141 -19 141 -20 144 C-23.42148858 145.71074429 -27.22938683 145.22665255 -31 145.25 C-32.24910156 145.2809375 -32.24910156 145.2809375 -33.5234375 145.3125 C-34.32007813 145.31765625 -35.11671875 145.3228125 -35.9375 145.328125 C-36.66839844 145.3374707 -37.39929688 145.34681641 -38.15234375 145.35644531 C-38.76207031 145.23881836 -39.37179687 145.12119141 -40 145 C-42.19590507 141.7061424 -42.23637579 140.81611602 -42.17993164 137.00610352 C-42.17118515 135.98733627 -42.16243866 134.96856903 -42.15342712 133.91893005 C-42.13502274 132.8125972 -42.11661835 131.70626434 -42.09765625 130.56640625 C-42.07761705 128.19418902 -42.05961938 125.82195384 -42.04345703 123.44970703 C-42.02886444 121.60496796 -42.02886444 121.60496796 -42.01397705 119.72296143 C-41.97859156 110.29759591 -42.1941915 100.87276315 -42.37231445 91.44946289 C-42.43907861 87.85245027 -42.49790077 84.25535479 -42.55664062 80.65820312 C-42.5984823 78.3645746 -42.64078118 76.07095436 -42.68359375 73.77734375 C-42.70030624 72.70475815 -42.71701874 71.63217255 -42.73423767 70.52708435 C-42.75418289 69.54998001 -42.77412811 68.57287567 -42.79467773 67.56616211 C-42.81799416 66.27481606 -42.81799416 66.27481606 -42.84178162 64.9573822 C-42.78755818 62.99649608 -42.78755818 62.99649608 -44 62 C-45.84891946 61.76636119 -47.70488031 61.58696365 -49.5625 61.4375 C-50.57441406 61.35371094 -51.58632813 61.26992188 -52.62890625 61.18359375 C-53.41136719 61.12300781 -54.19382812 61.06242187 -55 61 C-56.57309723 57.51047082 -57.27365456 54.76362451 -57.25 50.9375 C-57.25515625 50.10089844 -57.2603125 49.26429688 -57.265625 48.40234375 C-56.97596354 45.78261139 -56.49223082 44.17229667 -55 42 C-51.6875 41.3125 -51.6875 41.3125 -48 41 C-46.33065717 40.68033861 -44.6626783 40.35268934 -43 40 C-42.17483758 37.15350949 -41.93876496 34.76600162 -42.0625 31.8125 C-42.12282948 22.59717183 -39.65828465 14.22750148 -33.43359375 7.2421875 C-25.46096719 -0.12000594 -10.13705987 -6.30799577 0 0 Z " fill="#000000" transform="translate(323,392)"/>
<path d="M0 0 C0.9178125 0.00386719 1.835625 0.00773437 2.78125 0.01171875 C5.94118087 0.3613088 9.17744891 0.98994891 11.5 3.3125 C11.60293494 5.10250226 11.63521415 6.89659282 11.64044189 8.68954468 C11.64900711 10.43945457 11.64900711 10.43945457 11.65774536 12.22471619 C11.65886322 13.51616043 11.65998108 14.80760468 11.66113281 16.13818359 C11.66575872 17.50290563 11.67078307 18.86762637 11.67617798 20.23234558 C11.68932617 23.9493109 11.69575166 27.66625813 11.70018864 31.38324308 C11.70311556 33.70345143 11.70721963 36.02365478 11.71169281 38.34386063 C11.7253743 45.5973834 11.73503768 52.85089482 11.7388947 60.1044296 C11.74337681 68.48841569 11.76092894 76.87223886 11.7898953 85.2561754 C11.81148613 91.72922839 11.82159759 98.20223545 11.82293582 104.67532408 C11.82398575 108.54482693 11.82993314 112.41417676 11.84775543 116.28364182 C11.86419135 119.92306609 11.86641368 123.56222161 11.85761642 127.20166969 C11.85647449 129.17754182 11.87022657 131.15340484 11.8843689 133.12922668 C11.87879974 134.30147293 11.87323059 135.47371918 11.86749268 136.68148804 C11.86895924 137.70245764 11.8704258 138.72342724 11.8719368 139.77533531 C11.5 142.3125 11.5 142.3125 10.1620903 144.12806129 C7.60215179 145.95232455 5.22529345 145.91571246 2.125 146.125 C1.00351562 146.21394531 -0.11796875 146.30289063 -1.2734375 146.39453125 C-4.74120619 146.30636764 -7.94788079 145.86461921 -10.5 143.3125 C-10.6073286 141.5099608 -10.64410837 139.70319661 -10.65390015 137.89749146 C-10.66250061 136.7224707 -10.67110107 135.54744995 -10.67996216 134.33682251 C-10.68422211 133.03602753 -10.68848206 131.73523254 -10.69287109 130.39501953 C-10.70076885 129.02044465 -10.70903759 127.64587185 -10.71765137 126.27130127 C-10.74390736 121.74599193 -10.75918163 117.22067316 -10.7734375 112.6953125 C-10.77879554 111.13986072 -10.78417304 109.58440901 -10.78956985 108.02895737 C-10.81120303 101.56084814 -10.82994144 95.09274145 -10.84119225 88.62460518 C-10.85744223 79.34220621 -10.8906399 70.06022516 -10.94759309 60.77798378 C-10.98623831 54.25822532 -11.00581841 47.7385789 -11.01111281 41.21870887 C-11.01477354 37.32113431 -11.02687013 33.4240051 -11.05921555 29.52655411 C-11.08920198 25.86073977 -11.09564252 22.19564242 -11.08383179 18.52973175 C-11.08350444 16.53949801 -11.1080325 14.54930914 -11.13320923 12.55923462 C-11.12489075 11.37857422 -11.11657227 10.19791382 -11.10800171 8.98147583 C-11.11131186 7.95313189 -11.114622 6.92478794 -11.11803246 5.86528206 C-10.5 3.3125 -10.5 3.3125 -8.13192177 1.48089409 C-5.19697512 0.17797758 -3.19754511 -0.05838214 0 0 Z " fill="#000000" transform="translate(355.5,391.6875)"/>
<path d="M0 0 C1.39025391 -0.03867187 1.39025391 -0.03867187 2.80859375 -0.078125 C6.17737576 0.32326179 7.88078501 1.17577306 10.5625 3.25 C11.18611908 5.78157806 11.18611908 5.78157806 11.18395996 8.86755371 C11.19516876 10.03690964 11.20637756 11.20626556 11.21792603 12.41105652 C11.20466278 13.69531021 11.19139954 14.9795639 11.17773438 16.30273438 C11.18123498 17.66775706 11.18689289 19.03277567 11.19454956 20.39778137 C11.20881645 24.1066347 11.19171838 27.81474832 11.16826439 31.52353096 C11.14818183 35.40187452 11.15403358 39.28018658 11.15637207 43.15856934 C11.15631847 49.67208075 11.13654482 56.18530235 11.10449219 62.69873047 C11.06759798 70.23271158 11.05881627 77.76631295 11.0657897 85.3003726 C11.07209165 92.54326228 11.06134618 99.78602152 11.04182434 107.02888489 C11.03364254 110.11336625 11.03094222 113.19778102 11.03251648 116.28227234 C11.03339446 119.91358609 11.0192031 123.54453811 10.99328995 127.17575645 C10.98269324 129.14679042 10.98680464 131.11788616 10.99130249 133.08894348 C10.9799527 134.25829941 10.96860291 135.42765533 10.95690918 136.63244629 C10.95318047 137.65081825 10.94945175 138.66919022 10.94561005 139.71842194 C10.5625 142.25 10.5625 142.25 9.28418732 144.07619476 C6.22085932 146.16469853 2.57655385 145.6784257 -1 145.625 C-1.78052734 145.63660156 -2.56105469 145.64820313 -3.36523438 145.66015625 C-5.62890625 145.6484375 -5.62890625 145.6484375 -9.4375 145.25 C-11.71376977 141.83559534 -11.68850209 140.6354281 -11.69146729 136.62571716 C-11.69710693 135.45491608 -11.70274658 134.28411499 -11.70855713 133.07783508 C-11.70450867 131.79201035 -11.70046021 130.50618561 -11.69628906 129.18139648 C-11.69899884 127.8147564 -11.7025597 126.44811778 -11.70690918 125.08148193 C-11.7160362 121.36879744 -11.71248789 117.65622394 -11.70615101 113.94353747 C-11.70109366 110.06205107 -11.70578163 106.18057429 -11.70892334 102.29908752 C-11.71256332 95.78148692 -11.70776259 89.26393162 -11.69824219 82.74633789 C-11.687353 75.20444786 -11.69088643 67.66266592 -11.701895 60.1207785 C-11.71096152 53.65109182 -11.71225641 47.18143773 -11.70701766 40.71174675 C-11.70389504 36.84514567 -11.70349668 32.97859545 -11.71009064 29.1119976 C-11.71585443 25.47832536 -11.7118851 21.84479295 -11.70030212 18.21113586 C-11.69638254 16.23630467 -11.7023491 14.26146168 -11.70855713 12.28663635 C-11.70291748 11.11865509 -11.69727783 9.95067383 -11.69146729 8.74729919 C-11.69071323 7.72800544 -11.68995918 6.70871168 -11.68918228 5.65853024 C-11.4375 3.25 -11.4375 3.25 -9.4375 1.25 C-6.31263334 0.18330591 -3.28596989 0.05469021 0 0 Z " fill="#000000" transform="translate(239.4375,391.75)"/>
<path d="M0 0 C2.562964 2.23225897 2.93752331 3.58051369 3.4375 6.9375 C2.88008526 10.83940315 1.97118368 12.40973731 -1 15 C-5.40533215 15.80096948 -7.26423039 15.49051307 -11 13 C-13.02770545 9.95844182 -13.34061511 9.31215846 -13.125 5.875 C-12.5194798 2.90907234 -12.12210219 2.11851095 -9.875 -0.0625 C-6.12247365 -1.2861499 -3.7900467 -1.05279075 0 0 Z " fill="#000000" transform="translate(320,195)"/>
</svg>
