<svg width="342" height="307" viewBox="0 0 342 307" fill="none" xmlns="http://www.w3.org/2000/svg">
<path d="M78.9483 295.973C77.0064 295.973 75.3432 295.54 73.9589 294.675C72.5937 293.81 71.5459 292.598 70.8152 291.041C70.1038 289.483 69.7481 287.666 69.7481 285.59C69.7481 283.513 70.1038 281.696 70.8152 280.139C71.5459 278.582 72.5937 277.37 73.9589 276.505C75.3432 275.64 77.0064 275.207 78.9483 275.207C80.8903 275.207 82.5438 275.64 83.9089 276.505C85.2933 277.37 86.3412 278.582 87.0526 280.139C87.7832 281.696 88.1485 283.513 88.1485 285.59C88.1485 287.666 87.7832 289.483 87.0526 291.041C86.3412 292.598 85.2933 293.81 83.9089 294.675C82.5438 295.54 80.8903 295.973 78.9483 295.973ZM78.9483 293.665C81.1018 293.665 82.7169 292.944 83.7936 291.502C84.8703 290.041 85.4087 288.07 85.4087 285.59C85.4087 283.11 84.8703 281.148 83.7936 279.706C82.7169 278.245 81.1018 277.514 78.9483 277.514C76.7949 277.514 75.1798 278.245 74.1031 279.706C73.0264 281.148 72.488 283.11 72.488 285.59C72.488 288.07 73.0264 290.041 74.1031 291.502C75.1798 292.944 76.7949 293.665 78.9483 293.665ZM103.314 275.553H109.832C114.831 275.553 117.331 277.745 117.331 282.129C117.331 284.34 116.706 286.032 115.456 287.205C114.226 288.359 112.418 288.935 110.034 288.935H105.852V295.626H103.314V275.553ZM109.948 286.57C111.601 286.57 112.784 286.234 113.495 285.561C114.226 284.888 114.591 283.783 114.591 282.244C114.591 280.706 114.226 279.61 113.495 278.957C112.784 278.303 111.563 277.976 109.832 277.976H105.852V286.57H109.948ZM139.514 295.973C137.572 295.973 135.909 295.54 134.525 294.675C133.159 293.81 132.112 292.598 131.381 291.041C130.669 289.483 130.314 287.666 130.314 285.59C130.314 283.513 130.669 281.696 131.381 280.139C132.112 278.582 133.159 277.37 134.525 276.505C135.909 275.64 137.572 275.207 139.514 275.207C141.456 275.207 143.109 275.64 144.475 276.505C145.859 277.37 146.907 278.582 147.618 280.139C148.349 281.696 148.714 283.513 148.714 285.59C148.714 287.666 148.349 289.483 147.618 291.041C146.907 292.598 145.859 293.81 144.475 294.675C143.109 295.54 141.456 295.973 139.514 295.973ZM139.514 293.665C141.667 293.665 143.282 292.944 144.359 291.502C145.436 290.041 145.974 288.07 145.974 285.59C145.974 283.11 145.436 281.148 144.359 279.706C143.282 278.245 141.667 277.514 139.514 277.514C137.361 277.514 135.745 278.245 134.669 279.706C133.592 281.148 133.054 283.11 133.054 285.59C133.054 288.07 133.592 290.041 134.669 291.502C135.745 292.944 137.361 293.665 139.514 293.665ZM163.88 275.553H166.418V293.204H175.474V295.626H163.88V275.553ZM195.059 295.973C193.944 295.973 192.781 295.828 191.569 295.54C190.358 295.252 189.214 294.857 188.137 294.358V291.618C189.406 292.31 190.579 292.819 191.656 293.146C192.752 293.473 193.829 293.636 194.886 293.636C196.213 293.636 197.241 293.338 197.972 292.742C198.703 292.146 199.068 291.329 199.068 290.291C199.068 289.58 198.866 288.984 198.462 288.503C198.059 288.022 197.549 287.638 196.934 287.349C196.318 287.061 195.492 286.744 194.453 286.397C193.204 285.974 192.194 285.571 191.425 285.186C190.675 284.802 190.031 284.254 189.493 283.542C188.954 282.831 188.685 281.908 188.685 280.773C188.685 279.081 189.301 277.736 190.531 276.736C191.762 275.717 193.415 275.207 195.492 275.207C197.511 275.207 199.366 275.64 201.058 276.505V279.158C199.154 278.082 197.299 277.543 195.492 277.543C194.165 277.543 193.127 277.813 192.377 278.351C191.627 278.87 191.252 279.591 191.252 280.514C191.252 281.148 191.444 281.677 191.829 282.1C192.213 282.523 192.685 282.869 193.242 283.138C193.8 283.388 194.588 283.696 195.607 284.061C196.876 284.484 197.914 284.898 198.722 285.301C199.529 285.705 200.212 286.292 200.77 287.061C201.346 287.83 201.635 288.82 201.635 290.031C201.635 291.223 201.366 292.271 200.827 293.175C200.289 294.059 199.52 294.752 198.52 295.252C197.52 295.732 196.367 295.973 195.059 295.973ZM221.813 286.369L218.9 289.743V295.626H216.362V275.553H218.9V286.051L227.956 275.553H231.071L223.601 284.263L231.706 295.626H228.447L221.813 286.369ZM244.949 275.553H247.487V295.626H244.949V275.553ZM265.637 277.976V284.321H274.433V286.628H265.637V293.204H275.068V295.626H263.099V275.553H275.068V277.976H265.637Z" fill="#051827"/>
<path d="M238.327 98.4045C239.16 98.9135 239.393 99.9279 239.393 100.903V123.393C239.393 125.332 238.355 127.122 236.673 128.086L173.703 164.156C172.043 165.106 170.005 165.11 168.342 164.164L104.878 128.083C103.188 127.122 102.143 125.327 102.143 123.382V90.4098C102.143 88.0016 103.735 85.8664 106.076 85.3002C129.696 79.5866 151.599 84.2379 169.037 92.4692C186.429 100.629 230.088 93.3653 238.327 98.4045Z" fill="#051827"/>
<path d="M239.401 95.6263V100.636C234.785 119.794 187.896 102.458 169.688 93.1498C186.168 83.6991 235.017 79.9985 239.401 95.6548V95.6263Z" fill="#051827"/>
<path d="M164.991 1.42363C168.322 -0.474554 173.229 -0.474534 176.56 1.42363L242.728 39.3426C246.126 41.3077 248.512 45.3721 248.512 49.2801V125.096L248.505 125.461C248.362 129.235 246.02 133.129 242.728 135.012L176.56 172.93L176.243 173.101C174.643 173.931 172.759 174.383 170.775 174.383L170.38 174.377C168.411 174.317 166.553 173.81 164.991 172.93L98.8232 135.034C95.5309 133.13 93.1889 129.256 93.0459 125.463L93.0391 125.096V49.2801C93.0392 45.4942 95.2782 41.5617 98.5078 39.533L98.8232 39.3426L164.991 1.42363ZM174.648 4.27617C172.36 3.09555 168.895 3.13496 166.685 4.39433L100.523 42.3094C98.1653 43.6793 96.4581 46.6229 96.458 49.2801V125.096C96.4581 127.758 98.171 130.707 100.535 132.074H100.534L166.685 169.96C167.798 170.583 169.21 170.963 170.775 170.963C172.348 170.963 173.766 170.58 174.882 169.952L241.027 132.045L241.03 132.043C243.375 130.702 245.093 127.742 245.093 125.096V49.2801C245.093 46.6229 243.386 43.6793 241.027 42.3094L174.866 4.39433L174.648 4.27617Z" fill="#051827"/>
<path d="M168.515 32.8839C169.096 32.8839 169.586 33.3731 169.587 33.9542V47.506C169.587 48.0872 169.097 48.5772 168.515 48.5772H154.964C154.383 48.577 153.893 48.0871 153.893 47.506V33.9542C153.894 33.3732 154.383 32.8841 154.964 32.8839H168.515Z" fill="#051827"/>
<path d="M173.024 32.8839H186.549C187.129 32.8839 187.618 33.3733 187.618 33.9546V47.5063C187.618 48.0876 187.129 48.577 186.549 48.577H172.993C172.413 48.577 171.925 48.0876 171.925 47.5063V33.9546C171.925 33.3733 172.413 32.8839 172.993 32.8839H173.024Z" fill="#051827"/>
<path d="M173.052 50.6878H186.577C187.158 50.6878 187.646 51.1773 187.646 51.7585V65.3103C187.646 65.8915 187.158 66.3809 186.577 66.3809H173.021C172.441 66.3809 171.953 65.8915 171.953 65.3103V51.7585C171.953 51.1773 172.441 50.6878 173.021 50.6878H173.052Z" fill="#051827"/>
<path d="M168.544 50.6878H154.993C154.411 50.6878 153.922 51.1773 153.922 51.7585V65.3103C153.922 65.8915 154.411 66.3809 154.993 66.3809H168.544C169.126 66.3809 169.615 65.8915 169.615 65.3103V51.7585C169.615 51.1773 169.126 50.6878 168.544 50.6878Z" fill="#051827"/>
<path d="M18.7618 205.224C20.8761 205.224 22.4917 205.464 23.6086 205.942C24.7256 206.421 25.7029 206.94 26.5406 207.498C27.0193 207.777 27.3983 207.997 27.6775 208.156C27.9967 208.276 28.2958 208.336 28.5751 208.336C28.974 208.336 29.2532 208.116 29.4128 207.678C29.6123 207.239 29.7718 206.581 29.8915 205.703H31.2677C31.2279 206.421 31.168 207.279 31.0882 208.276C31.0483 209.233 31.0085 210.51 30.9686 212.105C30.9686 213.701 30.9686 215.795 30.9686 218.388H29.5923C29.4726 216.434 29.0338 214.539 28.2759 212.704C27.5579 210.869 26.4808 209.373 25.0447 208.216C23.6485 207.059 21.8534 206.481 19.6594 206.481C17.6249 206.481 15.9295 207.099 14.5732 208.336C13.2568 209.532 12.5986 211.128 12.5986 213.123C12.5986 214.878 13.0374 216.354 13.915 217.551C14.7926 218.707 15.9894 219.804 17.5052 220.842C19.061 221.839 20.8162 222.956 22.7709 224.193C24.7655 225.469 26.5606 226.746 28.1562 228.022C29.7519 229.259 31.0085 230.635 31.926 232.151C32.8435 233.667 33.3022 235.502 33.3022 237.656C33.3022 240.249 32.6839 242.403 31.4473 244.118C30.2505 245.794 28.6349 247.05 26.6005 247.888C24.566 248.726 22.3321 249.145 19.8987 249.145C17.6648 249.145 15.8896 248.905 14.5732 248.426C13.2568 247.948 12.1399 247.449 11.2224 246.931C10.3448 246.372 9.6666 246.093 9.18791 246.093C8.789 246.093 8.48981 246.312 8.29035 246.751C8.13079 247.19 7.99117 247.848 7.8715 248.726H6.49525C6.57503 247.848 6.61492 246.831 6.61492 245.674C6.65481 244.477 6.67476 242.921 6.67476 241.007C6.71465 239.092 6.73459 236.679 6.73459 233.766H8.11084C8.27041 236.24 8.70921 238.553 9.42726 240.708C10.1852 242.862 11.3221 244.597 12.838 245.913C14.3937 247.19 16.4481 247.828 19.0012 247.828C20.3575 247.828 21.614 247.569 22.7709 247.05C23.9277 246.532 24.8652 245.714 25.5832 244.597C26.3013 243.48 26.6603 242.044 26.6603 240.289C26.6603 238.653 26.2614 237.217 25.4636 235.98C24.7056 234.744 23.6286 233.607 22.2324 232.57C20.8761 231.493 19.2804 230.396 17.4454 229.279C15.5705 228.082 13.8153 226.885 12.1798 225.688C10.5442 224.492 9.2278 223.096 8.23052 221.5C7.27313 219.904 6.79443 218.009 6.79443 215.815C6.79443 213.382 7.35291 211.387 8.46987 209.832C9.62671 208.276 11.1027 207.119 12.8978 206.361C14.7328 205.603 16.6875 205.224 18.7618 205.224ZM49.9808 217.431V218.688C49.0234 218.688 48.1658 218.767 47.4078 218.927C46.6898 219.047 46.2111 219.406 45.9717 220.004C45.7723 220.602 45.9318 221.659 46.4504 223.175L52.494 241.007L51.9554 241.246L60.1531 217.251L61.3498 217.79L50.998 248.546C50.6789 248.546 50.3598 248.546 50.0406 248.546C49.7215 248.546 49.3824 248.546 49.0234 248.546L39.3298 222.038C38.6916 220.443 38.0533 219.485 37.4151 219.166C36.8167 218.847 36.2981 218.688 35.8593 218.688V217.431C36.8167 217.551 37.794 217.65 38.7913 217.73C39.8285 217.77 40.9654 217.79 42.202 217.79C43.4386 217.79 44.7351 217.75 46.0914 217.67C47.4876 217.591 48.7841 217.511 49.9808 217.431ZM82.2928 217.431V218.628C81.5348 218.747 80.8168 219.126 80.1386 219.765C79.4605 220.403 78.8621 221.54 78.3435 223.175L69.9065 248.546C69.5874 248.546 69.2483 248.546 68.8893 248.546C68.5702 248.546 68.251 248.546 67.9319 248.546L58.6572 224.552L60.1531 217.251C60.552 217.291 60.931 217.311 61.29 217.311C61.6889 217.271 62.0878 217.251 62.4867 217.251L71.4623 241.785L70.9237 241.844L76.1894 225.569C76.708 223.933 76.9074 222.637 76.7878 221.679C76.6681 220.722 76.2492 220.004 75.5312 219.525C74.8131 219.047 73.7361 218.747 72.3 218.628V217.431C73.018 217.471 73.6563 217.511 74.2148 217.551C74.8131 217.551 75.3916 217.571 75.95 217.61C76.5484 217.61 77.1468 217.61 77.7452 217.61C78.6228 217.61 79.4405 217.591 80.1985 217.551C80.9963 217.511 81.6944 217.471 82.2928 217.431ZM98.2468 216.593C101.757 216.593 104.51 217.65 106.504 219.765C108.499 221.879 109.496 225.23 109.496 229.817H88.8524L88.7327 228.68H103.153C103.193 226.726 103.034 224.931 102.675 223.295C102.316 221.62 101.757 220.283 100.999 219.286C100.241 218.289 99.2441 217.79 98.0074 217.79C96.2921 217.79 94.7962 218.707 93.5197 220.542C92.283 222.338 91.5251 225.23 91.2459 229.219L91.4254 229.518C91.3855 230.076 91.3456 230.695 91.3057 231.373C91.2658 232.011 91.2459 232.649 91.2459 233.288C91.2459 236.04 91.6647 238.354 92.5024 240.229C93.3402 242.104 94.4372 243.52 95.7935 244.477C97.1498 245.395 98.526 245.854 99.9222 245.854C100.999 245.854 102.036 245.694 103.034 245.375C104.071 245.016 105.048 244.437 105.966 243.64C106.883 242.802 107.701 241.665 108.419 240.229L109.616 240.708C109.137 242.064 108.399 243.4 107.402 244.717C106.405 246.033 105.128 247.11 103.572 247.948C102.017 248.746 100.201 249.145 98.1271 249.145C95.3347 249.145 92.9014 248.526 90.827 247.29C88.7527 246.013 87.157 244.198 86.04 241.844C84.9231 239.491 84.3646 236.698 84.3646 233.467C84.3646 229.917 84.943 226.885 86.0999 224.372C87.2567 221.859 88.8723 219.944 90.9467 218.628C93.0609 217.271 95.4943 216.593 98.2468 216.593ZM128.457 216.593C131.968 216.593 134.72 217.65 136.715 219.765C138.709 221.879 139.707 225.23 139.707 229.817H119.063L118.943 228.68H133.364C133.404 226.726 133.244 224.931 132.885 223.295C132.526 221.62 131.968 220.283 131.21 219.286C130.452 218.289 129.455 217.79 128.218 217.79C126.503 217.79 125.007 218.707 123.73 220.542C122.494 222.338 121.736 225.23 121.457 229.219L121.636 229.518C121.596 230.076 121.556 230.695 121.516 231.373C121.476 232.011 121.457 232.649 121.457 233.288C121.457 236.04 121.875 238.354 122.713 240.229C123.551 242.104 124.648 243.52 126.004 244.477C127.36 245.395 128.737 245.854 130.133 245.854C131.21 245.854 132.247 245.694 133.244 245.375C134.282 245.016 135.259 244.437 136.176 243.64C137.094 242.802 137.912 241.665 138.63 240.229L139.826 240.708C139.348 242.064 138.61 243.4 137.612 244.717C136.615 246.033 135.339 247.11 133.783 247.948C132.227 248.746 130.412 249.145 128.338 249.145C125.545 249.145 123.112 248.526 121.038 247.29C118.963 246.013 117.368 244.198 116.251 241.844C115.134 239.491 114.575 236.698 114.575 233.467C114.575 229.917 115.154 226.885 116.311 224.372C117.467 221.859 119.083 219.944 121.157 218.628C123.272 217.271 125.705 216.593 128.457 216.593ZM154.3 207.558V217.491H162.557V218.688H154.3V242.203C154.3 243.839 154.599 244.996 155.198 245.674C155.796 246.352 156.654 246.691 157.771 246.691C158.808 246.691 159.725 246.272 160.523 245.435C161.361 244.597 162.079 243.181 162.677 241.186L163.814 241.605C163.335 243.719 162.478 245.514 161.241 246.99C160.044 248.426 158.269 249.145 155.916 249.145C154.559 249.145 153.422 248.965 152.505 248.606C151.587 248.287 150.79 247.808 150.111 247.17C149.234 246.252 148.635 245.155 148.316 243.879C147.997 242.602 147.838 240.907 147.838 238.793V218.688H142.333V217.491H147.838V208.755C149.074 208.715 150.231 208.615 151.308 208.455C152.385 208.256 153.382 207.957 154.3 207.558ZM204.563 248.307V247.11C205.92 247.03 206.937 246.871 207.615 246.631C208.293 246.392 208.732 245.913 208.932 245.195C209.171 244.477 209.291 243.4 209.291 241.964V212.285C209.291 210.809 209.171 209.732 208.932 209.054C208.732 208.336 208.273 207.857 207.555 207.618C206.877 207.338 205.88 207.179 204.563 207.139V205.942C205.561 205.982 206.797 206.022 208.273 206.062C209.789 206.102 211.285 206.122 212.761 206.122C214.437 206.122 215.992 206.102 217.428 206.062C218.865 206.022 220.021 205.982 220.899 205.942V207.139C219.583 207.179 218.585 207.338 217.907 207.618C217.229 207.857 216.77 208.336 216.531 209.054C216.292 209.732 216.172 210.809 216.172 212.285V241.964C216.172 243.4 216.292 244.477 216.531 245.195C216.77 245.913 217.229 246.392 217.907 246.631C218.585 246.871 219.583 247.03 220.899 247.11V248.307C220.021 248.227 218.865 248.187 217.428 248.187C215.992 248.147 214.437 248.127 212.761 248.127C211.285 248.127 209.789 248.147 208.273 248.187C206.797 248.187 205.561 248.227 204.563 248.307ZM179.432 248.307V247.11C180.788 247.03 181.806 246.871 182.484 246.631C183.162 246.392 183.601 245.913 183.8 245.195C184.039 244.477 184.159 243.4 184.159 241.964V212.285C184.159 210.809 184.039 209.732 183.8 209.054C183.601 208.336 183.142 207.857 182.424 207.618C181.746 207.338 180.748 207.179 179.432 207.139V205.942C180.349 205.982 181.526 206.022 182.962 206.062C184.438 206.102 186.014 206.122 187.689 206.122C189.205 206.122 190.681 206.102 192.117 206.062C193.593 206.022 194.81 205.982 195.767 205.942V207.139C194.451 207.179 193.454 207.338 192.776 207.618C192.097 207.857 191.639 208.336 191.399 209.054C191.16 209.732 191.04 210.809 191.04 212.285V241.964C191.04 243.4 191.16 244.477 191.399 245.195C191.639 245.913 192.097 246.392 192.776 246.631C193.454 246.871 194.451 247.03 195.767 247.11V248.307C194.81 248.227 193.593 248.187 192.117 248.187C190.681 248.147 189.205 248.127 187.689 248.127C186.014 248.127 184.438 248.147 182.962 248.187C181.526 248.187 180.349 248.227 179.432 248.307ZM188.348 227.603V226.406H211.983V227.603H188.348ZM238.785 216.593C241.457 216.593 243.831 217.152 245.905 218.269C247.98 219.386 249.635 221.141 250.872 223.534C252.108 225.928 252.727 229.059 252.727 232.929C252.727 236.798 252.108 239.93 250.872 242.323C249.635 244.677 247.98 246.412 245.905 247.529C243.831 248.606 241.457 249.145 238.785 249.145C236.152 249.145 233.778 248.606 231.664 247.529C229.55 246.412 227.874 244.677 226.638 242.323C225.441 239.93 224.843 236.798 224.843 232.929C224.843 229.059 225.441 225.928 226.638 223.534C227.874 221.141 229.55 219.386 231.664 218.269C233.778 217.152 236.152 216.593 238.785 216.593ZM238.785 217.79C236.71 217.79 235.015 218.987 233.698 221.38C232.382 223.734 231.724 227.583 231.724 232.929C231.724 238.274 232.382 242.124 233.698 244.477C235.015 246.791 236.71 247.948 238.785 247.948C240.819 247.948 242.495 246.791 243.811 244.477C245.167 242.124 245.845 238.274 245.845 232.929C245.845 227.583 245.167 223.734 243.811 221.38C242.495 218.987 240.819 217.79 238.785 217.79ZM277.362 216.593C278.878 216.593 280.155 216.813 281.192 217.251C282.229 217.65 283.067 218.209 283.705 218.927C284.423 219.685 284.922 220.702 285.201 221.979C285.48 223.215 285.62 224.791 285.62 226.706V242.742C285.62 244.417 285.939 245.554 286.577 246.153C287.215 246.751 288.292 247.05 289.808 247.05V248.307C289.13 248.267 288.073 248.227 286.637 248.187C285.241 248.107 283.864 248.067 282.508 248.067C281.152 248.067 279.815 248.107 278.499 248.187C277.223 248.227 276.245 248.267 275.567 248.307V247.05C276.883 247.05 277.801 246.751 278.32 246.153C278.878 245.554 279.157 244.417 279.157 242.742V225.03C279.157 223.873 279.077 222.836 278.918 221.919C278.758 220.961 278.379 220.203 277.781 219.645C277.223 219.047 276.325 218.747 275.088 218.747C273.692 218.747 272.436 219.166 271.319 220.004C270.242 220.842 269.364 221.999 268.686 223.474C268.048 224.911 267.728 226.526 267.728 228.321V242.742C267.728 244.417 268.008 245.554 268.566 246.153C269.125 246.751 270.042 247.05 271.319 247.05V248.307C270.68 248.267 269.723 248.227 268.446 248.187C267.17 248.107 265.854 248.067 264.497 248.067C263.141 248.067 261.725 248.107 260.249 248.187C258.773 248.227 257.676 248.267 256.958 248.307V247.05C258.514 247.05 259.611 246.751 260.249 246.153C260.927 245.554 261.266 244.417 261.266 242.742V223.953C261.266 222.158 260.967 220.842 260.368 220.004C259.77 219.126 258.633 218.688 256.958 218.688V217.431C258.234 217.551 259.471 217.61 260.668 217.61C262.024 217.61 263.281 217.551 264.437 217.431C265.634 217.271 266.731 217.052 267.728 216.773V223.295C268.766 220.902 270.142 219.186 271.857 218.149C273.612 217.112 275.447 216.593 277.362 216.593ZM295.373 216.593C296.889 216.593 298.165 216.813 299.203 217.251C300.24 217.65 301.078 218.209 301.716 218.927C302.434 219.685 302.932 220.702 303.212 221.979C303.491 223.215 303.631 224.791 303.631 226.706V242.742C303.631 244.417 303.95 245.554 304.588 246.153C305.266 246.751 306.383 247.05 307.939 247.05V248.307C307.261 248.267 306.204 248.227 304.767 248.187C303.331 248.107 301.915 248.067 300.519 248.067C299.163 248.067 297.826 248.107 296.51 248.187C295.233 248.227 294.256 248.267 293.578 248.307V247.05C294.894 247.05 295.812 246.751 296.33 246.153C296.889 245.554 297.168 244.417 297.168 242.742V225.03C297.168 223.873 297.088 222.836 296.929 221.919C296.769 220.961 296.39 220.203 295.792 219.645C295.194 219.047 294.256 218.747 292.98 218.747C291.583 218.747 290.327 219.186 289.21 220.064C288.133 220.901 287.255 222.058 286.577 223.534C285.939 224.97 285.62 226.586 285.62 228.381L285.38 223.415C286.457 220.782 287.893 218.987 289.689 218.029C291.524 217.072 293.418 216.593 295.373 216.593ZM325.265 216.593C328.775 216.593 331.528 217.65 333.522 219.765C335.517 221.879 336.514 225.23 336.514 229.817H315.871L315.751 228.68H330.172C330.211 226.726 330.052 224.931 329.693 223.295C329.334 221.62 328.775 220.283 328.017 219.286C327.259 218.289 326.262 217.79 325.026 217.79C323.31 217.79 321.814 218.707 320.538 220.542C319.301 222.338 318.543 225.23 318.264 229.219L318.444 229.518C318.404 230.076 318.364 230.695 318.324 231.373C318.284 232.011 318.264 232.649 318.264 233.288C318.264 236.04 318.683 238.354 319.521 240.229C320.358 242.104 321.455 243.52 322.812 244.477C324.168 245.395 325.544 245.854 326.94 245.854C328.017 245.854 329.055 245.694 330.052 245.375C331.089 245.016 332.066 244.437 332.984 243.64C333.901 242.802 334.719 241.665 335.437 240.229L336.634 240.708C336.155 242.064 335.417 243.4 334.42 244.717C333.423 246.033 332.146 247.11 330.59 247.948C329.035 248.746 327.22 249.145 325.145 249.145C322.353 249.145 319.919 248.526 317.845 247.29C315.771 246.013 314.175 244.198 313.058 241.844C311.941 239.491 311.383 236.698 311.383 233.467C311.383 229.917 311.961 226.885 313.118 224.372C314.275 221.859 315.89 219.944 317.965 218.628C320.079 217.271 322.512 216.593 325.265 216.593Z" fill="#051827"/>
</svg>
