<svg width="284" height="301" viewBox="0 0 284 301" fill="none" xmlns="http://www.w3.org/2000/svg">
<path d="M18.6653 291.192H9.65793V265.671H0V257.664H28.3233V265.671H18.6653V291.192Z" fill="#051827"/>
<path d="M38.6747 291.692C30.7682 291.692 25.8142 286.188 25.8142 278.832C25.8142 271.476 30.7682 265.971 38.6747 265.971C46.9815 265.971 51.9356 271.476 51.9356 278.832C51.9356 286.188 46.9815 291.692 38.6747 291.692ZM38.8749 284.486C41.1768 284.486 42.7781 283.135 42.7781 278.832C42.7781 274.528 41.1768 273.177 38.8749 273.177C36.573 273.177 34.9717 274.528 34.9717 278.832C34.9717 283.135 36.573 284.486 38.8749 284.486Z" fill="#051827"/>
<path d="M63.8239 291.192H54.8165V266.472H63.8239V274.828C64.5745 270.575 66.9265 265.971 71.9806 265.971C76.2841 265.971 77.8855 268.673 77.8855 272.777C77.8855 275.779 76.8846 278.331 76.1841 279.582H67.9273C68.828 278.531 69.8288 276.63 69.8288 275.129C69.8288 273.727 69.2283 272.777 67.7772 272.777C65.7255 272.777 63.8239 274.728 63.8239 278.732V291.192Z" fill="#051827"/>
<path d="M89.1376 291.192H80.1302V257.664H89.1376V273.778C89.7882 269.674 91.6397 265.971 96.944 265.971C102.348 265.971 106.001 270.375 106.001 278.832C106.001 287.289 102.348 291.692 96.4436 291.692C91.1393 291.692 89.7381 288.039 89.1376 283.986V291.192ZM89.1376 279.933C89.1376 283.936 90.739 284.887 92.6405 284.887C95.5429 284.887 96.844 282.485 96.844 278.832C96.844 275.179 95.5429 272.777 92.6405 272.777C90.739 272.777 89.1376 273.727 89.1376 277.731V279.933Z" fill="#051827"/>
<path d="M114.27 291.742C110.667 291.742 107.815 289.941 107.815 285.487C107.815 281.484 110.067 279.282 115.571 277.581L122.227 275.529C121.977 274.128 121.226 273.527 119.224 273.527C116.372 273.527 113.169 275.079 111.118 277.38L107.115 270.775C110.217 267.973 114.571 265.971 119.725 265.971C126.08 265.971 129.983 269.074 129.983 275.429V282.885C129.983 283.986 130.284 284.336 131.184 284.336H132.635V291.192H127.531C124.729 291.192 121.977 289.991 121.977 286.488V284.586C121.226 287.789 119.325 291.742 114.27 291.742ZM115.822 284.236C115.822 285.037 116.422 285.487 117.723 285.487C120.676 285.487 121.977 284.336 121.977 281.784V281.033L117.923 282.485C116.222 283.085 115.822 283.586 115.822 284.236Z" fill="#051827"/>
<path d="M165.933 291.192H142.414V284.887L147.968 279.032L155.174 273.077L146.117 273.527H142.914V266.472H165.433V272.777L159.578 278.081L151.922 284.536L161.079 284.136H165.933V291.192Z" fill="#051827"/>
<path d="M202.598 291.192H177.427V257.664H186.434V283.185H202.598V291.192Z" fill="#051827"/>
<path d="M216.164 291.692C208.258 291.692 203.304 286.188 203.304 278.832C203.304 271.476 208.258 265.971 216.164 265.971C224.471 265.971 229.425 271.476 229.425 278.832C229.425 286.188 224.471 291.692 216.164 291.692ZM216.364 284.486C218.666 284.486 220.268 283.135 220.268 278.832C220.268 274.528 218.666 273.177 216.364 273.177C214.062 273.177 212.461 274.528 212.461 278.832C212.461 283.135 214.062 284.486 216.364 284.486Z" fill="#051827"/>
<path d="M243.527 284.286C241.125 284.286 239.023 283.836 237.272 283.035C237.072 283.435 236.921 283.886 236.921 284.386C236.921 285.437 237.472 286.088 239.123 286.088H248.631C254.786 286.088 257.038 288.64 257.038 292.193C257.038 296.846 252.584 301 241.775 301C233.218 301 229.315 298.648 229.315 295.896C229.315 293.444 232.068 292.293 235.821 292.243C233.319 291.842 231.217 290.792 231.217 288.239C231.217 285.487 233.769 283.385 236.121 282.385C233.519 280.783 232.017 278.231 232.017 275.129C232.017 269.674 236.621 265.971 243.527 265.971C244.928 265.971 246.179 266.121 247.38 266.421L248.281 260.417L255.787 262.919L250.933 267.823C253.535 269.424 255.036 271.976 255.036 275.129C255.036 280.583 250.433 284.286 243.527 284.286ZM243.527 278.581C245.328 278.581 246.73 277.531 246.73 275.129C246.73 272.727 245.328 271.676 243.527 271.676C241.725 271.676 240.324 272.727 240.324 275.129C240.324 277.531 241.725 278.581 243.527 278.581ZM242.776 294.945C247.38 294.945 249.482 294.344 249.482 293.244C249.482 292.443 248.731 292.243 247.23 292.243H236.571C236.521 292.393 236.471 292.593 236.471 292.843C236.471 294.194 238.022 294.945 242.776 294.945Z" fill="#051827"/>
<path d="M270.213 291.692C262.306 291.692 257.352 286.188 257.352 278.832C257.352 271.476 262.306 265.971 270.213 265.971C278.519 265.971 283.473 271.476 283.473 278.832C283.473 286.188 278.519 291.692 270.213 291.692ZM270.413 284.486C272.715 284.486 274.316 283.135 274.316 278.832C274.316 274.528 272.715 273.177 270.413 273.177C268.111 273.177 266.509 274.528 266.509 278.832C266.509 283.135 268.111 284.486 270.413 284.486Z" fill="#051827"/>
<path d="M39.0449 28.1975C39.88 14.8359 40.2975 8.15509 44.6379 4.07755C48.9782 0 55.6721 0 69.0597 0H84.1347H141.905H199.675H214.749C228.137 0 234.831 0 239.171 4.07755C243.512 8.15509 243.929 14.8359 244.764 28.1975L252.12 145.882C254.616 185.823 255.864 205.794 243.987 218.437C232.109 231.08 212.099 231.08 172.08 231.08H111.729C71.7097 231.08 51.7 231.08 39.8226 218.437C27.9451 205.794 29.1933 185.823 31.6896 145.881L39.0449 28.1975Z" fill="#051827"/>
<path d="M199.152 22.8975C200.816 23.8589 201.394 25.9937 200.351 27.6089C194.377 36.8614 186.284 44.5787 176.724 50.1081C166.158 56.2191 154.173 59.4427 141.969 59.4555C129.765 59.4683 117.772 56.2698 107.194 50.1809C97.6228 44.6716 89.5137 36.9713 83.5203 27.7313C82.474 26.1183 83.0471 23.9823 84.7094 23.0174C86.3717 22.0524 88.4929 22.6248 89.5481 24.2319C94.923 32.4184 102.151 39.2446 110.664 44.1449C120.185 49.6249 130.978 52.5036 141.962 52.4921C152.945 52.4805 163.732 49.5793 173.241 44.0794C181.744 39.1612 188.958 32.3198 194.316 24.1221C195.367 22.5128 197.488 21.936 199.152 22.8975Z" fill="#00FF9C"/>
<path d="M102.947 24.1225C104.426 23.2679 104.95 21.3566 103.884 20.0207C102.286 18.0165 100.322 16.3208 98.0874 15.0285C94.9569 13.2178 91.4055 12.2627 87.7896 12.2589C84.1737 12.2551 80.6203 13.2028 77.486 15.0069C75.249 16.2946 73.2815 17.9861 71.6787 19.987C70.6103 21.3206 71.1299 23.233 72.6075 24.0907C74.085 24.9485 75.9569 24.4152 77.1087 23.153C78.1083 22.0575 79.2749 21.1181 80.5706 20.3722C82.7646 19.1093 85.252 18.446 87.7831 18.4486C90.3143 18.4513 92.8002 19.1199 94.9916 20.3873C96.2858 21.1359 97.4503 22.0778 98.4477 23.1753C99.5969 24.44 101.468 24.9771 102.947 24.1225Z" fill="#00FF9C"/>
<path d="M211.203 24.1225C212.682 23.2679 213.206 21.3566 212.14 20.0207C210.542 18.0165 208.578 16.3208 206.343 15.0285C203.213 13.2178 199.661 12.2627 196.045 12.2589C192.43 12.2551 188.876 13.2028 185.742 15.0069C183.505 16.2946 181.537 17.9861 179.935 19.987C178.866 21.3206 179.386 23.233 180.863 24.0907C182.341 24.9485 184.213 24.4152 185.365 23.153C186.364 22.0575 187.531 21.1181 188.826 20.3722C191.02 19.1093 193.508 18.446 196.039 18.4486C198.57 18.4513 201.056 19.1199 203.247 20.3873C204.542 21.1359 205.706 22.0778 206.704 23.1753C207.853 24.44 209.723 24.9771 211.203 24.1225Z" fill="#00FF9C"/>
<path d="M161.796 139.768C160.477 139.768 159.239 139.254 158.292 138.313C157.691 137.719 157.258 136.969 157.053 136.196C156.874 135.44 156.496 134.747 155.957 134.196C154.298 132.462 151.53 132.407 149.753 134.109L142.026 141.817L135.754 135.564C136.769 135.063 137.698 134.4 138.491 133.608L138.54 133.558C139.878 132.227 140.831 130.562 141.308 128.741C142.02 126.005 141.617 123.157 140.187 120.724C138.751 118.291 136.454 116.563 133.717 115.851C130.974 115.146 128.126 115.542 125.686 116.978C123.884 118.037 122.46 119.566 121.556 121.399L114.182 114.05L139.655 88.6415C140.974 87.3227 143.122 87.3227 144.447 88.6415L169.889 114.019L161.121 122.767C160.614 123.275 160.236 123.9 160.025 124.587C159.679 125.702 159.796 126.89 160.347 127.918C160.898 128.952 161.815 129.707 162.991 130.06C163.01 130.066 163.028 130.073 163.053 130.079C163.901 130.302 164.681 130.747 165.307 131.366C166.236 132.295 166.75 133.533 166.743 134.846C166.743 136.158 166.229 137.397 165.294 138.325C164.36 139.26 163.115 139.768 161.796 139.768Z" fill="#00FF9C"/>
<path d="M132.001 151.859C129.827 147.47 124.781 145.037 119.846 146.312C117.11 147.018 114.806 148.751 113.376 151.184C111.94 153.617 111.543 156.465 112.255 159.196C112.732 161.022 113.692 162.687 115.017 164.012C115.834 164.83 116.775 165.504 117.816 166.018L110.441 173.373L84.9625 147.959C84.3248 147.321 83.978 146.479 83.978 145.575C83.978 144.671 84.3248 143.829 84.9625 143.192L110.41 117.808L119.165 126.544C119.989 127.373 121.085 127.838 122.255 127.844C123.419 127.838 124.527 127.404 125.376 126.568C125.896 126.048 126.261 125.442 126.484 124.723C126.49 124.705 126.502 124.649 126.509 124.637C126.837 123.361 127.648 122.296 128.781 121.628C129.92 120.959 131.252 120.773 132.527 121.108C133.809 121.442 134.88 122.247 135.549 123.38C136.217 124.513 136.403 125.838 136.075 127.113C135.852 127.961 135.406 128.735 134.762 129.379C134.162 129.974 133.419 130.401 132.645 130.605C131.518 130.871 130.564 131.565 129.957 132.543C129.338 133.533 129.146 134.704 129.419 135.837C129.592 136.598 129.976 137.298 130.502 137.842C130.515 137.861 130.546 137.886 130.558 137.898L138.279 145.6L132.001 151.859Z" fill="#00FF9C"/>
<path d="M162.544 169.752L169.918 177.107L144.445 202.509C143.127 203.828 140.972 203.828 139.653 202.509L114.211 177.131L123.01 168.359C123.01 168.359 123.053 168.315 123.072 168.29C123.617 167.727 123.994 167.027 124.174 166.272C124.44 165.139 124.248 163.969 123.635 162.978C123.028 162 122.075 161.313 120.985 161.047C120.162 160.836 119.412 160.403 118.806 159.79C118.18 159.171 117.734 158.391 117.518 157.543C117.183 156.273 117.369 154.949 118.038 153.816C118.707 152.676 119.778 151.872 121.059 151.543C123.685 150.862 126.372 152.423 127.084 155.079C127.09 155.116 127.103 155.147 127.109 155.178C127.325 155.877 127.709 156.515 128.229 157.023C129.059 157.84 130.18 158.292 131.338 158.279C132.489 158.267 133.573 157.815 134.39 157.004L142.074 149.333L148.352 155.592C147.331 156.1 146.396 156.763 145.585 157.567C145.572 157.58 145.566 157.592 145.554 157.598C143.554 159.598 142.458 162.254 142.458 165.083C142.458 167.913 143.56 170.563 145.56 172.556C147.56 174.543 150.21 175.639 153.027 175.639H153.052C155.863 175.633 158.513 174.543 160.507 172.569C160.513 172.562 160.519 172.556 160.525 172.55C161.355 171.733 162.036 170.792 162.544 169.752Z" fill="#00FF9C"/>
<path d="M199.824 145.445C199.824 146.349 199.478 147.197 198.84 147.829L173.392 173.212L164.588 164.433C164.588 164.433 164.544 164.39 164.52 164.371C162.823 162.743 160.086 162.768 158.421 164.433C158.408 164.439 158.365 164.489 158.353 164.495C157.82 165.052 157.442 165.74 157.269 166.458C157.059 167.269 156.631 168.012 156.031 168.606C156.025 168.619 156.012 168.625 156.006 168.631C154.08 170.55 150.947 170.55 149.022 168.631C148.087 167.702 147.573 166.464 147.573 165.145C147.573 163.827 148.081 162.595 149.016 161.666C149.635 161.047 150.415 160.601 151.251 160.384C151.282 160.378 151.35 160.36 151.381 160.347C152.501 160.007 153.418 159.251 153.969 158.217C154.52 157.19 154.631 156.007 154.291 154.893C154.08 154.199 153.696 153.568 153.189 153.066L145.523 145.42L151.796 139.161C152.303 140.189 152.984 141.13 153.802 141.941C155.802 143.941 158.458 145.043 161.287 145.049H161.3C164.129 145.049 166.779 143.953 168.786 141.953C170.785 139.96 171.888 137.31 171.888 134.487C171.888 131.664 170.792 129.008 168.792 127.008C167.968 126.191 167.021 125.516 165.993 125.002L173.367 117.653L198.766 142.987L198.84 143.062C199.478 143.699 199.824 144.547 199.824 145.445Z" fill="#00FF9C"/>
</svg>
